<svg width="56" height="56" viewBox="0 0 56 56" fill="none" xmlns="http://www.w3.org/2000/svg">
<g clip-path="url(#clip0_16_631)">
<path d="M12.8345 16L11.9073 16.969L5.96904 22.9073L5 23.8345L14.6877 33.5209L7.9489 40.2597L7.86399 40.6815L6.38954 48.0942L5.96904 50.0727L7.9489 49.6522L15.3616 48.1778L15.7821 48.0929L22.5209 41.3541L32.1655 51L33.0927 50.031L39.031 44.0927L40 43.1655L30.3541 33.5209L37.0093 26.8656C37.5249 26.352 37.934 25.7416 38.2131 25.0695C38.4923 24.3974 38.6359 23.6768 38.6359 22.9491C38.6359 22.2213 38.4923 21.5007 38.2131 20.8286C37.934 20.1565 37.5249 19.5461 37.0093 19.0325C36.4967 18.5144 35.8868 18.1026 35.2147 17.8207C34.5427 17.5388 33.8215 17.3923 33.0927 17.3895C32.3637 17.3921 31.6423 17.5385 30.97 17.8205C30.2977 18.1024 29.6876 18.5143 29.1748 19.0325L22.5209 25.6877L12.8345 16ZM12.8345 19.833L15.4451 22.4854L13.4653 24.4666L15.4034 26.4034L17.3832 24.4235L20.5828 27.6244L16.5827 31.6259L8.79125 23.8345L12.8345 19.833ZM33.0914 20.0015C33.7922 20.0015 34.5038 20.3169 35.113 20.9274C36.33 22.1444 36.33 23.7132 35.113 24.9289L34.2302 25.813L30.2274 21.8115L31.1129 20.9274C31.7234 20.3169 32.3932 20.0015 33.0927 20.0015H33.0914ZM28.3338 23.7078L32.3339 27.7093L16.0355 44.0065C15.1434 42.2939 13.7458 40.8973 12.0326 40.0063L28.3338 23.7078ZM28.4591 35.4158L31.6601 38.6168L29.6384 40.6384L31.5765 42.5765L33.5981 40.5549L36.167 43.1237L32.1237 47.167L24.4158 39.4591L28.4591 35.4158ZM10.3075 42.1546C11.9234 42.8337 13.2086 44.1194 13.8871 45.7356L9.422 46.6198L10.3075 42.1546Z" fill="white"/>
<path d="M43 1V11H33V13H43V23H45V13H55V11H45V1H43Z" fill="white"/>
</g>
<defs>
<clipPath id="clip0_16_631">
<rect width="56" height="56" fill="white"/>
</clipPath>
</defs>
</svg>
