<svg width="32" height="32" viewBox="0 0 32 32" fill="none" xmlns="http://www.w3.org/2000/svg">
<path d="M11.5 6L11.187 6.406L10 8H3V26H29V8H22L20.812 6.406L20.5 6H11.5ZM12.5 8H19.5L20.688 9.594L21 10H27V24H5V10H11L11.313 9.594L12.5 8ZM8 11C7.45 11 7 11.45 7 12C7 12.55 7.45 13 8 13C8.55 13 9 12.55 9 12C9 11.45 8.55 11 8 11ZM16 11C12.7 11 10 13.7 10 17C10 20.3 12.7 23 16 23C19.3 23 22 20.3 22 17C22 13.7 19.3 11 16 11ZM16 13C18.223 13 20 14.777 20 17C20 19.223 18.223 21 16 21C13.777 21 12 19.223 12 17C12 14.777 13.777 13 16 13Z" fill="white"/>
</svg>
