<svg width="24" height="24" viewBox="0 0 24 24" fill="none" xmlns="http://www.w3.org/2000/svg">
<g clip-path="url(#clip0_11_27)">
<path d="M24 11.598V12.4027L23.9768 12.5317C23.9378 12.8835 23.91 13.2352 23.856 13.5787C23.6716 14.6933 23.2722 15.7614 22.68 16.7235C21.8091 18.1693 20.5431 19.3361 19.0313 20.0865C18.1513 20.5285 17.2006 20.8128 16.2225 20.9265C16.0035 20.9535 15.7853 20.9775 15.57 21.0007H7.13625C7.0935 20.9932 7.0545 20.9812 7.011 20.9775C6.16532 20.9263 5.33568 20.7239 4.5615 20.3797C2.862 19.6222 1.59675 18.399 0.768752 16.716C0.404776 15.9704 0.168495 15.169 0.0697523 14.3452L-0.000747681 13.7437V12.9622C0.00675232 12.9195 0.0187523 12.876 0.0225023 12.8332C0.0652523 12.087 0.217502 11.3565 0.483752 10.6575C1.1985 8.77875 2.44875 7.38375 4.22175 6.47775C5.13145 6.01681 6.12874 5.75452 7.1475 5.70825C7.6515 5.685 8.1555 5.70825 8.65125 5.77875C8.67736 5.78177 8.70381 5.77912 8.7288 5.77096C8.75378 5.76281 8.77671 5.74934 8.796 5.7315C9.50473 4.99172 10.336 4.37997 11.253 3.92325C12.1379 3.47819 13.0938 3.19137 14.0775 3.07575C14.3123 3.04875 14.5463 3.02475 14.7765 3.0015H15.495C15.5423 3.009 15.5925 3.01725 15.636 3.021C15.9953 3.06375 16.3508 3.0915 16.7063 3.15375C17.796 3.34125 18.843 3.74325 19.7768 4.33725C21.2147 5.23396 22.3667 6.52276 23.097 8.052C23.5343 8.9505 23.8155 9.9195 23.9288 10.9117L23.9993 11.5995L24 11.598ZM10.578 6.39825C10.5938 6.41775 10.5975 6.42975 10.605 6.42975C11.097 6.6795 11.5695 6.969 12.015 7.29675C12.042 7.31625 12.1125 7.30875 12.1478 7.28925C13.3665 6.50025 14.6948 6.231 16.1168 6.4845C17.511 6.73875 18.648 7.44525 19.515 8.5785C20.4953 9.8595 20.8703 11.3092 20.601 12.918C20.4173 13.9965 19.9913 14.9685 19.269 15.7777C17.949 17.2582 16.296 17.8717 14.3513 17.6137C13.1558 17.4532 12.1208 16.926 11.265 16.047C10.167 14.922 9.0615 13.8007 7.9605 12.6757C7.812 12.5235 7.65225 12.4065 7.44075 12.3787C7.26367 12.3542 7.08342 12.3878 6.92708 12.4745C6.77074 12.5612 6.64675 12.6963 6.57375 12.8595C6.43275 13.1565 6.453 13.4962 6.76125 13.8045C7.9875 15.0307 9.2025 16.269 10.4295 17.496C10.6403 17.7067 10.8668 17.9025 11.1053 18.078C12 18.738 13.0118 19.1055 14.1053 19.254C14.9648 19.3672 15.816 19.344 16.6598 19.1482C18.273 18.7807 19.6088 17.9452 20.6595 16.6522C21.5196 15.6023 22.0653 14.3307 22.2338 12.984C22.3421 12.1981 22.3211 11.3998 22.1715 10.6207C21.9255 9.351 21.3983 8.21475 20.5508 7.24575C18.9338 5.39775 16.8983 4.5735 14.4765 4.75725C13.5508 4.83544 12.6515 5.10542 11.8358 5.55C11.3877 5.78527 10.9671 6.06951 10.5818 6.3975L10.578 6.39825ZM9.9885 19.2892C9.95325 19.2577 9.92175 19.227 9.88725 19.1955C9.387 18.7147 8.883 18.2347 8.38725 17.7465C8.34698 17.7019 8.29748 17.6665 8.24217 17.643C8.18687 17.6194 8.12709 17.6081 8.067 17.61C7.563 17.622 7.06275 17.6257 6.567 17.5125C4.10625 16.9462 2.676 14.2237 3.58275 11.829C4.2975 9.942 6.27825 8.79375 8.23125 9.1455C9.1065 9.306 9.876 9.68475 10.5083 10.3447C11.2778 11.1532 12.0668 11.9347 12.8483 12.7357C13.0238 12.9157 13.227 13.0012 13.473 12.966C13.7858 12.9187 14.0393 12.7665 14.1525 12.45C14.2658 12.1372 14.211 11.8447 13.9808 11.6062C13.164 10.7662 12.3675 9.903 11.52 9.09825C9.8715 7.536 7.9305 7.071 5.78175 7.73475C2.895 8.6295 1.20375 11.6602 1.86375 14.6527C2.46525 17.3835 4.81275 19.2937 7.5555 19.2975H9.8565C9.89175 19.2975 9.93075 19.2937 9.98925 19.29L9.9885 19.2892Z" fill="#FAFAFA"/>
</g>
<defs>
<clipPath id="clip0_11_27">
<rect width="24" height="24" fill="white"/>
</clipPath>
</defs>
</svg>
