<svg width="32" height="32" viewBox="0 0 32 32" fill="none" xmlns="http://www.w3.org/2000/svg">
<path d="M23.9062 3.96899C23.3654 3.9703 22.8301 4.0787 22.3313 4.28792C21.8326 4.49714 21.3802 4.80305 21.0002 5.18799L5.18724 21L5.12524 21.313L4.03124 26.813L3.71924 28.281L5.18824 27.969L10.6882 26.875L11.0002 26.812L26.8132 11C27.1992 10.6207 27.5057 10.1684 27.715 9.66934C27.9243 9.17032 28.032 8.63462 28.032 8.09349C28.032 7.55237 27.9243 7.01667 27.715 6.51764C27.5057 6.01862 27.1992 5.56627 26.8132 5.18699C26.4331 4.80211 25.9805 4.49631 25.4816 4.28726C24.9826 4.07821 24.4472 3.97004 23.9062 3.96899V3.96899ZM23.9062 5.87499C24.4102 5.87499 24.9182 6.10499 25.4062 6.59399C26.3792 7.56599 26.3792 8.62099 25.4062 9.59399L24.6882 10.281L21.7182 7.31199L22.4062 6.59399C22.8952 6.10499 23.4022 5.87499 23.9062 5.87499V5.87499ZM20.3132 8.71899L23.2812 11.688L11.1882 23.78C10.5354 22.5027 9.49601 21.464 8.21824 20.812L20.3132 8.71899ZM6.93824 22.438C7.53008 22.6761 8.06769 23.0314 8.51878 23.4825C8.96987 23.9335 9.32514 24.4712 9.56324 25.063L6.28124 25.719L6.93824 22.438Z" fill="#455A64"/>
</svg>
