<svg width="88" height="76" viewBox="0 0 88 76" fill="none" xmlns="http://www.w3.org/2000/svg">
<path fill-rule="evenodd" clip-rule="evenodd" d="M46.9683 0.608573C44.6401 -0.228156 42.0912 -0.201285 39.781 0.684337L10.543 11.8929C9.91785 12.1326 9.37529 12.5495 8.98116 13.093L1.99368 22.729C-1.92154 28.1282 0.154802 35.7841 6.25424 38.4386L8.31768 39.3367V54.2166C8.31768 58.3758 10.7767 62.1371 14.5746 63.7872L42.0278 75.7148C42.8777 76.0841 43.8395 76.0952 44.6977 75.7456L74.1126 63.7644C78.0276 62.1698 80.5894 58.3477 80.5894 54.1013V37.8679L81.7962 37.3351C87.8242 34.6734 89.8916 27.1123 86.0638 21.7274L79.945 13.1196C79.5352 12.5431 78.9598 12.1062 78.296 11.8677L46.9683 0.608573ZM15.2321 54.2166V42.3459L26.1217 47.0852C31.1037 49.2534 36.906 47.1928 39.4275 42.3597L39.9422 41.3732V67.2365L17.3177 57.4068C16.0518 56.8568 15.2321 55.603 15.2321 54.2166ZM46.8566 67.3666V42.8788C49.5289 47.2197 55.024 49.0281 59.7981 46.9462L73.6749 40.8946V54.1013C73.6749 55.5168 72.821 56.7908 71.516 57.3224L46.8566 67.3666ZM79.0155 30.9711L75.7563 32.4102L75.7418 32.4166L57.0463 40.5696C55.324 41.3206 53.3202 40.5527 52.5324 38.8397L48.1247 29.2562L75.8374 19.2964L80.4381 25.7685C81.714 27.5635 81.0249 30.0839 79.0155 30.9711ZM66.8627 15.1402L43.438 23.559L21.4774 15.1402L42.2448 7.1789C43.0149 6.88369 43.8645 6.87473 44.6405 7.15364L66.8627 15.1402ZM7.58114 26.8234L13.012 19.334L38.5291 29.1161L33.3041 39.1314C32.4636 40.7424 30.5295 41.4293 28.8688 40.7066L9.00134 32.06C6.96818 31.1751 6.27608 28.6232 7.58114 26.8234Z" fill="white"/>
</svg>
