<svg width="160" height="160" viewBox="0 0 160 160" fill="none" xmlns="http://www.w3.org/2000/svg">
<!-- <g filter="url(#filter0_d_622_388)"> -->
<path d="M44.065 15L40.625 18.595L18.595 40.625L15 44.065L50.94 80L25.94 105L25.625 106.565L20.155 134.065L18.595 141.405L25.94 139.845L53.44 134.375L55 134.06L80 109.06L115.78 144.845L119.22 141.25L141.25 119.22L144.845 115.78L109.06 80L133.75 55.31C135.663 53.4045 137.18 51.1401 138.216 48.6466C139.251 46.1532 139.785 43.4799 139.785 40.78C139.785 38.0801 139.251 35.4068 138.216 32.9134C137.18 30.4199 135.663 28.1555 133.75 26.25C131.848 24.3281 129.586 22.8005 127.092 21.7546C124.599 20.7087 121.924 20.1651 119.22 20.155C116.515 20.1645 113.839 20.7077 111.345 21.7536C108.851 22.7995 106.587 24.3275 104.685 26.25L80 50.94L44.065 15ZM44.065 29.22L53.75 39.06L46.405 46.41L53.595 53.595L60.94 46.25L72.81 58.125L57.97 72.97L29.065 44.065L44.065 29.22ZM119.215 29.845C121.815 29.845 124.455 31.015 126.715 33.28C131.23 37.795 131.23 43.615 126.715 48.125L123.44 51.405L108.59 36.56L111.875 33.28C114.14 31.015 116.625 29.845 119.22 29.845H119.215ZM101.565 43.595L116.405 58.44L55.94 118.9C52.6304 112.546 47.4458 107.365 41.09 104.06L101.565 43.595ZM102.03 87.03L113.905 98.905L106.405 106.405L113.595 113.595L121.095 106.095L130.625 115.625L115.625 130.625L87.03 102.03L102.03 87.03ZM34.69 112.03C40.6849 114.549 45.4529 119.319 47.97 125.315L31.405 128.595L34.69 112.03Z" fill="#263238"/>
<!-- </g> -->
<defs>
<filter id="filter0_d_622_388" x="11" y="15" width="137.845" height="137.845" filterUnits="userSpaceOnUse" color-interpolation-filters="sRGB">
<feFlood flood-opacity="0" result="BackgroundImageFix"/>
<feColorMatrix in="SourceAlpha" type="matrix" values="0 0 0 0 0 0 0 0 0 0 0 0 0 0 0 0 0 0 127 0" result="hardAlpha"/>
<feOffset dy="4"/>
<feGaussianBlur stdDeviation="2"/>
<feComposite in2="hardAlpha" operator="out"/>
<feColorMatrix type="matrix" values="0 0 0 0 0 0 0 0 0 0 0 0 0 0 0 0 0 0 0.25 0"/>
<feBlend mode="normal" in2="BackgroundImageFix" result="effect1_dropShadow_622_388"/>
<feBlend mode="normal" in="SourceGraphic" in2="effect1_dropShadow_622_388" result="shape"/>
</filter>
</defs>
</svg>
