<svg width="126" height="126" viewBox="0 0 126 126" fill="none" xmlns="http://www.w3.org/2000/svg">
<path d="M78.75 11.8125C59.2791 11.8125 43.3125 27.7791 43.3125 47.25C43.3125 49.2975 43.6511 51.0969 43.9268 52.9121L12.9189 83.79L11.8125 85.0264V114.188H39.375V102.375H51.1875V90.5625H63V78.8721C67.6463 81.1479 73.0603 82.6875 78.75 82.6875C98.2209 82.6875 114.188 66.7209 114.188 47.25C114.188 27.7791 98.2209 11.8125 78.75 11.8125ZM78.75 19.6875C93.9291 19.6875 106.312 32.0709 106.312 47.25C106.312 62.4291 93.9291 74.8125 78.75 74.8125C74.0668 74.7652 69.465 73.583 65.3389 71.3672L64.3545 70.875H55.125V82.6875H43.3125V94.5H31.5V106.312H19.6875V88.3457L50.8174 57.0938L52.2939 55.7393L51.9238 53.6484C51.5261 51.2781 51.1875 49.1715 51.1875 47.25C51.1875 32.0709 63.5709 19.6875 78.75 19.6875ZM86.625 31.5C84.5364 31.5 82.5334 32.3297 81.0565 33.8065C79.5797 35.2834 78.75 37.2864 78.75 39.375C78.75 41.4636 79.5797 43.4666 81.0565 44.9435C82.5334 46.4203 84.5364 47.25 86.625 47.25C88.7136 47.25 90.7166 46.4203 92.1935 44.9435C93.6703 43.4666 94.5 41.4636 94.5 39.375C94.5 37.2864 93.6703 35.2834 92.1935 33.8065C90.7166 32.3297 88.7136 31.5 86.625 31.5Z" fill="white"/>
</svg>
