<svg width="126" height="126" viewBox="0 0 126 126" fill="none" xmlns="http://www.w3.org/2000/svg">
<path d="M78.75 11.8125C59.2791 11.8125 43.3125 27.7791 43.3125 47.25C43.3125 49.2975 43.6511 51.0969 43.9268 52.9121L12.9189 83.79L11.8125 85.0264V114.188H39.375V102.375H51.1875V90.5625H63V78.8721C67.6463 81.1479 73.0603 82.6875 78.75 82.6875C98.2209 82.6875 114.188 66.7209 114.188 47.25C114.188 27.7791 98.2209 11.8125 78.75 11.8125ZM78.75 19.6875C93.9291 19.6875 106.312 32.0709 106.312 47.25C106.312 62.4291 93.9291 74.8125 78.75 74.8125C74.0668 74.7652 69.465 73.583 65.3389 71.3672L64.3545 70.875H55.125V82.6875H43.3125V94.5H31.5V106.312H19.6875V88.3457L50.8174 57.0938L52.2939 55.7393L51.9238 53.6484C51.5261 51.2781 51.1875 49.1715 51.1875 47.25C51.1875 32.0709 63.5709 19.6875 78.75 19.6875ZM86.625 31.5C84.5364 31.5 82.5334 32.3297 81.0565 33.8065C79.5797 35.2834 78.75 37.2864 78.75 39.375C78.75 41.4636 79.5797 43.4666 81.0565 44.9435C82.5334 46.4203 84.5364 47.25 86.625 47.25C88.7136 47.25 90.7166 46.4203 92.1935 44.9435C93.6703 43.4666 94.5 41.4636 94.5 39.375C94.5 37.2864 93.6703 35.2834 92.1935 33.8065C90.7166 32.3297 88.7136 31.5 86.625 31.5Z" fill="white"/>
<path d="M28 7C20.426 7 14 12.3463 14 19.25V24.5H24.5V19.25C24.5 18.991 24.6575 18.6147 25.2665 18.2105C25.8737 17.808 26.866 17.5 28 17.5C29.141 17.5 30.1332 17.808 30.7352 18.2105C31.3355 18.613 31.5 18.963 31.5 19.25C31.5 20.2615 31.171 20.965 30.5148 21.7665C29.8585 22.5662 28.84 23.394 27.727 24.3355C25.4905 26.229 22.75 28.868 22.75 33.25V35H33.25V33.25C33.25 32.655 33.4688 32.2385 34.125 31.5543C34.7812 30.8717 35.868 30.065 37.023 29.0938C39.333 27.1513 42 24.178 42 19.25C42 12.4075 35.588 7 28 7ZM28 10.5C33.9412 10.5 38.5 14.6423 38.5 19.25C38.5 23.0037 36.7902 24.6785 34.727 26.4145C33.6945 27.2825 32.5938 28.1295 31.6085 29.148C31.0013 29.778 30.5287 30.597 30.1875 31.5H26.796C27.3438 29.729 28.4095 28.3833 30.023 27.0148C31.0975 26.1135 32.2665 25.1702 33.25 23.9523C34.2353 22.736 35 21.1435 35 19.25C35 17.57 34.0025 16.1735 32.7023 15.3125C31.4038 14.4515 29.7587 14 28 14C26.236 14 24.5875 14.4515 23.296 15.3125C22.0063 16.1735 21 17.5752 21 19.25V21H17.5V19.25C17.5 14.553 22.0465 10.5 28 10.5ZM22.75 38.5V49H33.25V38.5H22.75ZM26.25 42H29.75V45.5H26.25V42Z" fill="white"/>
</svg>
