<svg width="126" height="126" viewBox="0 0 126 126" fill="none" xmlns="http://www.w3.org/2000/svg">
<g clip-path="url(#clip0_11_52)">
<mask id="mask0_11_52" style="mask-type:alpha" maskUnits="userSpaceOnUse" x="-12" y="-12" width="150" height="150">
<circle cx="63" cy="63" r="75" fill="#0085A6"/>
</mask>
<g mask="url(#mask0_11_52)">
<path d="M62.5 0C40.3338 0 22.25 17.8693 22.25 39.7727C22.25 53.4659 29.3225 65.625 40.0405 72.8011C19.5302 81.4943 5 101.608 5 125H16.5C16.5 99.8295 37.0275 79.5455 62.5 79.5455C87.9725 79.5455 108.5 99.8295 108.5 125H120C120 101.608 105.47 81.5 84.9595 72.7955C90.4298 69.1465 94.9117 64.2284 98.0131 58.4715C101.115 52.7147 102.741 46.2945 102.75 39.7727C102.75 17.8693 84.6663 0 62.5 0ZM62.5 11.3636C78.4447 11.3636 91.25 24.017 91.25 39.7727C91.25 55.5284 78.4447 68.1818 62.5 68.1818C46.5552 68.1818 33.75 55.5284 33.75 39.7727C33.75 24.017 46.5552 11.3636 62.5 11.3636Z" fill="#FAFAFA"/>
</g>
</g>
<defs>
<clipPath id="clip0_11_52">
<rect width="126" height="126" fill="white"/>
</clipPath>
</defs>
</svg>
