<svg width="600" height="550" viewBox="0 0 600 550" fill="none" xmlns="http://www.w3.org/2000/svg">
<path d="M87.8671 508.131C205.023 563.956 394.977 563.956 512.133 508.131C629.289 452.306 629.289 361.781 512.133 305.942C394.977 250.103 205.023 250.117 87.8671 305.942C-29.2891 361.768 -29.2891 452.292 87.8671 508.131Z" fill="#F0F0F0"/>
<path d="M320.471 474.042C339.689 474.042 355.269 466.617 355.269 457.458C355.269 448.3 339.689 440.875 320.471 440.875C301.252 440.875 285.672 448.3 285.672 457.458C285.672 466.617 301.252 474.042 320.471 474.042Z" fill="#E0E0E0"/>
<path d="M155.552 311.854L92.7492 275.596L29.9332 311.854L92.7492 348.113L155.552 311.854Z" fill="#F0F0F0"/>
<path d="M92.7492 396.467L155.552 360.208V311.854L92.7492 348.113V396.467Z" fill="#EBEBEB"/>
<path d="M102.134 385.254C102.009 385.257 101.887 385.224 101.781 385.159C101.654 385.076 101.552 384.961 101.485 384.825C101.418 384.689 101.389 384.537 101.401 384.386V383.505C101.401 383.418 101.436 383.335 101.497 383.274C101.558 383.213 101.64 383.179 101.727 383.179C101.769 383.179 101.811 383.188 101.849 383.204C101.888 383.221 101.923 383.245 101.952 383.275C101.981 383.306 102.004 383.342 102.019 383.381C102.034 383.42 102.041 383.462 102.039 383.505V384.386C102.039 384.522 102.039 384.589 102.039 384.603C102.039 384.617 102.134 384.603 102.256 384.603C102.452 384.414 102.606 384.186 102.709 383.934C102.812 383.682 102.861 383.411 102.852 383.138V377.416C102.852 377.333 102.885 377.253 102.944 377.195C103.002 377.136 103.082 377.104 103.164 377.104C103.206 377.102 103.248 377.109 103.288 377.123C103.327 377.138 103.363 377.161 103.394 377.19C103.424 377.219 103.448 377.254 103.465 377.293C103.481 377.332 103.49 377.373 103.49 377.416V383.03C103.504 383.414 103.43 383.796 103.272 384.147C103.114 384.497 102.878 384.806 102.581 385.051C102.449 385.151 102.296 385.22 102.134 385.254Z" fill="#E0E0E0"/>
<path d="M98.7162 380.318V379.762C98.7867 378.335 99.1917 376.945 99.8984 375.704C100.605 374.462 101.594 373.404 102.785 372.615C103.211 372.241 103.745 372.009 104.31 371.954C104.875 371.898 105.443 372.022 105.934 372.306C106.425 372.591 106.815 373.022 107.048 373.54C107.281 374.058 107.345 374.636 107.233 375.192V375.368L98.7162 380.318ZM104.765 372.683C104.196 372.704 103.643 372.877 103.164 373.185C102.14 373.852 101.272 374.733 100.621 375.768C99.9701 376.803 99.5516 377.967 99.3943 379.179L106.636 375.002C106.661 374.595 106.582 374.189 106.406 373.821C106.231 373.454 105.964 373.137 105.632 372.9C105.376 372.726 105.075 372.627 104.765 372.615V372.683Z" fill="#E0E0E0"/>
<path d="M113.674 378.649C113.592 378.649 113.512 378.617 113.454 378.558C113.395 378.5 113.362 378.42 113.362 378.338V369.09C113.353 369.043 113.353 368.994 113.365 368.947C113.376 368.9 113.398 368.856 113.429 368.818C113.459 368.781 113.498 368.751 113.541 368.73C113.585 368.709 113.633 368.698 113.681 368.698C113.729 368.698 113.777 368.709 113.821 368.73C113.864 368.751 113.903 368.781 113.933 368.818C113.964 368.856 113.986 368.9 113.997 368.947C114.009 368.994 114.01 369.043 114 369.09V378.338C114 378.38 113.991 378.421 113.975 378.46C113.958 378.499 113.934 378.534 113.904 378.563C113.873 378.592 113.837 378.615 113.798 378.63C113.758 378.645 113.716 378.651 113.674 378.649Z" fill="#E0E0E0"/>
<path d="M112.739 371.585C112.694 371.597 112.647 371.597 112.603 371.585C112.564 371.569 112.529 371.545 112.499 371.515C112.47 371.485 112.447 371.449 112.432 371.41C112.417 371.37 112.409 371.329 112.411 371.286C112.412 371.244 112.422 371.203 112.44 371.165L113.593 368.453L114.868 369.931C114.925 369.991 114.957 370.071 114.957 370.154C114.957 370.238 114.925 370.318 114.868 370.378C114.837 370.409 114.802 370.433 114.762 370.449C114.722 370.465 114.68 370.474 114.637 370.474C114.594 370.474 114.552 370.465 114.512 370.449C114.473 370.433 114.437 370.409 114.407 370.378L113.796 369.673L113.064 371.382C113.038 371.446 112.993 371.5 112.935 371.537C112.876 371.573 112.807 371.59 112.739 371.585Z" fill="#E0E0E0"/>
<path d="M116.658 376.954C116.571 376.954 116.489 376.92 116.428 376.859C116.367 376.798 116.332 376.715 116.332 376.629V367.395C116.332 367.309 116.367 367.226 116.428 367.165C116.489 367.104 116.571 367.069 116.658 367.069C116.744 367.069 116.827 367.104 116.888 367.165C116.949 367.226 116.983 367.309 116.983 367.395V376.629C116.983 376.715 116.949 376.798 116.888 376.859C116.827 376.92 116.744 376.954 116.658 376.954Z" fill="#E0E0E0"/>
<path d="M115.695 369.89H115.559C115.52 369.874 115.485 369.85 115.456 369.82C115.426 369.79 115.403 369.754 115.388 369.715C115.373 369.676 115.366 369.634 115.367 369.591C115.369 369.549 115.379 369.508 115.397 369.47L116.536 366.758L117.892 368.222C117.95 368.285 117.982 368.367 117.982 368.453C117.982 368.538 117.95 368.621 117.892 368.683C117.83 368.738 117.75 368.768 117.668 368.768C117.586 368.768 117.506 368.738 117.444 368.683L116.834 367.978L116.088 369.687C116.078 369.727 116.059 369.765 116.033 369.797C116.006 369.83 115.974 369.857 115.937 369.876C115.9 369.895 115.859 369.906 115.817 369.909C115.776 369.911 115.734 369.905 115.695 369.89Z" fill="#E0E0E0"/>
<path d="M92.7492 396.467L29.9332 360.208V311.854L92.7492 348.113V396.467Z" fill="#E0E0E0"/>
<path d="M58.968 376.968L63.7009 379.707V331.353L58.968 328.614V376.968Z" fill="#EBEBEB"/>
<path d="M128.66 336.452L119.641 341.645C118.74 342.161 117.97 342.876 117.389 343.737C116.808 344.597 116.433 345.579 116.292 346.608C116.292 348.276 117.797 348.764 119.641 347.693L128.66 342.499C129.558 341.982 130.326 341.266 130.904 340.405C131.483 339.545 131.856 338.564 131.996 337.536C131.969 335.869 130.504 335.38 128.66 336.452Z" fill="#E0E0E0"/>
<path d="M63.7009 331.353L126.517 295.095L121.784 292.355L58.968 328.614L63.7009 331.353Z" fill="#FAFAFA"/>
<path d="M121.784 331.353L58.968 295.095L63.7009 292.355L126.517 328.614L121.784 331.353Z" fill="#FAFAFA"/>
<g style="mix-blend-mode:multiply" opacity="0.8">
<g style="mix-blend-mode:multiply" opacity="0.8">
<path d="M32.6726 310.268L92.8984 344.994L152.921 310.349L92.7492 275.596L32.6726 310.268Z" fill="#E0E0E0"/>
</g>
</g>
<path d="M121.784 336.208V331.354L126.517 328.614V333.469L121.784 336.208Z" fill="#F0F0F0"/>
<path d="M152.731 257.466L89.9149 221.208L27.0989 257.466L89.9149 293.725L152.731 257.466Z" fill="#F0F0F0"/>
<g style="mix-blend-mode:multiply" opacity="0.8">
<g style="mix-blend-mode:multiply" opacity="0.8">
<path d="M32.442 258.022L92.0982 292.464L152.731 257.466L93.0747 223.025L32.442 258.022Z" fill="#E0E0E0"/>
</g>
</g>
<path d="M89.9149 342.079L152.731 305.807V257.466L89.9149 293.725V342.079Z" fill="#EBEBEB"/>
<path d="M99.2857 330.866C99.1624 330.862 99.0418 330.829 98.9331 330.771C98.806 330.688 98.7036 330.573 98.6368 330.437C98.5699 330.301 98.5411 330.149 98.5534 329.998V329.117C98.5436 329.069 98.5444 329.02 98.5559 328.973C98.5674 328.926 98.5892 328.883 98.6197 328.845C98.6502 328.808 98.6887 328.777 98.7323 328.757C98.776 328.736 98.8238 328.725 98.8721 328.725C98.9205 328.725 98.9682 328.736 99.0119 328.757C99.0555 328.777 99.094 328.808 99.1245 328.845C99.1551 328.883 99.1768 328.926 99.1883 328.973C99.1998 329.02 99.2006 329.069 99.1908 329.117V329.998C99.1908 330.134 99.1908 330.201 99.1908 330.215C99.1908 330.229 99.2857 330.215 99.3942 330.147C99.5928 329.963 99.7489 329.738 99.852 329.487C99.955 329.237 100.002 328.967 99.9909 328.696V322.973C99.9909 322.887 100.025 322.804 100.086 322.743C100.147 322.682 100.23 322.648 100.316 322.648C100.403 322.648 100.485 322.682 100.547 322.743C100.608 322.804 100.642 322.887 100.642 322.973V328.696C100.659 329.08 100.584 329.462 100.424 329.811C100.263 330.16 100.022 330.466 99.7197 330.703C99.5912 330.794 99.4419 330.85 99.2857 330.866Z" fill="#E0E0E0"/>
<path d="M95.8954 325.849V325.293C95.9681 323.869 96.374 322.481 97.0806 321.242C97.7873 320.003 98.7748 318.947 99.9638 318.16C100.39 317.792 100.92 317.567 101.481 317.514C102.041 317.462 102.604 317.585 103.091 317.866C103.579 318.148 103.966 318.574 104.201 319.086C104.435 319.598 104.504 320.17 104.398 320.723V320.913L95.8954 325.849ZM101.944 318.214C101.372 318.243 100.817 318.415 100.33 318.716C99.3087 319.388 98.4445 320.273 97.7962 321.31C97.1479 322.346 96.7309 323.511 96.5735 324.723L103.815 320.546C103.841 320.14 103.763 319.733 103.587 319.365C103.412 318.997 103.145 318.68 102.812 318.444C102.548 318.291 102.249 318.211 101.944 318.214Z" fill="#E0E0E0"/>
<path d="M110.854 324.261C110.767 324.261 110.684 324.227 110.623 324.166C110.562 324.105 110.528 324.022 110.528 323.936V314.702C110.528 314.616 110.562 314.533 110.623 314.472C110.684 314.411 110.767 314.376 110.854 314.376C110.94 314.376 111.023 314.411 111.084 314.472C111.145 314.533 111.179 314.616 111.179 314.702V323.936C111.179 324.022 111.145 324.105 111.084 324.166C111.023 324.227 110.94 324.261 110.854 324.261Z" fill="#E0E0E0"/>
<path d="M109.918 317.197H109.782C109.743 317.181 109.708 317.157 109.679 317.127C109.649 317.097 109.626 317.061 109.611 317.022C109.596 316.983 109.589 316.941 109.59 316.898C109.592 316.856 109.602 316.815 109.619 316.777L110.759 314.132L112.115 315.597C112.173 315.66 112.205 315.742 112.205 315.828C112.205 315.913 112.173 315.995 112.115 316.058C112.053 316.112 111.973 316.142 111.891 316.142C111.809 316.142 111.729 316.112 111.667 316.058L111.057 315.353L110.311 317.062C110.274 317.129 110.213 317.18 110.14 317.205C110.068 317.23 109.989 317.227 109.918 317.197Z" fill="#E0E0E0"/>
<path d="M113.837 322.567C113.751 322.567 113.668 322.532 113.607 322.471C113.546 322.41 113.512 322.327 113.512 322.241V312.993C113.512 312.907 113.546 312.824 113.607 312.763C113.668 312.702 113.751 312.668 113.837 312.668C113.923 312.668 114.006 312.702 114.067 312.763C114.128 312.824 114.163 312.907 114.163 312.993V322.241C114.163 322.327 114.128 322.41 114.067 322.471C114.006 322.532 113.923 322.567 113.837 322.567Z" fill="#E0E0E0"/>
<path d="M112.888 315.502H112.766C112.686 315.467 112.623 315.401 112.591 315.321C112.558 315.24 112.557 315.149 112.589 315.068L113.742 312.424L115.017 313.902C115.047 313.932 115.071 313.968 115.088 314.008C115.104 314.047 115.113 314.09 115.113 314.133C115.113 314.175 115.104 314.218 115.088 314.257C115.071 314.297 115.047 314.333 115.017 314.363C114.954 314.421 114.872 314.454 114.786 314.454C114.701 314.454 114.618 314.421 114.556 314.363L113.959 313.658L113.213 315.367C113.177 315.417 113.127 315.456 113.069 315.48C113.012 315.504 112.949 315.512 112.888 315.502Z" fill="#E0E0E0"/>
<path d="M89.9149 342.079L27.0989 305.807V257.466L89.9149 293.725V342.079Z" fill="#E0E0E0"/>
<path d="M56.1472 322.58L60.8801 325.306V276.965L56.1472 274.226V322.58Z" fill="#EBEBEB"/>
<path d="M125.825 282.064L116.821 287.257C115.919 287.773 115.149 288.488 114.568 289.349C113.987 290.209 113.612 291.191 113.471 292.22C113.471 293.888 114.976 294.376 116.821 293.305L125.825 288.098C126.731 287.591 127.505 286.879 128.087 286.02C128.668 285.161 129.041 284.177 129.175 283.148C129.175 281.481 127.683 280.992 125.825 282.064Z" fill="#E0E0E0"/>
<path d="M60.8801 276.965L123.696 240.707L118.963 237.967L56.1472 274.226L60.8801 276.965Z" fill="#FAFAFA"/>
<path d="M118.963 276.965L56.1472 240.707L60.8801 237.967L123.696 274.226L118.963 276.965Z" fill="#FAFAFA"/>
<path d="M118.963 281.82V276.966L123.696 274.226V279.081L118.963 281.82Z" fill="#F0F0F0"/>
<g style="mix-blend-mode:multiply" opacity="0.8">
<g style="mix-blend-mode:multiply" opacity="0.8">
<path d="M92.0983 292.464L97.7533 295.732L152.731 263.989V257.466L92.0983 292.464Z" fill="#E0E0E0"/>
</g>
</g>
<path d="M159.023 209.112L96.2209 172.854L33.4049 209.112L96.2209 245.371L159.023 209.112Z" fill="#F0F0F0"/>
<path d="M96.2209 293.725L159.023 257.466V209.112L96.2209 245.371V293.725Z" fill="#EBEBEB"/>
<path d="M105.578 282.512C105.458 282.516 105.34 282.483 105.239 282.417C105.109 282.337 105.003 282.223 104.933 282.086C104.864 281.95 104.834 281.797 104.846 281.644V280.763C104.846 280.676 104.88 280.594 104.941 280.533C105.002 280.472 105.085 280.437 105.171 280.437C105.258 280.437 105.341 280.472 105.402 280.533C105.463 280.594 105.497 280.676 105.497 280.763V281.644C105.497 281.78 105.497 281.848 105.497 281.861C105.497 281.875 105.592 281.861 105.714 281.861C105.912 281.677 106.069 281.452 106.172 281.201C106.275 280.951 106.322 280.681 106.311 280.41V274.687C106.301 274.64 106.302 274.591 106.313 274.544C106.325 274.497 106.346 274.453 106.377 274.416C106.407 274.378 106.446 274.348 106.489 274.327C106.533 274.306 106.581 274.296 106.629 274.296C106.678 274.296 106.725 274.306 106.769 274.327C106.813 274.348 106.851 274.378 106.882 274.416C106.912 274.453 106.934 274.497 106.945 274.544C106.957 274.591 106.958 274.64 106.948 274.687V280.41C106.962 280.792 106.888 281.172 106.73 281.521C106.572 281.869 106.336 282.176 106.039 282.417C105.894 282.481 105.737 282.514 105.578 282.512Z" fill="#E0E0E0"/>
<path d="M102.134 277.509V276.953C102.207 275.527 102.614 274.138 103.32 272.897C104.026 271.656 105.013 270.597 106.202 269.806C106.629 269.431 107.162 269.2 107.727 269.144C108.292 269.089 108.86 269.212 109.351 269.497C109.843 269.781 110.232 270.213 110.465 270.73C110.698 271.248 110.763 271.826 110.65 272.382V272.559L102.134 277.509ZM108.182 269.874C107.613 269.894 107.06 270.068 106.582 270.375C105.559 271.044 104.693 271.926 104.042 272.961C103.391 273.995 102.972 275.158 102.812 276.369L110.053 272.193C110.077 271.787 109.999 271.383 109.826 271.015C109.653 270.648 109.391 270.33 109.063 270.091C108.81 269.95 108.526 269.876 108.236 269.874H108.182Z" fill="#E0E0E0"/>
<path d="M117.146 275.908C117.104 275.908 117.062 275.899 117.023 275.883C116.985 275.866 116.95 275.842 116.921 275.811C116.891 275.781 116.869 275.745 116.854 275.706C116.839 275.666 116.832 275.624 116.834 275.582V266.416C116.824 266.368 116.825 266.32 116.837 266.273C116.848 266.226 116.87 266.182 116.9 266.144C116.931 266.107 116.969 266.077 117.013 266.056C117.057 266.035 117.104 266.024 117.153 266.024C117.201 266.024 117.249 266.035 117.293 266.056C117.336 266.077 117.375 266.107 117.405 266.144C117.436 266.182 117.458 266.226 117.469 266.273C117.48 266.32 117.481 266.368 117.471 266.416V275.663C117.453 275.735 117.411 275.798 117.352 275.843C117.292 275.887 117.22 275.91 117.146 275.908Z" fill="#E0E0E0"/>
<path d="M116.21 268.843C116.171 268.856 116.128 268.856 116.088 268.843C116.048 268.828 116.012 268.806 115.981 268.776C115.95 268.746 115.925 268.711 115.909 268.671C115.892 268.632 115.884 268.59 115.885 268.547C115.885 268.504 115.894 268.462 115.912 268.423L117.065 265.711L118.339 267.189C118.369 267.218 118.393 267.253 118.409 267.291C118.426 267.33 118.434 267.371 118.434 267.413C118.434 267.454 118.426 267.496 118.409 267.534C118.393 267.573 118.369 267.607 118.339 267.636C118.309 267.667 118.273 267.691 118.234 267.707C118.194 267.724 118.152 267.732 118.109 267.732C118.066 267.732 118.024 267.724 117.984 267.707C117.944 267.691 117.909 267.667 117.878 267.636L117.268 266.931L116.536 268.64C116.51 268.704 116.465 268.758 116.406 268.795C116.348 268.831 116.279 268.848 116.21 268.843Z" fill="#E0E0E0"/>
<path d="M120.129 274.213C120.087 274.214 120.045 274.208 120.006 274.193C119.967 274.178 119.931 274.155 119.9 274.126C119.87 274.097 119.846 274.062 119.829 274.023C119.812 273.985 119.804 273.943 119.804 273.901V264.653C119.804 264.567 119.838 264.484 119.899 264.423C119.96 264.362 120.043 264.328 120.129 264.328C120.216 264.328 120.299 264.362 120.36 264.423C120.421 264.484 120.455 264.567 120.455 264.653V273.901C120.455 273.943 120.447 273.985 120.43 274.023C120.413 274.062 120.389 274.097 120.359 274.126C120.328 274.155 120.292 274.178 120.253 274.193C120.214 274.208 120.172 274.214 120.129 274.213Z" fill="#E0E0E0"/>
<path d="M119.194 267.148H119.058C119.019 267.132 118.984 267.108 118.955 267.078C118.925 267.048 118.902 267.012 118.887 266.973C118.872 266.934 118.865 266.892 118.866 266.85C118.868 266.808 118.878 266.766 118.895 266.728L120.035 264.016L121.391 265.48C121.449 265.543 121.481 265.625 121.481 265.711C121.481 265.796 121.449 265.879 121.391 265.941C121.362 265.971 121.327 265.995 121.288 266.011C121.25 266.028 121.209 266.036 121.167 266.036C121.125 266.036 121.084 266.028 121.045 266.011C121.007 265.995 120.972 265.971 120.943 265.941L120.333 265.236L119.587 266.945C119.576 266.985 119.557 267.023 119.531 267.056C119.505 267.088 119.473 267.115 119.436 267.134C119.398 267.153 119.358 267.164 119.316 267.167C119.275 267.169 119.233 267.163 119.194 267.148Z" fill="#E0E0E0"/>
<path d="M96.2209 293.725L33.4049 257.466V209.112L96.2209 245.371V293.725Z" fill="#E0E0E0"/>
<path d="M62.4397 274.226L67.1726 276.965V228.611L62.4397 225.872V274.226Z" fill="#EBEBEB"/>
<path d="M132.131 233.71L123.113 238.917C122.211 239.426 121.44 240.138 120.861 240.998C120.281 241.857 119.91 242.839 119.777 243.866C119.777 245.534 121.269 246.022 123.113 244.951L132.131 239.757C133.032 239.242 133.803 238.526 134.384 237.666C134.964 236.805 135.34 235.823 135.481 234.795C135.481 233.127 133.976 232.639 132.131 233.71Z" fill="#E0E0E0"/>
<path d="M67.1726 228.611L129.989 192.353L125.256 189.614L62.4397 225.872L67.1726 228.611Z" fill="#FAFAFA"/>
<path d="M125.256 228.611L62.4397 192.353L67.1726 189.614L129.989 225.872L125.256 228.611Z" fill="#FAFAFA"/>
<path d="M125.256 233.467V228.612L129.989 225.872V230.727L125.256 233.467Z" fill="#F0F0F0"/>
<path d="M184.478 387.233V366.025C183.468 358.229 180.164 350.909 174.985 344.994C166.604 335.923 159.091 339.001 156.65 343.313C154.209 347.625 159.769 355.788 163.322 360.398C167.594 365.93 184.451 391.585 184.451 403.152L184.478 387.233Z" fill="#37474F"/>
<path d="M184.478 383.884C184.355 383.883 184.236 383.839 184.142 383.76C184.048 383.68 183.985 383.571 183.963 383.45C180.138 360.331 162.536 344.466 162.359 344.303C162.265 344.205 162.212 344.074 162.212 343.937C162.212 343.801 162.265 343.669 162.359 343.571C162.407 343.523 162.464 343.484 162.527 343.458C162.59 343.432 162.657 343.418 162.726 343.418C162.794 343.418 162.861 343.432 162.924 343.458C162.987 343.484 163.044 343.523 163.092 343.571C163.282 343.72 181.142 359.843 185.034 383.314C185.054 383.451 185.019 383.59 184.938 383.701C184.857 383.812 184.736 383.888 184.6 383.911L184.478 383.884Z" fill="#FAFAFA"/>
<path d="M184.478 387.233C184.478 387.233 185.319 384.683 181.562 384.033C177.806 383.382 176.368 380.263 176.029 375.029C175.69 369.795 174.09 366.039 169.384 365.266C164.678 364.493 160.895 366.866 157.844 364.507C154.792 362.147 146.886 356.466 140.295 359.083C133.704 361.7 135.874 367.3 139.305 370.934C142.736 374.568 143.713 375.815 141.095 381.782C138.478 387.748 140.377 393.253 146.438 394.636C152.5 396.019 155.931 395.314 155.931 401.945C155.931 408.576 156.935 411.545 160.257 414.149C163.58 416.752 174.009 415.586 178.348 416.589C179.651 416.925 180.868 417.534 181.918 418.376C182.967 419.217 183.826 420.272 184.437 421.471L184.478 387.233Z" fill="#455A64"/>
<path d="M184.478 414.583C184.37 414.582 184.265 414.548 184.177 414.485C184.089 414.422 184.024 414.333 183.99 414.23C172.964 381.524 148.025 368.303 147.767 368.127C147.653 368.057 147.569 367.947 147.533 367.817C147.497 367.688 147.512 367.55 147.574 367.431C147.636 367.312 147.741 367.221 147.868 367.177C147.994 367.132 148.133 367.137 148.256 367.191C148.5 367.327 173.805 380.751 184.966 413.85C184.989 413.914 184.999 413.982 184.995 414.05C184.991 414.118 184.974 414.185 184.943 414.246C184.913 414.307 184.87 414.361 184.818 414.405C184.766 414.449 184.706 414.481 184.641 414.501C184.595 414.543 184.539 414.571 184.478 414.583Z" fill="#FAFAFA"/>
<path d="M168.665 386.067H168.584C161.383 384.426 149.869 385.321 149.747 385.321C149.68 385.327 149.612 385.319 149.547 385.298C149.482 385.277 149.422 385.243 149.371 385.199C149.319 385.155 149.277 385.101 149.246 385.041C149.215 384.98 149.197 384.914 149.191 384.846C149.184 384.778 149.19 384.709 149.211 384.644C149.231 384.578 149.264 384.518 149.309 384.466C149.353 384.414 149.408 384.371 149.469 384.341C149.531 384.311 149.598 384.294 149.666 384.29C150.154 384.29 161.464 383.382 168.815 385.063C168.938 385.092 169.047 385.166 169.119 385.27C169.192 385.373 169.224 385.501 169.209 385.626C169.194 385.752 169.133 385.868 169.037 385.952C168.942 386.036 168.819 386.082 168.693 386.08L168.665 386.067Z" fill="#FAFAFA"/>
<path d="M174.537 401.796C171.242 401.796 167.757 401.579 167.54 401.565C167.402 401.555 167.274 401.491 167.182 401.387C167.091 401.283 167.044 401.148 167.052 401.009C167.055 400.941 167.072 400.873 167.102 400.811C167.132 400.749 167.174 400.693 167.226 400.648C167.278 400.602 167.339 400.567 167.404 400.546C167.47 400.524 167.539 400.516 167.608 400.521C171.355 400.785 175.116 400.785 178.864 400.521C178.998 400.502 179.135 400.537 179.245 400.618C179.354 400.699 179.427 400.82 179.447 400.955C179.458 401.023 179.456 401.092 179.44 401.159C179.425 401.226 179.396 401.289 179.355 401.345C179.315 401.401 179.264 401.448 179.205 401.483C179.146 401.519 179.081 401.542 179.013 401.552C177.528 401.737 176.033 401.819 174.537 401.796Z" fill="#FAFAFA"/>
<path d="M165.289 382.229C165.151 382.219 165.022 382.155 164.931 382.051C164.84 381.947 164.793 381.811 164.8 381.673C165.048 377.929 165.829 374.24 167.119 370.717C167.171 370.592 167.269 370.492 167.393 370.439C167.518 370.385 167.658 370.383 167.784 370.432C167.848 370.455 167.907 370.49 167.958 370.536C168.008 370.582 168.048 370.638 168.076 370.7C168.104 370.762 168.119 370.83 168.12 370.898C168.121 370.966 168.108 371.034 168.082 371.097C166.847 374.525 166.09 378.106 165.831 381.741C165.828 381.809 165.811 381.875 165.782 381.936C165.753 381.997 165.712 382.052 165.661 382.098C165.611 382.143 165.552 382.178 165.488 382.201C165.424 382.223 165.356 382.233 165.289 382.229Z" fill="#FAFAFA"/>
<path d="M184.315 177.41V423.708C184.315 425.959 185.888 426.868 187.841 425.742L483.776 254.89C484.797 254.219 485.646 253.317 486.254 252.257C486.862 251.197 487.212 250.008 487.275 248.788V2.51681C487.275 0.265896 485.702 -0.642604 483.763 0.482852L187.828 171.335C186.807 172.002 185.958 172.899 185.348 173.954C184.738 175.009 184.384 176.193 184.315 177.41Z" fill="#0085A6"/>
<path d="M483.776 0.482852L187.841 171.335C186.815 172.003 185.961 172.904 185.348 173.964C184.735 175.024 184.381 176.214 184.315 177.437V192.841L487.275 17.5274V2.51681C487.275 0.265896 485.715 -0.642604 483.776 0.482852Z" fill="#263238"/>
<path d="M445.981 27.8328C444.971 28.4902 444.132 29.3772 443.531 30.4213C442.93 31.4653 442.584 32.6367 442.523 33.8397C442.523 36.05 444.069 36.9449 445.994 35.8466C447.004 35.1845 447.844 34.2949 448.446 33.2493C449.049 32.2037 449.399 31.0312 449.466 29.8261C449.452 27.6158 447.947 26.7209 445.981 27.8328Z" fill="white"/>
<path d="M459.746 19.8732C458.736 20.5323 457.897 21.4194 457.293 22.4629C456.69 23.5063 456.341 24.6769 456.274 25.8802C456.274 28.1039 457.833 28.9989 459.746 27.887C460.758 27.2311 461.6 26.3447 462.203 25.3006C462.807 24.2565 463.154 23.0843 463.217 21.88C463.217 19.6291 461.671 18.7749 459.746 19.8732Z" fill="white"/>
<path d="M473.524 11.9272C472.515 12.5864 471.675 13.4734 471.072 14.5169C470.469 15.5603 470.119 16.7309 470.052 17.9342C470.052 20.1444 471.612 21.0529 473.524 19.941C474.533 19.2819 475.373 18.3948 475.976 17.3513C476.579 16.3079 476.928 15.1373 476.995 13.9341C476.995 11.7103 475.436 10.8153 473.524 11.9272Z" fill="white"/>
<path d="M279.366 170.928V244.151L215.967 280.762V207.54L279.366 170.928ZM280.723 168.583L214.611 206.753V283.081L280.723 244.91V168.583Z" fill="#FAFAFA"/>
<path d="M302.082 233.357V155.47L369.536 116.527V194.414L302.082 233.357ZM303.438 156.257V231.011L368.179 193.627V118.873L303.438 156.257Z" fill="#FAFAFA"/>
<path d="M344.339 154.969L347.892 147.294C343.96 146.739 339.957 147.553 336.554 149.599V156.582C338.905 155.214 341.638 154.647 344.339 154.969Z" fill="#0085A6"/>
<path d="M350.306 160.162L356.056 154.738C355.502 153.103 354.583 151.615 353.368 150.389C352.153 149.162 350.675 148.229 349.045 147.66L345.505 155.335C346.606 155.745 347.606 156.389 348.435 157.222C349.263 158.055 349.902 159.058 350.306 160.162Z" fill="#0085A6"/>
<path d="M327.251 194.915L323.712 202.577C327.637 203.157 331.641 202.351 335.036 200.299V193.329C332.687 194.703 329.95 195.261 327.251 194.915Z" fill="#0085A6"/>
<path d="M345.559 183.335L349.099 186.915C352.246 182.273 354.614 177.148 356.11 171.742L350.306 172.854C349.28 176.574 347.678 180.111 345.559 183.335Z" fill="#0085A6"/>
<path d="M336.554 192.461V199.431C340.981 196.563 344.823 192.882 347.878 188.583L344.339 185.058C342.208 187.971 339.571 190.479 336.554 192.461Z" fill="#0085A6"/>
<path d="M356.571 156.08L350.835 161.504C351.214 162.938 351.401 164.415 351.391 165.898C351.376 167.594 351.19 169.284 350.835 170.942L356.571 169.789C357.112 167.372 357.394 164.904 357.412 162.426C357.43 160.282 357.147 158.146 356.571 156.08Z" fill="#0085A6"/>
<g opacity="0.2">
<path opacity="0.2" d="M344.339 154.969L347.892 147.294C343.96 146.739 339.957 147.553 336.555 149.599V156.582C338.905 155.214 341.638 154.647 344.339 154.969Z" fill="black"/>
<path opacity="0.2" d="M350.306 160.162L356.056 154.738C355.502 153.103 354.583 151.615 353.368 150.389C352.153 149.162 350.675 148.229 349.045 147.66L345.505 155.335C346.606 155.745 347.606 156.389 348.435 157.222C349.263 158.055 349.902 159.058 350.306 160.162Z" fill="black"/>
<path opacity="0.2" d="M327.251 194.915L323.712 202.577C327.637 203.157 331.641 202.351 335.036 200.299V193.329C332.687 194.703 329.95 195.261 327.251 194.915Z" fill="black"/>
<path opacity="0.2" d="M345.559 183.335L349.099 186.915C352.246 182.273 354.614 177.147 356.11 171.742L350.306 172.854C349.28 176.574 347.678 180.11 345.559 183.335Z" fill="black"/>
<path opacity="0.2" d="M336.555 192.461V199.431C340.981 196.563 344.823 192.882 347.878 188.583L344.339 185.058C342.208 187.971 339.571 190.479 336.555 192.461Z" fill="black"/>
<path opacity="0.2" d="M356.571 156.08L350.835 161.504C351.214 162.938 351.401 164.415 351.391 165.898C351.376 167.594 351.19 169.284 350.835 170.942L356.571 169.789C357.112 167.372 357.394 164.904 357.412 162.426C357.43 160.282 357.147 158.146 356.571 156.08Z" fill="black"/>
</g>
<path d="M335.049 157.423V150.453C330.62 153.317 326.777 156.999 323.726 161.301L327.265 164.881C329.387 161.944 332.024 159.417 335.049 157.423Z" fill="#FAFAFA"/>
<path d="M326.058 166.549L322.519 162.969C319.365 167.603 316.996 172.725 315.507 178.129L321.244 176.976C322.291 173.269 323.916 169.75 326.058 166.549Z" fill="#FAFAFA"/>
<path d="M320.213 183.932C320.233 182.236 320.424 180.546 320.783 178.888L315.046 180.054C314.506 182.467 314.224 184.931 314.205 187.403C314.184 189.566 314.467 191.72 315.046 193.804L320.783 188.38C320.395 186.929 320.203 185.433 320.213 183.932Z" fill="#FAFAFA"/>
<path d="M321.244 189.722L315.507 195.146C316.059 196.781 316.977 198.267 318.193 199.492C319.408 200.717 320.888 201.647 322.519 202.211L326.058 194.549C324.954 194.141 323.952 193.498 323.121 192.664C322.29 191.831 321.649 190.827 321.244 189.722Z" fill="#FAFAFA"/>
<path d="M322.912 182.346C322.912 174.115 328.689 164.121 335.809 160.013C342.928 155.904 348.705 159.226 348.705 167.457C348.705 175.688 342.928 185.681 335.809 189.79C328.689 193.898 322.912 190.603 322.912 182.346Z" fill="#0085A6"/>
<path opacity="0.2" d="M322.912 182.346C322.912 174.115 328.689 164.121 335.809 160.013C342.928 155.904 348.705 159.226 348.705 167.457C348.705 175.688 342.928 185.681 335.809 189.79C328.689 193.898 322.912 190.603 322.912 182.346Z" fill="black"/>
<path d="M334.534 170.698C334.561 171.226 334.561 171.756 334.534 172.284C334.509 172.72 334.436 173.152 334.317 173.572C334.202 174.012 334.023 174.432 333.788 174.82C333.284 175.69 332.559 176.41 331.686 176.908C331.31 177.146 330.89 177.307 330.452 177.383C330.156 177.442 329.848 177.394 329.584 177.247C329.346 177.095 329.161 176.872 329.055 176.61C328.925 176.281 328.852 175.933 328.838 175.579C328.838 175.308 328.838 175.05 328.838 174.806C328.838 174.562 328.838 174.291 328.838 173.979C328.86 173.521 328.933 173.066 329.055 172.623C329.18 172.192 329.357 171.777 329.584 171.389C329.823 170.97 330.115 170.583 330.452 170.237C330.82 169.871 331.235 169.556 331.686 169.301C332.064 169.064 332.482 168.898 332.92 168.813C333.218 168.765 333.523 168.817 333.788 168.962C334.026 169.114 334.211 169.337 334.317 169.599C334.447 169.952 334.521 170.322 334.534 170.698ZM339.063 165.613C339.132 165.455 339.219 165.304 339.321 165.165C339.427 165.03 339.562 164.919 339.714 164.84L341.206 163.986C341.248 163.949 341.298 163.923 341.353 163.911C341.408 163.899 341.465 163.902 341.518 163.918C341.599 163.918 341.64 164.026 341.64 164.148C341.645 164.184 341.645 164.221 341.64 164.257C341.646 164.311 341.646 164.366 341.64 164.42L332.676 183.2C332.599 183.353 332.509 183.498 332.405 183.634C332.301 183.77 332.172 183.885 332.025 183.973L330.533 184.827C330.485 184.85 330.431 184.862 330.377 184.862C330.323 184.862 330.27 184.85 330.221 184.827C330.14 184.827 330.099 184.719 330.099 184.597C330.099 184.474 330.099 184.529 330.099 184.474C330.099 184.42 330.099 184.38 330.099 184.325L339.063 165.613ZM330.927 174.25C330.922 174.503 330.987 174.752 331.116 174.969C331.211 175.091 331.401 175.064 331.672 174.969C331.912 174.839 332.103 174.634 332.215 174.386C332.336 174.088 332.404 173.772 332.418 173.45C332.444 172.999 332.444 172.546 332.418 172.094C332.421 171.845 332.35 171.599 332.215 171.389C332.12 171.267 331.93 171.281 331.672 171.389C331.426 171.514 331.23 171.72 331.116 171.972C331.001 172.271 330.937 172.588 330.927 172.908C330.894 173.342 330.899 173.777 330.94 174.21L330.927 174.25ZM342.928 173.166C342.955 173.699 342.955 174.233 342.928 174.766C342.9 175.196 342.832 175.623 342.725 176.04C342.485 176.939 342.018 177.761 341.369 178.427C341.005 178.801 340.59 179.121 340.135 179.376C339.758 179.614 339.339 179.775 338.901 179.851C338.605 179.916 338.295 179.868 338.033 179.715C337.794 179.563 337.609 179.34 337.504 179.078C337.374 178.749 337.3 178.4 337.287 178.047C337.287 177.776 337.287 177.518 337.287 177.288C337.287 177.057 337.287 176.759 337.287 176.447C337.313 176.016 337.386 175.588 337.504 175.173C337.629 174.737 337.806 174.318 338.033 173.925C338.269 173.508 338.561 173.125 338.901 172.786C339.264 172.412 339.68 172.092 340.135 171.837C340.511 171.599 340.93 171.438 341.369 171.362C341.665 171.297 341.975 171.345 342.237 171.498C342.475 171.65 342.66 171.873 342.766 172.135C342.882 172.466 342.941 172.815 342.942 173.166H342.928ZM339.335 176.732C339.336 176.979 339.401 177.222 339.524 177.437C339.633 177.559 339.809 177.545 340.08 177.437C340.324 177.308 340.519 177.103 340.636 176.854C340.746 176.553 340.81 176.238 340.826 175.918C340.852 175.467 340.852 175.014 340.826 174.562C340.825 174.315 340.76 174.072 340.636 173.857C340.528 173.735 340.352 173.749 340.08 173.857C339.837 173.986 339.642 174.191 339.524 174.44C339.415 174.741 339.351 175.056 339.335 175.376C339.3 175.827 339.305 176.281 339.348 176.732H339.335Z" fill="#FAFAFA"/>
<path d="M390.217 182.481V104.581L457.671 65.6372V143.538L390.217 182.481ZM391.573 105.367V180.122L456.315 142.751V67.9966L391.573 105.367Z" fill="#FAFAFA"/>
<path d="M423.198 106.533V99.6314C418.764 102.494 414.916 106.176 411.861 110.479L415.414 114.072C417.526 111.105 420.164 108.55 423.198 106.533Z" fill="#FAFAFA"/>
<path d="M414.193 115.673L410.654 112.093C407.498 116.726 405.129 121.848 403.642 127.253L409.379 126.086C410.435 122.387 412.059 118.874 414.193 115.673Z" fill="#FAFAFA"/>
<path d="M432.474 104.093L436.027 96.4042C432.095 95.8493 428.092 96.6632 424.69 98.7094V105.665C427.04 104.299 429.777 103.746 432.474 104.093Z" fill="#0085A6"/>
<path d="M438.454 109.272L444.191 103.848C443.637 102.215 442.718 100.729 441.503 99.5046C440.288 98.2802 438.809 97.3496 437.179 96.7838L433.64 104.445C434.744 104.854 435.746 105.497 436.577 106.33C437.408 107.164 438.049 108.167 438.454 109.272Z" fill="#0085A6"/>
<path d="M415.4 144.026L411.861 151.701C415.115 152.365 419.007 151.701 423.198 149.409V142.453C420.843 143.823 418.102 144.376 415.4 144.026Z" fill="#0085A6"/>
<path d="M444.706 105.191L438.97 110.615C439.354 112.052 439.546 113.534 439.539 115.022C439.519 116.718 439.329 118.408 438.97 120.066L444.706 118.913C445.246 116.496 445.528 114.028 445.547 111.55C445.564 109.402 445.281 107.261 444.706 105.191Z" fill="#0085A6"/>
<path d="M433.694 132.446L437.234 136.026C440.387 131.391 442.756 126.27 444.245 120.866L438.508 122.032C437.452 125.732 435.828 129.245 433.694 132.446Z" fill="#0085A6"/>
<path d="M408.348 133.056C408.367 131.36 408.558 129.67 408.918 128.012L403.181 129.164C402.641 131.582 402.359 134.05 402.34 136.527C402.319 138.685 402.602 140.835 403.181 142.914L408.918 137.49C408.532 136.044 408.34 134.553 408.348 133.056Z" fill="#0085A6"/>
<path d="M409.379 138.833L403.642 144.256C404.196 145.89 405.115 147.376 406.33 148.6C407.545 149.825 409.024 150.755 410.654 151.321L414.193 143.66C413.089 143.251 412.087 142.608 411.256 141.775C410.425 140.941 409.784 139.937 409.379 138.833Z" fill="#0085A6"/>
<path d="M424.69 141.585V148.541C429.118 145.699 432.965 142.04 436.027 137.761L432.487 134.168C430.356 137.09 427.714 139.602 424.69 141.585Z" fill="#0085A6"/>
<g opacity="0.2">
<path opacity="0.2" d="M432.474 104.093L436.027 96.4042C432.095 95.8493 428.092 96.6632 424.69 98.7094V105.665C427.04 104.299 429.777 103.746 432.474 104.093Z" fill="black"/>
<path opacity="0.2" d="M438.454 109.272L444.191 103.849C443.637 102.215 442.718 100.729 441.503 99.5047C440.288 98.2803 438.809 97.3497 437.179 96.7839L433.64 104.445C434.744 104.854 435.746 105.497 436.577 106.33C437.408 107.164 438.049 108.167 438.454 109.272Z" fill="black"/>
<path opacity="0.2" d="M415.4 144.026L411.861 151.701C415.115 152.365 419.007 151.701 423.198 149.409V142.453C420.843 143.823 418.102 144.376 415.4 144.026Z" fill="black"/>
<path opacity="0.2" d="M444.706 105.191L438.97 110.615C439.354 112.052 439.546 113.534 439.539 115.022C439.519 116.718 439.329 118.408 438.97 120.066L444.706 118.913C445.246 116.496 445.528 114.028 445.547 111.55C445.564 109.402 445.281 107.261 444.706 105.191Z" fill="black"/>
<path opacity="0.2" d="M433.694 132.446L437.234 136.026C440.387 131.391 442.756 126.27 444.245 120.866L438.508 122.032C437.452 125.732 435.828 129.245 433.694 132.446Z" fill="black"/>
<path opacity="0.2" d="M408.348 133.056C408.367 131.36 408.558 129.67 408.918 128.012L403.181 129.164C402.641 131.582 402.359 134.05 402.34 136.527C402.319 138.685 402.602 140.835 403.181 142.914L408.918 137.49C408.532 136.044 408.34 134.553 408.348 133.056Z" fill="black"/>
<path opacity="0.2" d="M409.379 138.833L403.642 144.256C404.196 145.89 405.115 147.376 406.33 148.6C407.545 149.825 409.024 150.755 410.654 151.321L414.193 143.66C413.089 143.251 412.087 142.608 411.256 141.775C410.425 140.941 409.784 139.937 409.379 138.833Z" fill="black"/>
<path opacity="0.2" d="M424.69 141.585V148.541C429.118 145.699 432.965 142.04 436.027 137.761L432.487 134.168C430.356 137.09 427.714 139.602 424.69 141.585Z" fill="black"/>
</g>
<path d="M411.047 131.497C411.047 123.28 416.824 113.286 423.944 109.164C431.063 105.042 436.84 108.391 436.84 116.608C436.84 124.825 431.063 134.887 423.944 138.955C416.824 143.022 411.047 139.727 411.047 131.497Z" fill="#0085A6"/>
<path opacity="0.2" d="M411.047 131.497C411.047 123.28 416.824 113.286 423.944 109.164C431.063 105.042 436.84 108.391 436.84 116.608C436.84 124.825 431.063 134.887 423.944 138.955C416.824 143.022 411.047 139.727 411.047 131.497Z" fill="black"/>
<path d="M422.669 119.822C422.696 120.35 422.696 120.88 422.669 121.408C422.641 121.843 422.573 122.274 422.465 122.696C422.338 123.127 422.161 123.541 421.937 123.93C421.691 124.349 421.395 124.736 421.055 125.083C420.687 125.449 420.272 125.763 419.821 126.019C419.442 126.254 419.024 126.419 418.587 126.507C418.291 126.559 417.985 126.511 417.719 126.371C417.481 126.219 417.296 125.996 417.19 125.734C417.06 125.4 416.987 125.047 416.973 124.69C416.96 124.437 416.96 124.183 416.973 123.93C416.973 123.686 416.973 123.415 416.973 123.103C416.999 122.667 417.072 122.235 417.19 121.815C417.317 121.38 417.495 120.961 417.719 120.568C417.955 120.15 418.247 119.767 418.587 119.429C418.955 119.063 419.37 118.748 419.821 118.493C420.2 118.258 420.618 118.092 421.055 118.005C421.351 117.952 421.657 118 421.923 118.14C422.161 118.292 422.346 118.515 422.452 118.778C422.582 119.111 422.655 119.464 422.669 119.822ZM427.198 114.737C427.272 114.581 427.358 114.432 427.456 114.289C427.565 114.157 427.699 114.047 427.849 113.964L429.341 113.096C429.432 113.033 429.544 113.009 429.653 113.028C429.734 113.028 429.775 113.137 429.775 113.272C429.775 113.408 429.775 113.272 429.775 113.381C429.78 113.435 429.78 113.49 429.775 113.544L420.825 132.31C420.751 132.466 420.664 132.616 420.567 132.758C420.46 132.893 420.326 133.004 420.174 133.083L418.682 133.951C418.637 133.983 418.586 134.005 418.533 134.017C418.479 134.028 418.424 134.029 418.37 134.019C418.289 134.019 418.248 133.91 418.248 133.775C418.243 133.739 418.243 133.702 418.248 133.666C418.242 133.612 418.242 133.558 418.248 133.504L427.198 114.737ZM419.062 123.374C419.059 123.622 419.125 123.866 419.251 124.08C419.36 124.202 419.536 124.188 419.807 124.08C420.05 123.942 420.244 123.734 420.363 123.483C420.473 123.187 420.537 122.876 420.553 122.561C420.579 122.109 420.579 121.657 420.553 121.205C420.556 120.957 420.49 120.713 420.363 120.5C420.255 120.378 420.079 120.391 419.807 120.5C419.565 120.637 419.371 120.845 419.251 121.096C419.142 121.393 419.078 121.703 419.062 122.018C419.04 122.47 419.044 122.923 419.075 123.374H419.062ZM431.063 122.29C431.104 122.818 431.104 123.348 431.063 123.876C431.041 124.334 430.973 124.788 430.86 125.232C430.73 125.666 430.553 126.085 430.331 126.48C430.089 126.897 429.793 127.28 429.449 127.619C429.079 127.985 428.664 128.303 428.215 128.568C427.837 128.802 427.419 128.963 426.981 129.042C426.685 129.101 426.378 129.053 426.113 128.907C425.875 128.755 425.69 128.532 425.585 128.269C425.463 127.938 425.389 127.591 425.368 127.239C425.368 126.968 425.368 126.71 425.368 126.466C425.368 126.222 425.368 125.951 425.368 125.639C425.4 125.204 425.473 124.773 425.585 124.351C425.712 123.916 425.889 123.497 426.113 123.103C426.356 122.69 426.648 122.308 426.981 121.964C427.352 121.602 427.766 121.287 428.215 121.029C428.594 120.793 429.012 120.628 429.449 120.54C429.746 120.488 430.051 120.536 430.317 120.676C430.556 120.828 430.741 121.051 430.846 121.313C430.972 121.625 431.05 121.954 431.077 122.29H431.063ZM427.47 125.842C427.467 126.09 427.533 126.334 427.659 126.547C427.768 126.669 427.958 126.656 428.215 126.547C428.463 126.417 428.659 126.207 428.771 125.951C428.888 125.657 428.952 125.345 428.961 125.029C429 124.578 429 124.124 428.961 123.673C428.969 123.424 428.903 123.179 428.771 122.968C428.663 122.846 428.487 122.859 428.215 122.968C427.973 123.105 427.779 123.313 427.659 123.564C427.552 123.861 427.488 124.171 427.47 124.486C427.448 124.938 427.453 125.391 427.483 125.842H427.47Z" fill="#FAFAFA"/>
<path d="M214.611 302.173V378.5L280.723 340.33V264.016L214.611 302.173Z" fill="#0085A6"/>
<path opacity="0.7" d="M214.611 302.173V378.5L280.723 340.33V264.016L214.611 302.173Z" fill="#FAFAFA"/>
<path d="M214.611 322.35C216.849 323.217 219.737 322.865 222.884 320.994C230.003 316.926 235.78 306.878 235.78 298.661C235.952 295.988 235.06 293.356 233.299 291.339L214.611 302.118V322.35Z" fill="#0085A6"/>
<path d="M243.727 324.234C244.378 322.092 245.667 321.997 246.602 324.044L255.933 344.384L269.833 291.759C270.416 289.589 271.379 289.576 271.976 291.759L280.723 322.824V340.343L229.908 369.686L243.727 324.234Z" fill="#0085A6"/>
<g opacity="0.2">
<path opacity="0.2" d="M214.611 322.35C216.849 323.218 219.737 322.865 222.884 320.994C230.003 316.926 235.78 306.878 235.78 298.661C235.952 295.988 235.06 293.356 233.299 291.339L214.611 302.119V322.35Z" fill="black"/>
<path opacity="0.2" d="M243.727 324.234C244.378 322.092 245.667 321.997 246.602 324.044L255.933 344.384L269.833 291.759C270.416 289.589 271.379 289.576 271.976 291.759L280.723 322.824V340.343L229.908 369.686L243.727 324.234Z" fill="black"/>
</g>
<path d="M279.366 266.416V339.638L215.967 376.249V303.027L279.366 266.416ZM280.723 264.07L214.611 302.227V378.554L280.723 340.384V264.016V264.07Z" fill="#0085A6"/>
<path opacity="0.7" d="M279.366 266.416V339.638L215.967 376.249V303.027L279.366 266.416ZM280.723 264.07L214.611 302.227V378.554L280.723 340.384V264.016V264.07Z" fill="#FAFAFA"/>
<path d="M302.76 251.297V327.611L368.858 289.454V213.14L302.76 251.297Z" fill="#0085A6"/>
<path opacity="0.7" d="M302.76 251.297V327.611L368.858 289.454V213.14L302.76 251.297Z" fill="#FAFAFA"/>
<path d="M302.76 271.474C304.997 272.341 307.872 271.975 311.019 270.118C318.138 266.05 323.915 256.002 323.915 247.771C324.085 245.103 323.193 242.476 321.434 240.462L302.76 251.242V271.474Z" fill="#0085A6"/>
<path d="M331.862 273.358C332.527 271.202 333.815 271.121 334.751 273.155L344.067 293.494L357.981 240.869C358.551 238.7 359.514 238.686 360.124 240.869L368.858 271.921V289.467L318.043 318.797L331.862 273.358Z" fill="#0085A6"/>
<g opacity="0.2">
<path opacity="0.2" d="M302.76 271.474C304.997 272.341 307.872 271.975 311.019 270.118C318.138 266.05 323.915 256.002 323.915 247.771C324.085 245.103 323.193 242.476 321.434 240.463L302.76 251.243V271.474Z" fill="black"/>
<path opacity="0.2" d="M331.862 273.358C332.527 271.202 333.815 271.121 334.751 273.155L344.067 293.494L357.981 240.869C358.551 238.7 359.514 238.686 360.124 240.869L368.858 271.921V289.467L318.043 318.797L331.862 273.358Z" fill="black"/>
</g>
<path d="M367.501 215.486V288.708L304.116 325.319V252.097L367.501 215.486ZM368.858 213.126L302.76 251.297V327.611L368.858 289.467V213.126Z" fill="#0085A6"/>
<path opacity="0.7" d="M367.501 215.486V288.708L304.116 325.319V252.097L367.501 215.486ZM368.858 213.126L302.76 251.297V327.611L368.858 289.467V213.126Z" fill="#FAFAFA"/>
<path d="M390.895 200.407V276.735L456.993 238.578V162.25L390.895 200.407Z" fill="#0085A6"/>
<path opacity="0.7" d="M390.895 200.407V276.735L456.993 238.578V162.25L390.895 200.407Z" fill="#FAFAFA"/>
<path d="M390.895 220.598C393.132 221.465 396.007 221.099 399.154 219.242C406.273 215.174 412.05 205.139 412.05 196.909C412.219 194.236 411.328 191.605 409.569 189.586L390.895 200.366V220.598Z" fill="#0085A6"/>
<path d="M419.997 222.469C420.662 220.326 421.95 220.245 422.886 222.279L432.202 242.618L446.116 189.98C446.686 187.81 447.649 187.81 448.259 189.98L456.993 221.045V238.578L406.178 267.907L419.997 222.469Z" fill="#0085A6"/>
<g opacity="0.2">
<path opacity="0.2" d="M390.895 220.598C393.132 221.465 396.007 221.099 399.154 219.242C406.273 215.174 412.05 205.14 412.05 196.909C412.219 194.237 411.328 191.606 409.569 189.587L390.895 200.367V220.598Z" fill="black"/>
<path opacity="0.2" d="M419.997 222.469C420.662 220.326 421.95 220.245 422.886 222.279L432.202 242.618L446.116 189.98C446.686 187.81 447.649 187.81 448.259 189.98L456.993 221.045V238.578L406.178 267.907L419.997 222.469Z" fill="black"/>
</g>
<path d="M455.636 164.596V237.818L392.251 274.43V201.207L455.636 164.596ZM456.993 162.25L390.895 200.407V276.735L456.993 238.578V162.25Z" fill="#0085A6"/>
<path opacity="0.7" d="M455.636 164.596V237.818L392.251 274.43V201.207L455.636 164.596ZM456.993 162.25L390.895 200.407V276.735L456.993 238.578V162.25Z" fill="#FAFAFA"/>
<path d="M448.734 188.366L468.208 193.559L461.644 197.261L473.551 205.98L472.005 208.367L459.745 199.594L458.118 206.753L448.734 188.366Z" fill="#263238"/>
<path d="M549.874 140.405L507.346 164.948C506.319 165.617 505.465 166.517 504.852 167.578C504.24 168.638 503.886 169.828 503.82 171.05V205.397L492.971 216.597C491.411 218.211 491.954 219.309 494.178 219.038L503.766 217.913V232.91C503.766 235.147 505.339 236.069 507.291 234.944L549.82 210.387C550.847 209.72 551.702 208.819 552.314 207.759C552.927 206.698 553.281 205.508 553.346 204.285V142.439C553.4 140.188 551.827 139.28 549.874 140.405Z" fill="#37474F"/>
<path d="M517.991 177.912L516.201 177.776C513.842 177.586 511.034 176.651 511.034 173.274C511.103 172.031 511.462 170.821 512.084 169.742C512.706 168.664 513.573 167.746 514.615 167.064C516.161 166.182 517.476 166.549 517.978 167.823C518.489 165.916 519.687 164.264 521.341 163.186C523.321 162.047 524.921 162.969 524.921 165.26C524.921 168.569 522.128 172.759 519.781 175.688L517.991 177.912Z" fill="#FAFAFA"/>
<path d="M534.889 158.548L544.382 153.124C546.321 151.999 547.908 152.514 547.908 154.277C547.761 155.358 547.366 156.39 546.755 157.293C546.143 158.197 545.331 158.946 544.382 159.484L534.889 164.908C532.936 166.033 531.363 165.518 531.363 163.755C531.506 162.673 531.9 161.64 532.512 160.736C533.124 159.832 533.937 159.083 534.889 158.548Z" fill="#FAFAFA"/>
<path d="M514.547 188.949L524.04 183.525C525.992 182.4 527.566 182.915 527.566 184.664C527.424 185.749 527.032 186.785 526.419 187.691C525.807 188.597 524.993 189.348 524.04 189.885L514.547 195.309C512.607 196.434 511.034 195.919 511.034 194.17C511.177 193.087 511.568 192.053 512.177 191.147C512.787 190.241 513.598 189.489 514.547 188.949Z" fill="#FAFAFA"/>
<path d="M514.547 202.211L544.382 185.003C546.321 183.878 547.908 184.393 547.908 186.142C547.763 187.226 547.369 188.261 546.757 189.166C546.146 190.072 545.333 190.824 544.382 191.363L514.547 208.57C512.607 209.696 511.034 209.18 511.034 207.431C511.177 206.349 511.568 205.314 512.177 204.408C512.787 203.502 513.598 202.75 514.547 202.211Z" fill="#FAFAFA"/>
<path d="M514.547 214.591L544.382 197.383C546.321 196.258 547.908 196.773 547.908 198.536C547.761 199.617 547.366 200.649 546.755 201.552C546.143 202.456 545.331 203.205 544.382 203.743L514.547 220.95C512.607 222.076 511.034 221.56 511.034 219.811C511.177 218.729 511.568 217.694 512.177 216.788C512.787 215.882 513.598 215.13 514.547 214.591Z" fill="#FAFAFA"/>
<path d="M68.6372 462.733L134.735 500.89L200.846 462.733L134.735 424.563L68.6372 462.733Z" fill="#0085A6"/>
<path opacity="0.7" d="M68.6372 462.733L134.735 500.89L200.846 462.733L134.735 424.563L68.6372 462.733Z" fill="#FAFAFA"/>
<path d="M86.1177 472.822C90.0538 472.69 93.9061 471.651 97.3736 469.784C104.493 465.716 104.493 458.936 97.3736 454.869C94.2694 453.177 90.8376 452.174 87.3111 451.926L68.6372 462.733L86.1177 472.822Z" fill="#0085A6"/>
<path d="M131.412 465.364C130.531 464.089 132.389 463.682 135.562 464.428L167.228 471.913L142.506 441.58C141.489 440.332 142.912 440.048 145.706 440.956L185.726 453.974L200.901 462.733L150.086 492.063L131.412 465.364Z" fill="#0085A6"/>
<g opacity="0.2">
<path opacity="0.2" d="M86.1177 472.822C90.0538 472.69 93.9061 471.651 97.3736 469.784C104.493 465.716 104.493 458.936 97.3736 454.869C94.2694 453.177 90.8376 452.174 87.3111 451.926L68.6372 462.733L86.1177 472.822Z" fill="black"/>
<path opacity="0.2" d="M131.412 465.364C130.531 464.089 132.389 463.682 135.562 464.428L167.228 471.913L142.506 441.58C141.489 440.332 142.912 440.048 145.706 440.956L185.726 453.974L200.901 462.733L150.086 492.063L131.412 465.364Z" fill="black"/>
</g>
<path d="M134.681 426.136L198.08 462.747L134.681 499.358L71.2952 462.747L134.681 426.136ZM134.681 424.576L68.6372 462.733L134.681 500.89L200.792 462.733L134.681 424.576Z" fill="#0085A6"/>
<path opacity="0.7" d="M134.681 426.136L198.08 462.747L134.681 499.358L71.2952 462.747L134.681 426.136ZM134.681 424.576L68.6372 462.733L134.681 500.89L200.792 462.733L134.681 424.576Z" fill="#FAFAFA"/>
<path d="M68.6372 462.733V469.093L134.735 507.25V500.89L68.6372 462.733Z" fill="#0085A6"/>
<path opacity="0.6" d="M68.6372 462.733V469.093L134.735 507.25V500.89L68.6372 462.733Z" fill="#FAFAFA"/>
<path d="M200.846 462.733L134.735 500.89V507.25L200.846 469.093V462.733Z" fill="#0085A6"/>
<path opacity="0.1" d="M200.846 462.733L134.735 500.89V507.25L200.846 469.093V462.733Z" fill="#FAFAFA"/>
<path d="M580.943 319.733L514.832 281.575L448.734 319.733L514.832 357.889L580.943 319.733Z" fill="#263238"/>
<path d="M514.832 281.575L448.734 319.733V370.608L514.832 408.779V281.575Z" fill="#263238"/>
<path d="M465.265 380.155L454.253 303.841L520.351 265.684L531.376 341.998L465.265 380.155Z" fill="#0085A6"/>
<path opacity="0.7" d="M465.265 380.155L454.253 303.841L520.351 265.684L531.376 341.998L465.265 380.155Z" fill="#FAFAFA"/>
<path d="M454.253 303.841L447.879 302.457L458.539 376.276L465.265 380.155L454.253 303.841Z" fill="#0085A6"/>
<path opacity="0.1" d="M454.253 303.841L447.879 302.457L458.539 376.276L465.265 380.155L454.253 303.841Z" fill="#FAFAFA"/>
<path d="M513.991 264.3L520.351 265.684L454.253 303.841L447.879 302.457L513.991 264.3Z" fill="#0085A6"/>
<path opacity="0.6" d="M513.991 264.3L520.351 265.684L454.253 303.841L447.879 302.457L513.991 264.3Z" fill="#FAFAFA"/>
<path d="M473.971 303.271C473.63 301.677 472.941 300.177 471.954 298.879C470.967 297.58 469.707 296.515 468.262 295.759L454.253 303.895L456.342 318.349C457.669 319.025 459.118 319.429 460.604 319.538C462.089 319.648 463.582 319.46 464.994 318.987C468.163 317.932 470.832 315.746 472.489 312.846C474.145 309.946 474.673 306.536 473.971 303.271Z" fill="#0085A6"/>
<path opacity="0.2" d="M473.971 303.271C473.63 301.677 472.941 300.177 471.954 298.879C470.967 297.58 469.707 296.515 468.262 295.759L454.253 303.895L456.342 318.349C457.669 319.025 459.118 319.429 460.604 319.538C462.089 319.648 463.582 319.46 464.994 318.987C468.163 317.932 470.832 315.746 472.489 312.846C474.145 309.946 474.673 306.536 473.971 303.271Z" fill="black"/>
<path d="M488.929 306.458C489.35 304.247 490.489 304.098 491.479 306.119L501.216 326.078L508.648 283.352C509.027 281.142 510.194 280.952 511.251 282.931L527.132 312.614L531.376 341.97L476.29 373.795C476.182 373.198 486.068 321.4 488.929 306.458Z" fill="#0085A6"/>
<path opacity="0.2" d="M488.929 306.458C489.35 304.247 490.489 304.098 491.479 306.119L501.216 326.078L508.648 283.352C509.027 281.142 510.194 280.952 511.251 282.931L527.132 312.614L531.376 341.97L476.29 373.795C476.182 373.198 486.068 321.4 488.929 306.458Z" fill="black"/>
<path d="M519.293 267.853L529.898 341.279L466.323 377.985L455.718 304.559L519.293 267.853ZM520.351 265.684L454.253 303.841L465.265 380.155L531.376 341.998L520.351 265.684Z" fill="#0085A6"/>
<path opacity="0.7" d="M519.293 267.853L529.898 341.279L466.323 377.985L455.718 304.559L519.293 267.853ZM520.351 265.684L454.253 303.841L465.265 380.155L531.376 341.998L520.351 265.684Z" fill="#FAFAFA"/>
<path d="M487.302 392.874L476.277 316.56L542.388 278.403L553.4 354.717L487.302 392.874Z" fill="#0085A6"/>
<path opacity="0.7" d="M487.302 392.874L476.277 316.56L542.388 278.403L553.4 354.717L487.302 392.874Z" fill="#FAFAFA"/>
<path d="M476.277 316.56L469.917 315.176L480.576 388.995L487.302 392.874L476.277 316.56Z" fill="#0085A6"/>
<path opacity="0.1" d="M476.277 316.56L469.917 315.176L480.576 388.995L487.302 392.874L476.277 316.56Z" fill="#FAFAFA"/>
<path d="M536.014 277.019L542.388 278.403L476.277 316.56L469.917 315.176L536.014 277.019Z" fill="#0085A6"/>
<path opacity="0.6" d="M536.014 277.019L542.388 278.403L476.277 316.56L469.917 315.176L536.014 277.019Z" fill="#FAFAFA"/>
<path d="M495.995 315.99C495.656 314.393 494.968 312.89 493.981 311.589C492.995 310.288 491.733 309.221 490.286 308.464L476.277 316.6L478.365 331.055C479.693 331.73 481.142 332.134 482.627 332.244C484.113 332.353 485.605 332.166 487.017 331.692C490.184 330.638 492.851 328.453 494.507 325.556C496.163 322.659 496.693 319.253 495.995 315.99Z" fill="#0085A6"/>
<path opacity="0.2" d="M495.995 315.99C495.656 314.393 494.968 312.89 493.981 311.589C492.995 310.288 491.733 309.221 490.286 308.464L476.277 316.6L478.365 331.055C479.693 331.73 481.142 332.134 482.627 332.244C484.113 332.353 485.605 332.166 487.017 331.692C490.184 330.638 492.851 328.453 494.507 325.556C496.163 322.659 496.693 319.253 495.995 315.99Z" fill="black"/>
<path d="M510.967 319.177C511.387 316.966 512.526 316.817 513.516 318.838L523.253 338.811L530.671 296.098C531.051 293.874 532.231 293.698 533.289 295.678L549.169 325.36L553.4 354.717L498.314 386.514C498.205 385.917 508.105 334.119 510.967 319.177Z" fill="#0085A6"/>
<path opacity="0.2" d="M510.967 319.177C511.387 316.966 512.526 316.817 513.516 318.838L523.253 338.811L530.671 296.098C531.051 293.874 532.231 293.698 533.289 295.678L549.169 325.36L553.4 354.717L498.314 386.514C498.205 385.917 508.105 334.119 510.967 319.177Z" fill="black"/>
<path d="M541.33 280.572L551.935 353.998L488.36 390.704L477.782 317.278L541.358 280.572H541.33ZM542.415 278.403L476.277 316.587L487.275 392.874L553.373 354.717L542.361 278.403H542.415Z" fill="#0085A6"/>
<path opacity="0.7" d="M541.33 280.572L551.935 353.998L488.36 390.704L477.782 317.278L541.358 280.572H541.33ZM542.415 278.403L476.277 316.587L487.275 392.874L553.373 354.717L542.361 278.403H542.415Z" fill="#FAFAFA"/>
<path d="M514.832 408.779L580.943 370.622V319.733L514.832 357.889V408.779Z" fill="#37474F"/>
<path d="M514.845 357.889L448.734 319.733V370.609L514.845 408.793V357.889ZM486.529 354.269L477.036 348.845C476.083 348.309 475.268 347.558 474.656 346.651C474.044 345.745 473.652 344.709 473.51 343.625C473.51 341.862 475.083 341.36 477.036 342.472L486.529 347.896C487.48 348.435 488.293 349.187 488.905 350.092C489.517 350.998 489.91 352.033 490.055 353.116C490.055 354.879 488.468 355.395 486.529 354.269Z" fill="#455A64"/>
<path d="M580.951 319.727L514.842 357.89L531.366 386.508L597.476 348.344L580.951 319.727Z" fill="#455A64"/>
<path d="M448.734 332.452L443.228 335.638L448.734 319.733V332.452Z" fill="#263238"/>
<path d="M212.401 83.4682L208.142 85.109V75.7121C208.142 68.2678 202.189 66.4779 195.734 70.2068C189.279 73.9222 184.058 82.9936 184.058 90.4379V91.7939C183.149 91.5132 182.188 91.443 181.248 91.5886C180.308 91.7343 179.414 92.092 178.633 92.6346C176.181 94.2267 174.14 96.3759 172.676 98.9067C171.213 101.438 170.368 104.278 170.211 107.198V107.821L164.272 111.252C162.656 112.299 161.312 113.714 160.348 115.38C159.384 117.046 158.828 118.917 158.725 120.839C158.725 124.378 161.207 125.802 164.272 124.039L212.401 96.255C214.018 95.2064 215.363 93.7897 216.327 92.121C217.291 90.4524 217.846 88.5792 217.947 86.6548C217.947 83.1428 215.466 81.7055 212.401 83.4682Z" fill="#F0F0F0"/>
<path d="M307.154 446.665L306.909 438.461L313.69 437.295L314.083 444.292C314.409 445.919 315.562 446.448 315.86 447.37C316.158 448.292 311.222 457.675 308.455 459.75C305.689 461.825 301.187 459.167 300.753 458.177C300.319 457.187 304.455 457.919 305.133 456.482C306.055 454.557 307.154 446.665 307.154 446.665Z" fill="#FFA8A7"/>
<path d="M314.694 445.648C313.799 446.394 313.121 448.279 311.886 450.855C310.652 453.431 308.903 457.635 306.991 458.191C304.767 458.896 300.4 457.621 303.18 457.404C303.79 457.404 304.862 457.133 305.147 456.482C305.256 456.256 305.342 456.02 305.404 455.777C304.442 456.038 303.442 456.13 302.448 456.048C301.71 455.934 300.955 456.029 300.269 456.324C299.583 456.619 298.994 457.102 298.569 457.716C298.108 458.408 298.854 459.574 298.854 459.574C299.708 460.618 301.295 461.662 304.957 461.933C308.618 462.204 310.788 461.676 312.103 459.221C313.798 456.478 315.655 453.838 317.664 451.316C319.033 449.214 316.823 446.204 314.694 445.648Z" fill="#263238"/>
<path d="M305.363 455.926C305.146 456.482 303.533 456.659 302.733 456.767C301.932 456.875 301.539 457.621 302.841 458.042C305.092 458.272 306.204 455.886 305.363 455.926Z" fill="#FFA8A7"/>
<path d="M371.448 420.142L365.806 414.217L370.119 408.793L375.055 413.769C376.411 414.772 377.605 414.406 378.432 414.895C379.259 415.383 381.809 425.742 381.144 429.078C380.48 432.414 375.326 433.458 374.363 432.997C373.401 432.536 376.967 430.353 376.52 428.834C375.855 426.773 371.448 420.142 371.448 420.142Z" fill="#FFA8A7"/>
<path d="M376.411 414.379C376.235 415.532 376.967 417.389 377.767 420.129C378.567 422.868 380.019 427.166 378.974 428.875C377.781 430.868 373.672 432.82 375.611 430.814C376.031 430.366 376.682 429.458 376.465 428.82C376.397 428.577 376.306 428.341 376.194 428.115C375.64 428.95 374.948 429.684 374.146 430.285C373.518 430.684 373.016 431.255 372.702 431.931C372.387 432.606 372.272 433.357 372.37 434.095C372.478 434.922 373.807 435.302 373.807 435.302C375.164 435.519 377.021 435.234 379.937 433.024C382.853 430.814 384.128 428.956 383.463 426.244C382.914 423.068 382.547 419.862 382.365 416.644C382.026 414.217 378.364 413.376 376.411 414.379Z" fill="#263238"/>
<path d="M376.249 428.251C376.452 428.82 375.353 430.014 374.825 430.638C374.296 431.261 374.499 432.062 375.76 431.506C377.605 430.19 376.845 427.668 376.249 428.251Z" fill="#FFA8A7"/>
<path d="M325.746 294.511C327.55 288.247 326.411 284.437 325.027 279.013C322.478 269.087 320.064 259.121 320.064 259.121C320.064 259.121 318.26 221.316 318.179 217.872C318.084 213.804 317.297 211.526 316.958 208.082C316.769 206.129 315.372 205.926 315.507 205.994V213.641C314.257 212.525 313.075 211.334 311.968 210.075C310.693 208.543 309.405 208.719 308.998 209.492C308.591 210.265 310.693 211.77 311.71 213.763C312.856 215.755 314.129 217.671 315.521 219.499V240.164L310.096 243.31L309.039 263.053L317.474 293.766L325.746 294.511Z" fill="#FFA8A7"/>
<path d="M301.132 281.535L302.299 291.813L312.429 292.979L310.964 279.338L301.132 281.535Z" fill="#FFA8A7"/>
<path d="M249.396 202.008V278.322L315.507 240.165V163.837L249.396 202.008Z" fill="#0085A6"/>
<path opacity="0.7" d="M249.396 202.008V278.322L315.507 240.165V163.837L249.396 202.008Z" fill="#FAFAFA"/>
<path d="M249.396 222.184C251.634 223.052 254.522 222.686 257.668 220.828C264.788 216.76 270.565 206.712 270.565 198.482C270.731 195.81 269.84 193.18 268.083 191.159L249.396 202.007V222.184Z" fill="#0085A6"/>
<path opacity="0.2" d="M249.396 222.184C251.634 223.052 254.522 222.686 257.668 220.828C264.788 216.76 270.565 206.712 270.565 198.482C270.731 195.81 269.84 193.18 268.083 191.159L249.396 202.007V222.184Z" fill="black"/>
<path d="M278.512 224.069C279.163 221.913 280.451 221.831 281.387 223.865L290.717 244.205L304.631 191.58C305.201 189.41 306.164 189.397 306.76 191.58L315.507 222.645V240.178L264.693 269.507L278.512 224.069Z" fill="#0085A6"/>
<path opacity="0.2" d="M278.512 224.069C279.163 221.913 280.451 221.831 281.387 223.865L290.717 244.205L304.631 191.58C305.201 189.41 306.164 189.397 306.76 191.58L315.507 222.645V240.178L264.693 269.507L278.512 224.069Z" fill="black"/>
<path d="M314.151 166.196V239.419L250.752 276.03V202.808L314.151 166.196ZM315.507 163.837L249.396 202.008V278.322L315.507 240.165V163.837Z" fill="#0085A6"/>
<path opacity="0.7" d="M314.151 166.196V239.419L250.752 276.03V202.808L314.151 166.196ZM315.507 163.837L249.396 202.008V278.322L315.507 240.165V163.837Z" fill="#FAFAFA"/>
<path d="M249.396 278.321L243.89 275.148V198.821L249.396 202.007V278.321Z" fill="#0085A6"/>
<path opacity="0.1" d="M249.396 278.321L243.89 275.148V198.821L249.396 202.007V278.321Z" fill="#FAFAFA"/>
<path d="M243.89 198.821L309.988 160.664L315.507 163.837L249.396 202.007L243.89 198.821Z" fill="#0085A6"/>
<path opacity="0.6" d="M243.89 198.821L309.988 160.664L315.507 163.837L249.396 202.007L243.89 198.821Z" fill="#FAFAFA"/>
<path d="M325.746 294.511C325.57 295.393 325.163 297.128 324.39 300.057C322.898 305.481 320.647 313.17 319.684 315.732C319.684 315.841 319.603 315.936 319.562 316.017L323.563 322.526C323.563 322.526 320.851 325.848 312.904 328.167C304.957 330.485 295.274 325.78 295.274 325.78C295.274 325.78 293.226 315.041 292.846 312.031C292.846 311.854 292.846 311.583 292.738 311.271C292.657 310.634 292.575 310.064 292.453 309.536C292.453 309.536 292.453 309.441 292.453 309.386C292.304 308.736 292.195 307.868 292.006 306.905C291.79 305.246 291.184 303.661 290.239 302.28C289.294 300.899 288.036 299.761 286.568 298.959C285.442 298.349 262.076 289.101 258.387 286.85C257.444 286.363 256.62 285.675 255.973 284.833C255.326 283.992 254.872 283.019 254.644 281.982C254.129 280.559 247.023 257.1 246.182 254.768C245.47 252.824 244.276 251.093 242.71 249.737C240.866 247.758 240.215 247.31 239.645 245.534C239.076 243.757 239.795 243.324 240.079 242.442C240.473 241.222 240.079 240.368 240.296 239.445C240.635 238.293 241.341 237.995 241.517 237.479C241.604 236.564 241.763 235.658 241.992 234.767C242.361 233.91 243.025 233.213 243.863 232.801V235.513C244.88 239.676 249.45 241.724 250.033 241.425C250.616 241.127 251.471 238.713 252.746 237.71C254.02 236.706 255.783 236.801 255.132 238.062C254.766 238.795 253.925 241.52 253.491 242.727C253.058 243.934 251.769 246.469 252.054 248.408C252.42 250.998 264.463 277.697 264.463 277.697C264.463 277.697 277.549 281.982 287.937 285.209C294.379 287.216 299.681 288.45 299.681 288.45L302.895 287.881L304.102 287.664L319.752 284.789L320.322 284.681C320.835 284.613 321.355 284.613 321.868 284.681C322.586 284.893 323.252 285.253 323.822 285.739C324.392 286.225 324.854 286.825 325.177 287.501C326.186 289.698 326.388 292.181 325.746 294.511Z" fill="#FFA8A7"/>
<path d="M303.072 331.245C303.072 331.245 322.763 379.327 324.553 383.721C325.683 386.931 327.905 389.643 330.832 391.382C333.463 393.213 367.759 416.82 367.759 416.82C373.007 414.637 373.116 411.22 373.116 411.22C373.116 411.22 355.405 388.643 351.662 385.389C347.919 382.134 340.989 380.48 340.989 380.48L332.269 343.869C331.103 338.255 331.822 332.045 323.468 322.485L303.072 331.245Z" fill="#37474F"/>
<path d="M309.228 328.56C313.297 334.201 317.026 339.164 318.084 345.659C320.308 359.395 314.924 376.154 314.273 386.406C316.228 389.499 317.418 393.013 317.745 396.657C317.935 400.874 314.219 439.695 314.219 439.695C311.923 440.963 309.273 441.439 306.679 441.051C306.679 441.051 298.407 384.955 296.82 366.717C295.233 348.479 295.193 325.834 295.193 325.834L309.228 328.56Z" fill="#37474F"/>
<path d="M294.596 266.253C294.069 264.806 293.916 263.248 294.154 261.726C294.391 260.204 295.009 258.766 295.952 257.548C299.817 252.327 307.167 250.103 314.938 252.802C318.803 254.158 323.522 258.551 323.4 268.084C323.319 273.928 306.801 277.074 306.882 281.087L294.596 266.253Z" fill="#263238"/>
<path d="M294.094 268.436C294.094 268.436 291.639 271.813 291.924 272.206C292.445 272.582 293.028 272.862 293.647 273.033L294.094 268.436Z" fill="#F28F8F"/>
<path d="M301.621 257.71C299.329 258.768 295.369 260.734 293.999 268.938C292.643 277.372 293.999 280.138 295.07 281.304C295.816 282.091 300.02 282.281 302.136 281.725C304.848 281.02 310.815 279.013 313.677 274.714C317.04 269.711 317.989 262.89 314.49 260.043C312.716 258.601 310.605 257.63 308.355 257.223C306.105 256.815 303.788 256.983 301.621 257.71Z" fill="#FFA8A7"/>
<path d="M295.193 325.794L323.522 322.526C325.516 325.794 330.303 331.38 329.286 336.75C328.052 343.245 324.553 347.815 313.853 351.001" fill="#37474F"/>
<path d="M323.183 304.22C321.746 309.549 320.566 313.305 319.657 315.732C319.657 315.841 319.576 315.936 319.535 316.017L323.536 322.526C323.536 322.526 320.823 325.848 312.876 328.167C304.93 330.485 295.247 325.78 295.247 325.78C295.247 325.78 293.199 315.041 292.819 312.031C292.819 311.854 292.819 311.583 292.711 311.271C292.602 310.959 292.535 310.159 292.426 309.536C292.426 309.536 292.426 309.441 292.426 309.386C292.25 308.315 292.06 307.271 291.978 306.905C302.19 302.349 299.79 288.41 299.79 288.41L303.004 287.84L304.211 287.623C308.889 286.796 312.226 286.172 316.416 285.345C316.579 285.304 325.516 295.542 323.183 304.22Z" fill="#FAFAFA"/>
<path d="M320.471 313.264C317.223 315.342 313.797 317.125 310.232 318.594C313.495 318.526 316.689 317.64 319.521 316.017L320.471 313.264Z" fill="#F0F0F0"/>
<path d="M300.943 258.036C300.943 258.036 298.651 265.67 300.766 270.66C300.766 270.66 302.272 267.704 304.835 268.694C307.398 269.684 307.018 273.141 304.835 274.823C304.29 275.308 303.618 275.63 302.898 275.75C302.178 275.87 301.439 275.783 300.766 275.501C300.878 277.978 301.781 280.354 303.343 282.281C306.027 283.195 308.915 283.333 311.674 282.678C314.434 282.023 316.952 280.602 318.938 278.579C325.488 272.165 325.217 260.138 316.118 256.653C307.018 253.168 300.943 258.036 300.943 258.036Z" fill="#263238"/>
<path d="M317.419 366.297L319.738 347.652C319.738 347.652 326.519 345.076 329.435 341.089C328.124 344.547 325.75 347.5 322.654 349.523C322.193 350.106 318.586 369.225 318.586 369.225L317.419 366.297Z" fill="#263238"/>
<path d="M327.699 265.697C324.553 267.053 322.18 264.558 320.457 260.572C318.735 256.585 318.355 252.598 321.488 251.242C324.621 249.886 328.404 252.436 330.113 256.422C331.822 260.409 330.832 264.341 327.699 265.697Z" fill="#263238"/>
<path d="M315.507 213.641C314.576 213.103 313.779 212.361 313.175 211.472C312.225 210.116 310.869 209.465 310.056 209.926C309.459 210.251 310.164 211.282 310.612 212.136C311.271 213.792 312.186 215.334 313.324 216.706C314.585 217.872 315.494 218.157 315.494 219.499C316.186 218.716 316.55 217.696 316.511 216.652C316.499 215.568 316.148 214.516 315.507 213.641Z" fill="#FFA8A7"/>
</svg>
