<svg width="426" height="61" viewBox="0 0 426 61" fill="none" xmlns="http://www.w3.org/2000/svg">
<path class="logo-path-style" clip-rule="evenodd" d="M37.6024 0.485078C35.7385 -0.181857 33.6979 -0.160439 31.8483 0.545468L8.44064 9.47956C7.94014 9.67059 7.50577 10.0029 7.19023 10.4361L1.59612 18.1167C-1.53836 22.4203 0.123933 28.5226 5.00709 30.6385L6.65906 31.3543V43.2147C6.65906 46.5299 8.62772 49.5279 11.6683 50.8432L33.6471 60.3504C34.3275 60.6447 35.0975 60.6536 35.7846 60.375L59.3339 50.8251C62.4682 49.554 64.5191 46.5075 64.5191 43.1229V30.1836L65.4853 29.7589C70.3113 27.6373 71.9664 21.6106 68.9019 17.3184L64.0033 10.4573C63.6752 9.99778 63.2145 9.64958 62.6831 9.45943L37.6024 0.485078ZM12.1947 43.2147V33.7529L20.9128 37.5305C24.9014 39.2587 29.5466 37.6162 31.5653 33.7639L31.9773 32.9775V53.5925L13.8644 45.7575C12.8509 45.3191 12.1947 44.3198 12.1947 43.2147ZM37.513 53.6962V34.1777C39.6524 37.6376 44.0517 39.0791 47.8738 37.4196L58.9835 32.596V43.1229C58.9835 44.2511 58.2999 45.2666 57.2551 45.6903L37.513 53.6962ZM63.2591 24.6863L60.6498 25.8334L60.6382 25.8385L45.6707 32.337C44.2919 32.9357 42.6877 32.3236 42.0569 30.9582L38.5282 23.3194L60.7147 15.3807L64.398 20.5395C65.4195 21.9702 64.8678 23.9791 63.2591 24.6863ZM53.5297 12.0679L34.7761 18.7783L17.1946 12.0679L33.8208 5.72212C34.4373 5.48682 35.1175 5.47968 35.7388 5.70199L53.5297 12.0679ZM6.0694 21.3803L10.4173 15.4107L30.8461 23.2078L26.663 31.1907C25.9901 32.4748 24.4416 33.0223 23.1121 32.4462L7.20639 25.5542C5.57867 24.8489 5.02457 22.8148 6.0694 21.3803Z" fill="#FF7A00"/>
<path class="logo-path-style" clip-rule="evenodd" d="M345.878 1.17999C343.549 0.161858 340.895 0.193984 338.592 1.2682L320.476 9.71626C317.355 11.1717 315.359 14.3054 315.359 17.7514V43.786C315.359 47.2463 317.371 50.3903 320.512 51.8377L338.627 60.1872C340.911 61.2399 343.534 61.2714 345.842 60.2739L365.384 51.8299C368.629 50.4278 370.731 47.229 370.731 43.6915V17.8463C370.731 14.3226 368.645 11.1335 365.419 9.72303L345.878 1.17999ZM341.397 7.29452C341.973 7.02597 342.637 7.01794 343.219 7.27247L362.76 15.8155C363.567 16.1681 364.088 16.9654 364.088 17.8463V43.6915C364.088 44.5759 363.562 45.3756 362.751 45.7261L343.209 54.1701C342.632 54.4195 341.977 54.4116 341.406 54.1484L323.29 45.799C322.505 45.4371 322.002 44.6511 322.002 43.786V17.7514C322.002 16.8899 322.501 16.1064 323.281 15.7426L341.397 7.29452Z" fill="#FF7A00"/>
<path class="logo-path-style" d="M382.788 54.7617C381.577 56.5795 381.843 58.0896 383.586 59.2917C385.417 60.4645 386.938 60.2006 388.148 58.5L403.564 35.9378L419.733 58.4561C420.944 60.2153 422.435 60.4938 424.207 59.2917C425.979 57.9723 426.26 56.4329 425.049 54.6737L407.773 30.6161L425.226 6.64652C426.467 4.94592 426.216 3.45057 424.473 2.16046C422.79 0.899674 421.284 1.13424 419.955 2.86416L403.786 25.0305L387.883 2.86416C386.642 1.10492 385.136 0.826371 383.364 2.02852C381.622 3.37726 381.341 4.88728 382.522 6.55855L399.533 30.3083L382.788 54.7617Z" fill="#FF7A00"/>
<path class="logo-path-style" clip-rule="evenodd" d="M261.093 56.741C261.093 58.9108 262.185 59.9956 264.371 59.9956H288.646C293.933 59.9956 297.964 58.6322 300.74 55.9054C303.516 53.1786 304.904 49.1763 304.904 43.8986V40.9959C304.904 34.0469 302.482 29.3409 297.639 26.878C300.297 24.7962 301.626 21.6736 301.626 17.51V15.1351C301.626 10.6783 300.415 7.26249 297.993 4.88752C295.572 2.51254 292.072 1.32506 287.495 1.32506H264.371C262.185 1.32506 261.093 2.40992 261.093 4.57965V56.741ZM288.646 53.5304H267.604V31.452H288.646C292.19 31.452 294.7 32.1997 296.177 33.695C297.654 35.1611 298.392 37.5947 298.392 40.9959V43.8986C298.392 47.2998 297.624 49.7627 296.089 51.2874C294.582 52.7827 292.102 53.5304 288.646 53.5304ZM288.779 24.9868H267.604V7.79026H287.495C290.271 7.79026 292.234 8.34735 293.386 9.46153C294.538 10.5757 295.114 12.4669 295.114 15.1351V17.51C295.114 19.8264 294.641 21.6589 293.696 23.0077C292.751 24.3271 291.112 24.9868 288.779 24.9868Z" fill="#FF7A00"/>
<path class="logo-path-style" clip-rule="evenodd" d="M206.782 59.9956C204.597 59.9956 203.504 58.9108 203.504 56.741V4.57965C203.504 2.40992 204.597 1.32506 206.782 1.32506H229.906C234.484 1.32506 237.983 2.51254 240.405 4.88752C242.827 7.26249 244.038 10.6783 244.038 15.1351V17.51C244.038 21.6736 242.709 24.7962 240.051 26.878C244.894 29.3409 247.316 34.0469 247.316 40.9959V43.8986C247.316 49.1763 245.928 53.1786 243.152 55.9054C240.376 58.6322 236.344 59.9956 231.058 59.9956H206.782ZM210.016 53.5304H231.058C234.513 53.5304 236.994 52.7827 238.5 51.2874C240.036 49.7627 240.804 47.2998 240.804 43.8986V40.9959C240.804 37.5947 240.065 35.1611 238.589 33.695C237.112 32.1997 234.602 31.452 231.058 31.452H210.016V53.5304ZM210.016 24.9868H231.191C233.524 24.9868 235.163 24.3271 236.108 23.0077C237.053 21.6589 237.526 19.8264 237.526 17.51V15.1351C237.526 12.4669 236.95 10.5757 235.798 9.46153C234.646 8.34735 232.682 7.79026 229.906 7.79026H210.016V24.9868Z" fill="#FF7A00"/>
<path class="logo-path-style" d="M89.9849 56.6091C92.82 58.8668 96.9841 59.9956 102.477 59.9956H108.59C114.674 59.9956 119.133 58.6029 121.969 55.8174C124.804 53.0027 126.221 48.5606 126.221 42.4912V4.57965C126.221 2.40992 125.129 1.32506 122.943 1.32506C120.787 1.32506 119.709 2.40992 119.709 4.57965V42.4912C119.709 45.3353 119.37 47.5637 118.69 49.1763C118.041 50.7596 116.904 51.8885 115.279 52.5628C113.655 53.2079 111.425 53.5304 108.59 53.5304H102.477C98.7856 53.5304 96.1129 52.988 94.4591 51.9031C92.8348 50.7889 91.8602 48.7365 91.5354 45.7458C91.3287 43.5761 90.2212 42.4912 88.213 42.4912C87.1203 42.4912 86.2934 42.7991 85.7323 43.4148C85.1711 44.0012 84.9349 44.8222 85.0235 45.8777C85.496 50.745 87.1498 54.3221 89.9849 56.6091Z" fill="#FF7A00"/>
<path class="logo-path-style" clip-rule="evenodd" d="M160.29 1.2682C162.594 0.193984 165.247 0.161858 167.576 1.17999L187.117 9.72303C190.344 11.1335 192.429 14.3226 192.429 17.8463V43.6915C192.429 47.229 190.327 50.4278 187.083 51.8299L167.541 60.2739C165.232 61.2714 162.609 61.2399 160.325 60.1872L142.21 51.8377C139.069 50.3903 137.058 47.2463 137.058 43.786V17.7514C137.058 14.3054 139.053 11.1717 142.174 9.71626L160.29 1.2682ZM164.917 7.27247C164.335 7.01794 163.671 7.02597 163.096 7.29452L144.979 15.7426C144.199 16.1064 143.7 16.8899 143.7 17.7514L143.7 43.786C143.7 44.6511 144.203 45.4371 144.988 45.799L163.104 54.1484C163.675 54.4116 164.331 54.4195 164.908 54.1701L184.45 45.7261C185.261 45.3756 185.786 44.5759 185.786 43.6915V17.8463C185.786 16.9654 185.265 16.1681 184.458 15.8155L164.917 7.27247Z" fill="#FF7A00"/>
</svg>
