<svg width="32" height="32" viewBox="0 0 32 32" fill="none" xmlns="http://www.w3.org/2000/svg">
<path d="M13.1882 3L13.0312 3.813L12.4372 6.781C11.5001 7.15698 10.6257 7.67358 9.84424 8.313L6.93824 7.313L6.15624 7.063L5.75024 7.781L3.75024 11.219L3.34424 11.938L3.93824 12.468L6.18824 14.438C6.10424 14.948 6.00024 15.46 6.00024 16C6.00024 16.54 6.10524 17.05 6.18824 17.563L3.93824 19.531L3.34424 20.063L3.75024 20.781L5.75024 24.219L6.15624 24.937L6.93824 24.687L9.84424 23.687C10.626 24.3265 11.5008 24.8431 12.4382 25.219L13.0312 28.187L13.1872 29H18.8132L18.9692 28.187L19.5622 25.219C20.4997 24.8431 21.3744 24.3265 22.1562 23.687L25.0632 24.687L25.8432 24.937L26.2502 24.219L28.2502 20.781L28.6562 20.063L28.0632 19.531L25.8132 17.563C25.8952 17.05 26.0002 16.538 26.0002 16C26.0002 15.46 25.8952 14.95 25.8122 14.437L28.0622 12.469L28.6562 11.938L28.2502 11.218L26.2502 7.781L25.8442 7.063L25.0622 7.313L22.1562 8.313C21.3747 7.67358 20.5004 7.15698 19.5632 6.781L18.9692 3.813L18.8122 3H13.1882ZM14.8122 5H17.1882L17.6882 7.594L17.8132 8.187L18.3752 8.375C19.5021 8.72799 20.5371 9.32556 21.4062 10.125L21.8442 10.531L22.4062 10.344L24.9382 9.469L26.1252 11.5L24.1252 13.281L23.6562 13.656L23.8132 14.25C23.9412 14.82 24.0002 15.402 24.0002 16C24.0002 16.598 23.9412 17.18 23.8122 17.75L23.6872 18.344L24.1252 18.719L26.1252 20.5L24.9372 22.531L22.4072 21.656L21.8442 21.469L21.4062 21.875C20.5371 22.6744 19.5021 23.272 18.3752 23.625L17.8122 23.813L17.6872 24.406L17.1872 27H14.8122L14.3122 24.406L14.1882 23.813L13.6252 23.625C12.4984 23.272 11.4634 22.6744 10.5942 21.875L10.1562 21.469L9.59424 21.656L7.06324 22.531L5.87524 20.5L7.87524 18.719L8.34424 18.344L8.18824 17.75C8.06059 17.1755 7.99753 16.5885 8.00024 16C8.00024 15.402 8.05924 14.82 8.18824 14.25L8.34424 13.656L7.87524 13.281L5.87524 11.5L7.06324 9.469L9.59324 10.344L10.1562 10.531L10.5942 10.125C11.4634 9.32556 12.4984 8.72799 13.6252 8.375L14.1882 8.187L14.3122 7.594L14.8122 5ZM16.0002 11C13.2502 11 11.0002 13.25 11.0002 16C11.0002 18.75 13.2502 21 16.0002 21C18.7502 21 21.0002 18.75 21.0002 16C21.0002 13.25 18.7502 11 16.0002 11ZM16.0002 13C17.6682 13 19.0002 14.332 19.0002 16C19.0002 17.668 17.6682 19 16.0002 19C14.3322 19 13.0002 17.668 13.0002 16C13.0002 14.332 14.3322 13 16.0002 13Z" fill="white"/>
</svg>
