<svg width="56" height="56" viewBox="0 0 56 56" fill="none" xmlns="http://www.w3.org/2000/svg">
<path d="M5.25 8.75V40.25C5.25 44.1175 8.3825 47.25 12.25 47.25H43.75C47.6175 47.25 50.75 44.1175 50.75 40.25V21H40.25V8.75H5.25ZM8.75 12.25H36.75V40.25C36.75 41.5275 37.1402 42.7175 37.7352 43.75H12.25C10.1658 43.75 8.75 42.3343 8.75 40.25V12.25ZM12.25 15.75V24.5H33.25V15.75H12.25ZM15.75 19.25H29.75V21H15.75V19.25ZM40.25 24.5H47.25V40.25C47.25 42.3343 45.8343 43.75 43.75 43.75C41.6657 43.75 40.25 42.3343 40.25 40.25V24.5ZM12.25 26.25V29.75H21V26.25H12.25ZM24.5 26.25V29.75H33.25V26.25H24.5ZM12.25 31.5V35H21V31.5H12.25ZM24.5 31.5V35H33.25V31.5H24.5ZM12.25 36.75V40.25H21V36.75H12.25ZM24.5 36.75V40.25H33.25V36.75H24.5Z" fill="white"/>
</svg>
