<svg width="450" height="415" viewBox="0 0 450 415" fill="none" xmlns="http://www.w3.org/2000/svg">
<path d="M225 415C349.264 415 450 363.037 450 298.938C450 234.839 349.264 182.876 225 182.876C100.736 182.876 0 234.839 0 298.938C0 363.037 100.736 415 225 415Z" fill="#F5F5F5"/>
<path d="M408.886 318.316C418.902 323.719 418.998 332.639 409.107 338.255C399.215 343.87 383.075 344.026 373.058 338.623C363.042 333.219 362.936 324.299 372.837 318.684C382.739 313.069 398.869 312.884 408.886 318.316Z" fill="#E0E0E0"/>
<path d="M61.6765 294.87C71.6931 300.273 71.7892 309.193 61.8976 314.799C52.0059 320.405 35.8658 320.58 25.8491 315.177C15.8324 309.773 15.7267 300.826 25.6184 295.238C35.5101 289.65 51.6598 289.466 61.6765 294.87Z" fill="#E0E0E0"/>
<path d="M108.684 363.247L214.993 304.507C215.245 304.423 215.464 304.266 215.618 304.057C215.773 303.848 215.856 303.599 215.856 303.343C215.856 303.087 215.773 302.838 215.618 302.629C215.464 302.42 215.245 302.263 214.993 302.178L207.36 297.962C206.708 297.645 205.987 297.479 205.255 297.479C204.523 297.479 203.802 297.645 203.15 297.962L159.988 321.823C159.336 322.141 158.614 322.306 157.883 322.306C157.151 322.306 156.43 322.141 155.777 321.823L77.086 278.272C76.4355 277.954 75.7157 277.789 74.9856 277.789C74.2554 277.789 73.5356 277.954 72.8852 278.272L69.1938 280.306C68.9416 280.391 68.723 280.548 68.5683 280.757C68.4137 280.966 68.3306 281.215 68.3306 281.471C68.3306 281.727 68.4137 281.976 68.5683 282.185C68.723 282.394 68.9416 282.551 69.1938 282.635L147.962 326.186C148.214 326.271 148.433 326.428 148.588 326.637C148.742 326.845 148.825 327.095 148.825 327.351C148.825 327.607 148.742 327.856 148.588 328.065C148.433 328.273 148.214 328.431 147.962 328.515L96.8309 356.702C96.5776 356.784 96.3574 356.94 96.2015 357.148C96.0456 357.356 95.9617 357.606 95.9617 357.862C95.9617 358.118 96.0456 358.368 96.2015 358.576C96.3574 358.784 96.5776 358.94 96.8309 359.022L104.521 363.247C105.167 363.557 105.88 363.719 106.602 363.719C107.325 363.719 108.038 363.557 108.684 363.247V363.247Z" fill="#E0E0E0"/>
<path d="M230.595 302.363C237.958 306.266 237.958 312.59 230.595 316.493C223.231 320.396 211.302 320.396 203.948 316.493C196.594 312.59 196.584 306.266 203.948 302.363C211.311 298.46 223.241 298.46 230.595 302.363Z" fill="#E0E0E0"/>
<path d="M290.214 383.941C325.434 383.941 353.986 368.803 353.986 350.13C353.986 331.456 325.434 316.318 290.214 316.318C254.994 316.318 226.442 331.456 226.442 350.13C226.442 368.803 254.994 383.941 290.214 383.941Z" fill="#E0E0E0"/>
<path d="M391.303 240.558L383.498 236.24C383.498 236.24 378.855 217.756 380.7 201.122C383.305 177.731 399.378 168.903 405.492 170.946C411.606 172.99 413.375 179.774 403.262 193.702C397.292 201.922 389.967 219.035 391.303 240.558Z" fill="#0085A6"/>
<g opacity="0.15">
<path opacity="0.15" d="M391.303 240.558L383.498 236.24C383.498 236.24 378.855 217.756 380.7 201.122C383.305 177.731 399.378 168.903 405.492 170.946C411.606 172.99 413.375 179.774 403.262 193.702C397.292 201.922 389.967 219.035 391.303 240.558Z" fill="black"/>
</g>
<path d="M388.074 231.481H388.141C388.282 231.454 388.406 231.375 388.487 231.262C388.568 231.148 388.599 231.009 388.573 230.873C384.296 209.305 392.169 185.067 401.907 174.978C401.986 174.874 402.022 174.746 402.009 174.618C401.997 174.49 401.935 174.371 401.837 174.284C401.738 174.197 401.61 174.147 401.476 174.144C401.341 174.141 401.211 174.186 401.109 174.269C391.188 184.543 383.171 209.176 387.506 231.067C387.535 231.188 387.608 231.296 387.712 231.372C387.815 231.448 387.943 231.486 388.074 231.481V231.481Z" fill="white"/>
<path d="M411.75 251.871C412.981 252.469 416.268 249.781 417.182 249.109C418.745 247.971 419.979 246.469 420.767 244.746C421.64 242.786 421.858 240.616 421.392 238.532C421.152 237.432 420.831 236.349 420.431 235.292L419.306 232.162C418.867 231.153 418.645 230.07 418.652 228.977C418.825 226.786 420.767 225.166 422.497 223.758C424.42 222.211 426.468 220.186 426.343 217.562C426.088 215.536 425.138 213.648 423.641 212.196C422.248 210.677 420.623 209.351 419.354 207.731C418.364 206.608 417.804 205.196 417.768 203.727C417.848 202.823 418.116 201.943 418.556 201.14C419.431 199.391 420.623 197.762 421.19 195.902C421.757 194.043 421.546 191.76 419.988 190.517C418.7 189.504 416.874 189.44 415.182 189.596C413.64 189.856 412.175 190.431 410.885 191.281C406.665 193.803 404.444 198.857 399.926 200.855C398.126 201.487 396.286 202.013 394.418 202.429C392.592 202.99 390.746 203.984 389.977 205.669C388.458 208.983 391.803 212.822 390.794 216.31C389.9 219.403 386.882 220.72 385.295 223.537C384.649 224.781 384.437 226.191 384.69 227.559C384.968 229.875 385.681 232.124 386.795 234.197C388.054 236.322 389.448 238.373 390.967 240.337L411.75 251.871Z" fill="#0085A6"/>
<path d="M399.801 245.906C399.945 245.892 400.079 245.824 400.172 245.718C400.265 245.611 400.312 245.474 400.301 245.335C398.32 224.826 407.241 201.637 414.249 194.705C414.298 194.656 414.337 194.599 414.363 194.535C414.389 194.472 414.402 194.405 414.4 194.337C414.399 194.269 414.384 194.202 414.355 194.139C414.327 194.077 414.286 194.021 414.235 193.974C414.184 193.926 414.123 193.889 414.057 193.865C413.991 193.84 413.921 193.828 413.85 193.829C413.779 193.83 413.709 193.845 413.644 193.872C413.579 193.899 413.52 193.938 413.47 193.987C406.318 201.076 397.215 224.651 399.215 245.455C399.234 245.588 399.305 245.708 399.414 245.792C399.523 245.876 399.662 245.917 399.801 245.906Z" fill="white"/>
<path d="M401.935 220.609H402.089C407.107 219.023 412.29 217.964 417.546 217.452C417.617 217.446 417.686 217.427 417.749 217.395C417.812 217.364 417.868 217.321 417.914 217.269C417.959 217.217 417.994 217.156 418.015 217.091C418.036 217.026 418.043 216.958 418.037 216.89C418.032 216.821 418.013 216.754 417.98 216.692C417.947 216.63 417.901 216.576 417.845 216.532C417.789 216.488 417.724 216.455 417.655 216.436C417.585 216.417 417.512 216.412 417.441 216.421C412.095 216.942 406.824 218.022 401.724 219.643C401.656 219.664 401.593 219.699 401.539 219.744C401.486 219.79 401.443 219.845 401.412 219.907C401.381 219.969 401.364 220.036 401.362 220.105C401.359 220.173 401.371 220.242 401.397 220.305C401.443 220.403 401.52 220.484 401.616 220.538C401.712 220.592 401.824 220.617 401.935 220.609Z" fill="white"/>
<path d="M179.387 285.544V282.893L130.082 310.206L132.437 311.531L179.387 285.544Z" fill="#37474F"/>
<path d="M117.912 105.772C118.033 105.839 118.129 105.941 118.186 106.063C118.243 106.186 118.258 106.322 118.229 106.453L77.3841 280.104L76.2113 285.029C75.6511 285.07 75.0896 284.965 74.5867 284.725C74.5867 284.725 74.5867 284.725 74.5867 284.725L71.847 283.215C71.7269 283.145 71.6326 283.041 71.5774 282.917C71.5222 282.794 71.509 282.656 71.5394 282.525L113.471 104.262C113.494 104.167 113.539 104.078 113.604 104.002C113.669 103.927 113.752 103.867 113.845 103.828C113.939 103.789 114.04 103.771 114.142 103.776C114.244 103.781 114.344 103.809 114.432 103.857L117.912 105.772Z" fill="#37474F"/>
<path d="M123.035 103.406L80.8924 282.507C80.8603 282.647 80.7974 282.78 80.7079 282.896C80.6185 283.012 80.5044 283.108 80.3733 283.179L77.6336 284.698C77.1971 284.923 76.707 285.038 76.2109 285.029L77.3837 280.104L118.296 106.002L123.035 103.406Z" fill="#455A64"/>
<path d="M127.746 344.772V349.955C127.219 349.965 126.697 349.851 126.227 349.623V349.623L123.68 348.215C123.509 348.14 123.361 348.023 123.253 347.876C123.145 347.729 123.08 347.556 123.064 347.377V191.833L127.775 194.429L127.746 344.772Z" fill="#37474F"/>
<path d="M132.447 191.842V347.414C132.42 347.584 132.349 347.745 132.239 347.882C132.13 348.019 131.987 348.127 131.822 348.196L129.284 349.614C128.814 349.862 128.283 349.986 127.746 349.973V194.401L132.447 191.842Z" fill="#455A64"/>
<path d="M188.692 316.254C188.178 316.233 187.677 316.094 187.231 315.849L184.626 314.403C184.459 314.311 184.315 314.185 184.204 314.034C184.093 313.883 184.017 313.711 183.982 313.529L155.97 173.607L160.67 176.203L187.702 311.2L188.692 316.254Z" fill="#37474F"/>
<path d="M193.383 313.63C193.365 313.814 193.296 313.99 193.183 314.139C193.07 314.288 192.916 314.405 192.739 314.477L190.393 315.839L190.278 315.904C189.804 316.142 189.275 316.262 188.74 316.254L187.779 311.218L160.661 176.221L165.381 173.634L193.345 313.437L193.383 313.63Z" fill="#455A64"/>
<path d="M130.822 317.597L184.087 288.149V282.958L130.822 312.406V317.597Z" fill="#455A64"/>
<path d="M87.3716 223.914V225.755C87.3998 226.256 87.5512 226.743 87.8135 227.176C88.0759 227.61 88.4416 227.978 88.8808 228.25L104.656 236.968C105.12 237.195 105.634 237.313 106.155 237.313C106.677 237.313 107.191 237.195 107.655 236.968L179.656 197.173C180.093 196.899 180.456 196.53 180.716 196.097C180.977 195.663 181.127 195.177 181.155 194.678V192.837C181.127 192.339 180.977 191.854 180.716 191.422C180.456 190.99 180.092 190.623 179.656 190.351L163.881 181.625C163.415 181.397 162.899 181.279 162.376 181.279C161.853 181.279 161.338 181.397 160.872 181.625L88.8808 221.42C88.4416 221.692 88.0759 222.06 87.8135 222.493C87.5512 222.927 87.3998 223.414 87.3716 223.914Z" fill="#0085A6"/>
<path opacity="0.4" d="M88.881 223.086L104.656 231.785C105.12 232.012 105.634 232.13 106.155 232.13C106.677 232.13 107.191 232.012 107.655 231.785L179.656 191.99C179.818 191.914 179.955 191.797 180.051 191.65C180.147 191.504 180.198 191.334 180.198 191.161C180.198 190.988 180.147 190.819 180.051 190.672C179.955 190.526 179.818 190.408 179.656 190.333L163.881 181.606C163.415 181.379 162.899 181.26 162.377 181.26C161.854 181.26 161.338 181.379 160.872 181.606L88.881 221.419C88.7158 221.494 88.5762 221.612 88.4784 221.759C88.3806 221.907 88.3286 222.078 88.3286 222.253C88.3286 222.427 88.3806 222.598 88.4784 222.746C88.5762 222.893 88.7158 223.011 88.881 223.086V223.086Z" fill="white"/>
<path opacity="0.1" d="M106.155 232.153V237.308C105.634 237.315 105.118 237.198 104.656 236.967L88.881 228.241C88.4464 227.967 88.0845 227.599 87.8242 227.168C87.5639 226.736 87.4122 226.253 87.3813 225.755V223.914C87.4055 223.475 87.5248 223.045 87.7317 222.652C87.9385 222.259 88.2284 221.911 88.583 221.631C88.0639 222.082 88.1696 222.69 88.881 223.086L104.656 231.785C105.116 232.024 105.631 232.151 106.155 232.153V232.153Z" fill="black"/>
<path d="M83.1613 237.373L78.7778 234.942C78.0414 234.483 77.42 233.873 76.958 233.157C76.4961 232.441 76.2049 231.636 76.1054 230.8L67.0597 80.5676C67.0543 79.7448 67.2655 78.934 67.6737 78.21C68.082 77.4859 68.6742 76.8721 69.3956 76.4252L172.331 19.591C173.105 19.2142 173.962 19.0178 174.83 19.0178C175.699 19.0178 176.555 19.2142 177.329 19.591L181.742 22.0212C182.478 22.4797 183.099 23.0892 183.56 23.8056C184.02 24.522 184.309 25.3274 184.405 26.1636L193.46 176.396C193.465 177.219 193.254 178.03 192.846 178.754C192.438 179.478 191.845 180.091 191.124 180.538L88.1696 237.373C87.3936 237.749 86.5356 237.946 85.6655 237.946C84.7953 237.946 83.9374 237.749 83.1613 237.373V237.373Z" fill="#E0E0E0"/>
<path d="M184.328 25.7493C184.059 24.5342 182.972 24.1015 181.713 24.8288L78.7779 81.6169C78.0379 82.0668 77.4423 82.704 77.0572 83.458L67.6558 78.2662C68.0569 77.5168 68.657 76.8819 69.3957 76.4251L172.331 19.6001C173.105 19.2276 173.959 19.0337 174.825 19.0337C175.692 19.0337 176.546 19.2276 177.32 19.6001L181.742 22.0395C182.409 22.4615 182.982 23.0071 183.426 23.6442C183.87 24.2813 184.177 24.9971 184.328 25.7493V25.7493Z" fill="#FAFAFA"/>
<path d="M76.4419 85.7593L85.4973 235.992C85.4643 236.301 85.528 236.613 85.6801 236.888C85.8323 237.163 86.0661 237.389 86.3521 237.536C86.638 237.684 86.9633 237.747 87.2868 237.718C87.6103 237.689 87.9175 237.569 88.1697 237.372L191.105 180.538C191.826 180.091 192.418 179.477 192.827 178.753C193.235 178.029 193.446 177.219 193.441 176.396L184.385 26.1635C184.421 25.854 184.36 25.5414 184.209 25.2655C184.058 24.9896 183.825 24.7631 183.539 24.6148C183.253 24.4666 182.928 24.4034 182.604 24.4333C182.281 24.4632 181.974 24.5848 181.723 24.7827L78.7778 81.6169C78.0595 82.0669 77.4697 82.6814 77.0618 83.4047C76.654 84.128 76.4409 84.9373 76.4419 85.7593Z" fill="#F0F0F0"/>
<path d="M107.828 55.1881L117.143 60.3431C117.535 60.5339 117.968 60.6334 118.407 60.6334C118.846 60.6334 119.28 60.5339 119.671 60.3431L144.78 46.4614C145.147 46.2302 145.452 45.9199 145.67 45.5554C145.889 45.1909 146.015 44.7823 146.039 44.3625V42.7976C146.015 42.3779 145.889 41.9693 145.67 41.6048C145.452 41.2403 145.147 40.93 144.78 40.6988L135.456 35.5438C135.064 35.3573 134.633 35.2603 134.196 35.2603C133.759 35.2603 133.328 35.3573 132.937 35.5438L107.828 49.4255C107.459 49.6551 107.152 49.9649 106.931 50.3296C106.711 50.6942 106.583 51.1036 106.559 51.5244V53.0985C106.583 53.518 106.711 53.9261 106.931 54.2893C107.152 54.6525 107.459 54.9605 107.828 55.1881Z" fill="#0085A6"/>
<path opacity="0.4" d="M107.828 50.8248L117.143 55.9615C117.535 56.1523 117.968 56.2517 118.407 56.2517C118.847 56.2517 119.28 56.1523 119.671 55.9615L144.78 42.0797C144.934 42.0313 145.068 41.9376 145.163 41.812C145.258 41.6863 145.309 41.5352 145.309 41.3801C145.309 41.225 145.258 41.0739 145.163 40.9482C145.068 40.8226 144.934 40.7289 144.78 40.6805L135.456 35.5255C135.065 35.339 134.633 35.2419 134.196 35.2419C133.759 35.2419 133.328 35.339 132.937 35.5255L107.828 49.4256C107.674 49.4741 107.54 49.5678 107.445 49.6934C107.35 49.819 107.299 49.9702 107.299 50.1252C107.299 50.2803 107.35 50.4315 107.445 50.5571C107.54 50.6827 107.674 50.7764 107.828 50.8248V50.8248Z" fill="white"/>
<path opacity="0.1" d="M118.296 56.2652V60.6102C117.911 60.6081 117.531 60.5165 117.191 60.3432L107.876 55.1974C107.509 54.9668 107.203 54.6566 106.985 54.292C106.766 53.9273 106.64 53.5185 106.617 53.0986V51.5244C106.637 51.1511 106.739 50.786 106.916 50.4529C107.093 50.1198 107.342 49.8262 107.645 49.5913C107.184 49.9595 107.261 50.5118 107.876 50.8248L117.143 55.9615C117.494 56.1546 117.891 56.2591 118.296 56.2652V56.2652Z" fill="black"/>
<path d="M110.135 5.17519C110.12 4.82964 110.201 4.48643 110.37 4.18072C110.539 3.87502 110.79 3.61779 111.096 3.43537L116.864 0.241093C117.19 0.082599 117.551 0 117.917 0C118.283 0 118.643 0.082599 118.969 0.241093L121.315 1.52985C121.625 1.72644 121.89 1.98255 122.092 2.28202C122.294 2.58148 122.428 2.91778 122.488 3.26967L126.333 39.2168L114.451 45.7618L110.135 5.17519Z" fill="#455A64"/>
<path d="M118.402 43.5803L114.451 45.762L110.126 5.18451C110.106 4.84718 110.179 4.51085 110.337 4.20874L114.788 6.65738C114.623 6.96055 114.55 7.3016 114.576 7.64236L118.402 43.5803Z" fill="#263238"/>
<path d="M114.586 7.63303C114.57 7.28732 114.65 6.94376 114.819 6.63788C114.988 6.332 115.24 6.07491 115.547 5.89321L121.315 2.69893C121.423 2.61535 121.554 2.56351 121.693 2.54965C121.831 2.53579 121.97 2.56051 122.094 2.62082C122.218 2.68113 122.321 2.77446 122.391 2.88958C122.461 3.0047 122.495 3.1367 122.488 3.26966L126.333 39.2168L118.431 43.5802L114.586 7.63303Z" fill="#37474F"/>
<path d="M415.336 294.023H368.069L370.203 326.186C370.203 329.178 372.193 332.179 376.288 334.471C384.479 339.074 397.831 339.249 406.088 334.784C410.27 332.529 412.356 329.528 412.356 326.499L415.336 294.023Z" fill="#37474F"/>
<path d="M375.058 283.998C365.772 289.015 365.676 297.29 374.846 302.491C384.017 307.693 398.994 307.84 408.28 302.832C417.566 297.824 417.672 289.549 408.492 284.348C399.311 279.147 384.344 278.99 375.058 283.998Z" fill="#455A64"/>
<path d="M413.269 293.636C413.26 294.239 413.146 294.836 412.933 295.403C412.212 297.53 410.289 299.5 407.28 301.12C402.417 303.511 396.998 304.677 391.534 304.508C385.593 304.434 379.999 303.136 375.894 300.825C373.01 299.178 371.087 297.143 370.415 295.118C370.19 294.509 370.076 293.868 370.078 293.222C370.126 290.46 372.241 287.8 376.077 285.756C380.239 283.492 385.843 282.276 391.794 282.35C397.263 282.291 402.656 283.581 407.453 286.097C411.241 288.186 413.298 290.874 413.269 293.636Z" fill="#263238"/>
<path d="M391.794 297.217C385.844 297.171 380.259 298.377 376.077 300.641L375.846 300.77H375.894C380.037 303.118 385.594 304.452 391.534 304.452C396.999 304.619 402.418 303.45 407.28 301.056L407.502 300.927H407.453C402.647 298.437 397.258 297.16 391.794 297.217Z" fill="#0085A6"/>
<path opacity="0.15" d="M393.313 304.508C391.804 304.212 390.354 303.69 389.016 302.961C387.703 302.311 386.679 301.229 386.132 299.914C386.01 299.589 385.948 299.247 385.949 298.902C385.966 298.445 386.08 297.997 386.285 297.585C382.724 297.991 379.274 299.034 376.115 300.66L375.884 300.789H375.932C380.076 303.136 385.632 304.471 391.573 304.471C392.13 304.508 392.726 304.508 393.313 304.508Z" fill="#263238"/>
<path d="M400.657 306.1C401.618 305.603 402.32 306.027 402.311 307.021C402.278 307.577 402.107 308.117 401.813 308.597C401.519 309.077 401.109 309.484 400.619 309.782C399.657 310.289 398.946 309.865 398.965 308.862C399.001 308.307 399.173 307.767 399.467 307.288C399.761 306.808 400.169 306.401 400.657 306.1V306.1Z" fill="#263238"/>
<path d="M368.617 303.007C366.579 307.996 365.003 314.799 369.578 318.03C369.828 318.205 370.059 318.362 370.309 318.518V320.626C369.713 320.276 369.088 319.881 368.492 319.457C361.715 314.652 365.858 304.121 368.492 299.003L368.617 303.007Z" fill="#E0E0E0"/>
<path d="M401.445 308.355C401.186 308.862 394.668 320.801 383.95 323.194C382.741 323.476 381.502 323.618 380.258 323.618C376.699 323.554 373.233 322.516 370.271 320.626V318.518C374.702 321.464 379.153 322.476 383.517 321.501C393.409 319.282 399.744 307.693 399.792 307.545C399.913 307.347 400.108 307.199 400.337 307.13C400.567 307.062 400.814 307.079 401.032 307.177C401.143 307.225 401.243 307.294 401.324 307.381C401.406 307.467 401.469 307.569 401.507 307.68C401.546 307.79 401.561 307.907 401.55 308.024C401.539 308.14 401.504 308.253 401.445 308.355V308.355Z" fill="#E0E0E0"/>
<path d="M68.1074 270.595H20.8599L22.9843 302.768C22.9843 305.75 24.9742 308.76 29.0693 311.052C37.2499 315.655 50.6119 315.83 58.8693 311.365C63.0606 309.11 65.1466 306.109 65.137 303.081L68.1074 270.595Z" fill="#37474F"/>
<path d="M27.8485 260.579C18.5528 265.587 18.4663 273.872 27.637 279.073C36.8077 284.274 51.7847 284.421 61.0707 279.414C70.3568 274.406 70.4626 266.13 61.2822 260.929C52.1019 255.728 37.1346 255.572 27.8485 260.579Z" fill="#455A64"/>
<path d="M66.0601 270.208C66.0472 270.814 65.9336 271.413 65.7236 271.985C65.0026 274.102 63.0704 276.072 60.0616 277.701C55.2012 280.091 49.7864 281.26 44.3252 281.098C38.3748 281.024 32.7897 279.717 28.685 277.416C25.8011 275.768 23.8786 273.734 23.2057 271.699C22.9799 271.091 22.866 270.449 22.8692 269.803C22.9173 267.041 25.0321 264.39 28.8581 262.337C33.0301 260.073 38.6344 258.867 44.5752 258.941C50.041 258.865 55.4358 260.133 60.2442 262.623C64.0221 264.768 66.0793 267.456 66.0601 270.208Z" fill="#263238"/>
<path d="M28.685 277.379C32.8185 279.717 38.3748 281.061 44.3252 281.061C49.7864 281.223 55.2011 280.054 60.0616 277.664C62.3704 276.571 64.2509 274.796 65.4256 272.601C64.2704 270.442 62.4475 268.677 60.2058 267.548C55.399 265.053 50.0031 263.785 44.5367 263.865C38.5959 263.792 33.0012 264.998 28.8196 267.262C26.5214 268.352 24.6433 270.112 23.4556 272.288C24.6011 274.466 26.4297 276.246 28.685 277.379V277.379Z" fill="#0085A6"/>
<path opacity="0.15" d="M60.0617 277.701L60.7346 277.315C57.1749 278.353 53.4678 278.853 49.747 278.797C44.2918 278.86 38.9094 277.593 34.1068 275.115C31.2229 273.467 29.3003 271.432 28.6274 269.398C28.4102 268.806 28.2996 268.184 28.3006 267.557C26.2329 268.641 24.557 270.301 23.4941 272.316C24.6429 274.487 26.4712 276.261 28.7236 277.388C32.8571 279.726 38.4134 281.07 44.3638 281.07C49.8096 281.235 55.2101 280.076 60.0617 277.701Z" fill="#263238"/>
<path d="M53.4477 282.681C54.409 282.184 55.1107 282.608 55.1011 283.602C55.0634 284.158 54.8897 284.697 54.5942 285.177C54.2986 285.657 53.8894 286.063 53.3996 286.364C52.4383 286.861 51.7366 286.446 51.7462 285.443C51.7801 284.886 51.9522 284.345 52.2481 283.865C52.544 283.385 52.9552 282.979 53.4477 282.681V282.681Z" fill="#263238"/>
<path d="M21.408 279.579C19.37 284.578 17.7839 291.38 22.3693 294.612C22.6288 294.786 22.8595 294.943 23.1095 295.09V297.208C22.5039 296.848 21.8886 296.462 21.2926 296.038C14.5636 291.224 18.6587 280.702 21.2926 275.584L21.408 279.579Z" fill="#E0E0E0"/>
<path d="M54.2266 284.937C53.9767 285.443 47.4976 297.383 36.7407 299.776C35.5286 300.054 34.2862 300.193 33.0397 300.19C29.4846 300.128 26.0222 299.093 23.0615 297.208V295.09C27.4931 298.036 31.9439 299.049 36.3081 298.082C46.1998 295.864 52.5347 284.274 52.5828 284.127C52.7025 283.926 52.8963 283.776 53.126 283.707C53.3557 283.637 53.6044 283.652 53.8229 283.749C53.9335 283.799 54.0324 283.87 54.1133 283.958C54.1942 284.045 54.2554 284.148 54.2933 284.259C54.3311 284.371 54.3447 284.488 54.3333 284.605C54.3218 284.721 54.2855 284.834 54.2266 284.937V284.937Z" fill="#E0E0E0"/>
<path d="M280.082 95.4527C275.391 94.836 271.921 96.4838 268.489 101.261C265.057 106.039 249.157 131.759 249.157 131.759L224.808 105.45C221.501 101.63 219.146 99.1257 214.474 96.9901C212.557 96.5384 210.555 96.5384 208.639 96.9901C202.794 98.6654 192.951 107.319 200.477 111.424C204.948 113.873 208.302 113.532 212.215 114.784C213.484 115.189 215.945 117.546 218.684 121.071C224.865 128.997 237.458 143.965 240.89 147.067C246.889 152.48 251.955 155.564 259.241 147.233C268.258 136.969 280.082 120.317 280.082 120.317V95.462" fill="#FFA8A7"/>
<path d="M210.687 104.548L201.747 112.041C202.116 112.131 202.469 112.274 202.794 112.464L208.005 108.902C209.696 107.751 211.744 106.214 211.744 106.214C211.744 106.214 216.185 105.652 218.021 104.216C219.857 102.78 210.687 104.548 210.687 104.548Z" fill="#F28F8F"/>
<path d="M185.645 119.801C190.664 114.625 195.969 109.708 201.535 105.072C207.887 100.035 214.672 95.5203 221.818 91.5773C221.93 91.5231 222.053 91.4949 222.178 91.4949C222.304 91.4949 222.427 91.5231 222.539 91.5773C222.731 91.6718 222.876 91.8351 222.943 92.0318C223.009 92.2284 222.992 92.4423 222.895 92.6267C222.865 92.6793 222.829 92.7287 222.789 92.774V92.774C222.789 92.774 213.916 103.397 205.774 110.034C200.136 114.542 194.251 118.758 188.144 122.664V122.664C187.996 122.74 187.831 122.779 187.663 122.779C187.496 122.779 187.33 122.74 187.183 122.664C186.733 122.484 186.334 122.205 186.019 121.85C185.703 121.495 185.479 121.074 185.366 120.62C185.339 120.472 185.35 120.32 185.399 120.178C185.447 120.035 185.532 119.906 185.645 119.801V119.801Z" fill="#0085A6"/>
<path opacity="0.1" d="M222.943 92.6451C222.913 92.6977 222.878 92.7471 222.837 92.7924V92.7924C222.837 92.7924 213.965 103.415 205.823 110.053C200.343 114.517 194.287 118.696 190.865 120.943L189.577 118.853C189.577 118.853 223.02 92.1572 222.587 91.5957C222.779 91.6902 222.925 91.8535 222.991 92.0502C223.058 92.2468 223.041 92.4607 222.943 92.6451V92.6451Z" fill="black"/>
<path d="M186.106 121.891C185.837 122.544 184.395 126.098 181.829 127.414C181.577 127.141 181.273 126.916 180.935 126.751C179.627 126.107 178.81 126.972 177.772 126.595C176.734 126.217 177.234 124.349 177.234 124.33C178.014 122.803 179.27 121.545 180.829 120.731C182.305 119.987 183.974 119.667 185.635 119.81L188.183 122.692L186.106 121.891Z" fill="#455A64"/>
<path d="M184.116 129.062C182.8 129.062 182.559 128.196 181.829 127.423C184.395 126.098 185.837 122.544 186.106 121.9L188.192 122.692C188.067 123.097 187.942 123.538 187.798 124.008L187.683 124.358C187.596 124.588 187.51 124.836 187.404 125.076C187.241 125.461 187.051 125.837 186.837 126.199C186.684 126.462 186.517 126.717 186.337 126.963C185.927 127.516 185.456 128.025 184.934 128.482C184.679 128.697 184.406 128.891 184.116 129.062V129.062Z" fill="#37474F"/>
<path d="M184.097 129.071C183.952 129.162 183.801 129.245 183.645 129.319V129.319L183.289 129.476L183.145 129.531H183.039L182.838 129.595L182.588 129.66L182.03 129.78L181.473 129.853H180.915C179.776 129.861 178.647 129.657 177.589 129.255L177.368 129.163H177.301L177.051 129.052C176.545 128.804 176.062 128.515 175.609 128.187C175.407 128.04 175.224 127.902 175.051 127.754L174.609 127.359L174.426 127.174L174.272 127C174.183 126.915 174.103 126.823 174.032 126.723C173.962 126.645 173.898 126.562 173.84 126.475C174.356 126.478 174.867 126.371 175.334 126.16C175.802 125.95 176.214 125.642 176.541 125.26C176.821 124.959 177.069 124.632 177.281 124.284C177.281 124.284 176.791 126.125 177.82 126.548C178.848 126.972 179.675 126.061 180.982 126.705C181.321 126.87 181.624 127.095 181.876 127.368C182.607 128.141 182.838 129.025 184.164 129.006L184.097 129.071Z" fill="#0085A6"/>
<path opacity="0.1" d="M173.792 126.53C175.72 127.767 178.068 128.254 180.358 127.893C180.873 127.819 181.37 127.66 181.828 127.423C182.559 128.196 182.79 129.08 184.116 129.062C183.971 129.153 183.82 129.236 183.664 129.31V129.31L183.309 129.467L183.165 129.522H183.059L182.857 129.586L182.607 129.651L182.05 129.771L181.492 129.844H180.934C179.796 129.852 178.666 129.648 177.608 129.246L177.387 129.154H177.32L177.07 129.043C176.564 128.795 176.082 128.506 175.628 128.178C175.426 128.031 175.244 127.893 175.071 127.745L174.628 127.35L174.446 127.165L174.292 126.991C174.203 126.906 174.122 126.814 174.052 126.714C173.982 126.636 173.918 126.553 173.859 126.466L173.792 126.53Z" fill="black"/>
<path d="M188.192 122.682C188.044 122.758 187.879 122.798 187.712 122.798C187.544 122.798 187.379 122.758 187.231 122.682C186.782 122.503 186.383 122.224 186.067 121.869C185.752 121.514 185.528 121.092 185.414 120.639C185.367 120.491 185.358 120.335 185.39 120.184C185.422 120.033 185.493 119.892 185.597 119.774C186.645 118.678 187.817 117.509 189.067 116.285C188.932 116.438 188.838 116.62 188.795 116.816C188.751 117.012 188.759 117.215 188.817 117.408C188.961 117.979 189.243 118.51 189.64 118.958C190.037 119.406 190.539 119.758 191.105 119.985C191.297 120.073 191.509 120.113 191.721 120.1C191.933 120.087 192.138 120.022 192.316 119.912C190.759 121.016 189.24 122.02 188.192 122.682Z" fill="#EBEBEB"/>
<path d="M189.576 118.853C189.979 119.372 190.525 119.774 191.153 120.013C191.345 120.101 191.557 120.141 191.769 120.128C191.981 120.115 192.186 120.05 192.364 119.939C190.759 121.016 189.24 122.02 188.192 122.701C188.044 122.777 187.879 122.816 187.712 122.816C187.544 122.816 187.379 122.777 187.231 122.701C186.776 122.524 186.373 122.242 186.058 121.882V121.836L189.528 118.844L189.576 118.853Z" fill="#E0E0E0"/>
<path d="M213.042 96.7415C211.835 96.2967 210.586 95.9668 209.312 95.7565C207.995 95.3619 206.604 95.2457 205.236 95.4159C204.71 95.4535 204.204 95.6286 203.775 95.9222C203.381 96.2651 203.055 96.6737 202.814 97.1281C201.304 99.3834 198.69 100.663 197.18 102.891C195.844 104.87 194.297 110.568 195.883 111.93C196.844 112.777 198.853 110.559 199.603 108.911C199.939 110.181 201.881 109.638 203.188 106.959C204.275 104.75 205.515 101.86 205.515 101.86L213.042 96.7415Z" fill="#FFA8A7"/>
<path d="M205.044 99.6594C204.811 99.8284 204.63 100.054 204.52 100.314C204.41 100.573 204.375 100.856 204.419 101.132C204.49 101.745 204.707 102.334 205.053 102.854L205.486 101.86L205.044 99.6594Z" fill="#F28F8F"/>
<path d="M224.808 105.45C222.097 102.375 219.665 99.8158 216.944 99.1531C213.292 98.2325 212.417 99.1531 208.206 98.8677C202.227 98.4719 205.005 103.342 210.081 104.391C215.156 105.44 218.021 104.179 218.021 104.179C218.021 104.179 222.703 110.77 224.808 105.45Z" fill="#FFA8A7"/>
<path d="M288.609 85.4833H298.356C304.749 85.4833 310.88 83.0522 315.401 78.7245C319.922 74.3968 322.463 68.5269 322.466 62.4054V62.4054C322.466 55.0436 319.412 47.9833 313.977 42.7768C308.542 37.5704 301.17 34.6443 293.483 34.6418V34.6418C287.257 34.726 281.212 36.6556 276.179 40.1651C257.78 39.5667 257.559 61.8254 270.21 65.839C270.181 78.5517 275.285 85.4833 288.609 85.4833Z" fill="#263238"/>
<path d="M306.614 82.8873C306.729 86.0356 306.614 90.7119 312.189 93.271C312.189 93.271 308.988 99.5583 315.496 102.55C315.496 102.55 313.045 108.791 318.457 111.544C317.872 113.065 317.803 114.723 318.261 116.284C318.718 117.844 319.678 119.227 321.004 120.234C321.004 120.234 316.967 126.208 321.004 130.111C319.669 131.349 318.777 132.96 318.457 134.714C318.053 137.475 319.678 141.286 322.465 142.078C322.465 142.078 320.543 139.648 322.465 137.724C324.388 135.8 326.224 133.618 323.821 130.617C323.821 130.617 329.214 128.003 325.743 120.215C325.743 120.215 330.319 114.554 324.551 110.338C324.551 110.338 328.541 103.83 321.841 100.617C321.841 100.617 325.599 96.2352 320.639 90.6935C320.639 90.6935 327.618 81.663 317.486 74.1238L306.614 82.8873Z" fill="#263238"/>
<path d="M325.83 333.827C326.433 337.15 326.755 340.515 326.791 343.888C326.907 349.991 328.08 352.173 328.233 357.162C328.416 362.888 327.378 365.024 324.955 368.209C322.533 371.394 316.159 374.34 313.477 368.908C310.795 363.477 311.132 359.906 311.987 354.29C312.881 348.491 312.949 345.278 313.506 340.85C313.958 336.957 314.468 333.992 314.468 333.992L325.83 333.827Z" fill="#263238"/>
<path d="M307.738 293.286L328.733 292.918C328.416 306.339 326.185 321.234 325.849 333.827C325.772 336.202 325.907 352.238 324.974 357.126C323.571 364.49 314.487 363.468 314.006 359.077C313.525 354.686 314.592 335.962 314.563 334.029C314.64 325.947 310.718 312.314 308.613 297.815C308.498 297.143 307.834 293.977 307.738 293.286Z" fill="#FFA8A7"/>
<path d="M280.755 323.388C280.755 323.388 281.582 322.964 281.716 323.802C281.918 324.815 282.226 326.895 282.678 328.543C283.283 330.844 283.793 334.637 283.428 336.505C283.062 338.374 278.506 340.795 275.545 341.661C271.879 342.735 268.531 344.628 265.778 347.184C262.846 349.826 256.521 352.33 252.205 352.293C247.11 352.293 243.553 350.673 241.871 348.049C240.189 345.426 243.399 345.122 249.234 341.504L253.752 338.687C262.99 332.915 266.374 329.813 268.979 324.041L280.755 323.388Z" fill="#263238"/>
<path d="M268.941 319.807C269.095 315.655 266.114 280.399 266.114 280.399L286.061 289.107C281.784 313.511 280.88 319.264 280.803 323.259C280.889 323.593 280.928 323.937 280.918 324.281C280.918 329.022 275.314 331.581 270.95 334.738C267.251 337.515 263.308 339.979 259.164 342.103C255.992 343.621 249.551 343.76 248.763 341.808C254.07 337.932 261.789 332.124 266.009 327.696C268.018 325.588 268.787 323.968 268.941 319.807Z" fill="#FFA8A7"/>
<path d="M320.168 162.33C327.858 178.43 327.858 190.867 326.551 211.423C325.397 230.257 323.542 246.845 323.542 246.845C323.84 250.186 328.695 256.713 329.31 271.488C329.896 285.296 328.349 302.851 328.349 302.851C328.349 302.851 317.457 308.641 309.402 302.805C309.402 302.805 301.625 267.263 299.346 249.975C297.366 234.887 293.905 215.611 293.905 215.611L286.523 249.892C286.523 249.892 289.311 258.352 289.955 264.786C290.983 274.912 285.052 294.925 285.052 294.925C285.052 294.925 273.795 298.137 266.922 292.301C266.922 292.301 264.346 259.834 263.394 247.591C262.106 231.187 264.807 186.77 266.922 163.26L320.168 162.33Z" fill="#37474F"/>
<path d="M293.848 215.611L290.829 189.836C290.829 189.836 277.275 188.105 271.142 182.582C271.142 182.582 274.286 190.637 285.638 192.202L288.849 215.528L286.523 249.892L293.848 215.611Z" fill="#263238"/>
<path d="M303.73 96.0418C307.777 96.3088 315.15 96.9623 315.15 96.9623C319.399 99.2361 320.476 101.096 321.264 106.499C321.6 108.8 319.639 114.941 317.957 123.658L314.775 139.823L315.121 147.841C316.775 152.738 320.514 158.813 323.821 167.78C307.594 176.451 294.021 176.773 281.64 175.254C272.228 174.104 267.22 171.922 265.596 169.731C265.942 160.875 266.701 155.417 266.864 146.165C266.932 142.281 266.576 138.35 266.422 133.876C260.107 128.905 260.03 120.648 263.481 115.309C271.479 102.909 279.255 95.0568 284.408 95.4987L303.73 96.0418Z" fill="#0085A6"/>
<path opacity="0.6" d="M303.73 96.0418C307.777 96.3088 315.15 96.9623 315.15 96.9623C319.399 99.2361 320.476 101.096 321.264 106.499C321.6 108.8 319.639 114.941 317.957 123.658L314.775 139.823L315.121 147.841C316.775 152.738 320.514 158.813 323.821 167.78C307.594 176.451 294.021 176.773 281.64 175.254C272.228 174.104 267.22 171.922 265.596 169.731C265.942 160.875 266.701 155.417 266.864 146.165C266.932 142.281 266.576 138.35 266.422 133.876C260.107 128.905 260.03 120.648 263.481 115.309C271.479 102.909 279.255 95.0568 284.408 95.4987L303.73 96.0418Z" fill="white"/>
<path d="M268.931 70.6255C269.248 84.0562 273.805 87.3793 276.083 88.3367C278.361 89.2941 282.812 88.7049 287.042 88.0329V96.0877C287.042 96.0877 282.11 101.04 282.485 104.741C282.86 108.441 290.233 108.846 295.78 105.238C298.82 103.226 301.573 100.843 303.97 98.1497C304.422 97.6338 304.671 96.9821 304.672 96.3086V77.3178C304.672 77.3178 307.017 79.702 311.161 76.9772C312.047 76.4247 312.804 75.703 313.386 74.8573C313.968 74.0117 314.361 73.0602 314.542 72.0624C314.722 71.0646 314.686 70.0418 314.435 69.0581C314.184 68.0743 313.724 67.1507 313.083 66.345C311.286 64.3198 306.7 64.1725 304.499 67.33C303.259 69.6497 303.095 71.9787 301.701 71.0121C298.01 68.4622 298.818 63.2704 297.26 62.1105C295.04 60.4167 292.598 60.2694 288.243 58.8978C284.216 57.6091 277.15 54.516 274.439 47.8513C271.344 49.628 268.547 54.7738 268.931 70.6255Z" fill="#FFA8A7"/>
<path d="M284.504 67.9286C284.493 68.2925 284.594 68.6514 284.796 68.9599C284.998 69.2685 285.29 69.5129 285.637 69.6621C285.984 69.8114 286.369 69.8589 286.744 69.7986C287.119 69.7382 287.467 69.5728 287.744 69.3232C288.02 69.0736 288.214 68.7511 288.299 68.3963C288.384 68.0415 288.358 67.6705 288.223 67.3301C288.088 66.9897 287.851 66.6952 287.542 66.4838C287.232 66.2725 286.864 66.1538 286.484 66.1427C286.232 66.1353 285.98 66.1757 285.744 66.2615C285.508 66.3473 285.291 66.4768 285.107 66.6426C284.924 66.8085 284.776 67.0074 284.672 67.2281C284.568 67.4487 284.511 67.6867 284.504 67.9286V67.9286Z" fill="#263238"/>
<path d="M270.719 67.4866C270.688 67.9443 270.847 68.3953 271.162 68.7406C271.478 69.0858 271.924 69.297 272.402 69.3277C272.644 69.3516 272.889 69.3253 273.12 69.2507C273.351 69.176 273.562 69.0547 273.74 68.895C273.918 68.7353 274.058 68.5408 274.15 68.3248C274.243 68.1088 274.286 67.8763 274.276 67.6431C274.287 67.4194 274.253 67.1958 274.174 66.9851C274.095 66.7743 273.973 66.5804 273.816 66.4146C273.659 66.2488 273.47 66.1142 273.258 66.0186C273.047 65.9229 272.818 65.8681 272.584 65.8572C272.351 65.8464 272.117 65.8796 271.897 65.9552C271.677 66.0307 271.475 66.147 271.301 66.2975C271.128 66.4479 270.988 66.6295 270.888 66.832C270.788 67.0344 270.731 67.2538 270.719 67.4774V67.4866Z" fill="#263238"/>
<path d="M279.505 65.802L279.198 77.097L272.988 75.256L279.505 65.802Z" fill="#F28F8F"/>
<path d="M287.051 88.0239C291.56 87.4624 300.846 84.9033 302.288 81.396C301.703 83.1752 300.562 84.7398 299.02 85.879C296.241 88.1528 287.032 90.7119 287.032 90.7119L287.051 88.0239Z" fill="#F28F8F"/>
<path d="M285.658 62.0555L290.464 64.0531C290.731 63.4181 290.73 62.709 290.463 62.0742C290.196 61.4394 289.683 60.928 289.032 60.6471C288.714 60.5239 288.374 60.4627 288.031 60.467C287.688 60.4713 287.35 60.5411 287.036 60.6723C286.721 60.8035 286.438 60.9934 286.201 61.2309C285.964 61.4684 285.78 61.7487 285.658 62.0555V62.0555Z" fill="#263238"/>
<path d="M287.484 78.2202L281.582 80.1902C281.7 80.5664 281.897 80.9159 282.16 81.2178C282.423 81.5197 282.746 81.7678 283.111 81.9474C283.476 82.1269 283.876 82.2342 284.285 82.2629C284.694 82.2915 285.106 82.2409 285.494 82.1141C285.898 81.9922 286.272 81.793 286.592 81.5285C286.913 81.2641 287.175 80.94 287.361 80.5758C287.547 80.2116 287.654 79.815 287.675 79.4101C287.696 79.0052 287.631 78.6003 287.484 78.2202V78.2202Z" fill="#B16668"/>
<path d="M270.335 63.0589L274.641 60.914C274.509 60.6387 274.32 60.392 274.085 60.189C273.85 59.9861 273.574 59.8312 273.274 59.7339C272.975 59.6365 272.658 59.5987 272.342 59.6228C272.027 59.6468 271.72 59.7323 271.44 59.8738C270.863 60.1667 270.427 60.6611 270.221 61.2543C270.015 61.8474 270.056 62.4937 270.335 63.0589V63.0589Z" fill="#263238"/>
<path d="M264.211 114.177C275.746 118.669 286.657 118.236 292.934 117.803C296.558 117.546 298.702 117.803 299.221 124.109C299.471 127.248 301.307 150.022 301.307 150.022C301.307 150.022 282.081 154.91 266.701 148.098C266.701 148.098 261.327 130.507 260.798 124.698C260.27 118.89 264.211 114.177 264.211 114.177Z" fill="#0085A6"/>
<path opacity="0.3" d="M264.211 114.177C275.746 118.669 286.657 118.236 292.934 117.803C296.558 117.546 298.702 117.803 299.221 124.109C299.471 127.248 301.307 150.022 301.307 150.022C301.307 150.022 282.081 154.91 266.701 148.098C266.701 148.098 261.327 130.507 260.798 124.698C260.27 118.89 264.211 114.177 264.211 114.177Z" fill="#263238"/>
<path d="M266.48 154.018C266.48 154.018 265.365 165.165 264.019 181.312C262.673 197.458 261.433 216.449 261.202 219.864C260.972 223.279 268.729 226.832 277.362 228.71C286.878 230.772 297.924 231.426 302.663 230.772C307.402 230.119 309.949 228.821 310.084 224.089C310.219 219.358 301.769 156.07 301.769 156.07L266.48 154.018Z" fill="#0085A6"/>
<path opacity="0.3" d="M266.48 154.018C266.48 154.018 265.365 165.165 264.019 181.312C262.673 197.458 261.433 216.449 261.202 219.864C260.972 223.279 268.729 226.832 277.362 228.71C286.878 230.772 297.924 231.426 302.663 230.772C307.402 230.119 309.949 228.821 310.084 224.089C310.219 219.358 301.769 156.07 301.769 156.07L266.48 154.018Z" fill="#263238"/>
<path d="M266.711 148.098C272.478 150.105 290.551 153.971 315.073 146.69L316.929 152.213C300.824 158.318 283.023 158.968 266.48 154.054L266.711 148.098Z" fill="#0085A6"/>
<path opacity="0.45" d="M266.711 148.098C272.478 150.105 290.551 153.971 315.073 146.69L316.929 152.213C300.824 158.318 283.023 158.968 266.48 154.054L266.711 148.098Z" fill="#263238"/>
<path d="M305.97 96.1983C302.317 98.0394 289.368 107.834 288.57 120.915C288.57 124.008 294.213 124.008 294.213 120.915C294.213 120.915 294.377 114.167 301.307 106.37C308.123 98.7114 313.42 96.6494 313.42 96.6494C310.962 96.2301 308.463 96.0787 305.97 96.1983V96.1983Z" fill="#0085A6"/>
<path d="M280.082 95.4527C276.429 97.2938 268.152 102.882 263.192 116.717C262.346 120.004 267.403 120.86 268.249 117.573C268.249 117.573 269.287 113.118 275.026 105.284C280.524 97.7725 287.051 95.554 287.051 95.554C287.051 95.554 285.36 94.8084 280.082 95.4527Z" fill="#0085A6"/>
<g opacity="0.55">
<path opacity="0.55" d="M305.97 96.1983C302.317 98.0394 289.368 107.834 288.57 120.915C288.57 124.008 294.213 124.008 294.213 120.915C294.213 120.915 294.377 114.167 301.307 106.37C308.123 98.7114 313.42 96.6494 313.42 96.6494C310.962 96.2301 308.463 96.0787 305.97 96.1983V96.1983Z" fill="#263238"/>
<path opacity="0.55" d="M280.082 95.4527C276.429 97.2938 268.152 102.882 263.192 116.717C262.346 120.004 267.403 120.86 268.249 117.573C268.249 117.573 269.287 113.118 275.026 105.284C280.524 97.7725 287.051 95.554 287.051 95.554C287.051 95.554 285.36 94.8084 280.082 95.4527Z" fill="#263238"/>
</g>
<path d="M293.002 120.316C293.002 120.637 292.903 120.95 292.717 121.217C292.531 121.483 292.267 121.691 291.958 121.813C291.648 121.936 291.308 121.968 290.98 121.905C290.652 121.843 290.35 121.689 290.114 121.462C289.877 121.236 289.716 120.947 289.651 120.633C289.585 120.318 289.619 119.993 289.747 119.696C289.875 119.4 290.092 119.147 290.37 118.969C290.648 118.791 290.975 118.696 291.31 118.696C291.533 118.695 291.753 118.736 291.959 118.817C292.165 118.898 292.352 119.017 292.509 119.168C292.667 119.319 292.791 119.498 292.876 119.695C292.96 119.892 293.003 120.103 293.002 120.316V120.316Z" fill="#263238"/>
<path d="M267.566 116.717C267.566 117.038 267.467 117.351 267.281 117.617C267.095 117.884 266.831 118.091 266.521 118.214C266.212 118.337 265.872 118.369 265.544 118.306C265.216 118.244 264.914 118.089 264.678 117.863C264.441 117.636 264.28 117.347 264.215 117.033C264.149 116.719 264.183 116.393 264.311 116.097C264.439 115.801 264.656 115.548 264.934 115.37C265.212 115.192 265.539 115.097 265.874 115.097C266.323 115.097 266.753 115.268 267.07 115.571C267.388 115.875 267.566 116.287 267.566 116.717V116.717Z" fill="#263238"/>
<path d="M265.442 165.036C270.325 167.43 285.264 168.774 294.771 167.476C294.771 167.476 295.213 183.015 294.771 185.564C294.329 188.114 293.579 189.596 288.042 189.946C281.313 190.37 270.21 189.302 265.461 186.862C262.741 185.463 262.962 185.021 263.087 180.575C263.173 176.81 265.442 165.036 265.442 165.036Z" fill="#0085A6"/>
<path opacity="0.55" d="M265.442 165.036C270.325 167.43 285.264 168.774 294.771 167.476C294.771 167.476 295.213 183.015 294.771 185.564C294.329 188.114 293.579 189.596 288.042 189.946C281.313 190.37 270.21 189.302 265.461 186.862C262.741 185.463 262.962 185.021 263.087 180.575C263.173 176.81 265.442 165.036 265.442 165.036Z" fill="#263238"/>
<path d="M313.439 96.6496C317.726 96.6496 321.687 96.4286 325.119 100.516C328.55 104.603 345.162 131.501 349.007 137.743C352.852 143.984 353.938 148.099 349.007 152.471C343.7 157.166 316.323 174.113 316.323 174.113L305.749 165.23L331.242 144.214L313.583 120.832C313.583 120.832 304.22 106.96 313.439 96.6496Z" fill="#FFA8A7"/>
<path d="M316.409 174.104C310.555 178.394 301.307 185.482 291.8 185.482C279.736 185.482 272.892 179.038 277.035 175.577C281.178 172.116 296.597 170.67 305.874 165.221L316.409 174.104Z" fill="#FFA8A7"/>
<path d="M327.628 154.874C318.486 151.053 308.555 150.943 303.797 153.373C299.039 155.803 299.471 158.657 299.817 161.363C300.096 163.573 296.645 166.113 287.974 164.806C278.813 163.416 269.094 164.171 265.48 169.041C260.875 175.227 271.575 183.3 287.763 187.277C309.978 192.735 334.078 188.335 342.797 177.003C351.016 166.288 334.28 157.654 327.628 154.874Z" fill="#263238"/>
<path d="M285.802 175.798C283.418 177.105 279.822 177.252 277.765 176.111C275.708 174.969 275.968 172.99 278.342 171.674C280.716 170.357 284.312 170.219 286.378 171.351C288.445 172.484 288.176 174.481 285.802 175.798Z" fill="#0085A6"/>
<path d="M302.807 182.609C300.433 183.926 296.837 184.064 294.78 182.932C292.723 181.799 292.973 179.802 295.357 178.485C297.741 177.169 301.327 177.031 303.384 178.172C305.441 179.314 305.181 181.293 302.807 182.609Z" fill="#0085A6"/>
<path d="M323.235 182.223C320.86 183.539 317.265 183.677 315.208 182.545C313.151 181.413 313.401 179.415 315.785 178.099C318.169 176.782 321.754 176.644 323.811 177.786C325.869 178.927 325.609 180.907 323.235 182.223Z" fill="#0085A6"/>
<path d="M336.039 173.036C333.665 174.343 330.069 174.49 328.012 173.349C325.955 172.207 326.215 170.228 328.589 168.912C330.963 167.595 334.559 167.457 336.616 168.589C338.673 169.722 338.433 171.719 336.039 173.036Z" fill="#0085A6"/>
<path d="M325.83 163.26C323.456 164.567 319.86 164.714 317.803 163.573C315.746 162.431 316.006 160.452 318.38 159.136C320.754 157.819 324.35 157.681 326.407 158.814C328.464 159.946 328.214 161.943 325.83 163.26Z" fill="#0085A6"/>
<path opacity="0.7" d="M285.802 175.798C283.418 177.105 279.822 177.252 277.765 176.111C275.708 174.969 275.968 172.99 278.342 171.674C280.716 170.357 284.312 170.219 286.378 171.351C288.445 172.484 288.176 174.481 285.802 175.798Z" fill="#FAFAFA"/>
<path opacity="0.4" d="M302.807 182.609C300.433 183.926 296.837 184.064 294.78 182.932C292.723 181.799 292.973 179.802 295.357 178.485C297.741 177.169 301.327 177.031 303.384 178.172C305.441 179.314 305.181 181.293 302.807 182.609Z" fill="#FAFAFA"/>
<path opacity="0.3" d="M336.039 173.036C333.665 174.343 330.069 174.49 328.012 173.349C325.955 172.207 326.215 170.228 328.589 168.912C330.963 167.595 334.559 167.457 336.616 168.589C338.673 169.722 338.433 171.719 336.039 173.036Z" fill="black"/>
<path opacity="0.5" d="M325.83 163.26C323.456 164.567 319.86 164.714 317.803 163.573C315.746 162.431 316.006 160.452 318.38 159.136C320.754 157.819 324.35 157.681 326.407 158.814C328.464 159.946 328.214 161.943 325.83 163.26Z" fill="black"/>
<path d="M308.632 163.103C305.749 162.348 304.605 162.118 301.759 161.382C300.254 160.934 298.663 160.809 297.102 161.016C295.54 161.222 294.045 161.756 292.723 162.579C290.118 164.107 286.321 166.04 286.888 166.97C287.917 168.654 291.435 168.488 294.886 167.549C296.943 166.988 299.933 168.47 303.874 168.47C307.815 168.47 313.66 164.917 308.632 163.103Z" fill="#FFA8A7"/>
<path d="M233.517 277.959H201.016L204.65 306.606C204.813 308.263 206.034 309.902 208.322 311.209C213.263 313.971 221.271 313.971 226.212 311.209C228.499 309.948 229.72 308.309 229.884 306.606L233.517 277.959Z" fill="#0085A6"/>
<path opacity="0.65" d="M233.517 277.959H201.016L204.65 306.606C204.813 308.263 206.034 309.902 208.322 311.209C213.263 313.971 221.271 313.971 226.212 311.209C228.499 309.948 229.72 308.309 229.884 306.606L233.517 277.959Z" fill="white"/>
<path d="M205.774 271.598C212.128 268.091 222.424 268.091 228.778 271.598C235.132 275.105 235.132 280.804 228.778 284.32C222.424 287.837 212.128 287.827 205.774 284.32C199.42 280.813 199.43 275.115 205.774 271.598Z" fill="#0085A6"/>
<path opacity="0.8" d="M205.774 271.598C212.128 268.091 222.424 268.091 228.778 271.598C235.132 275.105 235.132 280.804 228.778 284.32C222.424 287.837 212.128 287.827 205.774 284.32C199.42 280.813 199.43 275.115 205.774 271.598Z" fill="white"/>
<path d="M217.31 285.176C213.63 285.26 209.989 284.439 206.735 282.792C204.274 281.429 202.89 279.726 202.89 277.996C202.89 276.265 204.246 274.562 206.735 273.2C210.017 271.622 213.638 270.8 217.31 270.8C220.981 270.8 224.602 271.622 227.884 273.2C230.345 274.562 231.729 276.265 231.729 277.996C231.729 279.726 230.373 281.429 227.884 282.792C224.629 284.436 220.989 285.257 217.31 285.176V285.176Z" fill="#263238"/>
<path d="M208.37 256.796C210.233 263.622 211.713 270.539 212.801 277.517C213.84 285.352 214.184 293.257 213.83 301.148V301.148C213.816 301.267 213.774 301.382 213.705 301.483C213.637 301.584 213.544 301.667 213.436 301.728C213.344 301.78 213.242 301.815 213.136 301.83C213.03 301.845 212.921 301.839 212.818 301.813C212.714 301.788 212.616 301.742 212.531 301.68C212.446 301.618 212.374 301.54 212.321 301.451C212.288 301.404 212.266 301.351 212.253 301.295V301.295C212.253 301.295 207.649 288.407 206.159 278.281C205.209 271.309 204.645 264.294 204.467 257.265V257.265C204.478 257.113 204.527 256.965 204.608 256.834C204.69 256.703 204.803 256.592 204.938 256.511C205.336 256.243 205.794 256.07 206.275 256.004C206.756 255.939 207.246 255.983 207.706 256.133C207.865 256.183 208.009 256.27 208.124 256.385C208.24 256.501 208.324 256.642 208.37 256.796V256.796Z" fill="#0085A6"/>
<path opacity="0.1" d="M212.321 301.497C212.289 301.449 212.266 301.396 212.253 301.341C212.253 301.341 207.649 288.453 206.159 278.327C205.198 271.506 204.736 264.353 204.573 260.395L207.111 260.478C207.111 260.478 212.734 301.829 213.465 301.746C213.373 301.804 213.271 301.844 213.163 301.863C213.055 301.883 212.944 301.88 212.837 301.857C212.73 301.834 212.629 301.79 212.54 301.728C212.451 301.666 212.377 301.588 212.321 301.497V301.497Z" fill="black"/>
<path d="M206.274 256.05C205.841 255.479 203.486 252.368 203.688 249.606C204.063 249.543 204.424 249.418 204.755 249.238C206.024 248.52 205.716 247.397 206.591 246.771C207.466 246.145 208.86 247.535 208.869 247.544C209.799 248.992 210.235 250.681 210.119 252.377C209.986 253.974 209.379 255.5 208.37 256.777L204.457 257.284L206.274 256.05Z" fill="#455A64"/>
<path d="M201.016 250.591C201.708 249.523 202.621 249.8 203.688 249.625C203.486 252.386 205.841 255.479 206.274 256.069L204.457 257.32C204.169 257.007 203.842 256.676 203.496 256.308L203.246 256.022C203.083 255.829 202.919 255.627 202.756 255.406C202.503 255.068 202.275 254.715 202.073 254.347C201.923 254.084 201.789 253.814 201.669 253.537C201.401 252.909 201.204 252.254 201.083 251.586C201.032 251.256 201.009 250.924 201.016 250.591V250.591Z" fill="#37474F"/>
<path d="M201.016 250.573V250.076C201.02 250.058 201.02 250.039 201.016 250.021L201.073 249.652V249.514V249.404C201.069 249.34 201.069 249.275 201.073 249.211C201.073 249.128 201.122 249.054 201.141 248.971C201.198 248.796 201.265 248.624 201.343 248.456C201.41 248.289 201.487 248.126 201.573 247.968C201.66 247.811 201.756 247.655 201.852 247.498C202.453 246.573 203.237 245.77 204.159 245.133L204.361 244.994H204.419L204.649 244.856C205.138 244.581 205.649 244.344 206.178 244.148C206.418 244.065 206.649 243.991 206.86 243.936L207.456 243.789L207.716 243.743H207.947C208.071 243.72 208.196 243.705 208.322 243.697H208.639C208.359 244.112 208.181 244.583 208.116 245.073C208.051 245.564 208.102 246.062 208.264 246.532C208.376 246.921 208.53 247.297 208.725 247.655C208.725 247.655 207.331 246.246 206.447 246.882C205.563 247.517 205.88 248.631 204.611 249.349C204.28 249.529 203.919 249.653 203.544 249.717C202.477 249.892 201.564 249.616 200.872 250.683L201.016 250.573Z" fill="#0085A6"/>
<path opacity="0.1" d="M208.783 243.604C206.657 244.51 204.97 246.155 204.063 248.207C203.849 248.66 203.722 249.147 203.688 249.643C202.621 249.818 201.708 249.542 201.016 250.61V250.113C201.02 250.095 201.02 250.076 201.016 250.057L201.073 249.689V249.551V249.441C201.069 249.376 201.069 249.312 201.073 249.247C201.073 249.165 201.121 249.091 201.141 249.008C201.198 248.833 201.265 248.661 201.342 248.493C201.41 248.326 201.487 248.163 201.573 248.005C201.66 247.848 201.756 247.692 201.852 247.535C202.453 246.61 203.237 245.807 204.159 245.169L204.361 245.031H204.419L204.649 244.893C205.138 244.618 205.649 244.381 206.178 244.184C206.418 244.102 206.649 244.028 206.86 243.973L207.456 243.825L207.716 243.779H207.947C208.07 243.757 208.196 243.742 208.321 243.733H208.639L208.783 243.604Z" fill="black"/>
<path d="M204.457 257.302C204.47 257.151 204.519 257.005 204.601 256.876C204.683 256.747 204.795 256.637 204.928 256.556C205.326 256.289 205.784 256.116 206.265 256.05C206.746 255.984 207.237 256.029 207.697 256.179C207.851 256.224 207.992 256.304 208.109 256.411C208.226 256.518 208.315 256.65 208.369 256.796C208.764 258.232 209.167 259.806 209.581 261.463C209.516 261.273 209.404 261.102 209.255 260.962C209.106 260.823 208.924 260.72 208.725 260.662C208.144 260.472 207.525 260.415 206.917 260.497C206.309 260.578 205.73 260.796 205.226 261.131C205.047 261.242 204.9 261.393 204.798 261.571C204.695 261.75 204.641 261.95 204.64 262.153C204.553 260.321 204.486 258.48 204.457 257.302Z" fill="#EBEBEB"/>
<path d="M207.101 260.478C206.425 260.529 205.777 260.755 205.226 261.131C205.047 261.242 204.9 261.393 204.798 261.571C204.695 261.75 204.641 261.95 204.64 262.153C204.553 260.312 204.486 258.517 204.457 257.302C204.47 257.151 204.519 257.005 204.601 256.876C204.683 256.747 204.795 256.637 204.928 256.556C205.324 256.281 205.788 256.107 206.274 256.05V256.05L207.053 260.459L207.101 260.478Z" fill="#E0E0E0"/>
<path d="M218.723 235.66C218.723 235.66 220.386 269.72 220.511 280.214C220.487 288.11 219.77 295.99 218.367 303.771V303.817C218.327 303.975 218.236 304.117 218.107 304.223C217.978 304.329 217.818 304.393 217.648 304.406C217.479 304.419 217.31 304.381 217.164 304.297C217.019 304.212 216.905 304.086 216.839 303.937C216.811 303.884 216.792 303.829 216.781 303.771V303.771C216.781 303.771 213.897 290.442 213.82 280.196C213.744 269.95 214.782 235.688 214.782 235.688C214.815 235.539 214.884 235.4 214.982 235.28C215.081 235.16 215.206 235.064 215.349 234.997C215.783 234.788 216.262 234.68 216.748 234.68C217.233 234.68 217.712 234.788 218.146 234.997C218.287 235.06 218.412 235.152 218.512 235.267C218.612 235.382 218.684 235.516 218.723 235.66Z" fill="#0085A6"/>
<path opacity="0.1" d="M216.82 303.937C216.792 303.885 216.772 303.829 216.762 303.771C216.762 303.771 213.878 290.442 213.801 280.196C213.724 273.31 214.099 242.712 214.464 238.772L216.964 239.168C216.964 239.168 217.175 304.323 217.925 304.36C217.824 304.405 217.714 304.43 217.603 304.433C217.491 304.436 217.38 304.417 217.277 304.377C217.173 304.338 217.079 304.278 217.001 304.202C216.922 304.127 216.86 304.036 216.82 303.937Z" fill="black"/>
<path d="M216.743 234.666C216.387 234.049 214.464 230.708 215.041 227.974C215.422 227.96 215.797 227.879 216.147 227.734C217.502 227.191 217.319 226.031 218.3 225.516C219.28 225 220.444 226.556 220.453 226.565C221.178 228.118 221.386 229.847 221.049 231.518C220.7 233.082 219.893 234.519 218.723 235.66H214.772L216.743 234.666Z" fill="#455A64"/>
<path d="M212.263 228.609C213.09 227.633 213.955 228.02 215.041 227.974C214.464 230.735 216.387 234.049 216.743 234.666L214.82 235.688C214.57 235.338 214.301 234.97 214.022 234.556L213.811 234.252C213.676 234.04 213.542 233.81 213.417 233.58C213.207 233.215 213.024 232.836 212.869 232.448C212.76 232.178 212.664 231.892 212.58 231.592C212.402 230.935 212.296 230.262 212.263 229.585C212.229 229.26 212.229 228.933 212.263 228.609V228.609Z" fill="#37474F"/>
<path d="M212.263 228.59C212.263 228.425 212.321 228.259 212.359 228.093V228.047C212.359 227.927 212.426 227.808 212.465 227.688C212.503 227.568 212.465 227.596 212.465 227.55C212.463 227.516 212.463 227.482 212.465 227.449C212.486 227.383 212.512 227.318 212.542 227.255C212.57 227.18 212.602 227.106 212.638 227.034C212.724 226.869 212.811 226.703 212.907 226.547C212.997 226.388 213.097 226.234 213.205 226.086C213.311 225.939 213.417 225.801 213.532 225.663C214.256 224.818 215.144 224.115 216.147 223.592L216.358 223.49H216.425L216.675 223.38C217.198 223.17 217.739 223 218.29 222.874C218.54 222.818 218.771 222.772 218.992 222.745C219.213 222.717 219.415 222.69 219.598 222.671H219.857H220.472H220.79C220.459 223.05 220.22 223.494 220.09 223.971C219.961 224.449 219.943 224.948 220.04 225.433C220.098 225.832 220.201 226.224 220.347 226.602C220.347 226.602 219.155 225.037 218.194 225.552C217.233 226.068 217.396 227.228 216.041 227.771C215.691 227.915 215.316 227.997 214.935 228.01C213.849 228.056 213.013 227.67 212.157 228.645L212.263 228.59Z" fill="#0085A6"/>
<path opacity="0.1" d="M220.896 222.635C218.673 223.265 216.784 224.68 215.608 226.593C215.336 227.018 215.144 227.485 215.041 227.974C213.955 228.02 213.119 227.633 212.263 228.609C212.263 228.443 212.321 228.277 212.359 228.112V228.066C212.359 227.946 212.427 227.826 212.465 227.707C212.504 227.587 212.465 227.615 212.465 227.569C212.463 227.535 212.463 227.501 212.465 227.467C212.486 227.401 212.512 227.337 212.542 227.274C212.57 227.199 212.602 227.125 212.638 227.053C212.725 226.887 212.811 226.722 212.907 226.565C212.997 226.407 213.097 226.253 213.205 226.105C213.311 225.958 213.417 225.82 213.532 225.682C214.256 224.836 215.144 224.133 216.147 223.61L216.358 223.509H216.426L216.676 223.399C217.199 223.188 217.739 223.019 218.29 222.892C218.54 222.837 218.771 222.791 218.992 222.763C219.213 222.736 219.415 222.708 219.598 222.69H219.857H220.473H220.79L220.896 222.635Z" fill="black"/>
<path d="M214.772 235.688C214.805 235.539 214.874 235.4 214.972 235.28C215.071 235.16 215.196 235.064 215.339 234.997C215.773 234.788 216.252 234.68 216.738 234.68C217.223 234.68 217.702 234.788 218.136 234.997C218.283 235.062 218.411 235.158 218.513 235.278C218.615 235.397 218.686 235.537 218.723 235.688C218.925 237.161 219.107 238.772 219.29 240.465C219.258 240.266 219.174 240.077 219.046 239.917C218.919 239.756 218.751 239.628 218.559 239.545C218.011 239.279 217.405 239.141 216.791 239.141C216.176 239.141 215.57 239.279 215.022 239.545C214.833 239.632 214.67 239.761 214.544 239.921C214.419 240.081 214.335 240.268 214.301 240.465C214.474 238.643 214.637 236.884 214.772 235.688Z" fill="#EBEBEB"/>
<path d="M216.964 239.149C216.296 239.121 215.632 239.264 215.041 239.563C214.853 239.65 214.689 239.779 214.564 239.94C214.438 240.1 214.355 240.286 214.32 240.484C214.493 238.643 214.657 236.857 214.791 235.66C214.825 235.512 214.894 235.372 214.992 235.252C215.09 235.133 215.215 235.036 215.359 234.97C215.788 234.743 216.272 234.629 216.762 234.639V234.639L216.945 239.103L216.964 239.149Z" fill="#E0E0E0"/>
<path d="M224.519 271.101L221.924 291.279C221.912 291.515 221.968 291.749 222.085 291.957C222.202 292.164 222.375 292.337 222.587 292.458C223.157 292.824 223.809 293.056 224.491 293.136C225.172 293.216 225.864 293.141 226.509 292.918C226.747 292.852 226.962 292.726 227.132 292.552C227.301 292.379 227.418 292.165 227.471 291.933L230.066 271.755L224.519 271.101Z" fill="#455A64"/>
<path d="M229.393 276.947L223.453 279.358L224.52 271.101L230.057 271.755L229.393 276.947Z" fill="#37474F"/>
<path d="M234.93 255.903L234.411 260.009L238.381 258.398L237.314 266.839C237.062 268.218 236.473 269.52 235.596 270.64C234.719 271.759 233.579 272.665 232.267 273.283L225.279 276.109C224.835 276.335 224.34 276.453 223.837 276.453C223.334 276.453 222.839 276.335 222.395 276.109C222.318 276.109 219.338 273.946 218.723 273.439C218.371 273.099 218.113 272.68 217.973 272.22C217.834 271.76 217.817 271.274 217.925 270.807L219.002 262.356L234.93 255.903Z" fill="#37474F"/>
<path d="M225.279 276.09L232.268 273.264C233.579 272.646 234.72 271.741 235.597 270.621C236.474 269.501 237.062 268.199 237.314 266.82L238.381 258.379L222.472 264.823L221.395 273.273C221.078 275.842 222.808 277.094 225.279 276.09Z" fill="#455A64"/>
<path d="M222.472 264.85L238.381 258.397L239.967 246.071L224.058 252.534L222.472 264.85Z" fill="#F0F0F0"/>
<path d="M222.472 264.851L224.058 252.534L220.607 250.039L219.021 262.356L222.472 264.851Z" fill="#EBEBEB"/>
<path d="M222.011 268.514L237.92 262.061L237.708 263.737L221.78 270.282L222.011 268.514Z" fill="#0085A6"/>
<path d="M222.01 268.514L218.559 266.02L218.329 267.787L221.78 270.282L222.01 268.514Z" fill="#0085A6"/>
<path opacity="0.1" d="M222.01 268.514L218.559 266.02L218.329 267.787L221.78 270.282L222.01 268.514Z" fill="black"/>
<path d="M220.126 253.804C220.126 253.804 220.992 256.888 223.443 257.33L224.058 252.534L220.607 250.039L220.126 253.804Z" fill="#0085A6"/>
<path opacity="0.1" d="M220.126 253.804C220.126 253.804 220.992 256.888 223.443 257.33L224.058 252.534L220.607 250.039L220.126 253.804Z" fill="black"/>
<path d="M223.443 257.33C224.228 257.741 225.109 257.957 226.005 257.957C226.9 257.957 227.781 257.741 228.567 257.33C230.489 256.28 231.672 251.926 235.084 252.239C237.487 252.46 238.804 255.074 238.804 255.074L239.967 246.044L224.058 252.487L223.443 257.33Z" fill="#0085A6"/>
<path d="M239.967 246.072L236.516 243.577L220.607 250.039L224.058 252.534L239.967 246.072Z" fill="#0085A6"/>
<path opacity="0.7" d="M239.967 246.072L236.516 243.577L220.607 250.039L224.058 252.534L239.967 246.072Z" fill="white"/>
</svg>
