<svg width="610" height="595" viewBox="0 0 610 595" fill="none" xmlns="http://www.w3.org/2000/svg">
<path d="M520.66 542.219C401.562 612.594 208.444 612.594 89.3333 542.219C-29.7778 471.845 -29.7778 357.744 89.3333 287.383C208.444 217.022 401.562 217.008 520.673 287.383C639.784 357.757 639.771 471.885 520.66 542.219Z" fill="#F5F5F5"/>
<path d="M120.996 527.467C88.7714 527.467 62.6485 512.37 62.6485 493.747C62.6485 475.124 88.7714 460.027 120.996 460.027C153.22 460.027 179.343 475.124 179.343 493.747C179.343 512.37 153.22 527.467 120.996 527.467Z" fill="#E0E0E0"/>
<path d="M157.596 59.6561L147.469 65.5118C147.524 65.0733 147.555 64.632 147.561 64.19V61.2291C147.561 55.9417 143.89 53.8797 139.375 56.4969C137.429 57.6931 135.763 59.2933 134.489 61.1894C133.75 54.5802 128.6 52.1745 122.342 55.7831C115.581 59.7486 110.101 69.1997 110.101 77.025V81.4135C110.057 83.1659 110.409 84.9057 111.131 86.5026L102.734 91.3669C101.404 92.235 100.299 93.4065 99.5093 94.7852C98.7197 96.1639 98.2681 97.7105 98.1916 99.2979C98.1916 102.193 100.225 103.369 102.734 101.942L157.596 70.2175C158.926 69.3495 160.031 68.178 160.82 66.7992C161.61 65.4205 162.062 63.8739 162.138 62.2865C162.112 59.3785 160.105 58.1492 157.596 59.6561Z" fill="#EBEBEB"/>
<path d="M200.931 89.1848L193.286 93.5997C193.328 93.2664 193.35 92.931 193.352 92.5951V90.3744C193.352 86.4089 190.58 84.836 187.173 86.8055C185.703 87.705 184.446 88.9138 183.489 90.348C182.934 85.3911 179.053 83.5406 174.326 86.2635C171.635 88.0208 169.395 90.3884 167.789 93.1743C166.183 95.9601 165.256 99.0857 165.083 102.297V105.615C165.047 106.936 165.314 108.247 165.862 109.449L159.524 113.123C158.526 113.772 157.694 114.648 157.098 115.679C156.501 116.711 156.156 117.868 156.091 119.058C156.091 121.253 157.623 122.138 159.524 121.041L200.931 97.1026C201.926 96.456 202.755 95.5844 203.352 94.558C203.948 93.5317 204.295 92.3793 204.364 91.194C204.364 88.9733 202.82 88.0877 200.931 89.1848Z" fill="#EBEBEB"/>
<path d="M539.897 339.199C540.65 339.608 554.421 343.534 559.571 336.766C564.721 329.999 556.204 319.464 560.997 315.617C565.79 311.77 579.232 315.617 582.467 307.461C585.702 299.306 576.115 295.763 581.503 287.528C584.896 282.346 593.241 279.438 593.98 274.64C595.195 266.63 581.938 262.942 570.583 270.516C559.228 278.09 552.375 274.614 548.77 274.098C545.166 273.583 537.415 274.719 537.666 287.317C537.917 299.914 539.897 339.199 539.897 339.199Z" fill="#5A71B0"/>
<path d="M538.986 321.195C539.165 321.197 539.338 321.134 539.474 321.017C539.61 320.9 539.699 320.738 539.725 320.561C543.686 296.556 571.56 277.006 586.057 272.816C586.25 272.762 586.413 272.633 586.511 272.458C586.609 272.283 586.633 272.077 586.579 271.884C586.525 271.691 586.396 271.528 586.222 271.43C586.047 271.332 585.841 271.308 585.648 271.362C570.82 275.658 542.3 295.684 538.246 320.27C538.216 320.466 538.264 320.666 538.38 320.827C538.496 320.988 538.671 321.097 538.867 321.129L538.986 321.195Z" fill="white"/>
<path d="M571.864 301.104C572.03 301.109 572.193 301.059 572.327 300.961C572.461 300.862 572.558 300.721 572.602 300.561C572.647 300.401 572.636 300.23 572.571 300.077C572.507 299.923 572.392 299.796 572.247 299.716C571.798 299.438 561.076 293.107 550.5 296.094C550.308 296.152 550.146 296.282 550.048 296.457C549.95 296.632 549.922 296.838 549.972 297.032C550.027 297.223 550.155 297.384 550.328 297.48C550.501 297.577 550.705 297.601 550.896 297.548C560.865 294.759 571.428 300.945 571.428 301.011C571.561 301.084 571.713 301.116 571.864 301.104Z" fill="white"/>
<path d="M534.549 348.425C534.408 350.347 533.817 352.209 532.824 353.86C531.831 355.511 530.463 356.905 528.832 357.929L368.631 450.457C366.859 451.357 364.901 451.826 362.914 451.826C360.927 451.826 358.968 451.357 357.197 450.457L138.014 323.759C136.287 322.847 134.841 321.479 133.832 319.804C132.823 318.13 132.29 316.211 132.29 314.255C132.29 312.3 132.823 310.381 133.832 308.706C134.841 307.032 136.287 305.664 138.014 304.751L298.202 212.223C299.974 211.323 301.933 210.854 303.92 210.854C305.906 210.854 307.865 211.323 309.637 212.223L528.819 338.921C530.453 339.943 531.823 341.336 532.818 342.988C533.814 344.639 534.407 346.501 534.549 348.425Z" fill="#37474F"/>
<path d="M362.914 439.5V451.885C364.901 451.94 366.869 451.485 368.631 450.564L528.832 358.035C530.507 357.152 531.918 355.839 532.921 354.232C533.925 352.625 534.484 350.78 534.543 348.886C534.602 346.991 534.159 345.115 533.258 343.448C532.356 341.781 531.03 340.384 529.413 339.397C531.975 341.235 531.777 343.931 528.832 345.636L368.631 438.165C366.87 439.091 364.902 439.55 362.914 439.5Z" fill="#263238"/>
<path d="M539.911 339.119C541.505 338.039 542.821 336.597 543.753 334.911C544.684 333.225 545.205 331.343 545.271 329.417V138.028C545.163 136.043 544.589 134.11 543.596 132.388C542.602 130.665 541.218 129.202 539.554 128.115L320.372 1.42993C318.671 0.528024 316.782 0.0389726 314.858 0.00223506C312.934 -0.0345024 311.028 0.382103 309.294 1.21844C307.699 2.30132 306.381 3.74529 305.447 5.43326C304.514 7.12124 303.99 9.00572 303.92 10.9339V202.309C304.026 204.296 304.599 206.229 305.593 207.951C306.586 209.674 307.972 211.138 309.637 212.223L528.819 338.921C530.522 339.826 532.414 340.316 534.341 340.35C536.269 340.385 538.177 339.963 539.911 339.119Z" fill="#455A64"/>
<path d="M529.506 339.264C531.145 340.004 532.926 340.375 534.724 340.35C536.522 340.324 538.293 339.904 539.911 339.119C541.502 338.037 542.817 336.594 543.748 334.909C544.68 333.223 545.201 331.342 545.271 329.417V138.028C545.206 136.038 544.629 134.098 543.594 132.397L532.873 138.583C533.9 140.288 534.477 142.225 534.55 144.214V335.616C534.55 339 532.345 340.52 529.506 339.264Z" fill="#263238"/>
<path d="M534.549 144.229V335.617C534.549 339.266 531.987 340.746 528.832 338.922L309.649 212.224C307.984 211.139 306.599 209.675 305.605 207.952C304.612 206.23 304.038 204.297 303.932 202.31V10.9349C303.932 7.28666 306.494 5.80621 309.649 7.63034L528.832 134.315C530.495 135.403 531.879 136.867 532.872 138.589C533.865 140.311 534.439 142.243 534.549 144.229Z" fill="#37474F"/>
<path d="M528.832 345.53L368.631 438.058C366.86 438.958 364.901 439.427 362.914 439.427C360.927 439.427 358.969 438.958 357.197 438.058L138.015 311.361C134.859 309.536 134.859 306.575 138.015 304.751L298.202 212.223C299.974 211.323 301.933 210.854 303.92 210.854C305.906 210.854 307.865 211.323 309.637 212.223L528.819 338.921C531.988 340.745 531.988 343.666 528.832 345.53Z" fill="#455A64"/>
<path d="M525.756 144.942L314.496 22.831C312.594 21.7339 311.063 22.6196 311.063 24.8138V190.479C311.126 191.672 311.47 192.832 312.067 193.866C312.664 194.899 313.496 195.777 314.496 196.428L525.756 318.552C527.657 319.649 529.189 318.764 529.189 316.569V150.89C529.125 149.698 528.781 148.538 528.185 147.504C527.588 146.471 526.756 145.593 525.756 144.942Z" fill="white"/>
<path opacity="0.6" d="M525.756 144.942L314.496 22.831C312.594 21.7339 311.063 22.6196 311.063 24.8138V190.479C311.126 191.672 311.47 192.832 312.067 193.866C312.664 194.899 313.496 195.777 314.496 196.428L525.756 318.552C527.657 319.649 529.189 318.764 529.189 316.569V150.89C529.125 149.698 528.781 148.538 528.185 147.504C527.588 146.471 526.756 145.593 525.756 144.942Z" fill="#5A71B0"/>
<path d="M420.549 134.46C414.924 131.209 410.356 133.852 410.356 140.356C410.549 143.894 411.573 147.337 413.344 150.405C415.115 153.473 417.584 156.081 420.549 158.015C426.174 161.267 430.729 158.637 430.729 152.133C430.539 148.594 429.519 145.149 427.75 142.078C425.981 139.008 423.514 136.398 420.549 134.46Z" fill="#F0F0F0"/>
<path d="M400.466 169.25C400.466 158.57 407.966 153.824 417.209 159.165L422.979 162.575C432.221 167.862 439.721 180.909 439.721 191.655V194.537L400.466 171.854V169.25Z" fill="#F0F0F0"/>
<path d="M380.62 174.471C380.99 173.612 381.941 173.401 383.01 174.009L451.565 213.664C452.301 214.149 452.914 214.8 453.354 215.564C453.794 216.328 454.05 217.185 454.1 218.066V226.129C454.1 227.451 453.281 228.178 452.172 227.874L451.987 227.808C451.843 227.749 451.702 227.683 451.565 227.609L383.01 187.954C382.271 187.472 381.656 186.822 381.216 186.057C380.775 185.293 380.521 184.434 380.475 183.552V175.529C380.463 175.171 380.512 174.813 380.62 174.471Z" fill="#F0F0F0"/>
<path d="M445.372 214.668C444.052 213.888 442.956 214.523 442.956 216.056C442.998 216.894 443.24 217.71 443.66 218.437C444.08 219.163 444.667 219.779 445.372 220.233C446.693 221 447.775 220.379 447.775 218.832C447.732 217.997 447.492 217.184 447.074 216.461C446.656 215.737 446.073 215.122 445.372 214.668Z" fill="#5A71B0"/>
<path d="M437.397 210.055C436.077 209.289 434.994 209.91 434.994 211.457C435.037 212.291 435.278 213.104 435.695 213.828C436.113 214.552 436.696 215.166 437.397 215.621C438.718 216.401 439.814 215.766 439.814 214.299C439.781 213.449 439.545 212.62 439.124 211.881C438.704 211.142 438.111 210.516 437.397 210.055Z" fill="#5A71B0"/>
<path d="M429.435 205.455C428.115 204.688 427.032 205.31 427.032 206.843C427.073 207.68 427.313 208.495 427.731 209.222C428.148 209.948 428.733 210.564 429.435 211.02C430.756 211.787 431.852 211.166 431.852 209.632C431.809 208.794 431.568 207.978 431.148 207.251C430.727 206.525 430.14 205.909 429.435 205.455Z" fill="#5A71B0"/>
<path d="M421.473 200.908C420.153 200.128 419.057 200.763 419.057 202.23C419.1 203.068 419.341 203.884 419.761 204.611C420.181 205.337 420.768 205.953 421.473 206.407C422.794 207.174 423.877 206.553 423.877 205.085C423.835 204.248 423.596 203.433 423.178 202.707C422.76 201.98 422.176 201.364 421.473 200.908Z" fill="#5A71B0"/>
<path d="M413.511 196.242C412.191 195.475 411.095 196.096 411.095 197.643C411.143 198.48 411.387 199.294 411.806 200.02C412.226 200.745 412.81 201.362 413.511 201.82C414.832 202.587 415.915 201.966 415.915 200.419C415.868 199.583 415.627 198.77 415.209 198.044C414.792 197.319 414.21 196.701 413.511 196.242Z" fill="#5A71B0"/>
<path d="M405.536 191.655C404.216 190.889 403.133 191.51 403.133 192.977C403.174 193.814 403.414 194.63 403.832 195.356C404.25 196.082 404.834 196.699 405.536 197.154C406.857 197.921 407.953 197.3 407.953 195.833C407.91 194.994 407.669 194.178 407.249 193.452C406.828 192.725 406.242 192.11 405.536 191.655Z" fill="#5A71B0"/>
<path d="M397.575 187.042C396.254 186.275 395.171 186.896 395.171 188.43C395.213 189.267 395.452 190.082 395.87 190.808C396.288 191.535 396.872 192.151 397.575 192.607C398.895 193.374 399.978 192.752 399.978 191.219C399.937 190.382 399.697 189.566 399.28 188.84C398.862 188.114 398.277 187.497 397.575 187.042Z" fill="#5A71B0"/>
<path d="M389.613 182.403C388.292 181.636 387.196 182.258 387.196 183.804C387.244 184.641 387.488 185.455 387.907 186.181C388.327 186.907 388.911 187.523 389.613 187.982C390.933 188.748 392.016 188.127 392.016 186.58C391.967 185.745 391.725 184.932 391.308 184.207C390.891 183.482 390.31 182.864 389.613 182.403Z" fill="#5A71B0"/>
<path d="M510.242 340.573L306.786 222.93C305.9 222.48 304.921 222.246 303.927 222.246C302.934 222.246 301.955 222.48 301.069 222.93L290.664 228.944C290.319 229.061 290.02 229.284 289.808 229.58C289.595 229.876 289.481 230.232 289.481 230.596C289.481 230.961 289.595 231.316 289.808 231.613C290.02 231.909 290.319 232.132 290.664 232.249L494.147 349.879C495.033 350.328 496.012 350.562 497.006 350.562C497.999 350.562 498.978 350.328 499.864 349.879L510.242 343.878C510.587 343.76 510.887 343.538 511.099 343.242C511.311 342.945 511.425 342.59 511.425 342.225C511.425 341.861 511.311 341.505 511.099 341.209C510.887 340.913 510.587 340.69 510.242 340.573Z" fill="#37474F"/>
<path d="M483.426 356.078L279.969 238.435C279.083 237.986 278.104 237.751 277.11 237.751C276.117 237.751 275.138 237.986 274.252 238.435L210.24 275.446C209.895 275.564 209.596 275.786 209.383 276.082C209.171 276.379 209.057 276.734 209.057 277.099C209.057 277.463 209.171 277.819 209.383 278.115C209.596 278.412 209.895 278.634 210.24 278.751L413.459 396.209C414.348 396.656 415.329 396.888 416.324 396.888C417.319 396.888 418.3 396.656 419.189 396.209L483.412 359.357C483.755 359.241 484.052 359.022 484.264 358.729C484.475 358.436 484.589 358.084 484.591 357.722C484.592 357.361 484.481 357.008 484.272 356.713C484.063 356.418 483.767 356.196 483.426 356.078Z" fill="#263238"/>
<path d="M301.042 291.388L294.665 287.7C294.401 287.541 294.414 287.277 294.665 287.118L302.072 282.862C302.229 282.781 302.404 282.739 302.58 282.739C302.757 282.739 302.932 282.781 303.089 282.862L309.466 286.55C309.73 286.695 309.717 286.96 309.466 287.132L302.098 291.388C301.936 291.476 301.755 291.522 301.57 291.522C301.386 291.522 301.204 291.476 301.042 291.388ZM313.612 276.755L319.976 280.43C320.254 280.589 320.24 280.853 319.976 281.025L312.609 285.281C312.451 285.359 312.277 285.4 312.1 285.4C311.924 285.4 311.75 285.359 311.592 285.281L305.215 281.593C304.95 281.435 304.964 281.17 305.215 281.012L312.635 276.782C312.785 276.703 312.951 276.66 313.121 276.655C313.29 276.65 313.458 276.685 313.612 276.755ZM334.197 288.652L344.971 294.878C345.248 295.036 345.222 295.301 344.971 295.472L337.617 299.729C337.458 299.807 337.285 299.847 337.108 299.847C336.932 299.847 336.758 299.807 336.6 299.729L325.812 293.503C325.548 293.344 325.562 293.08 325.812 292.921L333.18 288.652C333.338 288.574 333.512 288.533 333.688 288.533C333.865 288.533 334.039 288.574 334.197 288.652ZM322.921 282.135L329.298 285.823C329.562 285.968 329.549 286.233 329.298 286.405L321.878 290.661C321.72 290.739 321.546 290.78 321.369 290.78C321.193 290.78 321.019 290.739 320.861 290.661L314.497 286.973C314.219 286.814 314.233 286.55 314.497 286.391L321.878 282.162C322.036 282.072 322.214 282.022 322.396 282.018C322.578 282.013 322.758 282.054 322.921 282.135ZM347.915 296.583L354.28 300.257C354.557 300.416 354.544 300.68 354.28 300.852L346.912 305.109C346.755 305.19 346.58 305.232 346.404 305.232C346.227 305.232 346.052 305.19 345.895 305.109L339.518 301.434C339.254 301.275 339.267 301.011 339.518 300.839L346.886 296.583C347.045 296.503 347.222 296.461 347.401 296.461C347.579 296.461 347.756 296.503 347.915 296.583ZM357.224 301.963L363.588 305.637C363.866 305.796 363.852 306.06 363.588 306.232L356.207 310.488C356.049 310.567 355.875 310.607 355.699 310.607C355.523 310.607 355.349 310.567 355.191 310.488L348.813 306.801C348.549 306.642 348.562 306.378 348.813 306.219L356.207 301.989C356.362 301.904 356.536 301.857 356.713 301.852C356.889 301.848 357.065 301.886 357.224 301.963ZM328.255 319.279L321.878 315.591C321.614 315.432 321.627 315.168 321.878 315.009L329.245 310.753C329.403 310.672 329.577 310.629 329.754 310.629C329.931 310.629 330.105 310.672 330.262 310.753L336.626 314.441C336.904 314.586 336.877 314.851 336.626 315.022L329.272 319.279C329.115 319.36 328.94 319.402 328.763 319.402C328.587 319.402 328.412 319.36 328.255 319.279ZM337.498 324.659L331.12 320.971C330.856 320.812 330.869 320.561 331.12 320.389L338.488 316.133C338.645 316.052 338.819 316.009 338.996 316.009C339.173 316.009 339.348 316.052 339.505 316.133L345.869 319.821C346.146 319.979 346.133 320.23 345.869 320.402L338.501 324.659C338.354 324.727 338.194 324.763 338.032 324.763C337.87 324.763 337.711 324.727 337.564 324.659H337.498ZM346.806 330.038L340.429 326.351C340.165 326.205 340.178 325.941 340.429 325.769L347.797 321.513C347.954 321.431 348.128 321.389 348.305 321.389C348.482 321.389 348.656 321.431 348.813 321.513L355.283 325.161C355.56 325.319 355.547 325.584 355.283 325.742L347.915 329.999C347.758 330.091 347.581 330.142 347.399 330.149C347.217 330.156 347.036 330.118 346.872 330.038H346.806ZM356.049 335.418L349.672 331.73C349.408 331.585 349.421 331.321 349.672 331.149L357.039 326.892C357.197 326.814 357.371 326.774 357.548 326.774C357.724 326.774 357.898 326.814 358.056 326.892L364.433 330.58C364.697 330.739 364.684 331.003 364.433 331.162L357.066 335.418C356.93 335.475 356.784 335.505 356.637 335.505C356.489 335.505 356.343 335.475 356.207 335.418H356.049ZM310.219 296.768L303.855 293.08C303.577 292.921 303.59 292.67 303.855 292.498L311.315 288.242C311.472 288.161 311.646 288.119 311.823 288.119C312 288.119 312.174 288.161 312.331 288.242L318.709 291.93C318.973 292.089 318.96 292.34 318.709 292.512L311.315 296.741C311.166 296.818 311.003 296.86 310.836 296.865C310.669 296.87 310.503 296.836 310.351 296.768H310.219ZM318.801 313.952L304.713 305.677C304.449 305.518 304.462 305.254 304.713 305.095L322.657 294.759C322.814 294.678 322.988 294.635 323.165 294.635C323.342 294.635 323.516 294.678 323.673 294.759L331.015 299.002C331.292 299.16 331.279 299.425 331.015 299.597L321.534 305.069C321.244 305.241 321.231 305.505 321.534 305.651L327.41 309.048C327.687 309.206 327.661 309.471 327.41 309.643L320.042 313.899C319.873 313.993 319.682 314.042 319.488 314.042C319.294 314.042 319.103 313.993 318.933 313.899L318.801 313.952ZM366.335 307.343L372.712 311.03C372.976 311.176 372.963 311.44 372.712 311.612L365.45 315.908C365.292 315.986 365.118 316.027 364.942 316.027C364.765 316.027 364.591 315.986 364.433 315.908L358.069 312.22C357.792 312.061 357.805 311.797 358.069 311.638L365.45 307.369C365.613 307.272 365.798 307.219 365.988 307.214C366.178 307.21 366.365 307.254 366.533 307.343H366.335ZM375.643 312.722L382.021 316.41C382.285 316.569 382.272 316.82 382.021 316.992L374.653 321.248C374.496 321.329 374.322 321.372 374.145 321.372C373.968 321.372 373.794 321.329 373.636 321.248L367.272 317.56C366.995 317.402 367.008 317.137 367.272 316.979L374.64 312.722C374.819 312.607 375.028 312.545 375.241 312.545C375.454 312.545 375.662 312.607 375.841 312.722H375.643ZM422.173 373.064C422.016 373.145 421.842 373.188 421.665 373.188C421.488 373.188 421.314 373.145 421.157 373.064L414.779 369.376C414.515 369.218 414.528 368.953 414.779 368.795L422.147 364.538C422.304 364.457 422.478 364.415 422.655 364.415C422.832 364.415 423.006 364.457 423.164 364.538L429.528 368.226C429.805 368.372 429.792 368.636 429.528 368.808L422.173 373.064ZM450.126 355.775L456.701 359.529C456.965 359.674 456.952 359.938 456.701 360.11L449.333 364.367C449.175 364.445 449.001 364.485 448.825 364.485C448.649 364.485 448.475 364.445 448.317 364.367L441.953 360.679C441.675 360.52 441.689 360.256 441.953 360.097L449.32 355.841C449.471 355.751 449.64 355.699 449.814 355.687C449.988 355.676 450.163 355.706 450.324 355.775H450.126ZM435.139 368.398C434.982 368.479 434.808 368.522 434.631 368.522C434.454 368.522 434.28 368.479 434.123 368.398L427.759 364.71C427.481 364.552 427.508 364.287 427.759 364.129L435.126 359.872C435.283 359.791 435.458 359.749 435.635 359.749C435.811 359.749 435.986 359.791 436.143 359.872L442.507 363.56C442.771 363.719 442.758 363.97 442.507 364.142L435.139 368.398ZM405.735 376.329L399.357 372.641C399.093 372.483 399.106 372.218 399.357 372.06L406.725 367.803C406.882 367.722 407.056 367.68 407.233 367.68C407.41 367.68 407.584 367.722 407.742 367.803L414.304 371.425C414.581 371.57 414.568 371.835 414.304 372.007L406.936 376.263C406.786 376.352 406.617 376.405 406.444 376.419C406.27 376.432 406.095 376.406 405.933 376.342L405.735 376.329ZM416.06 381.616C415.903 381.698 415.729 381.74 415.552 381.74C415.375 381.74 415.201 381.698 415.043 381.616L408.666 377.929C408.402 377.77 408.415 377.506 408.666 377.347L416.034 373.091C416.191 373.009 416.365 372.967 416.542 372.967C416.719 372.967 416.893 373.009 417.05 373.091L423.428 376.779C423.692 376.924 423.679 377.188 423.428 377.36L416.06 381.616ZM440.817 350.315L447.194 353.99C447.459 354.149 447.445 354.413 447.194 354.585L439.827 358.841C439.669 358.919 439.495 358.96 439.318 358.96C439.142 358.96 438.968 358.919 438.81 358.841L432.446 355.153C432.169 354.995 432.182 354.73 432.446 354.572L439.814 350.302C440.003 350.205 440.215 350.162 440.427 350.178C440.64 350.194 440.843 350.269 441.015 350.395L440.817 350.315ZM394.498 323.482L400.876 327.17C401.14 327.329 401.127 327.593 400.876 327.752L393.508 332.008C393.351 332.089 393.177 332.131 393 332.131C392.823 332.131 392.649 332.089 392.491 332.008L386.127 328.32C385.85 328.175 385.876 327.91 386.127 327.738L393.495 323.482C393.651 323.404 393.822 323.364 393.997 323.364C394.171 323.364 394.343 323.404 394.498 323.482ZM431.706 344.988L438.071 348.69C438.348 348.848 438.335 349.113 438.071 349.284L430.703 353.541C430.546 353.622 430.371 353.664 430.195 353.664C430.018 353.664 429.843 353.622 429.686 353.541L423.309 349.866C423.045 349.707 423.058 349.443 423.309 349.271L430.69 344.988C430.848 344.91 431.022 344.87 431.198 344.87C431.374 344.87 431.548 344.91 431.706 344.988ZM385.15 318.076L391.527 321.764C391.792 321.922 391.778 322.187 391.527 322.345L384.16 326.602C384.003 326.683 383.828 326.725 383.651 326.725C383.475 326.725 383.3 326.683 383.143 326.602L376.779 322.914C376.502 322.755 376.528 322.504 376.779 322.332L384.147 318.076C384.304 318.001 384.477 317.964 384.651 317.969C384.826 317.974 384.997 318.019 385.15 318.102V318.076ZM403.741 328.862L410.105 332.55C410.382 332.709 410.356 332.973 410.105 333.132L402.737 337.388C402.58 337.469 402.406 337.511 402.229 337.511C402.052 337.511 401.878 337.469 401.721 337.388L395.357 333.713C395.092 333.555 395.106 333.29 395.357 333.118L402.724 328.862C402.882 328.784 403.056 328.743 403.233 328.743C403.409 328.743 403.583 328.784 403.741 328.862ZM413.05 334.255L419.414 337.93C419.691 338.088 419.665 338.353 419.414 338.511L412.059 342.781C411.901 342.859 411.727 342.9 411.551 342.9C411.375 342.9 411.201 342.859 411.043 342.781L404.665 339.106C404.401 338.948 404.414 338.683 404.665 338.511L412.033 334.255C412.195 334.167 412.377 334.121 412.561 334.121C412.745 334.121 412.927 334.167 413.089 334.255H413.05ZM422.292 339.635L428.656 343.31C428.934 343.468 428.92 343.733 428.656 343.904L421.289 348.161C421.131 348.239 420.957 348.28 420.78 348.28C420.604 348.28 420.43 348.239 420.272 348.161L413.895 344.486C413.631 344.327 413.644 344.063 413.895 343.891L421.381 339.701C421.539 339.623 421.713 339.582 421.889 339.582C422.066 339.582 422.24 339.623 422.398 339.701L422.292 339.635ZM374.759 346.178L368.394 342.503C368.117 342.345 368.144 342.08 368.394 341.909L375.762 337.652C375.919 337.571 376.094 337.529 376.271 337.529C376.447 337.529 376.622 337.571 376.779 337.652L383.156 341.327C383.42 341.486 383.407 341.75 383.156 341.922L375.789 346.178C375.634 346.252 375.465 346.29 375.293 346.29C375.122 346.29 374.953 346.252 374.798 346.178H374.759ZM292.988 264.859L299.431 268.547C299.695 268.692 299.682 268.956 299.431 269.128L292.064 273.385C291.906 273.463 291.732 273.503 291.555 273.503C291.379 273.503 291.205 273.463 291.047 273.385L284.683 269.697C284.405 269.538 284.419 269.274 284.683 269.115L292.05 264.859C292.202 264.784 292.37 264.745 292.539 264.745C292.708 264.745 292.875 264.784 293.027 264.859H292.988ZM304.264 271.375L310.628 275.05C310.905 275.209 310.892 275.473 310.628 275.645L303.26 279.901C303.103 279.982 302.929 280.025 302.752 280.025C302.575 280.025 302.401 279.982 302.244 279.901L295.866 276.227C295.602 276.068 295.615 275.804 295.866 275.632L303.234 271.375C303.399 271.289 303.582 271.243 303.769 271.243C303.955 271.243 304.139 271.289 304.303 271.375H304.264ZM283.679 259.479L290.057 263.154C290.321 263.312 290.307 263.577 290.057 263.748L282.689 268.005C282.531 268.083 282.357 268.123 282.181 268.123C282.004 268.123 281.83 268.083 281.672 268.005L275.308 264.317C275.031 264.158 275.044 263.894 275.308 263.735L282.676 259.466C282.838 259.385 283.018 259.345 283.199 259.347C283.38 259.349 283.558 259.394 283.719 259.479H283.679ZM331.913 309.299L325.535 305.611C325.271 305.452 325.284 305.188 325.535 305.029L332.903 300.76C333.061 300.682 333.235 300.641 333.411 300.641C333.587 300.641 333.761 300.682 333.919 300.76L340.363 304.355C340.627 304.514 340.614 304.778 340.363 304.95L332.995 309.206C332.836 309.31 332.654 309.373 332.465 309.389C332.277 309.405 332.087 309.374 331.913 309.299ZM273.393 254.178C273.552 254.1 273.726 254.06 273.902 254.06C274.078 254.06 274.252 254.1 274.41 254.178L280.774 257.747C281.052 257.906 281.038 258.17 280.774 258.342L273.407 262.598C273.25 262.68 273.075 262.722 272.898 262.722C272.721 262.722 272.547 262.68 272.39 262.598L266.013 258.924C265.749 258.765 265.762 258.501 266.013 258.329L273.393 254.178ZM365.45 340.798L359.086 337.123C358.809 336.965 358.822 336.7 359.086 336.529L366.454 332.272C366.612 332.194 366.786 332.154 366.962 332.154C367.138 332.154 367.312 332.194 367.47 332.272L373.848 335.96C374.112 336.119 374.099 336.383 373.848 336.542L366.48 340.811C366.319 340.89 366.142 340.929 365.963 340.927C365.785 340.925 365.609 340.88 365.45 340.798ZM251.277 274.812L244.913 271.124C244.636 270.966 244.649 270.701 244.913 270.543L252.281 266.286C252.438 266.205 252.612 266.163 252.789 266.163C252.966 266.163 253.14 266.205 253.297 266.286L259.675 269.974C259.939 270.12 259.926 270.384 259.675 270.556L252.307 274.812C252.153 274.889 251.984 274.929 251.812 274.929C251.64 274.929 251.471 274.889 251.317 274.812H251.277ZM271.083 274.112L264.719 270.424C264.441 270.265 264.455 270.001 264.719 269.842L272.086 265.586C272.244 265.505 272.418 265.462 272.595 265.462C272.772 265.462 272.946 265.505 273.103 265.586L279.626 269.247C279.89 269.393 279.877 269.657 279.626 269.829L272.258 274.085C272.092 274.187 271.902 274.243 271.707 274.247C271.512 274.252 271.32 274.205 271.149 274.112H271.083ZM262.804 260.193C262.962 260.115 263.136 260.074 263.312 260.074C263.489 260.074 263.663 260.115 263.821 260.193L270.198 263.867C270.462 264.026 270.449 264.29 270.198 264.462L262.83 268.719C262.672 268.797 262.498 268.837 262.322 268.837C262.146 268.837 261.972 268.797 261.814 268.719L255.436 265.031C255.172 264.872 255.186 264.608 255.436 264.449L262.804 260.193ZM260.85 259.069L242.959 269.406C242.801 269.484 242.627 269.525 242.451 269.525C242.274 269.525 242.1 269.484 241.942 269.406L235.565 265.718C235.301 265.559 235.314 265.295 235.565 265.136L253.456 254.786C253.614 254.708 253.788 254.668 253.964 254.668C254.14 254.668 254.314 254.708 254.473 254.786L260.837 258.461C261.22 258.633 261.14 258.897 260.916 259.069H260.85ZM282.438 270.966L288.868 274.627C289.132 274.786 289.119 275.037 288.868 275.209L281.501 279.465C281.343 279.546 281.169 279.589 280.992 279.589C280.815 279.589 280.641 279.546 280.484 279.465L274.12 275.777C273.842 275.618 273.856 275.367 274.12 275.195L281.487 270.966C281.645 270.884 281.819 270.842 281.996 270.842C282.173 270.842 282.347 270.884 282.504 270.966H282.438ZM352.51 311.467L358.888 315.155C359.152 315.313 359.139 315.564 358.888 315.736L351.52 319.992C351.363 320.074 351.189 320.116 351.012 320.116C350.835 320.116 350.661 320.074 350.503 319.992L344.139 316.305C343.862 316.146 343.888 315.895 344.139 315.723L351.494 311.467C351.657 311.37 351.842 311.317 352.032 311.312C352.221 311.308 352.409 311.352 352.576 311.44L352.51 311.467ZM261.642 280.218C261.485 280.3 261.311 280.342 261.134 280.342C260.957 280.342 260.783 280.3 260.625 280.218L254.261 276.531C253.984 276.372 253.997 276.121 254.261 275.949L261.629 271.693C261.786 271.611 261.96 271.569 262.137 271.569C262.314 271.569 262.488 271.611 262.646 271.693L269.063 275.328C269.327 275.486 269.314 275.737 269.063 275.909L261.642 280.218ZM343.268 306.06L349.606 309.748C349.87 309.894 349.856 310.158 349.606 310.33L342.238 314.586C342.081 314.667 341.906 314.71 341.73 314.71C341.553 314.71 341.378 314.667 341.221 314.586L334.857 310.898C334.58 310.74 334.593 310.475 334.857 310.317L342.225 306.06C342.385 305.975 342.564 305.93 342.746 305.93C342.928 305.93 343.107 305.975 343.268 306.06ZM413.063 367.684C412.905 367.762 412.731 367.803 412.554 367.803C412.378 367.803 412.204 367.762 412.046 367.684L405.669 363.996C405.405 363.838 405.418 363.573 405.669 363.415L413.036 359.158C413.194 359.077 413.368 359.035 413.545 359.035C413.722 359.035 413.896 359.077 414.053 359.158L420.417 362.846C420.695 362.992 420.681 363.256 420.417 363.428L413.063 367.684ZM427.059 354.466L433.436 358.207C433.7 358.352 433.687 358.617 433.436 358.788L426.068 363.045C425.91 363.123 425.736 363.163 425.56 363.163C425.384 363.163 425.21 363.123 425.052 363.045L418.688 359.357C418.41 359.198 418.437 358.934 418.688 358.775L426.042 354.519C426.197 354.434 426.37 354.387 426.547 354.382C426.724 354.377 426.899 354.415 427.059 354.492V354.466ZM402.737 362.304L396.36 358.617C396.096 358.458 396.109 358.194 396.36 358.035L403.741 353.792C403.899 353.714 404.073 353.673 404.249 353.673C404.426 353.673 404.6 353.714 404.758 353.792L411.122 357.467C411.399 357.625 411.373 357.89 411.122 358.061L403.741 362.304C403.587 362.385 403.416 362.429 403.242 362.433C403.068 362.438 402.896 362.403 402.737 362.331V362.304ZM393.416 356.911L387.051 353.237C386.787 353.078 386.801 352.814 387.051 352.642L394.498 348.412C394.656 348.334 394.83 348.293 395.007 348.293C395.183 348.293 395.357 348.334 395.515 348.412L401.879 352.087C402.156 352.245 402.13 352.51 401.879 352.681L394.511 356.938C394.34 357.025 394.149 357.066 393.957 357.057C393.764 357.047 393.578 356.988 393.416 356.885V356.911ZM384.107 351.531L377.743 347.857C377.465 347.698 377.492 347.434 377.743 347.262L385.11 343.006C385.266 342.928 385.438 342.887 385.612 342.887C385.786 342.887 385.958 342.928 386.114 343.006L392.491 346.68C392.755 346.839 392.742 347.103 392.491 347.275L385.124 351.598C384.966 351.676 384.792 351.716 384.615 351.716C384.439 351.716 384.265 351.676 384.107 351.598V351.531ZM417.75 349.086L424.128 352.761C424.392 352.919 424.378 353.184 424.128 353.356L416.76 357.612C416.602 357.69 416.428 357.731 416.251 357.731C416.075 357.731 415.901 357.69 415.743 357.612L409.379 353.924C409.102 353.765 409.115 353.501 409.379 353.342L416.747 349.073C416.906 349.003 417.079 348.97 417.253 348.977C417.427 348.984 417.597 349.03 417.75 349.113V349.086ZM408.441 343.706L414.819 347.381C415.083 347.54 415.07 347.804 414.819 347.976L407.451 352.232C407.294 352.313 407.12 352.356 406.943 352.356C406.766 352.356 406.592 352.313 406.434 352.232L400.07 348.557C399.793 348.399 399.806 348.134 400.07 347.963L407.438 343.706C407.596 343.634 407.769 343.599 407.943 343.604C408.117 343.608 408.287 343.652 408.441 343.733V343.706ZM371.207 322.174L377.571 325.861C377.848 326.02 377.822 326.284 377.571 326.443L370.203 330.699C370.049 330.78 369.876 330.823 369.702 330.823C369.527 330.823 369.355 330.78 369.2 330.699L362.822 327.011C362.558 326.866 362.572 326.602 362.822 326.43L370.19 322.174C370.35 322.099 370.525 322.063 370.702 322.068C370.878 322.073 371.051 322.118 371.207 322.2V322.174ZM380.45 327.553L386.814 331.241C387.091 331.4 387.065 331.664 386.814 331.823L379.459 336.092C379.301 336.171 379.127 336.211 378.951 336.211C378.775 336.211 378.601 336.171 378.443 336.092L372.065 332.418C371.801 332.259 371.814 331.995 372.065 331.823L379.433 327.567C379.6 327.48 379.787 327.435 379.976 327.437C380.165 327.44 380.35 327.489 380.516 327.58L380.45 327.553ZM361.819 316.794L368.196 320.482C368.461 320.64 368.447 320.905 368.196 321.063L360.829 325.319C360.672 325.401 360.497 325.443 360.32 325.443C360.144 325.443 359.969 325.401 359.812 325.319L353.448 321.632C353.171 321.486 353.197 321.222 353.448 321.05L360.816 316.794C360.981 316.705 361.166 316.661 361.354 316.665C361.541 316.67 361.724 316.723 361.885 316.82L361.819 316.794ZM399.133 338.379L405.497 342.054C405.774 342.213 405.761 342.477 405.497 342.649L398.129 346.905C397.971 346.983 397.797 347.024 397.621 347.024C397.445 347.024 397.271 346.983 397.113 346.905L390.735 343.23C390.471 343.072 390.484 342.807 390.735 342.636L398.116 338.379C398.274 338.301 398.448 338.26 398.624 338.26C398.801 338.26 398.975 338.301 399.133 338.379ZM389.89 332.999L396.254 336.674C396.532 336.833 396.518 337.097 396.254 337.269L388.887 341.525C388.729 341.603 388.555 341.644 388.378 341.644C388.202 341.644 388.028 341.603 387.87 341.525L381.493 337.85C381.229 337.692 381.242 337.427 381.493 337.256L388.86 332.999C389.009 332.923 389.172 332.88 389.339 332.876C389.506 332.871 389.672 332.904 389.824 332.973L389.89 332.999ZM396.69 370.989L390.313 367.301C390.049 367.142 390.062 366.878 390.313 366.719L397.68 362.45C397.839 362.372 398.012 362.331 398.189 362.331C398.365 362.331 398.539 362.372 398.697 362.45L405.061 366.138C405.339 366.296 405.325 366.561 405.061 366.733L397.707 370.989C397.538 371.074 397.351 371.116 397.162 371.111C396.973 371.107 396.788 371.056 396.624 370.962L396.69 370.989ZM451.274 365.437L458.629 361.181C458.786 361.1 458.96 361.057 459.137 361.057C459.314 361.057 459.488 361.1 459.646 361.181L466.01 364.816C466.274 364.961 466.261 365.226 466.01 365.398L458.642 369.654C458.485 369.735 458.311 369.777 458.134 369.777C457.957 369.777 457.783 369.735 457.625 369.654L451.261 365.966C450.944 365.86 450.971 365.596 451.274 365.437ZM437.318 369.535L444.673 365.279C444.83 365.197 445.004 365.155 445.181 365.155C445.358 365.155 445.532 365.197 445.689 365.279L455.486 370.949C455.75 371.108 455.737 371.359 455.486 371.531L448.119 375.787C447.962 375.868 447.787 375.911 447.61 375.911C447.434 375.911 447.259 375.868 447.102 375.787L437.305 370.116C437.001 369.958 437.014 369.707 437.305 369.535H437.318ZM462.564 357.202L469.918 352.919C470.076 352.841 470.25 352.801 470.426 352.801C470.603 352.801 470.777 352.841 470.935 352.919L478.778 357.453C479.055 357.612 479.029 357.876 478.778 358.048L471.423 362.304C471.265 362.383 471.091 362.423 470.915 362.423C470.739 362.423 470.565 362.383 470.407 362.304L462.564 357.771C462.247 357.638 462.26 357.374 462.55 357.202H462.564ZM456.556 353.726C456.399 353.807 456.224 353.849 456.048 353.849C455.871 353.849 455.696 353.807 455.539 353.726L449.175 350.038C448.898 349.879 448.924 349.628 449.175 349.456L456.556 345.226C456.713 345.145 456.887 345.103 457.064 345.103C457.241 345.103 457.415 345.145 457.573 345.226L463.95 348.954C464.214 349.113 464.201 349.364 463.95 349.536L456.556 353.726ZM424.339 374.201L431.706 369.945C431.864 369.864 432.038 369.821 432.215 369.821C432.392 369.821 432.566 369.864 432.723 369.945L444.976 377.03C445.24 377.188 445.227 377.453 444.976 377.611L437.609 381.868C437.451 381.949 437.277 381.991 437.1 381.991C436.923 381.991 436.749 381.949 436.592 381.868L424.352 374.783C424.022 374.624 424.035 374.373 424.326 374.201H424.339ZM418.225 382.833L425.593 378.576C425.75 378.495 425.925 378.453 426.101 378.453C426.278 378.453 426.453 378.495 426.61 378.576L434.453 383.11C434.717 383.269 434.704 383.533 434.453 383.692L427.085 387.961C426.927 388.039 426.753 388.08 426.577 388.08C426.401 388.08 426.227 388.039 426.068 387.961L418.239 383.427C417.909 383.322 417.922 383.004 418.265 382.833H418.225ZM387.342 313.714C387.185 313.795 387.01 313.837 386.834 313.837C386.657 313.837 386.482 313.795 386.325 313.714L379.948 310.026C379.684 309.88 379.697 309.616 379.948 309.444L387.315 305.188C387.473 305.107 387.647 305.064 387.824 305.064C388.001 305.064 388.175 305.107 388.332 305.188L394.696 308.876C394.974 309.034 394.947 309.299 394.696 309.457L387.342 313.714ZM405.959 324.487C405.801 324.565 405.627 324.605 405.451 324.605C405.274 324.605 405.101 324.565 404.942 324.487L398.565 320.812C398.301 320.653 398.314 320.389 398.565 320.217L405.933 315.961C406.091 315.883 406.265 315.842 406.441 315.842C406.617 315.842 406.791 315.883 406.949 315.961L413.314 319.649C413.591 319.807 413.578 320.072 413.314 320.23L405.959 324.487ZM447.247 348.346C447.09 348.427 446.916 348.469 446.739 348.469C446.562 348.469 446.388 348.427 446.231 348.346L439.866 344.658C439.589 344.499 439.602 344.235 439.866 344.076L447.234 339.82C447.391 339.739 447.566 339.697 447.742 339.697C447.919 339.697 448.094 339.739 448.251 339.82L454.628 343.508C454.892 343.653 454.879 343.918 454.628 344.09L447.247 348.346ZM396.651 319.094C396.493 319.175 396.319 319.217 396.142 319.217C395.965 319.217 395.791 319.175 395.634 319.094L389.256 315.406C388.992 315.26 389.006 314.996 389.256 314.824L396.651 310.621C396.809 310.543 396.983 310.502 397.159 310.502C397.335 310.502 397.509 310.543 397.667 310.621L404.031 314.309C404.309 314.467 404.295 314.732 404.031 314.89L396.651 319.094ZM415.268 329.867C415.11 329.945 414.936 329.985 414.759 329.985C414.583 329.985 414.409 329.945 414.251 329.867L407.874 326.192C407.61 326.033 407.623 325.769 407.874 325.597L415.241 321.341C415.399 321.26 415.573 321.217 415.75 321.217C415.927 321.217 416.101 321.26 416.258 321.341L422.635 325.015C422.9 325.174 422.886 325.438 422.635 325.61L415.268 329.867ZM413.116 383.52C413.273 383.439 413.447 383.396 413.624 383.396C413.801 383.396 413.975 383.439 414.132 383.52L423.929 389.177C424.194 389.336 424.18 389.6 423.929 389.772L416.562 394.028C416.404 394.107 416.23 394.147 416.053 394.147C415.877 394.147 415.703 394.107 415.545 394.028L405.748 388.371C405.484 388.212 405.497 387.948 405.748 387.776L413.116 383.52ZM428.617 337.586C428.46 337.667 428.285 337.71 428.108 337.71C427.932 337.71 427.757 337.667 427.6 337.586L421.223 333.911C420.959 333.753 420.972 333.488 421.223 333.317L428.63 329.126C428.788 329.048 428.962 329.008 429.138 329.008C429.315 329.008 429.489 329.048 429.647 329.126L436.011 332.801C436.288 332.96 436.275 333.224 436.011 333.396L428.617 337.586ZM437.859 342.966C437.701 343.044 437.527 343.085 437.351 343.085C437.175 343.085 437.001 343.044 436.843 342.966L430.479 339.278C430.201 339.119 430.214 338.855 430.479 338.696L437.939 334.414C438.096 334.333 438.27 334.29 438.447 334.29C438.624 334.29 438.798 334.333 438.955 334.414L445.333 338.088C445.597 338.247 445.584 338.511 445.333 338.683L437.859 342.966ZM240.543 283.827C240.701 283.749 240.875 283.708 241.051 283.708C241.227 283.708 241.401 283.749 241.559 283.827L257.245 292.895C257.509 293.053 257.496 293.318 257.245 293.49L249.878 297.746C249.72 297.824 249.546 297.865 249.369 297.865C249.193 297.865 249.019 297.824 248.861 297.746L233.188 288.678C232.911 288.533 232.924 288.268 233.188 288.097L240.543 283.827ZM261.127 295.724C261.284 295.642 261.459 295.6 261.636 295.6C261.812 295.6 261.987 295.642 262.144 295.724L268.508 299.411C268.785 299.57 268.772 299.834 268.508 299.993L261.14 304.249C260.983 304.331 260.809 304.373 260.632 304.373C260.455 304.373 260.281 304.331 260.124 304.249L253.746 300.562C253.482 300.416 253.495 300.152 253.746 299.98L261.127 295.724ZM387.249 365.569L380.872 361.895C380.608 361.736 380.621 361.472 380.872 361.3L388.24 357.044C388.398 356.965 388.572 356.925 388.748 356.925C388.924 356.925 389.098 356.965 389.256 357.044L395.621 360.718C395.898 360.877 395.871 361.141 395.621 361.313L388.253 365.569C388.107 365.64 387.946 365.676 387.784 365.676C387.622 365.676 387.462 365.64 387.315 365.569H387.249ZM279.744 306.483C279.902 306.402 280.076 306.36 280.253 306.36C280.43 306.36 280.604 306.402 280.761 306.483L287.139 310.158C287.403 310.317 287.389 310.581 287.139 310.753L279.771 315.009C279.613 315.087 279.439 315.128 279.263 315.128C279.086 315.128 278.912 315.087 278.754 315.009L272.39 311.334C272.113 311.176 272.126 310.911 272.39 310.74L279.744 306.483ZM231.234 278.447C231.391 278.366 231.565 278.324 231.742 278.324C231.919 278.324 232.093 278.366 232.251 278.447L238.694 282.109C238.958 282.267 238.945 282.532 238.694 282.69L231.326 286.947C231.169 287.028 230.995 287.07 230.818 287.07C230.641 287.07 230.467 287.028 230.31 286.947L223.945 283.259C223.668 283.113 223.681 282.849 223.945 282.677L231.234 278.447ZM214.558 277.324L232.515 267C232.672 266.919 232.846 266.877 233.023 266.877C233.2 266.877 233.374 266.919 233.531 267L239.896 270.688C240.173 270.833 240.16 271.098 239.896 271.27L221.978 281.54C221.821 281.621 221.647 281.664 221.47 281.664C221.293 281.664 221.119 281.621 220.961 281.54L214.584 277.852C214.32 277.747 214.333 277.495 214.624 277.324H214.558ZM314.536 326.588C314.694 326.51 314.868 326.47 315.045 326.47C315.221 326.47 315.395 326.51 315.553 326.588L323.396 331.122C323.673 331.268 323.647 331.532 323.396 331.704L316.028 335.96C315.871 336.041 315.697 336.084 315.52 336.084C315.343 336.084 315.169 336.041 315.012 335.96L307.182 331.426C306.905 331.268 306.918 331.003 307.182 330.845L314.536 326.588ZM291.021 313C291.179 312.922 291.353 312.881 291.529 312.881C291.705 312.881 291.879 312.922 292.037 313L301.834 318.671C302.112 318.829 302.085 319.094 301.834 319.252L294.467 323.509C294.309 323.59 294.135 323.632 293.958 323.632C293.781 323.632 293.607 323.59 293.45 323.509L283.653 317.838C283.389 317.692 283.402 317.428 283.653 317.256L291.021 313ZM336.098 339.053C336.255 338.972 336.43 338.93 336.606 338.93C336.783 338.93 336.958 338.972 337.115 339.053L389.613 369.337C389.89 369.495 389.864 369.76 389.613 369.931L382.258 374.188C382.1 374.266 381.926 374.306 381.75 374.306C381.574 374.306 381.4 374.266 381.242 374.188L328.81 343.891C328.532 343.733 328.546 343.468 328.81 343.296L336.098 339.053ZM391.475 371.055C391.633 370.977 391.807 370.936 391.983 370.936C392.159 370.936 392.333 370.977 392.491 371.055L400.334 375.589C400.598 375.734 400.585 375.999 400.334 376.17L392.967 380.427C392.809 380.508 392.635 380.55 392.458 380.55C392.281 380.55 392.107 380.508 391.95 380.427L384.107 375.893C383.843 375.734 383.856 375.47 384.107 375.311L391.475 371.055ZM325.324 332.827C325.481 332.746 325.655 332.704 325.832 332.704C326.009 332.704 326.183 332.746 326.341 332.827L334.17 337.361C334.448 337.52 334.434 337.784 334.17 337.943L326.803 342.213C326.645 342.291 326.471 342.331 326.294 342.331C326.118 342.331 325.944 342.291 325.786 342.213L317.943 337.679C317.679 337.52 317.692 337.269 317.943 337.097L325.324 332.827ZM402.249 377.294C402.406 377.213 402.58 377.171 402.757 377.171C402.934 377.171 403.108 377.213 403.266 377.294L411.109 381.828C411.386 381.987 411.359 382.251 411.109 382.41L403.741 386.679C403.585 386.757 403.413 386.798 403.239 386.798C403.065 386.798 402.893 386.757 402.737 386.679L394.894 382.145C394.617 381.987 394.63 381.735 394.894 381.564L402.249 377.294ZM303.762 320.363C303.92 320.284 304.094 320.244 304.27 320.244C304.447 320.244 304.621 320.284 304.779 320.363L312.635 324.87C312.899 325.029 312.886 325.293 312.635 325.465L305.267 329.721C305.11 329.802 304.936 329.845 304.759 329.845C304.582 329.845 304.408 329.802 304.251 329.721L296.408 325.201C296.144 325.042 296.157 324.778 296.408 324.606L303.762 320.363ZM270.436 301.103C270.594 301.025 270.768 300.985 270.944 300.985C271.12 300.985 271.294 301.025 271.453 301.103L277.83 304.791C278.094 304.95 278.081 305.214 277.83 305.373L270.462 309.643C270.304 309.721 270.13 309.761 269.954 309.761C269.778 309.761 269.604 309.721 269.446 309.643L263.081 305.968C262.804 305.809 262.817 305.545 263.081 305.373L270.436 301.103ZM250.036 286.272L243.672 282.585C243.395 282.439 243.408 282.175 243.672 282.003L251.04 277.747C251.197 277.665 251.371 277.623 251.548 277.623C251.725 277.623 251.899 277.665 252.056 277.747L258.5 281.408C258.764 281.567 258.751 281.831 258.5 281.99L251.132 286.246C250.975 286.334 250.8 286.382 250.62 286.386C250.441 286.391 250.263 286.352 250.102 286.272H250.036ZM291.667 286.008L285.29 282.32C285.026 282.162 285.039 281.897 285.29 281.739L292.658 277.482C292.815 277.401 292.989 277.359 293.166 277.359C293.343 277.359 293.517 277.401 293.674 277.482L300.039 281.157C300.316 281.316 300.303 281.58 300.039 281.752L292.671 286.008C292.523 286.074 292.364 286.108 292.202 286.108C292.041 286.108 291.881 286.074 291.734 286.008H291.667ZM312.793 322.53L294.176 311.757C293.912 311.612 293.925 311.348 294.176 311.176L301.544 306.92C301.701 306.838 301.875 306.796 302.052 306.796C302.229 306.796 302.403 306.838 302.561 306.92L321.178 317.679C321.455 317.838 321.429 318.102 321.178 318.274L313.81 322.53C313.655 322.602 313.485 322.638 313.314 322.636C313.142 322.634 312.974 322.593 312.82 322.517L312.793 322.53ZM260.401 291.626C260.244 291.707 260.07 291.749 259.893 291.749C259.716 291.749 259.542 291.707 259.384 291.626L253.02 287.951C252.743 287.793 252.769 287.528 253.02 287.356L260.375 283.1C260.533 283.022 260.707 282.981 260.883 282.981C261.059 282.981 261.233 283.022 261.391 283.1L267.835 286.828C268.099 286.986 268.086 287.251 267.835 287.409L260.401 291.626ZM269.908 285.572L263.544 281.884C263.266 281.739 263.279 281.474 263.544 281.302L270.898 277.046C271.055 276.965 271.229 276.923 271.406 276.923C271.583 276.923 271.757 276.965 271.915 277.046L278.305 280.708C278.569 280.866 278.556 281.131 278.305 281.289L270.938 285.545C270.784 285.629 270.613 285.674 270.439 285.679C270.265 285.683 270.092 285.647 269.934 285.572H269.908ZM322.115 327.871L315.738 324.183C315.474 324.024 315.487 323.76 315.738 323.601L323.198 319.384C323.355 319.303 323.53 319.261 323.706 319.261C323.883 319.261 324.058 319.303 324.215 319.384L330.579 323.072C330.856 323.218 330.83 323.482 330.579 323.654L323.224 327.91C323.058 327.999 322.872 328.046 322.683 328.046C322.494 328.046 322.308 327.999 322.142 327.91L322.115 327.871ZM280.946 303.522C280.789 303.604 280.615 303.646 280.438 303.646C280.261 303.646 280.087 303.604 279.929 303.522L273.565 299.834C273.288 299.689 273.301 299.425 273.565 299.253L280.933 294.997C281.09 294.915 281.264 294.873 281.441 294.873C281.618 294.873 281.792 294.915 281.95 294.997L288.419 298.724C288.683 298.883 288.67 299.147 288.419 299.306L280.946 303.522ZM368.619 354.81L362.255 351.135C361.977 350.976 362.004 350.712 362.255 350.54L369.715 346.31C369.872 346.229 370.046 346.187 370.223 346.187C370.4 346.187 370.574 346.229 370.732 346.31L377.109 349.985C377.373 350.144 377.36 350.408 377.109 350.58L369.741 354.836C369.576 354.917 369.394 354.956 369.21 354.952C369.026 354.947 368.846 354.898 368.685 354.81H368.619ZM359.376 349.43L353.012 345.755C352.735 345.596 352.748 345.332 353.012 345.16L360.38 340.904C360.538 340.826 360.712 340.785 360.888 340.785C361.064 340.785 361.238 340.826 361.396 340.904L367.774 344.592C368.038 344.75 368.025 345.015 367.774 345.173L360.406 349.43C360.247 349.513 360.071 349.557 359.891 349.557C359.712 349.557 359.535 349.513 359.376 349.43ZM377.994 360.189L371.629 356.515C371.352 356.356 371.379 356.092 371.629 355.92L378.997 351.664C379.155 351.586 379.329 351.545 379.505 351.545C379.682 351.545 379.856 351.586 380.014 351.664L386.378 355.338C386.642 355.497 386.629 355.761 386.378 355.933L379.01 360.189C378.852 360.268 378.678 360.308 378.502 360.308C378.326 360.308 378.152 360.268 377.994 360.189ZM340.759 338.67L334.382 334.982C334.118 334.823 334.131 334.572 334.382 334.4L341.749 330.144C341.907 330.063 342.081 330.021 342.258 330.021C342.435 330.021 342.609 330.063 342.766 330.144L349.13 333.832C349.407 333.991 349.394 334.242 349.13 334.414L341.763 338.67C341.607 338.749 341.435 338.79 341.261 338.79C341.086 338.79 340.915 338.749 340.759 338.67ZM350.002 344.05L343.637 340.362C343.36 340.217 343.373 339.952 343.637 339.78L351.005 335.524C351.162 335.443 351.337 335.401 351.514 335.401C351.69 335.401 351.865 335.443 352.022 335.524L358.399 339.212C358.663 339.371 358.65 339.635 358.399 339.794L351.032 344.05C350.881 344.122 350.717 344.16 350.55 344.16C350.383 344.16 350.218 344.122 350.068 344.05H350.002ZM331.384 333.29L325.007 329.602C324.743 329.444 324.756 329.179 325.007 329.021L332.441 324.764C332.598 324.683 332.772 324.641 332.949 324.641C333.126 324.641 333.3 324.683 333.457 324.764L339.822 328.452C340.099 328.598 340.086 328.862 339.822 329.034L332.454 333.29C332.298 333.369 332.126 333.41 331.952 333.41C331.778 333.41 331.606 333.369 331.45 333.29H331.384ZM288.868 253.676C288.711 253.757 288.537 253.8 288.36 253.8C288.183 253.8 288.009 253.757 287.852 253.676L281.474 249.988C281.21 249.829 281.223 249.578 281.474 249.406L283.442 248.27C283.599 248.189 283.773 248.146 283.95 248.146C284.127 248.146 284.301 248.189 284.458 248.27L290.822 251.944C291.087 252.103 291.073 252.367 290.822 252.539L288.868 253.676ZM334.672 283.285C334.514 283.363 334.34 283.404 334.164 283.404C333.987 283.404 333.814 283.363 333.655 283.285L327.291 279.61C327.014 279.452 327.027 279.187 327.291 279.016L334.646 274.759C334.803 274.678 334.977 274.636 335.154 274.636C335.331 274.636 335.505 274.678 335.662 274.759L342.04 278.434C342.304 278.593 342.291 278.857 342.04 279.029L334.672 283.285ZM316.055 272.512C315.898 272.593 315.723 272.636 315.546 272.636C315.37 272.636 315.195 272.593 315.038 272.512L308.674 268.851C308.397 268.705 308.41 268.441 308.674 268.269L316.042 264.013C316.2 263.935 316.374 263.894 316.55 263.894C316.726 263.894 316.9 263.935 317.058 264.013L323.436 267.701C323.7 267.859 323.687 268.124 323.436 268.282L316.055 272.512ZM346.041 289.855C345.882 289.933 345.708 289.973 345.532 289.973C345.356 289.973 345.182 289.933 345.024 289.855L338.66 286.18C338.382 286.021 338.409 285.757 338.66 285.585L346.014 281.329C346.172 281.251 346.346 281.21 346.522 281.21C346.699 281.21 346.873 281.251 347.031 281.329L353.408 285.004C353.672 285.162 353.659 285.427 353.408 285.598L346.041 289.855ZM325.363 277.958C325.205 278.036 325.031 278.077 324.855 278.077C324.679 278.077 324.505 278.036 324.347 277.958L317.983 274.283C317.705 274.125 317.718 273.86 317.983 273.689L325.35 269.432C325.508 269.354 325.682 269.314 325.859 269.314C326.035 269.314 326.209 269.354 326.367 269.432L332.744 273.12C333.008 273.279 332.995 273.543 332.744 273.702L325.363 277.958ZM364.658 300.667C364.502 300.745 364.33 300.786 364.156 300.786C363.982 300.786 363.81 300.745 363.654 300.667L357.277 296.979C357.013 296.821 357.026 296.556 357.277 296.398L364.671 292.115C364.829 292.037 365.003 291.996 365.179 291.996C365.356 291.996 365.53 292.037 365.688 292.115L372.052 295.763C372.329 295.922 372.303 296.186 372.052 296.358L364.658 300.667ZM355.415 295.287C355.258 295.369 355.084 295.411 354.907 295.411C354.73 295.411 354.556 295.369 354.399 295.287L348.034 291.613C347.757 291.454 347.783 291.19 348.034 291.018L355.402 286.762C355.558 286.684 355.73 286.643 355.904 286.643C356.078 286.643 356.25 286.684 356.405 286.762L362.783 290.436C363.047 290.595 363.034 290.859 362.783 291.031L355.415 295.287ZM307.552 264.489C307.394 264.57 307.22 264.612 307.043 264.612C306.866 264.612 306.692 264.57 306.535 264.489L300.171 260.801C299.893 260.655 299.907 260.391 300.171 260.219L302.072 259.069C302.23 258.991 302.404 258.95 302.58 258.95C302.757 258.95 302.931 258.991 303.089 259.069L309.453 262.744C309.73 262.902 309.717 263.167 309.453 263.339L307.552 264.489ZM279.626 248.349C279.468 248.43 279.294 248.473 279.117 248.473C278.94 248.473 278.766 248.43 278.609 248.349L272.232 244.661C271.967 244.502 271.981 244.238 272.232 244.079L274.186 242.943C274.344 242.865 274.518 242.824 274.694 242.824C274.87 242.824 275.044 242.865 275.202 242.943L281.58 246.631C281.844 246.789 281.831 247.054 281.58 247.212L279.626 248.349ZM264.151 257.298C263.993 257.376 263.819 257.417 263.643 257.417C263.466 257.417 263.292 257.376 263.134 257.298L256.757 253.623C256.493 253.465 256.506 253.2 256.757 253.028L264.124 248.772C264.283 248.694 264.456 248.653 264.633 248.653C264.809 248.653 264.983 248.694 265.141 248.772L271.466 252.46C271.743 252.619 271.73 252.883 271.466 253.055L264.151 257.298ZM240.873 280.945L234.508 277.258C234.231 277.099 234.244 276.848 234.508 276.676L241.876 272.42C242.033 272.338 242.208 272.296 242.385 272.296C242.561 272.296 242.736 272.338 242.893 272.42L249.257 276.028C249.521 276.187 249.508 276.438 249.257 276.61L241.889 280.866C241.725 280.965 241.537 281.02 241.345 281.024C241.153 281.029 240.963 280.984 240.793 280.893L240.873 280.945ZM298.111 259.069C297.954 259.15 297.779 259.193 297.603 259.193C297.426 259.193 297.251 259.15 297.094 259.069L290.73 255.381C290.453 255.236 290.466 254.971 290.73 254.8L292.697 253.663C292.855 253.585 293.029 253.544 293.206 253.544C293.382 253.544 293.556 253.585 293.714 253.663L300.078 257.337C300.356 257.496 300.329 257.76 300.078 257.932L298.111 259.069ZM373.966 305.994C373.809 306.075 373.635 306.118 373.458 306.118C373.281 306.118 373.107 306.075 372.95 305.994L366.572 302.306C366.308 302.148 366.322 301.883 366.572 301.725L373.94 297.468C374.097 297.387 374.272 297.345 374.448 297.345C374.625 297.345 374.8 297.387 374.957 297.468L381.295 301.156C381.572 301.302 381.545 301.566 381.295 301.738L373.966 305.994Z" fill="#455A64"/>
<path d="M332.678 361.947L269.815 325.61C268.752 325.069 267.576 324.787 266.382 324.787C265.189 324.787 264.013 325.069 262.949 325.61L226.903 346.442C225.002 347.539 225.002 349.31 226.903 350.407L289.766 386.744C290.83 387.286 292.006 387.567 293.199 387.567C294.392 387.567 295.569 387.286 296.632 386.744L332.678 365.912C334.567 364.815 334.567 363.031 332.678 361.947Z" fill="#263238"/>
<path d="M217.067 187.212H217.146L227.881 181.026C228.502 180.748 229.413 181.026 230.522 181.845C240.504 189.485 253.932 191.865 264.852 188.375C265.557 187.715 266.227 187.018 266.859 186.286L267.057 186.062C267.371 185.696 267.747 185.388 268.166 185.15L268.351 185.044L279.098 178.871C280.326 178.289 281.435 178.871 282.175 180.695C292.553 206.511 314.669 232.67 329.418 239.213C330.533 239.714 331.525 240.454 332.323 241.381C333.383 242.533 333.968 244.044 333.96 245.61L331.834 303.573C331.834 320.321 324.77 338.007 310.365 346.612L299.247 353.036L299.049 353.142C293.038 356.521 286.242 358.249 279.349 358.151C277.804 358.151 276.233 358.085 274.609 357.927C271.45 357.407 268.522 355.942 266.212 353.723C233.981 320.4 218.308 275.299 218.308 250.343L216.249 189.644C216.169 188.335 216.486 187.529 217.067 187.212Z" fill="#5A71B0"/>
<path d="M216.247 189.647L218.373 250.279C218.373 275.235 234.046 320.336 266.276 353.66C268.587 355.878 271.514 357.344 274.674 357.863C276.298 358.022 277.869 358.088 279.414 358.088C286.307 358.185 293.103 356.457 299.114 353.078L299.312 352.973L299.695 352.735C314.1 344.129 321.164 326.443 321.164 309.696L323.197 251.733C323.205 250.167 322.62 248.656 321.56 247.503C320.762 246.576 319.77 245.836 318.655 245.335C303.907 238.726 281.79 212.633 271.412 186.818C270.673 184.994 269.55 184.399 268.323 184.98L268.138 185.086C267.719 185.324 267.343 185.633 267.029 185.998L266.83 186.223C255.819 199.058 234.164 199.045 219.706 187.968C218.61 187.135 217.699 186.871 217.066 187.148H216.986C216.485 187.532 216.168 188.338 216.247 189.647Z" fill="#5A71B0"/>
<path opacity="0.4" d="M217.131 187.135C217.752 186.857 218.663 187.135 219.772 187.954C233.385 198.383 253.389 199.005 264.863 188.298C253.891 191.801 240.489 189.421 230.533 181.768C229.437 180.935 228.526 180.671 227.892 180.948L217.131 187.135Z" fill="white"/>
<path opacity="0.4" d="M268.388 184.967C269.616 184.385 270.738 184.967 271.478 186.804C281.856 212.619 303.972 238.778 318.721 245.322C319.836 245.822 320.828 246.562 321.626 247.489C321.903 247.805 322.15 248.146 322.365 248.507L333.087 242.308C332.873 241.953 332.63 241.617 332.361 241.303C332.213 241.13 332.054 240.967 331.885 240.814L331.701 240.629L331.516 240.457C330.906 239.914 330.215 239.468 329.469 239.135C314.72 232.592 292.604 206.433 282.226 180.618C281.486 178.794 280.377 178.212 279.149 178.794L268.388 184.967Z" fill="white"/>
<path d="M331.873 240.789C331.818 240.724 331.755 240.667 331.687 240.616L331.873 240.802C331.873 240.802 331.886 240.789 331.873 240.789Z" fill="#5A71B0"/>
<path opacity="0.15" d="M331.687 240.563L331.873 240.749C331.818 240.68 331.756 240.617 331.687 240.563Z" fill="black"/>
<path opacity="0.15" d="M299.088 353.064L299.286 352.972L310.403 346.535C324.809 337.929 331.873 320.243 331.873 303.496L333.999 245.533C334.022 244.391 333.705 243.269 333.088 242.308L322.366 248.507C322.974 249.467 323.286 250.584 323.264 251.719L321.138 309.682C321.138 326.429 314.074 344.05 299.669 352.721L299.286 352.959L299.088 353.064Z" fill="black"/>
<path d="M261.14 299.742L278.305 309.656L275.664 278.58C277.711 277.496 279.031 274.826 279.031 270.979C279.031 264.145 274.872 256.188 269.788 253.227C264.705 250.266 260.545 253.412 260.545 260.246C260.648 264.301 261.804 268.26 263.899 271.733L261.14 299.742Z" fill="#455A64"/>
<path d="M261.166 299.741L276.707 290.753L278.318 309.655L261.166 299.741Z" fill="#37474F"/>
<path d="M269.735 253.227C273.102 255.17 276.02 259.241 277.658 263.736L263.78 271.733C261.685 268.26 260.529 264.301 260.426 260.246C260.466 253.412 264.612 250.266 269.735 253.227Z" fill="#37474F"/>
<path d="M484.389 480.266V485.421C484.389 491.501 480.428 497.569 472.4 502.208C460.332 509.174 442.613 510.879 427.758 507.324L413.974 515.255L403.411 512.849L396.188 517.039L395.792 525.777L391.831 528.037L382.047 528.896L375.023 532.862V537.792L366.189 542.881H343.743L335.702 538.241V533.033L407.451 496.775C404.407 493.792 402.629 489.749 402.486 485.487V480.2C403.569 475.15 407.768 472.546 414.462 468.673C430.452 459.42 456.358 459.42 472.348 468.673C479.583 472.903 483.663 474.833 484.389 480.266ZM462.418 474.225C459.877 472.935 457.068 472.263 454.219 472.263C451.37 472.263 448.56 472.935 446.019 474.225C441.49 476.869 441.49 481.085 446.019 483.703C448.56 484.993 451.37 485.665 454.219 485.665C457.068 485.665 459.877 484.993 462.418 483.703C466.947 481.138 466.947 476.842 462.418 474.225Z" fill="#5A71B0"/>
<path opacity="0.1" d="M484.389 480.266V485.421C484.389 491.501 480.428 497.569 472.4 502.208C460.332 509.174 442.613 510.879 427.758 507.324L413.974 515.255L403.411 512.849L396.188 517.039L395.792 525.777L391.831 528.037L382.047 528.896L375.023 532.862V537.792L366.189 542.881H343.743L335.702 538.241V533.033L407.451 496.775C404.407 493.792 402.629 489.749 402.486 485.487V480.2C403.569 475.15 407.768 472.546 414.462 468.673C430.452 459.42 456.358 459.42 472.348 468.673C479.583 472.903 483.663 474.833 484.389 480.266ZM462.418 474.225C459.877 472.935 457.068 472.263 454.219 472.263C451.37 472.263 448.56 472.935 446.019 474.225C441.49 476.869 441.49 481.085 446.019 483.703C448.56 484.993 451.37 485.665 454.219 485.665C457.068 485.665 459.877 484.993 462.418 483.703C466.947 481.138 466.947 476.842 462.418 474.225Z" fill="black"/>
<path d="M472.4 496.999C460.332 503.979 442.612 505.684 427.758 502.115L413.973 510.046L403.41 507.653L396.188 511.83L395.792 520.581L391.831 522.828L382.047 523.687L374.415 527.944L375.022 532.544L366.189 537.646H343.743L335.701 533.006L407.451 491.527C399 482.552 401.324 471.091 414.462 463.504C430.452 454.251 456.357 454.251 472.347 463.504C488.337 472.757 488.39 487.747 472.4 496.999ZM462.418 469.016C459.877 467.726 457.068 467.054 454.218 467.054C451.369 467.054 448.56 467.726 446.019 469.016C441.49 471.66 441.49 475.876 446.019 478.494C448.56 479.784 451.369 480.456 454.218 480.456C457.068 480.456 459.877 479.784 462.418 478.494C466.947 475.85 466.947 471.62 462.418 469.003V469.016Z" fill="#5A71B0"/>
<path opacity="0.3" d="M443.457 499.38C453.611 499.38 463.078 497.132 470.129 493.061C476.308 489.492 479.86 484.826 479.86 480.266C479.86 475.706 476.308 471.013 470.129 467.457C463.078 463.386 453.611 461.139 443.457 461.139C433.303 461.139 423.836 463.386 416.785 467.457C410.606 471.039 407.054 475.692 407.054 480.266C407.054 484.839 410.606 489.519 416.785 493.061C423.836 497.132 433.303 499.38 443.457 499.38ZM443.457 462.963C453.294 462.963 462.444 465.118 469.231 469.03C474.829 472.269 478.038 476.366 478.038 480.266C478.038 484.165 474.829 488.197 469.231 491.488C462.444 495.454 453.294 497.569 443.457 497.569C433.62 497.569 424.47 495.401 417.683 491.488C412.085 488.25 408.876 484.152 408.876 480.266C408.876 476.38 412.085 472.335 417.683 469.03C424.47 465.118 433.62 462.963 443.457 462.963Z" fill="black"/>
<path opacity="0.1" d="M458.193 502.287V507.575C448.157 509.759 437.762 509.687 427.758 507.363V502.155C437.769 504.446 448.162 504.491 458.193 502.287Z" fill="black"/>
<path opacity="0.1" d="M413.973 510.073V515.294L403.383 512.888V507.68L413.973 510.073Z" fill="black"/>
<path opacity="0.1" d="M396.162 511.857V517.078L395.765 525.816V520.608L396.162 511.857Z" fill="black"/>
<path opacity="0.1" d="M391.871 522.854V528.076L382.086 528.935V523.714L391.871 522.854Z" fill="black"/>
<path opacity="0.1" d="M343.796 537.672H366.229V542.893H343.796V537.672Z" fill="black"/>
<path opacity="0.15" d="M335.754 533.019V538.241L343.796 542.88V537.672L340.284 535.636V537.884L338.329 536.76V534.486L335.754 533.019Z" fill="black"/>
<path d="M338.329 534.487L340.284 535.637V537.884L338.329 536.76V534.487Z" fill="#5A71B0"/>
<path opacity="0.15" d="M338.328 534.486V536.76L411.913 494.223L409.972 493.086L338.328 534.486Z" fill="black"/>
<path opacity="0.15" d="M409.972 493.086V495.36L411.913 494.223L409.972 493.086Z" fill="black"/>
<path d="M90.112 339.12C89.1745 304.752 91.9341 296.437 101.098 290.132L104.636 310.079C104.636 310.079 100.464 333.594 100.913 341.42C101.309 348.306 101.982 356.911 103.554 362.463C103.853 363.447 104.501 364.289 105.376 364.829C107.278 366.174 108.972 367.791 110.406 369.628C111.727 371.068 112.942 371.425 112.77 371.888C112.502 372.392 112.054 372.776 111.516 372.964C110.978 373.153 110.388 373.132 109.865 372.906C108.693 372.449 107.584 371.845 106.564 371.108C107.366 373.222 108.508 375.192 109.944 376.937C113.219 380.903 113.364 383.414 106.762 383.48C102.616 383.48 99.3151 380.956 96.1989 371.835C94.9876 368.494 94.0168 365.071 93.2941 361.591C91.7757 352.563 90.2572 344.658 90.112 339.12Z" fill="#B16668"/>
<path d="M108.796 287.515C105.981 287.017 103.082 287.445 100.532 288.737C97.9817 290.029 95.9193 292.114 94.6542 294.68C90.8118 301.54 89.8743 313.357 89.3726 325.082C89.3726 325.082 96.9913 331.466 106.128 328.334L108.796 287.515Z" fill="#5A71B0"/>
<path opacity="0.7" d="M108.796 287.515C105.981 287.017 103.082 287.445 100.532 288.737C97.9817 290.029 95.9193 292.114 94.6542 294.68C90.8118 301.54 89.8743 313.357 89.3726 325.082C89.3726 325.082 96.9913 331.466 106.128 328.334L108.796 287.515Z" fill="black"/>
<path d="M95.9348 476.881C95.2482 477.145 95.0765 478.467 94.9709 481.098C94.8917 483.08 94.4559 486.557 96.793 487.257C99.1301 487.958 102.537 487.588 104.029 485.711C105.834 483.197 107.764 480.775 109.812 478.454C112.11 475.982 114.605 473.656 115.543 470.179C116.374 467.047 115.675 465.685 113.536 464.773C110.591 463.451 105.97 467.615 103.659 468.263C101.678 468.818 96.6346 476.617 95.9348 476.881Z" fill="#263238"/>
<path d="M95.9344 474.436V477.674C97.1474 478.448 98.5477 478.876 99.9853 478.913C101.423 478.951 102.844 478.595 104.095 477.886C104.24 477.582 104.94 473.272 104.94 473.272L95.9344 474.436Z" fill="#B16668"/>
<path d="M122.077 495.492C121.51 497.228 121.034 498.993 120.651 500.779C120.255 502.736 119.687 506.067 120.361 507.468C121.034 508.869 123.715 509.887 127.847 509.86C130.488 509.86 134.687 511.658 137.539 513.257C140.391 514.857 146.623 515.557 149.753 515.187C153.423 514.751 157.226 512.623 157.82 511.103C158.415 509.583 157.636 507.997 148.961 504.295C148.881 504.295 136.919 500.33 132.733 495.743L122.077 495.492Z" fill="#263238"/>
<path d="M122.077 492.003V495.77C122.077 497.092 123.675 499.181 127.861 499.035C130.792 498.93 132.852 498.137 132.733 495.717V492.214L122.077 492.003Z" fill="#B16668"/>
<path d="M93.8344 431.569C94.5519 425.848 95.8301 420.212 97.6503 414.742C97.6503 414.742 96.5016 400.202 95.947 386.468C95.3528 371.597 95.947 352.92 95.6961 349.205C95.6961 349.205 143.613 339.503 144.471 356.687C145.33 373.871 142.57 417.61 142.002 425.158C141.434 432.706 140.14 439.394 138.582 451.595C137.024 463.795 132.733 492.188 132.733 492.188C131.076 493.032 129.237 493.454 127.379 493.417C125.52 493.38 123.7 492.885 122.078 491.977C122.078 491.977 118.697 457.609 119.054 448.898C119.328 442.446 120.437 436.056 122.355 429.89C122.355 429.89 121.444 415.72 120.638 403.453C119.833 391.187 118.988 385.199 118.803 379.845L117.773 379.33C117.773 379.33 116.717 400.598 116.149 408.146C115.581 415.694 114.393 422.924 112.188 436.949C110.286 449.123 104.648 474.859 104.648 474.859C99.182 477.82 95.9074 474.462 95.9074 474.462C95.9074 474.462 92.3687 442.13 93.8344 431.569Z" fill="#37474F"/>
<path d="M118.804 379.819C118.804 379.819 107.185 374.069 101.375 368.914C101.375 368.914 106.775 376.528 113.866 379.912C113.866 379.912 116.388 406.348 116.374 405.793L117.84 379.78L118.804 379.819Z" fill="#263238"/>
<path d="M129.155 282.083L126.316 297.708L112.213 296.663L115.171 278.963L129.155 282.083Z" fill="#B16668"/>
<path d="M97.3334 295.526C98.7198 291.283 104.107 286.656 109.494 287.595C117.491 288.976 125.37 290.969 133.063 293.556C137.988 295.314 142.491 299.584 142.9 315.829C142.9 315.829 144.551 353.686 144.577 361.009C134.283 365.052 123.072 366.16 112.188 364.208C97.373 360.97 95.5772 354.81 95.5772 354.81C95.5772 354.81 95.3924 327.58 95.8413 315.829C96.2374 305.836 96.3695 298.447 97.3334 295.526Z" fill="#5A71B0"/>
<g opacity="0.15">
<path opacity="0.15" d="M97.3334 295.526C98.7198 291.283 104.107 286.656 109.494 287.595C117.491 288.976 125.37 290.969 133.063 293.556C137.988 295.314 142.491 299.584 142.9 315.829C142.9 315.829 144.551 353.686 144.577 361.009C134.283 365.052 123.072 366.16 112.188 364.208C97.373 360.97 95.5772 354.81 95.5772 354.81C95.5772 354.81 95.3924 327.58 95.8413 315.829C96.2374 305.836 96.3695 298.447 97.3334 295.526Z" fill="black"/>
</g>
<path d="M140.021 263.035C140.021 263.035 143.6 268.745 143.164 269.287C142.728 269.829 139.995 270.265 139.995 270.265L140.021 263.035Z" fill="#9A4A4D"/>
<path d="M130.105 247.292C137.552 249.037 139.639 252.381 140.074 264.317C140.536 276.769 139.176 280.655 137.513 282.294C136.377 283.405 130.251 283.471 127.174 282.545C123.332 281.395 114.657 278.091 110.709 271.746C106.061 264.264 105.018 254.258 110.26 250.279C117.654 244.675 127.068 246.578 130.105 247.292Z" fill="#B16668"/>
<path d="M139.995 250.398C138.285 252.893 135.872 254.821 133.063 255.937C131.637 257.562 132.416 263.868 129.907 264.925C129.907 264.925 128.825 260.299 124.943 260.801C121.061 261.303 120.387 266.247 122.777 269.327C125.167 272.407 127.478 271.296 127.478 271.296C127.478 271.296 127.214 277.905 124.217 281.527C124.217 281.527 120.889 282.532 114.815 281.091C111.092 280.205 105.903 275.407 103.79 270.397C99.3139 259.823 99.2083 250.345 105.956 247.662C106.787 242.837 110.643 240.762 115 239.863C124.388 237.92 130.436 243.829 137.658 243.273C141.791 242.983 142.557 245.996 139.995 250.398Z" fill="#263238"/>
<path d="M105.811 249.275L101.388 246.538C101.53 246.179 101.749 245.855 102.03 245.59C102.31 245.325 102.646 245.124 103.012 245.002C103.379 244.881 103.767 244.841 104.151 244.886C104.534 244.931 104.903 245.06 105.232 245.263C105.56 245.466 105.84 245.739 106.052 246.062C106.263 246.385 106.402 246.751 106.457 247.133C106.512 247.516 106.483 247.906 106.372 248.276C106.26 248.646 106.069 248.987 105.811 249.275Z" fill="#263238"/>
<path d="M192.692 321.684C190.381 322.715 163.063 342.913 158.811 340.56C154.559 338.207 132.707 312.656 132.707 312.656C130.861 309.802 129.878 306.473 129.878 303.073C129.878 299.672 130.861 296.344 132.707 293.49C132.707 293.49 139.705 294.811 143.375 300.337C147.046 305.862 162.864 325.756 162.864 325.756C166.773 323.799 170.672 321.816 174.563 319.807C177.758 318.142 180.967 316.489 184.096 314.705C184.976 314.297 185.805 313.786 186.565 313.185C188.11 311.652 187.886 307.898 187.807 305.941C187.807 305.003 187.807 304.064 187.675 303.126C187.543 301.976 187.318 299.16 189.391 300.059C189.784 300.246 190.124 300.528 190.381 300.879C190.7 301.309 190.949 301.786 191.121 302.293C191.504 303.509 191.385 304.844 191.741 306.073C191.784 306.254 191.87 306.422 191.992 306.562C192.176 306.706 192.407 306.776 192.639 306.761C195.65 306.668 198.502 302.438 199.888 300.152C200.368 299.061 201.164 298.14 202.172 297.508C203.81 296.728 205.79 297.838 206.86 299.319C208.148 301.265 208.675 303.618 208.339 305.928C208.06 309.09 206.654 312.046 204.378 314.256C200.937 317.385 196.984 319.898 192.692 321.684Z" fill="#B16668"/>
<path d="M130.422 292.67C133.433 293.014 138.437 293.238 143.349 298.803C149.132 305.333 156.672 315.908 156.672 315.908C155.901 319.035 154.246 321.874 151.904 324.083C149.562 326.291 146.632 327.776 143.468 328.359C143.468 328.359 133.129 317.785 130.264 311.916C127.399 306.047 126.923 296.609 130.422 292.67Z" fill="#5A71B0"/>
<path opacity="0.7" d="M130.422 292.67C133.433 293.014 138.437 293.238 143.349 298.803C149.132 305.333 156.672 315.908 156.672 315.908C155.901 319.035 154.246 321.874 151.904 324.083C149.562 326.291 146.632 327.776 143.468 328.359C143.468 328.359 133.129 317.785 130.264 311.916C127.399 306.047 126.923 296.609 130.422 292.67Z" fill="black"/>
</svg>
