<svg width="600" height="561" viewBox="0 0 600 561" fill="none" xmlns="http://www.w3.org/2000/svg">
<path d="M300 560.419C465.685 560.419 600 482.871 600 387.211C600 291.551 465.685 214.003 300 214.003C134.315 214.003 0 291.551 0 387.211C0 482.871 134.315 560.419 300 560.419Z" fill="#F0F0F0"/>
<path d="M237.922 518.46C295.056 518.46 341.373 491.721 341.373 458.738C341.373 425.754 295.056 399.015 237.922 399.015C180.787 399.015 134.471 425.754 134.471 458.738C134.471 491.721 180.787 518.46 237.922 518.46Z" fill="#E0E0E0"/>
<path d="M532.115 384.015L519.98 377.011C519.98 377.011 517.013 351.034 518.986 330.914C521.762 302.645 540.023 268.619 561.798 276.616C583.573 284.613 551.815 313.392 544.747 337.37C537.68 361.348 532.115 384.015 532.115 384.015Z" fill="#FF7A00"/>
<path opacity="0.15" d="M532.115 384.015L519.98 377.011C519.98 377.011 517.013 351.034 518.986 330.914C521.762 302.645 540.023 268.619 561.798 276.616C583.573 284.613 551.815 313.392 544.747 337.37C537.68 361.348 532.115 384.015 532.115 384.015Z" fill="black"/>
<path d="M525.735 381.073C525.929 381.063 526.111 380.978 526.242 380.835C526.373 380.692 526.443 380.503 526.436 380.309C524.309 317.492 555.584 285.887 555.89 285.581C556.028 285.442 556.106 285.255 556.106 285.059C556.106 284.863 556.028 284.675 555.89 284.537C555.822 284.469 555.742 284.414 555.653 284.378C555.565 284.341 555.47 284.322 555.374 284.322C555.278 284.322 555.183 284.341 555.094 284.378C555.006 284.414 554.926 284.469 554.858 284.537C554.527 284.842 522.807 316.907 524.959 380.36C524.962 380.458 524.985 380.555 525.026 380.644C525.067 380.733 525.125 380.813 525.197 380.88C525.27 380.946 525.355 380.997 525.447 381.031C525.539 381.064 525.637 381.078 525.735 381.073Z" fill="white"/>
<path d="M539.743 388.382L531.109 383.403C531.109 383.403 529.632 365.576 538.38 343.928C546.021 325.082 564.867 309.432 574.367 312.717C583.866 316.002 583.624 322.739 578.989 329.806C574.354 336.873 546.199 353.695 539.743 388.382Z" fill="#FF7A00"/>
<path d="M535.184 386.498C535.379 386.495 535.565 386.416 535.703 386.278C535.841 386.14 535.919 385.954 535.923 385.759C535.744 346.029 573.042 319.186 573.424 318.919C573.504 318.864 573.572 318.794 573.623 318.712C573.675 318.631 573.71 318.54 573.725 318.445C573.741 318.349 573.737 318.252 573.713 318.158C573.69 318.065 573.648 317.977 573.59 317.9C573.477 317.743 573.307 317.636 573.117 317.603C572.926 317.569 572.73 317.612 572.571 317.722C572.189 317.989 534.28 345.291 534.446 385.759C534.446 385.955 534.523 386.143 534.662 386.281C534.8 386.42 534.988 386.498 535.184 386.498Z" fill="white"/>
<path d="M83.0893 368.415L94.2952 360.851C94.2952 360.851 99.2232 331.563 94.639 305.726C88.1956 269.485 63.1478 257.439 54.2341 261.259C45.3203 265.079 43.4102 275.865 60.0535 296.545C69.9223 308.706 82.7455 334.67 83.0893 368.415Z" fill="#FF7A00"/>
<g opacity="0.15">
<path opacity="0.15" d="M83.0893 368.415L94.2952 360.851C94.2952 360.851 99.2232 331.563 94.639 305.726C88.1956 269.485 63.1478 257.439 54.2341 261.259C45.3203 265.079 43.4102 275.865 60.0535 296.545C69.9223 308.706 82.7455 334.67 83.0893 368.415Z" fill="black"/>
</g>
<path d="M86.9349 353.899H86.8203C86.7059 353.892 86.5942 353.86 86.4927 353.807C86.3911 353.754 86.302 353.679 86.2311 353.589C86.1601 353.499 86.109 353.395 86.0811 353.284C86.0532 353.173 86.0491 353.057 86.069 352.944C90.1184 318.829 75.7163 281.799 60.0408 267.066C59.8899 266.913 59.8053 266.707 59.8053 266.493C59.8053 266.278 59.8899 266.072 60.0408 265.92C60.1155 265.843 60.2046 265.783 60.303 265.741C60.4014 265.7 60.5071 265.679 60.6138 265.679C60.7205 265.679 60.8262 265.7 60.9246 265.741C61.023 265.783 61.1121 265.843 61.1868 265.92C77.1552 280.92 91.8248 318.562 87.7244 353.173C87.7004 353.368 87.6078 353.548 87.4631 353.681C87.3185 353.814 87.1313 353.891 86.9349 353.899Z" fill="white"/>
<path d="M53.7502 388.204C51.9674 389.274 46.7719 385.415 45.333 384.486C42.8669 382.876 40.8581 380.656 39.5008 378.042C37.9782 375.078 37.4131 371.714 37.8836 368.415C38.1444 366.694 38.5231 364.992 39.0169 363.322C39.4626 361.654 39.9083 359.986 40.2903 358.305C40.8551 356.67 41.0719 354.935 40.927 353.211C40.4304 349.811 37.3615 347.481 34.56 345.482C31.4784 343.253 28.1931 340.312 28.1931 336.211C28.3501 332.99 29.5832 329.914 31.6949 327.476C33.605 324.929 35.8971 322.713 37.6162 320.052C38.9605 318.208 39.6466 315.965 39.5645 313.685C39.3431 312.279 38.8407 310.932 38.0874 309.725C36.5848 307.076 34.6365 304.631 33.5795 301.817C32.5226 299.003 32.599 295.386 34.8529 293.285C36.6484 291.566 39.3862 291.286 41.8694 291.4C44.2092 291.633 46.4695 292.377 48.491 293.578C55.0745 297.08 58.9456 304.72 65.9111 307.382C68.598 308.4 71.5268 308.579 74.3156 309.266C77.1043 309.954 79.9822 311.316 81.3192 313.85C83.9552 318.88 79.3582 325.222 81.2428 330.557C82.9237 335.294 87.6098 337.026 90.2585 341.267C91.3335 343.15 91.7796 345.327 91.5319 347.481C91.3825 351.117 90.5667 354.695 89.1252 358.037C87.4672 361.503 85.596 364.863 83.5222 368.097C83.5222 368.097 54.0176 388.039 53.7502 388.204Z" fill="#FF7A00"/>
<path d="M70.9665 377.648C70.8595 377.646 70.7538 377.623 70.6556 377.581C70.5573 377.538 70.4684 377.477 70.3939 377.4C70.3194 377.323 70.2608 377.232 70.2214 377.133C70.182 377.033 70.1626 376.927 70.1643 376.82C70.8774 344.577 55.0108 309.33 43.7795 299.143C43.6198 298.999 43.5236 298.797 43.5116 298.583C43.4997 298.368 43.5731 298.157 43.7158 297.997C43.7905 297.92 43.8796 297.86 43.978 297.818C44.0764 297.777 44.1821 297.756 44.2888 297.756C44.3955 297.756 44.5012 297.777 44.5996 297.818C44.698 297.86 44.7871 297.92 44.8618 297.997C56.3224 308.311 72.5073 344.17 71.7815 376.858C71.7798 376.963 71.7574 377.067 71.7156 377.164C71.6737 377.261 71.6132 377.348 71.5375 377.422C71.4619 377.495 71.3725 377.553 71.2745 377.591C71.1765 377.63 71.0719 377.649 70.9665 377.648Z" fill="white"/>
<path d="M65.0197 338.363C64.9445 338.382 64.8658 338.382 64.7905 338.363C54.3741 335.358 41.4619 335.053 41.3345 335.04C41.2281 335.038 41.123 335.015 41.0255 334.973C40.9279 334.93 40.8398 334.868 40.7663 334.791C40.6929 334.714 40.6355 334.623 40.5975 334.524C40.5595 334.424 40.5416 334.318 40.545 334.212C40.543 334.105 40.5634 333.998 40.6048 333.899C40.6462 333.799 40.7077 333.71 40.7855 333.636C40.8633 333.561 40.9557 333.504 41.0568 333.467C41.1579 333.431 41.2654 333.416 41.3727 333.423C41.5001 333.423 54.6161 333.741 65.2362 336.797C65.4415 336.859 65.614 336.999 65.7165 337.188C65.819 337.376 65.8432 337.597 65.7838 337.803C65.7342 337.967 65.6329 338.11 65.4952 338.211C65.3574 338.312 65.1906 338.365 65.0197 338.363Z" fill="white"/>
<path d="M365.147 346.246L360.321 343.457C359.517 342.935 358.847 342.23 358.367 341.4C357.887 340.571 357.61 339.639 357.558 338.682V138.096C357.61 137.14 357.886 136.21 358.364 135.381C358.842 134.551 359.508 133.846 360.308 133.321L494.461 55.8726C495.315 55.4396 496.26 55.214 497.218 55.214C498.176 55.214 499.12 55.4396 499.975 55.8726L504.801 58.6613C505.605 59.1834 506.274 59.8881 506.754 60.7179C507.235 61.5477 507.512 62.4792 507.564 63.4366V264.022C507.511 264.978 507.235 265.908 506.757 266.738C506.28 267.567 505.614 268.273 504.813 268.798L370.661 346.258C369.806 346.692 368.861 346.917 367.902 346.915C366.944 346.913 366 346.684 365.147 346.246Z" fill="#455A64"/>
<path d="M507.564 62.9909C507.373 61.5647 506.214 61.0426 504.826 61.8448L370.661 139.306C369.85 139.815 369.18 140.52 368.713 141.356L358.36 135.384C358.823 134.541 359.494 133.831 360.308 133.321L494.461 55.8726C495.315 55.4396 496.26 55.214 497.218 55.214C498.176 55.214 499.12 55.4396 499.975 55.8726L504.801 58.6613C505.546 59.1412 506.179 59.7766 506.656 60.5238C507.133 61.2711 507.443 62.1127 507.564 62.9909Z" fill="#455A64"/>
<path d="M370.19 346.475C369.375 346.805 368.498 346.957 367.619 346.919C366.741 346.882 365.88 346.657 365.096 346.258L360.257 343.457C359.457 342.932 358.791 342.226 358.313 341.397C357.835 340.567 357.559 339.637 357.507 338.682V138.096C357.539 137.138 357.816 136.205 358.309 135.384L368.662 141.356C368.159 142.178 367.878 143.117 367.847 144.081V344.667C367.898 346.246 368.891 346.971 370.19 346.475Z" fill="#263238"/>
<path d="M367.898 144.106V344.667C367.898 346.424 369.171 347.137 370.661 346.258L504.813 268.798C505.614 268.273 506.28 267.567 506.757 266.737C507.235 265.908 507.511 264.978 507.564 264.022V63.4366C507.564 61.6793 506.291 60.9662 504.813 61.8448L370.661 139.306C369.853 139.83 369.182 140.539 368.702 141.373C368.221 142.208 367.946 143.145 367.898 144.106Z" fill="#37474F"/>
<path d="M336.572 220.51C334.84 219.479 326.805 214.907 326.385 214.665C326.057 214.47 325.778 214.204 325.567 213.886C325.356 213.568 325.22 213.207 325.167 212.829C325.115 212.452 325.148 212.067 325.264 211.704C325.38 211.341 325.576 211.008 325.837 210.731L357.558 176.705L367.898 182.639L336.19 216.69C335.941 216.955 335.752 217.271 335.635 217.615C335.518 217.96 335.476 218.325 335.512 218.687C335.548 219.049 335.662 219.399 335.845 219.714C336.027 220.028 336.275 220.3 336.572 220.51Z" fill="#455A64"/>
<path d="M367.898 182.678L336.19 216.69C335.838 217.066 335.608 217.54 335.531 218.049C335.453 218.559 335.532 219.079 335.757 219.543C335.982 220.006 336.342 220.391 336.79 220.645C337.238 220.9 337.752 221.013 338.266 220.969L367.898 218.524V182.678Z" fill="#37474F"/>
<path d="M437.731 121.44C453.368 112.411 466.038 119.734 466.038 137.79C466.038 155.847 453.368 177.788 437.731 186.816C422.093 195.845 409.423 188.523 409.423 170.478C409.423 152.434 422.093 130.468 437.731 121.44Z" fill="#FF7A00"/>
<path d="M437.527 135.651C442.621 132.722 446.708 135.091 446.708 140.948C446.535 144.132 445.613 147.231 444.018 149.992C442.423 152.753 440.199 155.099 437.527 156.84C432.433 159.769 428.333 157.401 428.333 151.543C428.508 148.358 429.432 145.259 431.029 142.497C432.627 139.736 434.853 137.39 437.527 135.651Z" fill="white"/>
<path d="M455.635 166.875C455.635 157.261 448.873 153.351 440.545 158.165L435.337 161.17C427.009 165.983 420.247 177.724 420.247 187.313V189.949C421.819 190.451 423.461 190.705 425.111 190.7C429.579 190.548 433.929 189.231 437.731 186.88C444.97 182.421 451.093 176.367 455.635 169.18V166.875Z" fill="white"/>
<path d="M419.801 276.196L455.66 255.491C457.188 254.612 458.423 255.325 458.423 257.082V268.632C458.372 269.589 458.094 270.521 457.614 271.351C457.134 272.181 456.464 272.885 455.66 273.407L419.801 294.113C418.273 294.991 417.038 294.278 417.038 292.521V280.971C417.09 280.014 417.367 279.082 417.848 278.253C418.328 277.423 418.997 276.718 419.801 276.196Z" fill="#FF7A00"/>
<path d="M402.241 250.397L473.182 209.419C475.003 208.362 476.493 209.215 476.493 211.329V215.62C476.431 216.769 476.099 217.886 475.523 218.882C474.948 219.877 474.146 220.723 473.182 221.351L402.203 262.329C400.382 263.386 398.905 262.532 398.905 260.419V256.166C398.963 255.008 399.296 253.881 399.876 252.878C400.456 251.875 401.267 251.025 402.241 250.397Z" fill="#FAFAFA"/>
<path d="M410.544 220.74C411.511 220.179 412.263 220.09 412.798 220.485C413.332 220.88 413.6 221.758 413.6 223.108C413.627 224.34 413.351 225.56 412.798 226.661C412.297 227.656 411.513 228.48 410.544 229.029L408.634 230.137V234.25C408.63 234.392 408.595 234.531 408.532 234.658C408.487 234.773 408.407 234.871 408.303 234.938L407.335 235.498C407.302 235.523 407.261 235.536 407.22 235.536C407.179 235.536 407.139 235.523 407.106 235.498C407.037 235.412 407.005 235.302 407.016 235.193V223.286C407.015 223.146 407.046 223.006 407.106 222.879C407.154 222.766 407.233 222.668 407.335 222.599L410.544 220.74ZM408.634 227.832L410.48 226.763C410.926 226.511 411.303 226.152 411.575 225.718C411.865 225.207 412.006 224.625 411.983 224.038C411.983 223.35 411.843 222.955 411.575 222.841C411.386 222.795 411.189 222.793 411 222.835C410.81 222.876 410.632 222.961 410.48 223.083L408.634 224.152V227.832Z" fill="#FAFAFA"/>
<path d="M418.935 215.888C419.063 215.811 419.165 215.811 419.228 215.888C419.31 216.002 419.366 216.132 419.394 216.27L422.335 226.228C422.335 226.228 422.335 226.304 422.335 226.342C422.333 226.484 422.299 226.624 422.233 226.75C422.189 226.865 422.108 226.963 422.004 227.03L421.138 227.527C420.986 227.616 420.871 227.629 420.807 227.527C420.746 227.463 420.702 227.384 420.68 227.298L420.158 225.553L416.338 227.743L415.828 230.086C415.792 230.213 415.745 230.337 415.688 230.456C415.625 230.611 415.507 230.738 415.357 230.812L414.491 231.309C414.459 231.336 414.419 231.35 414.377 231.35C414.335 231.35 414.294 231.336 414.262 231.309C414.195 231.226 414.163 231.121 414.173 231.016C414.166 230.969 414.166 230.922 414.173 230.876L417.102 217.531C417.137 217.334 417.192 217.142 417.267 216.958C417.33 216.824 417.432 216.712 417.56 216.639L418.935 215.888ZM419.598 223.605L418.324 219.11L417.051 225.12L419.598 223.605Z" fill="#FAFAFA"/>
<path d="M426.792 211.164C427.219 210.895 427.703 210.733 428.206 210.692C428.561 210.66 428.917 210.741 429.225 210.922C429.504 211.103 429.721 211.365 429.848 211.673C429.988 211.986 430.065 212.323 430.078 212.666C430.086 212.808 430.055 212.949 429.989 213.074C429.944 213.189 429.863 213.287 429.759 213.354L428.919 213.838C428.779 213.914 428.677 213.927 428.613 213.838C428.534 213.786 428.469 213.716 428.422 213.634C428.371 213.519 428.298 213.416 428.206 213.331C428.114 213.246 428.005 213.18 427.887 213.137C427.5 213.082 427.106 213.183 426.792 213.417C426.586 213.551 426.39 213.7 426.207 213.863C426.017 214.037 425.851 214.234 425.71 214.449C425.574 214.656 425.463 214.878 425.379 215.111C425.304 215.333 425.265 215.565 425.264 215.799C425.249 216.013 425.289 216.228 425.379 216.423C425.418 216.491 425.473 216.549 425.54 216.591C425.606 216.633 425.682 216.658 425.761 216.665C425.997 216.706 426.238 216.706 426.474 216.665L427.582 216.423C427.995 216.3 428.425 216.249 428.855 216.27C429.162 216.269 429.462 216.367 429.708 216.55C429.942 216.746 430.11 217.008 430.192 217.301C430.317 217.714 430.373 218.144 430.358 218.575C430.357 219.144 430.275 219.71 430.116 220.256C429.96 220.817 429.734 221.356 429.441 221.86C429.133 222.376 428.765 222.855 428.346 223.286C427.918 223.73 427.429 224.112 426.894 224.42C426.502 224.658 426.071 224.827 425.621 224.916C425.254 224.987 424.876 224.956 424.526 224.827C424.207 224.679 423.944 224.434 423.774 224.127C423.566 223.734 423.453 223.298 423.443 222.853C423.442 222.708 423.472 222.565 423.532 222.433C423.589 222.325 423.672 222.233 423.774 222.166L424.615 221.682C424.742 221.605 424.844 221.58 424.92 221.618C424.997 221.656 425.048 221.72 425.099 221.835C425.151 221.966 425.22 222.09 425.302 222.204C425.382 222.315 425.493 222.399 425.621 222.446C425.788 222.485 425.963 222.485 426.13 222.446C426.4 222.382 426.659 222.275 426.894 222.128C427.141 221.987 427.376 221.825 427.595 221.644C428.023 221.305 428.363 220.868 428.588 220.37C428.69 220.115 428.742 219.843 428.741 219.568C428.753 219.468 428.744 219.367 428.716 219.271C428.687 219.174 428.639 219.085 428.575 219.008C428.506 218.947 428.425 218.902 428.337 218.876C428.249 218.849 428.157 218.842 428.066 218.855C427.777 218.867 427.49 218.914 427.213 218.995C426.881 219.071 426.499 219.161 426.054 219.237C425.713 219.322 425.359 219.348 425.01 219.313C424.734 219.296 424.473 219.183 424.271 218.995C424.051 218.779 423.896 218.505 423.825 218.205C423.723 217.763 423.676 217.31 423.685 216.856C423.684 216.295 423.766 215.737 423.927 215.2C424.079 214.648 424.302 214.117 424.589 213.621C424.865 213.129 425.198 212.672 425.583 212.259C425.932 211.838 426.339 211.469 426.792 211.164Z" fill="#FAFAFA"/>
<path d="M435.159 206.35C435.582 206.073 436.068 205.907 436.572 205.866C436.927 205.836 437.283 205.916 437.591 206.095C437.863 206.282 438.075 206.543 438.202 206.847C438.341 207.16 438.419 207.497 438.431 207.84C438.446 207.982 438.415 208.125 438.342 208.247C438.297 208.363 438.217 208.461 438.113 208.528L437.272 209.012C437.145 209.088 437.043 209.113 436.967 209.012C436.886 208.96 436.823 208.885 436.788 208.795C436.672 208.572 436.477 208.399 436.241 208.311C436.051 208.283 435.857 208.294 435.671 208.342C435.485 208.39 435.311 208.475 435.159 208.591C434.946 208.721 434.745 208.87 434.56 209.037C434.375 209.211 434.212 209.408 434.076 209.623C433.936 209.827 433.824 210.05 433.745 210.285C433.666 210.506 433.623 210.738 433.618 210.973C433.603 211.187 433.642 211.402 433.732 211.597C433.771 211.665 433.827 211.723 433.893 211.765C433.96 211.807 434.036 211.832 434.114 211.838C434.35 211.88 434.591 211.88 434.827 211.838L435.935 211.597C436.349 211.481 436.779 211.43 437.209 211.444C437.516 211.441 437.816 211.539 438.062 211.724C438.295 211.923 438.467 212.183 438.558 212.475C438.671 212.89 438.722 213.319 438.711 213.749C438.71 214.317 438.629 214.883 438.469 215.429C438.314 215.991 438.087 216.53 437.794 217.034C437.488 217.555 437.12 218.038 436.699 218.473C436.269 218.906 435.786 219.283 435.26 219.593C434.868 219.831 434.437 219.999 433.987 220.09C433.625 220.16 433.251 220.129 432.905 220.001C432.58 219.858 432.311 219.612 432.141 219.301C431.931 218.909 431.822 218.471 431.822 218.027C431.807 217.885 431.838 217.742 431.911 217.62C431.956 217.504 432.036 217.406 432.141 217.34L432.981 216.856C433.108 216.779 433.223 216.754 433.287 216.792C433.331 216.812 433.37 216.842 433.401 216.88C433.432 216.917 433.454 216.961 433.465 217.008C433.522 217.137 433.591 217.26 433.669 217.378C433.752 217.49 433.868 217.574 434 217.62C434.167 217.658 434.341 217.658 434.509 217.62C434.779 217.556 435.037 217.448 435.273 217.301C435.514 217.157 435.744 216.996 435.961 216.817C436.184 216.643 436.382 216.437 436.547 216.206C436.711 215.986 436.848 215.747 436.954 215.493C437.056 215.238 437.108 214.966 437.107 214.691C437.119 214.591 437.11 214.49 437.082 214.394C437.053 214.297 437.005 214.208 436.941 214.131C436.872 214.07 436.791 214.025 436.703 213.998C436.615 213.972 436.523 213.965 436.432 213.978C436.148 213.995 435.866 214.042 435.591 214.118C435.26 214.194 434.866 214.283 434.433 214.36C434.087 214.445 433.73 214.471 433.376 214.436C433.099 214.422 432.837 214.309 432.637 214.118C432.421 213.901 432.271 213.627 432.204 213.328C432.091 212.892 432.04 212.442 432.051 211.991C432.056 211.427 432.137 210.866 432.293 210.323C432.451 209.772 432.673 209.242 432.956 208.744C433.231 208.249 433.569 207.791 433.962 207.382C434.304 206.978 434.708 206.63 435.159 206.35Z" fill="#FAFAFA"/>
<path d="M444.442 207.942L443.41 214.041C443.38 214.225 443.328 214.404 443.257 214.576C443.208 214.714 443.114 214.83 442.99 214.907L442.022 215.468C441.895 215.544 441.806 215.544 441.742 215.468C441.657 215.363 441.607 215.233 441.602 215.098L440.074 204.338C440.074 204.338 440.074 204.236 440.074 204.198C440.078 204.056 440.112 203.917 440.176 203.791C440.224 203.677 440.304 203.58 440.405 203.51L441.284 203.001C441.357 202.971 441.439 202.971 441.513 203.001C441.589 203.001 441.64 203.103 441.666 203.307L442.672 210.552L443.55 205.115C443.573 204.979 443.612 204.847 443.665 204.72C443.715 204.559 443.824 204.423 443.97 204.338L444.951 203.765C445.091 203.689 445.193 203.701 445.257 203.765C445.312 203.846 445.35 203.937 445.371 204.033L446.263 208.451L447.269 200.047C447.281 199.881 447.328 199.721 447.409 199.576C447.468 199.48 447.546 199.398 447.638 199.334L448.516 198.824C448.55 198.8 448.59 198.786 448.631 198.786C448.672 198.786 448.713 198.8 448.746 198.824C448.782 198.866 448.81 198.915 448.827 198.967C448.845 199.019 448.852 199.075 448.848 199.13C448.853 199.181 448.853 199.232 448.848 199.283L447.319 211.8C447.294 211.983 447.247 212.163 447.179 212.335C447.121 212.471 447.024 212.586 446.899 212.666L445.919 213.226C445.804 213.29 445.715 213.29 445.651 213.226C445.587 213.109 445.536 212.986 445.499 212.857L444.442 207.942Z" fill="#FAFAFA"/>
<path d="M450.401 202.543C450.429 201.837 450.515 201.134 450.656 200.442C450.801 199.765 451.024 199.107 451.318 198.48C451.599 197.871 451.958 197.302 452.388 196.787C452.823 196.276 453.345 195.845 453.928 195.513C454.377 195.209 454.902 195.037 455.444 195.017C455.848 195.021 456.236 195.181 456.526 195.463C456.835 195.809 457.057 196.224 457.176 196.672C457.34 197.257 457.43 197.86 457.443 198.468C457.443 198.697 457.443 198.952 457.443 199.232C457.443 199.512 457.443 199.805 457.443 200.11C457.443 200.416 457.443 200.709 457.443 200.989C457.443 201.269 457.443 201.537 457.443 201.779C457.415 202.481 457.33 203.179 457.188 203.867C457.041 204.542 456.824 205.199 456.539 205.828C456.249 206.435 455.886 207.004 455.457 207.522C455.021 208.028 454.505 208.458 453.928 208.795C453.469 209.097 452.937 209.269 452.388 209.292C452.189 209.296 451.992 209.259 451.808 209.185C451.624 209.111 451.458 209 451.318 208.859C450.986 208.502 450.757 208.062 450.656 207.585C450.504 206.998 450.419 206.396 450.401 205.79C450.401 205.561 450.401 205.306 450.401 205.026C450.401 204.746 450.401 204.453 450.401 204.147C450.401 203.841 450.401 203.561 450.401 203.268C450.401 202.976 450.388 202.772 450.401 202.543ZM455.826 199.499C455.854 199.188 455.819 198.874 455.723 198.576C455.626 198.278 455.471 198.003 455.265 197.767C454.934 197.475 454.476 197.487 453.928 197.767C453.334 198.117 452.863 198.642 452.579 199.27C452.218 200.012 452.026 200.826 452.018 201.651C452.018 202.122 452.018 202.645 452.018 203.218C452.018 203.791 452.018 204.3 452.018 204.758C451.99 205.07 452.025 205.384 452.121 205.682C452.218 205.979 452.373 206.254 452.579 206.49C452.91 206.77 453.368 206.745 453.928 206.427C454.513 206.075 454.979 205.556 455.265 204.937C455.627 204.199 455.818 203.39 455.826 202.568C455.826 202.084 455.826 201.562 455.826 200.989C455.826 200.416 455.839 199.958 455.826 199.499Z" fill="#FAFAFA"/>
<path d="M462.995 190.433C464.001 189.86 464.752 189.77 465.274 190.191C465.584 190.532 465.814 190.937 465.948 191.377C466.082 191.817 466.118 192.282 466.051 192.737C466.062 193.602 465.928 194.463 465.656 195.284C465.398 196.049 464.996 196.758 464.472 197.373L466.128 200.976C466.133 201.036 466.133 201.095 466.128 201.155C466.128 201.269 466.102 201.383 466.051 201.486C466.016 201.578 465.954 201.658 465.873 201.715L464.854 202.301C464.689 202.39 464.574 202.403 464.498 202.301C464.43 202.234 464.374 202.156 464.332 202.071L462.766 198.671L461.174 199.588V203.892C461.175 204.033 461.145 204.172 461.085 204.3C461.033 204.411 460.954 204.507 460.856 204.58L459.888 205.14C459.856 205.167 459.815 205.182 459.773 205.182C459.731 205.182 459.691 205.167 459.659 205.14C459.622 205.101 459.594 205.055 459.577 205.005C459.559 204.954 459.552 204.901 459.557 204.847V192.941C459.561 192.8 459.595 192.66 459.659 192.534C459.704 192.418 459.784 192.32 459.888 192.254L462.995 190.433ZM461.2 197.283L462.995 196.316C463.434 196.071 463.809 195.726 464.09 195.31C464.385 194.819 464.527 194.252 464.498 193.68C464.498 192.992 464.358 192.61 464.09 192.534C463.703 192.481 463.31 192.581 462.995 192.814L461.263 193.807L461.2 197.283Z" fill="#FAFAFA"/>
<path d="M471.527 185.53C471.989 185.228 472.518 185.045 473.068 184.995C473.466 184.98 473.855 185.122 474.15 185.39C474.487 185.745 474.721 186.185 474.825 186.663C474.996 187.295 475.09 187.945 475.105 188.599C475.105 189.49 475.105 190.407 475.105 191.337C475.079 192.095 474.985 192.849 474.825 193.591C474.679 194.28 474.457 194.95 474.163 195.59C473.878 196.177 473.519 196.725 473.093 197.22C472.668 197.726 472.16 198.157 471.59 198.493L468.573 200.136C468.54 200.163 468.5 200.178 468.458 200.178C468.416 200.178 468.375 200.163 468.343 200.136C468.306 200.097 468.278 200.051 468.26 200.001C468.243 199.95 468.236 199.896 468.241 199.843V187.937C468.245 187.795 468.28 187.656 468.343 187.529C468.388 187.414 468.468 187.316 468.573 187.249L471.527 185.53ZM473.488 189.49C473.482 189.145 473.431 188.803 473.335 188.472C473.276 188.221 473.148 187.992 472.966 187.809C472.886 187.729 472.79 187.667 472.685 187.625C472.58 187.584 472.468 187.564 472.355 187.567C472.036 187.589 471.728 187.694 471.463 187.873L469.859 188.79V197.092L471.527 196.137C471.849 195.95 472.138 195.708 472.38 195.424C472.617 195.145 472.818 194.837 472.978 194.507C473.137 194.157 473.257 193.789 473.335 193.412C473.424 193.019 473.475 192.618 473.488 192.215C473.526 191.286 473.526 190.382 473.488 189.49Z" fill="#FAFAFA"/>
<path d="M296.664 0.708959C298.862 1.19805 300.98 1.99544 302.954 3.07748C304.845 4.09401 306.54 5.43937 307.959 7.05048C309.316 8.60028 310.324 10.4245 310.913 12.3988C311.514 14.5121 311.558 16.745 311.04 18.8804C310.699 20.5733 310.028 22.1828 309.067 23.6174C308.189 24.8442 307.143 25.9415 305.959 26.8773C304.797 27.7795 303.557 28.5764 302.254 29.2586L298.587 31.2069C297.482 31.783 296.433 32.4609 295.454 33.2316C294.568 33.911 293.889 34.8238 293.493 35.8675C293.299 36.3443 292.977 36.7585 292.563 37.0645C292.368 37.2166 292.14 37.3221 291.897 37.3729C291.654 37.4236 291.403 37.4183 291.163 37.3574L285.763 36.1604C285.503 36.1059 285.257 36.0001 285.038 35.8492C284.82 35.6984 284.633 35.5054 284.49 35.2817C284.338 35.0738 284.236 34.8328 284.194 34.5784C284.152 34.324 284.171 34.0633 284.248 33.8173C284.683 32.1452 285.449 30.5776 286.502 29.2076C287.462 27.9958 288.575 26.913 289.813 25.9859C291.019 25.1033 292.296 24.3238 293.633 23.6556C294.906 23.0062 296.18 22.3822 297.288 21.7582C298.318 21.2043 299.287 20.5427 300.178 19.7845C300.96 19.1299 301.502 18.234 301.719 17.2377C301.922 16.3725 301.912 15.4712 301.69 14.6107C301.468 13.7503 301.041 12.9564 300.446 12.2969C298.957 10.6711 296.966 9.59075 294.792 9.228C290.768 8.33662 287.372 9.69066 284.605 13.2901C284.337 13.683 284.001 14.0239 283.611 14.2961C283.172 14.514 282.664 14.5506 282.198 14.398L276.455 13.1246C276.045 13.0454 275.684 12.8074 275.449 12.4624C275.324 12.2781 275.239 12.069 275.202 11.8493C275.165 11.6296 275.175 11.4044 275.232 11.189C275.72 9.41957 276.629 7.79438 277.881 6.45199C279.293 4.8952 280.97 3.60169 282.835 2.63179C284.873 1.56519 287.07 0.83422 289.342 0.467015C291.775 0.0712299 294.262 0.153408 296.664 0.708959ZM290.564 41.6869C291.069 41.8055 291.508 42.1171 291.786 42.5549C292.065 42.9928 292.161 43.5222 292.054 44.03L290.679 50.2696C290.632 50.5309 290.531 50.7794 290.382 50.9988C290.233 51.2183 290.039 51.4037 289.813 51.543C289.6 51.69 289.358 51.7908 289.104 51.8391C288.849 51.8873 288.588 51.8819 288.336 51.8232L282.172 50.4097C281.91 50.3655 281.661 50.2653 281.441 50.1158C281.221 49.9664 281.036 49.7713 280.899 49.5438C280.756 49.3287 280.659 49.0868 280.613 48.8328C280.567 48.5788 280.573 48.3181 280.632 48.0667L282.02 41.827C282.138 41.3212 282.449 40.8814 282.887 40.601C283.324 40.3205 283.853 40.2213 284.363 40.3244L290.564 41.6869Z" fill="#FF7A00"/>
<path d="M303.464 60.4441C304.997 60.1981 306.557 60.1681 308.099 60.3549C309.571 60.53 311.002 60.9609 312.326 61.6283C313.588 62.2826 314.698 63.1935 315.586 64.3025C316.385 65.3878 316.947 66.6285 317.237 67.9445C317.526 69.2605 317.537 70.6226 317.267 71.9429C317.025 72.9579 316.634 73.9319 316.108 74.8335C315.602 75.7104 315.013 76.5376 314.351 77.3039C313.702 78.0679 313.078 78.7938 312.505 79.4941C311.944 80.1466 311.445 80.85 311.015 81.5952C310.611 82.2484 310.408 83.0053 310.429 83.7727C310.418 84.1314 310.317 84.4816 310.136 84.7915C310.044 84.9342 309.923 85.0558 309.78 85.148C309.637 85.2402 309.477 85.301 309.309 85.3263L305.488 85.9375C305.31 85.9699 305.127 85.9663 304.949 85.927C304.772 85.8876 304.605 85.8133 304.457 85.7083C304.306 85.6137 304.181 85.4847 304.09 85.332C303.999 85.1792 303.946 85.007 303.935 84.8297C303.775 83.6447 303.861 82.4394 304.189 81.2896C304.489 80.2717 304.917 79.296 305.463 78.3863C305.998 77.5132 306.612 76.6906 307.297 75.9286C307.971 75.1646 308.57 74.4515 309.156 73.7638C309.679 73.1497 310.131 72.4792 310.506 71.7646C310.837 71.1495 310.958 70.4428 310.849 69.7526C310.754 69.1451 310.512 68.5697 310.147 68.0753C309.781 67.581 309.301 67.1822 308.748 66.9129C307.379 66.2516 305.83 66.0635 304.342 66.3781C302.996 66.575 301.743 67.1837 300.756 68.1207C299.768 69.0577 299.095 70.2772 298.828 71.6118C298.754 71.9328 298.625 72.2386 298.446 72.5159C298.219 72.7576 297.911 72.9072 297.581 72.9361L293.557 73.5856C293.274 73.6397 292.981 73.5802 292.742 73.42C292.619 73.3358 292.516 73.2263 292.439 73.0989C292.362 72.9715 292.313 72.8292 292.296 72.6814C292.176 71.4178 292.373 70.1443 292.869 68.9758C293.372 67.6162 294.114 66.3571 295.059 65.2575C296.095 64.0535 297.316 63.0219 298.676 62.2014C300.143 61.3115 301.769 60.7147 303.464 60.4441ZM310.034 88.2678C310.21 88.24 310.389 88.2471 310.561 88.2886C310.734 88.3301 310.897 88.4053 311.04 88.5098C311.19 88.6084 311.318 88.7377 311.414 88.8892C311.511 89.0406 311.574 89.2107 311.601 89.3884L312.314 93.7562C312.369 94.1105 312.282 94.4723 312.072 94.7631C311.863 95.0539 311.547 95.2503 311.193 95.3097L306.927 96.0101C306.573 96.0649 306.212 95.9779 305.921 95.7682C305.774 95.6682 305.648 95.5383 305.554 95.387C305.46 95.2356 305.398 95.0661 305.374 94.8895L304.661 90.5217C304.628 90.3465 304.633 90.1664 304.675 89.9931C304.716 89.8198 304.794 89.6572 304.903 89.5158C305.002 89.3681 305.132 89.243 305.284 89.1487C305.435 89.0543 305.605 88.9929 305.781 88.9682L310.034 88.2678Z" fill="#FF7A00"/>
<g opacity="0.2">
<path opacity="0.2" d="M303.464 60.4441C304.997 60.1981 306.557 60.1681 308.099 60.3549C309.571 60.53 311.002 60.9609 312.326 61.6283C313.588 62.2826 314.698 63.1935 315.586 64.3025C316.385 65.3878 316.947 66.6285 317.237 67.9445C317.526 69.2605 317.537 70.6226 317.267 71.9429C317.025 72.9579 316.634 73.9319 316.108 74.8335C315.602 75.7104 315.013 76.5376 314.351 77.3039C313.702 78.0679 313.078 78.7938 312.505 79.4941C311.944 80.1466 311.445 80.85 311.015 81.5952C310.611 82.2484 310.408 83.0053 310.429 83.7727C310.418 84.1314 310.317 84.4816 310.136 84.7915C310.044 84.9342 309.923 85.0558 309.78 85.148C309.637 85.2402 309.477 85.301 309.309 85.3263L305.488 85.9375C305.31 85.9699 305.127 85.9663 304.949 85.927C304.772 85.8876 304.605 85.8133 304.457 85.7083C304.306 85.6137 304.181 85.4847 304.09 85.332C303.999 85.1792 303.946 85.007 303.935 84.8297C303.775 83.6447 303.861 82.4394 304.189 81.2896C304.489 80.2717 304.917 79.296 305.463 78.3863C305.998 77.5132 306.612 76.6906 307.297 75.9286C307.971 75.1646 308.57 74.4515 309.156 73.7638C309.679 73.1497 310.131 72.4792 310.506 71.7646C310.837 71.1495 310.958 70.4428 310.849 69.7526C310.754 69.1451 310.512 68.5697 310.147 68.0753C309.781 67.581 309.301 67.1822 308.748 66.9129C307.379 66.2516 305.83 66.0635 304.342 66.3781C302.996 66.575 301.743 67.1837 300.756 68.1207C299.768 69.0577 299.095 70.2772 298.828 71.6118C298.754 71.9328 298.625 72.2386 298.446 72.5159C298.219 72.7576 297.911 72.9072 297.581 72.9361L293.557 73.5856C293.274 73.6397 292.981 73.5802 292.742 73.42C292.619 73.3358 292.516 73.2263 292.439 73.0989C292.362 72.9715 292.313 72.8292 292.296 72.6814C292.176 71.4178 292.373 70.1443 292.869 68.9758C293.372 67.6162 294.114 66.3571 295.059 65.2575C296.095 64.0535 297.316 63.0219 298.676 62.2014C300.143 61.3115 301.769 60.7147 303.464 60.4441ZM310.034 88.2678C310.21 88.24 310.389 88.2471 310.561 88.2886C310.734 88.3301 310.897 88.4053 311.04 88.5098C311.19 88.6084 311.318 88.7377 311.414 88.8892C311.511 89.0406 311.574 89.2107 311.601 89.3884L312.314 93.7562C312.369 94.1105 312.282 94.4723 312.072 94.7631C311.863 95.0539 311.547 95.2503 311.193 95.3097L306.927 96.0101C306.573 96.0649 306.212 95.9779 305.921 95.7682C305.774 95.6682 305.648 95.5383 305.554 95.387C305.46 95.2356 305.398 95.0661 305.374 94.8895L304.661 90.5217C304.628 90.3465 304.633 90.1664 304.675 89.9931C304.716 89.8198 304.794 89.6572 304.903 89.5158C305.002 89.3681 305.132 89.243 305.284 89.1487C305.435 89.0543 305.605 88.9929 305.781 88.9682L310.034 88.2678Z" fill="black"/>
</g>
<path d="M339.475 67.3077C339.649 67.4284 339.796 67.5833 339.908 67.7628C340.019 67.9424 340.093 68.1428 340.125 68.3519C340.165 68.5591 340.162 68.7724 340.116 68.9784C340.07 69.1844 339.982 69.3787 339.857 69.5489L336.827 73.8148C336.706 73.9884 336.551 74.1355 336.372 74.2472C336.192 74.3589 335.992 74.4327 335.782 74.4642C335.575 74.5047 335.362 74.5019 335.156 74.4559C334.95 74.4099 334.756 74.3216 334.585 74.1968L330.409 71.2298C330.235 71.1107 330.088 70.956 329.978 70.776C329.869 70.596 329.798 70.3948 329.772 70.1856C329.732 69.9784 329.734 69.7651 329.78 69.5591C329.826 69.3531 329.915 69.1588 330.039 68.9886L333.108 64.7227C333.356 64.377 333.731 64.1429 334.15 64.0714C334.57 63.9999 335.001 64.0967 335.35 64.3407L339.475 67.3077ZM357.099 38.4143C358.622 39.4816 359.978 40.769 361.123 42.2345C362.24 43.5977 363.102 45.1504 363.67 46.8187C364.198 48.4175 364.377 50.1113 364.192 51.785C363.976 53.5698 363.3 55.2679 362.231 56.713C361.436 57.8815 360.414 58.8776 359.226 59.6419C358.18 60.2976 357.043 60.7954 355.851 61.119C354.691 61.4224 353.506 61.6268 352.311 61.7302L348.924 62.0359C347.908 62.117 346.902 62.2918 345.919 62.5579C345.011 62.7639 344.181 63.2232 343.525 63.8823C343.228 64.1835 342.853 64.3953 342.442 64.4935C342.247 64.5496 342.041 64.558 341.841 64.5182C341.642 64.4783 341.455 64.3912 341.296 64.2643L337.603 61.6411C337.251 61.389 337.009 61.0104 336.929 60.5842C336.881 60.3777 336.883 60.1628 336.934 59.9571C336.984 59.7513 337.083 59.5605 337.221 59.3999C338.084 58.2805 339.162 57.3453 340.392 56.6494C341.5 56.0446 342.681 55.5866 343.907 55.2868C345.09 54.9998 346.296 54.8166 347.51 54.7393C348.707 54.6629 349.828 54.5737 350.872 54.4719C351.828 54.3875 352.771 54.1996 353.686 53.9116C354.487 53.645 355.176 53.1212 355.648 52.4217C356.073 51.831 356.35 51.1463 356.454 50.4258C356.558 49.7052 356.487 48.9702 356.246 48.2831C355.644 46.5859 354.492 45.1384 352.973 44.1701C350.223 42.209 347.222 42.1454 343.97 43.9791C343.643 44.1873 343.281 44.3341 342.901 44.412C342.703 44.4258 342.504 44.4002 342.316 44.3369C342.128 44.2735 341.955 44.1735 341.806 44.0427L337.884 41.254C337.742 41.1597 337.62 41.0379 337.526 40.8957C337.432 40.7535 337.367 40.5939 337.336 40.4263C337.306 40.253 337.311 40.0753 337.353 39.9043C337.395 39.7334 337.471 39.5729 337.578 39.433C338.503 38.2474 339.706 37.3072 341.08 36.6952C342.641 35.9881 344.312 35.5573 346.021 35.4218C347.9 35.2648 349.793 35.4153 351.624 35.8675C353.6 36.3437 355.462 37.2096 357.099 38.4143Z" fill="#FF7A00"/>
<g opacity="0.6">
<path opacity="0.6" d="M339.475 67.3077C339.649 67.4284 339.796 67.5833 339.908 67.7628C340.019 67.9424 340.093 68.1428 340.125 68.3519C340.165 68.5591 340.162 68.7724 340.116 68.9784C340.07 69.1844 339.982 69.3787 339.857 69.5489L336.827 73.8148C336.706 73.9884 336.551 74.1355 336.372 74.2472C336.192 74.3589 335.992 74.4327 335.782 74.4642C335.575 74.5047 335.362 74.5019 335.156 74.4559C334.95 74.4099 334.756 74.3216 334.585 74.1968L330.409 71.2298C330.235 71.1107 330.088 70.956 329.978 70.776C329.869 70.596 329.798 70.3948 329.772 70.1856C329.732 69.9784 329.734 69.7651 329.78 69.5591C329.826 69.3531 329.915 69.1588 330.039 68.9886L333.108 64.7227C333.356 64.377 333.731 64.1429 334.15 64.0714C334.57 63.9999 335.001 64.0967 335.35 64.3407L339.475 67.3077ZM357.099 38.4143C358.622 39.4816 359.978 40.769 361.123 42.2345C362.24 43.5977 363.102 45.1504 363.67 46.8187C364.198 48.4175 364.377 50.1113 364.192 51.785C363.976 53.5698 363.3 55.2679 362.231 56.713C361.436 57.8815 360.414 58.8776 359.226 59.6419C358.18 60.2976 357.043 60.7954 355.851 61.119C354.691 61.4224 353.506 61.6268 352.311 61.7302L348.924 62.0359C347.908 62.117 346.902 62.2918 345.919 62.5579C345.011 62.7639 344.181 63.2232 343.525 63.8823C343.228 64.1835 342.853 64.3953 342.442 64.4935C342.247 64.5496 342.041 64.558 341.841 64.5182C341.642 64.4783 341.455 64.3912 341.296 64.2643L337.603 61.6411C337.251 61.389 337.009 61.0104 336.929 60.5842C336.881 60.3777 336.883 60.1628 336.934 59.9571C336.984 59.7513 337.083 59.5605 337.221 59.3999C338.084 58.2805 339.162 57.3453 340.392 56.6494C341.5 56.0446 342.681 55.5866 343.907 55.2868C345.09 54.9998 346.296 54.8166 347.51 54.7393C348.707 54.6629 349.828 54.5737 350.872 54.4719C351.828 54.3875 352.771 54.1996 353.686 53.9116C354.487 53.645 355.176 53.1212 355.648 52.4217C356.073 51.831 356.35 51.1463 356.454 50.4258C356.558 49.7052 356.487 48.9702 356.246 48.2831C355.644 46.5859 354.492 45.1384 352.973 44.1701C350.223 42.209 347.222 42.1454 343.97 43.9791C343.643 44.1873 343.281 44.3341 342.901 44.412C342.703 44.4258 342.504 44.4002 342.316 44.3369C342.128 44.2735 341.955 44.1735 341.806 44.0427L337.884 41.254C337.742 41.1597 337.62 41.0379 337.526 40.8957C337.432 40.7535 337.367 40.5939 337.336 40.4263C337.306 40.253 337.311 40.0753 337.353 39.9043C337.395 39.7334 337.471 39.5729 337.578 39.433C338.503 38.2474 339.706 37.3072 341.08 36.6952C342.641 35.9881 344.312 35.5573 346.021 35.4218C347.9 35.2648 349.793 35.4153 351.624 35.8675C353.6 36.3437 355.462 37.2096 357.099 38.4143Z" fill="white"/>
</g>
<path d="M244.645 180.029H199.401V70.4148C199.401 60.8943 203.183 51.7637 209.915 45.0317C216.648 38.2997 225.778 34.5177 235.299 34.5177H239.475C248.996 34.5177 258.126 38.2997 264.858 45.0317C271.59 51.7637 275.372 60.8943 275.372 70.4148V149.366C275.356 157.504 272.111 165.303 266.35 171.052C260.59 176.8 252.784 180.029 244.645 180.029Z" fill="#263238"/>
<path d="M194.996 443.915C194.195 448.457 193.769 453.057 193.722 457.668C193.557 466.021 192.029 468.989 191.825 475.839C191.583 483.671 192.945 486.6 196.116 491.006C199.287 495.412 207.577 499.397 211.168 491.961C214.759 484.524 214.237 479.647 213.103 471.968C211.944 464.022 211.83 459.629 211.117 453.58C210.531 448.245 209.843 444.183 209.843 444.183L194.996 443.915Z" fill="#263238"/>
<path d="M218.706 388.433L191.201 387.937C191.608 406.299 194.524 426.686 195.021 443.966C195.123 447.213 194.945 469.167 196.167 475.801C198.014 485.836 209.907 484.473 210.544 478.475C211.18 472.478 209.78 446.844 209.818 444.196C209.703 433.142 214.911 414.487 217.598 394.648C217.713 393.693 218.579 389.388 218.706 388.433Z" fill="#FFA8A7"/>
<path d="M254.043 429.628C254.043 429.628 252.961 429.042 252.77 430.201C252.502 431.576 252.095 434.416 251.496 436.682C250.707 439.828 250.045 445.01 250.516 447.583C250.987 450.155 256.972 453.44 260.856 454.637C265.642 456.115 270.008 458.712 273.59 462.214C277.41 465.83 285.725 469.243 291.417 469.205C298.103 469.205 302.763 466.977 304.966 463.398C307.169 459.82 302.954 459.387 295.314 454.485L289.393 450.664C277.283 442.757 272.838 438.529 269.438 430.621L254.043 429.628Z" fill="#263238"/>
<path d="M269.54 424.725C269.337 419.046 273.259 370.771 273.259 370.771L247.141 382.678C252.731 416.066 253.928 423.948 254.018 429.411C253.903 429.869 253.856 430.341 253.877 430.812C253.877 437.294 261.225 440.795 266.93 445.125C271.779 448.924 276.947 452.298 282.376 455.21C286.527 457.286 294.957 457.477 296.002 454.816C289.049 449.505 278.938 441.559 273.411 435.498C270.712 432.646 269.744 430.417 269.54 424.725Z" fill="#FFA8A7"/>
<path d="M202.47 209.253C192.436 231.27 192.436 248.309 194.104 276.412C195.581 302.199 198.039 324.929 198.039 324.929C197.657 329.5 191.303 338.427 190.475 358.649C189.711 377.546 191.748 401.575 191.748 401.575C191.748 401.575 206.023 409.483 216.58 401.498C216.58 401.498 226.767 352.867 229.747 329.208C232.293 308.566 236.878 282.194 236.878 282.194L246.517 329.067C244.437 335.718 242.929 342.534 242.009 349.442C240.66 363.36 248.453 390.687 248.453 390.687C248.453 390.687 263.199 395.08 272.202 387.096C272.202 387.096 275.563 342.667 276.824 325.909C278.505 303.459 274.965 242.693 272.202 210.514L202.47 209.253Z" fill="#455A64"/>
<path d="M236.903 282.156L240.863 246.831C240.863 246.831 258.615 244.463 266.662 236.899C264.359 240.503 261.29 243.555 257.675 245.84C254.059 248.124 249.984 249.584 245.74 250.117L240.01 282.983L246.517 329.068L236.903 282.156Z" fill="#263238"/>
<path d="M308.786 200.569C309.52 194.123 309.843 187.637 309.754 181.15C309.359 175.547 308.353 174.63 300.522 164.71C289.953 151.301 280.924 139.242 271.374 127.259C264.549 118.702 257.367 117.391 250.388 117.773C245.499 118.04 255.049 141.56 259.85 155.478L287.266 184.995C288.115 186.16 288.505 187.597 288.361 189.032L286.706 214.143L294.919 225.145C294.919 225.145 307.36 214.423 308.786 200.569Z" fill="#FFA8A7"/>
<path d="M223.953 118.537C218.643 118.906 208.99 119.81 208.99 119.81C203.425 122.917 202.012 125.477 200.981 132.862C200.535 136.02 203.107 144.412 205.31 156.344L209.487 178.463L209.028 189.439C206.864 196.137 201.961 204.453 197.631 216.716C218.897 228.584 236.725 229.029 252.897 226.903C265.223 225.311 271.756 222.331 273.934 219.377C273.475 207.267 272.66 199.779 272.405 187.122C272.316 181.812 272.635 176.438 272.851 170.326C281.115 163.526 281.217 152.218 276.671 144.858C266.191 127.883 255.991 117.199 249.242 117.747L223.953 118.537Z" fill="#FF7A00"/>
<path opacity="0.6" d="M223.953 118.537C218.643 118.906 208.99 119.81 208.99 119.81C203.425 122.917 202.012 125.477 200.981 132.862C200.535 136.02 203.107 144.412 205.31 156.344L209.487 178.463L209.028 189.439C206.864 196.137 201.961 204.453 197.631 216.716C218.897 228.584 236.725 229.029 252.897 226.903C265.223 225.311 271.756 222.331 273.934 219.377C273.475 207.267 272.66 199.779 272.405 187.122C272.316 181.812 272.635 176.438 272.851 170.326C281.115 163.526 281.217 152.218 276.671 144.858C266.191 127.883 255.991 117.199 249.242 117.747L223.953 118.537Z" fill="white"/>
<path opacity="0.1" d="M256.386 170.491C256.386 170.491 246.683 178.03 235.591 174.095C232.477 173.114 229.668 171.345 227.438 168.96C225.207 166.575 223.629 163.655 222.857 160.482C222.857 160.482 221.686 173.153 235.655 177.469C249.191 181.633 256.386 170.491 256.386 170.491Z" fill="black"/>
<path d="M269.553 83.76C269.133 102.148 263.186 106.681 260.181 107.955C257.176 109.228 251.42 108.464 245.817 107.534V118.638C245.817 118.638 252.286 125.413 251.802 130.468C251.318 135.524 241.615 136.097 234.382 131.143C230.391 128.402 226.781 125.143 223.647 121.453C223.045 120.741 222.716 119.838 222.717 118.906V92.9285C222.717 92.9285 219.649 96.1757 214.224 92.4573C213.053 91.7103 212.051 90.728 211.281 89.5727C210.511 88.4174 209.989 87.1145 209.75 85.7468C209.51 84.3791 209.558 82.9765 209.89 81.6282C210.221 80.2799 210.83 79.0154 211.677 77.9151C214.046 75.1264 220.056 74.9354 222.934 79.1885C224.564 82.3593 224.78 85.5555 226.601 84.2821C231.44 80.793 228.842 72.8215 234.687 69.0013C236.605 68.0002 238.598 67.1488 240.647 66.4545C251.076 62.8508 260.117 59.8201 262.295 52.6891C266.395 55.0321 270.062 62.074 269.553 83.76Z" fill="#FFA8A7"/>
<path d="M248.988 100.187C250.324 100.187 251.407 99.1036 251.407 97.7674C251.407 96.4311 250.324 95.3479 248.988 95.3479C247.651 95.3479 246.568 96.4311 246.568 97.7674C246.568 99.1036 247.651 100.187 248.988 100.187Z" fill="#B16668"/>
<path d="M247.383 80.9712C247.383 81.4694 247.236 81.9564 246.961 82.3721C246.687 82.7877 246.296 83.1136 245.838 83.3096C245.38 83.5055 244.875 83.5628 244.385 83.4745C243.894 83.3861 243.441 83.1559 243.08 82.8123C242.719 82.4687 242.467 82.0269 242.355 81.5416C242.243 81.0562 242.275 80.5486 242.449 80.0816C242.622 79.6146 242.929 79.2087 243.33 78.9142C243.732 78.6196 244.212 78.4494 244.709 78.4245C245.054 78.4072 245.399 78.4603 245.723 78.5805C246.047 78.7007 246.343 78.8856 246.593 79.1238C246.843 79.3621 247.042 79.6487 247.178 79.9663C247.314 80.2839 247.384 80.6258 247.383 80.9712Z" fill="#263238"/>
<path d="M266.675 81.2259C266.701 81.5375 266.665 81.8511 266.569 82.1486C266.472 82.446 266.318 82.7212 266.114 82.9583C265.91 83.1953 265.661 83.3894 265.381 83.5293C265.102 83.6691 264.797 83.7519 264.485 83.7727C264.17 83.8018 263.853 83.7636 263.554 83.6606C263.255 83.5577 262.982 83.3923 262.752 83.1755C262.522 82.9587 262.34 82.6955 262.22 82.4033C262.099 82.111 262.042 81.7965 262.053 81.4806C262.02 81.1668 262.051 80.8495 262.146 80.5483C262.24 80.2471 262.394 79.9682 262.6 79.7289C262.806 79.4895 263.058 79.2947 263.342 79.1563C263.625 79.018 263.934 78.939 264.249 78.9242C264.565 78.9095 264.879 78.9592 265.175 79.0705C265.47 79.1817 265.74 79.3521 265.967 79.5712C266.194 79.7903 266.374 80.0535 266.496 80.3446C266.617 80.6357 266.679 80.9486 266.675 81.2641V81.2259Z" fill="#263238"/>
<path d="M244.111 87.5165C241.914 87.5165 239.808 86.6449 238.253 85.093C236.699 83.5411 235.824 81.4358 235.821 79.2394C235.821 73.611 241.627 73.611 244.111 73.611C246.594 73.611 252.388 73.611 252.388 79.2394C252.384 81.4336 251.511 83.537 249.96 85.0885C248.408 86.64 246.305 87.5132 244.111 87.5165ZM244.111 74.9099C239.017 74.9099 237.132 76.1833 237.132 79.2394C237.132 81.0969 237.87 82.8784 239.184 84.1918C240.497 85.5053 242.279 86.2431 244.136 86.2431C245.993 86.2431 247.775 85.5053 249.088 84.1918C250.402 82.8784 251.14 81.0969 251.14 79.2394C251.089 76.1196 249.128 74.9099 244.111 74.9099Z" fill="#455A64"/>
<path d="M265.134 87.5165C262.938 87.5165 260.831 86.6449 259.277 85.093C257.723 83.5411 256.848 81.4358 256.844 79.2394C256.844 73.611 262.651 73.611 265.134 73.611C267.617 73.611 273.411 73.611 273.411 79.2394C273.408 81.4336 272.535 83.537 270.983 85.0885C269.432 86.64 267.328 87.5132 265.134 87.5165ZM265.134 74.9099C260.117 74.9099 258.156 76.1833 258.156 79.2394C258.156 81.0969 258.894 82.8784 260.207 84.1918C261.521 85.5053 263.302 86.2431 265.16 86.2431C267.017 86.2431 268.799 85.5053 270.112 84.1918C271.426 82.8784 272.163 81.0969 272.163 79.2394C272.113 76.1196 270.151 74.9099 265.134 74.9099Z" fill="#455A64"/>
<path d="M253.674 76.5653L254.081 92.0371L262.218 89.5158L253.674 76.5653Z" fill="#F28F8F"/>
<path d="M245.804 107.573C239.896 106.796 227.735 103.307 225.837 98.4932C226.601 100.926 228.089 103.067 230.103 104.631C233.732 107.751 245.804 111.253 245.804 111.253V107.573Z" fill="#F28F8F"/>
<path d="M246.097 69.0522L240.698 72.3503C240.272 71.6091 240.149 70.7325 240.353 69.9025C240.557 69.0726 241.072 68.353 241.793 67.8935C242.149 67.6773 242.545 67.5356 242.958 67.477C243.37 67.4183 243.791 67.4439 244.193 67.5522C244.595 67.6606 244.971 67.8493 245.299 68.1072C245.626 68.365 245.898 68.6865 246.097 69.0522Z" fill="#263238"/>
<path d="M268.063 72.7196L262.053 70.6185C262.169 70.2202 262.366 69.8499 262.63 69.5303C262.895 69.2107 263.222 68.9487 263.592 68.7602C263.962 68.5718 264.366 68.4609 264.78 68.4345C265.194 68.4081 265.61 68.4666 266 68.6066C266.806 68.8962 267.47 69.4849 267.854 70.2506C268.238 71.0163 268.313 71.9003 268.063 72.7196Z" fill="#263238"/>
<path d="M251.738 79.9016C251.652 79.9016 251.566 79.8844 251.487 79.851C251.407 79.8175 251.335 79.7686 251.274 79.7069C251.214 79.6452 251.166 79.5721 251.134 79.4919C251.103 79.4116 251.087 79.3258 251.089 79.2394C251.089 78.1825 253.177 77.4949 255.062 77.4949C256.946 77.4949 258.156 78.1825 258.156 79.2394C258.117 79.3778 258.033 79.4995 257.918 79.5862C257.803 79.6728 257.663 79.7197 257.519 79.7197C257.376 79.7197 257.236 79.6728 257.121 79.5862C257.006 79.4995 256.922 79.3778 256.883 79.2394C256.883 79.1121 256.233 78.7937 255.1 78.7937C254.187 78.7743 253.28 78.9299 252.426 79.2522C252.426 79.3408 252.408 79.4284 252.373 79.5098C252.338 79.5912 252.287 79.6646 252.222 79.7254C252.158 79.7863 252.082 79.8333 251.998 79.8636C251.915 79.8939 251.827 79.9068 251.738 79.9016Z" fill="#455A64"/>
<path d="M236.496 79.3413H236.419L221.864 78.0679C221.184 77.3938 220.374 76.8652 219.483 76.5143L236.572 78.0934C236.743 78.1157 236.899 78.2041 237.006 78.3397C237.113 78.4753 237.163 78.6474 237.145 78.8192C237.115 78.9686 237.034 79.1027 236.915 79.1981C236.796 79.2936 236.648 79.3442 236.496 79.3413Z" fill="#455A64"/>
<path d="M176.735 94.5202C181.498 88.1532 184.745 83.3525 189.087 77.966C191.557 74.8717 193.136 72.656 195.454 69.4852C197.084 67.295 198.001 65.4485 199.86 64.7736C201.869 63.9506 203.679 62.7091 205.17 61.1317C206.087 60.1176 206.937 59.0457 207.717 57.9227C210.446 54.2491 213.688 50.9857 217.344 48.2322C221.164 45.3543 225.43 43.1386 229.365 40.4008C231.708 38.7581 234.216 36.033 231.364 33.4862C230.489 32.7494 229.442 32.2457 228.32 32.0218C221.38 30.5192 215.344 32.9005 208.557 34.6323C205.609 35.3681 202.726 36.3434 199.936 37.5484C198.564 38.091 197.278 38.8287 196.116 39.7386C194.492 41.3759 193.161 43.2796 192.181 45.367C189.214 50.6644 182.847 55.4014 178.39 59.5909C173.182 64.4935 168.522 68.9886 162.575 74.3878C157.227 79.2649 151.993 83.7473 147.09 89.0701C143.028 93.4633 144.543 96.9015 145.078 98.0985C148.389 104.898 152.095 107.343 156.539 111.558C164.179 118.855 190.602 139.853 199.351 146.793C201.23 148.27 202.706 150.197 203.642 152.396L205.323 156.28C215.306 158.114 221.966 143.126 213.702 125.082C212.333 122.164 210.242 119.644 207.628 117.76C197.186 110.158 176.735 94.5202 176.735 94.5202Z" fill="#FFA8A7"/>
<path d="M176.735 94.5202C173.557 98.4293 169.323 101.342 164.536 102.912C164.536 102.912 170.903 104.542 179.626 96.7104L176.735 94.5202Z" fill="#F28F8F"/>
<path d="M306.189 187.287L304.559 185.887C304.315 185.726 304.037 185.625 303.747 185.592C303.458 185.559 303.164 185.594 302.891 185.696L285.203 190.509C284.312 190.806 283.496 191.292 282.81 191.934C282.124 192.576 281.585 193.358 281.23 194.227L268.496 230.939C268.343 231.239 268.283 231.577 268.323 231.911C268.364 232.244 268.504 232.558 268.725 232.811L270.406 234.263C270.651 234.432 270.933 234.538 271.228 234.574C271.523 234.609 271.822 234.573 272.1 234.467L289.813 229.653C290.704 229.356 291.52 228.87 292.206 228.228C292.891 227.587 293.43 226.804 293.786 225.935C296.333 218.715 303.973 196.443 306.52 189.223C306.825 188.319 306.673 187.631 306.189 187.287Z" fill="#455A64"/>
<path d="M270.164 232.353L282.898 195.641C283.252 194.772 283.791 193.991 284.477 193.351C285.163 192.711 285.98 192.228 286.871 191.935L304.546 187.122C306.189 186.676 307.093 187.618 306.507 189.223C303.96 196.443 296.32 218.715 293.773 225.935C293.418 226.804 292.879 227.587 292.193 228.228C291.507 228.87 290.691 229.356 289.8 229.653L272.125 234.518C270.495 234.9 269.617 233.957 270.164 232.353Z" fill="#FF7A00"/>
<path d="M284.948 192.954C284.029 193.65 283.316 194.583 282.886 195.654L270.152 232.353C270.006 232.644 269.945 232.971 269.977 233.295C270.008 233.62 270.131 233.929 270.33 234.187L268.751 232.837C268.525 232.587 268.38 232.273 268.337 231.939C268.294 231.604 268.354 231.264 268.509 230.965L281.243 194.253C281.646 193.255 282.299 192.377 283.14 191.706L284.948 192.954Z" fill="#37474F"/>
<path d="M301.337 204.02C300.064 207.751 295.645 210.247 288.336 211.978C281.026 213.71 276.99 221.465 278.148 223.821C279.307 226.177 291.124 228.38 295.849 227.705C300.573 227.03 305.31 220.205 306.749 218.091C308.188 215.977 309.843 201.231 308.328 199.206C306.813 197.182 303.616 197.5 303.616 197.5L301.337 204.02Z" fill="#F28F8F"/>
</svg>
