<svg width="667" height="622" viewBox="0 0 667 622" fill="none" xmlns="http://www.w3.org/2000/svg">
<path d="M333.5 621.511C517.687 621.511 667 535.318 667 428.994C667 322.669 517.687 236.476 333.5 236.476C149.313 236.476 0 322.669 0 428.994C0 535.318 149.313 621.511 333.5 621.511Z" fill="#F5F5F5"/>
<path d="M553.945 516.166C599.991 516.166 637.32 494.611 637.32 468.022C637.32 441.433 599.991 419.878 553.945 419.878C507.898 419.878 470.57 441.433 470.57 468.022C470.57 494.611 507.898 516.166 553.945 516.166Z" fill="#E0E0E0"/>
<path d="M255.444 572.034L48.5932 452.616C45.202 450.66 45.202 447.486 48.5932 445.515L347.63 272.881C349.533 271.909 351.639 271.403 353.775 271.403C355.911 271.403 358.017 271.909 359.92 272.881L566.712 392.27C570.104 394.226 570.104 397.4 566.712 399.357L267.733 572.034C265.829 572.999 263.724 573.502 261.589 573.502C259.453 573.502 257.348 572.999 255.444 572.034Z" fill="#E0E0E0"/>
<path d="M596.031 440.414C594.248 428.182 598.813 381.589 609.175 363.85C619.537 346.111 636.711 327.503 651.667 330.286C665.522 332.865 666.623 350.401 652.276 364.212C637.928 378.024 615.958 395.951 611.813 416.82L600.509 452.341L596.031 440.414Z" fill="#0085A6"/>
<path opacity="0.1" d="M596.031 440.414C594.248 428.182 598.813 381.589 609.175 363.85C619.537 346.111 636.711 327.503 651.667 330.286C665.522 332.865 666.623 350.401 652.276 364.212C637.928 378.024 615.958 395.951 611.813 416.82L600.509 452.341L596.031 440.414Z" fill="black"/>
<path d="M599.349 436.573C599.538 436.523 599.706 436.412 599.826 436.258C599.946 436.103 600.013 435.914 600.016 435.718C600.654 392.734 628.146 352.908 646.899 341.822C647.105 341.701 647.254 341.503 647.314 341.272C647.373 341.041 647.339 340.795 647.218 340.59C647.097 340.384 646.899 340.235 646.668 340.175C646.437 340.115 646.192 340.15 645.986 340.271C626.87 351.575 598.857 392.052 598.161 435.689C598.159 435.807 598.18 435.924 598.224 436.034C598.267 436.144 598.332 436.244 598.414 436.329C598.496 436.414 598.594 436.481 598.702 436.528C598.81 436.575 598.927 436.6 599.045 436.602C599.147 436.616 599.251 436.606 599.349 436.573Z" fill="white"/>
<path d="M606.074 459.008C607.03 451.848 612.045 439.501 623.378 427.269C637.261 412.284 660.304 404.081 663.522 395.386C667.362 384.922 658.58 377.778 643.595 382.546C623.465 388.951 601.001 414.081 601.291 446.414L606.074 459.008Z" fill="#0085A6"/>
<path d="M602.03 452.24C602.199 452.197 602.352 452.108 602.473 451.982C602.593 451.857 602.676 451.7 602.712 451.53C610.306 413.849 640.682 393.632 653.087 390.154C653.317 390.102 653.519 389.963 653.648 389.765C653.778 389.568 653.826 389.328 653.783 389.096C653.753 388.98 653.7 388.872 653.627 388.778C653.554 388.683 653.462 388.604 653.358 388.546C653.254 388.488 653.139 388.451 653.02 388.439C652.901 388.426 652.781 388.438 652.667 388.473C638.957 392.313 608.755 412.82 601.016 451.24C600.993 451.356 600.993 451.475 601.016 451.591C601.039 451.708 601.085 451.818 601.151 451.916C601.217 452.015 601.302 452.099 601.4 452.164C601.499 452.23 601.61 452.275 601.726 452.298C601.83 452.298 601.934 452.278 602.03 452.24Z" fill="white"/>
<path d="M183.228 34.6401L172.199 41.0168C172.256 40.5358 172.285 40.0519 172.286 39.5675V36.3792C172.286 30.6837 168.286 28.3794 163.359 31.2199C161.244 32.5303 159.432 34.2739 158.04 36.3357C157.243 29.1764 151.62 26.5098 144.808 30.4518C137.432 34.7125 131.446 45.0602 131.446 53.6397V58.4222C131.404 60.3289 131.79 62.2208 132.577 63.9583L123.359 69.1756C121.917 70.1149 120.716 71.3814 119.854 72.8722C118.993 74.3629 118.496 76.0359 118.403 77.7551C118.403 80.9144 120.62 82.1898 123.359 80.6536L183.17 46.1181C184.611 45.1802 185.81 43.916 186.672 42.4279C187.533 40.9398 188.031 39.2697 188.126 37.5531C188.184 34.3502 185.967 33.0604 183.228 34.6401Z" fill="#E6E6E6"/>
<path d="M43.854 48.8861L49.9409 44.176V30.785C49.9409 20.1476 58.4189 7.80002 67.6216 2.48129C76.8388 -2.83743 84.3024 1.48132 84.3024 12.1188V14.0608C86.2407 10.9108 88.8915 8.26005 92.0414 6.32179C98.6644 2.49579 104.041 5.59717 104.041 13.2492V14.1332L112.534 9.23477C116.881 6.71308 120.432 8.75652 120.432 13.7999C120.282 16.5403 119.489 19.2068 118.117 21.5836C116.745 23.9604 114.832 25.9806 112.534 27.4808L43.854 67.132C39.5063 69.6537 35.9412 67.6103 35.9412 62.5669C36.0859 59.8237 36.8784 57.1537 38.2537 54.7757C39.6291 52.3977 41.5483 50.3794 43.854 48.8861Z" fill="#E6E6E6"/>
<path d="M61.3611 436.182C61.5265 438.432 62.2186 440.612 63.3817 442.545C64.5448 444.479 66.1462 446.112 68.0566 447.312L255.719 555.658C257.797 556.708 260.093 557.256 262.422 557.256C264.751 557.256 267.047 556.708 269.125 555.658L547.249 395.096C549.268 394.024 550.958 392.422 552.136 390.462C553.314 388.503 553.936 386.259 553.936 383.973C553.936 381.686 553.314 379.443 552.136 377.484C550.958 375.524 549.268 373.922 547.249 372.85L359.586 264.461C357.51 263.404 355.214 262.852 352.884 262.852C350.554 262.852 348.257 263.404 346.181 264.461L68.0566 425.066C66.1465 426.264 64.545 427.894 63.3819 429.825C62.2187 431.756 61.5264 433.934 61.3611 436.182Z" fill="#37474F"/>
<path d="M262.487 542.716V557.208C260.155 557.261 257.85 556.712 255.792 555.614L68.0566 447.312C66.0957 446.277 64.444 444.741 63.2696 442.86C62.0952 440.979 61.4401 438.821 61.3709 436.605C61.3017 434.388 61.8208 432.193 62.8756 430.243C63.9303 428.293 65.483 426.656 67.3755 425.501C64.3756 427.646 64.6074 430.805 68.0566 432.747L255.734 541.107C257.807 542.22 260.135 542.774 262.487 542.716Z" fill="#263238"/>
<path d="M55.0714 425.327C53.2069 424.059 51.6672 422.369 50.577 420.395C49.4868 418.421 48.8767 416.219 48.7961 413.965V189.984C48.9234 187.662 49.5959 185.402 50.7591 183.388C51.9224 181.373 53.5436 179.661 55.4916 178.39L333.616 17.8287C335.617 16.7643 337.842 16.1872 340.108 16.1444C342.375 16.1016 344.619 16.5943 346.659 17.5823C348.521 18.8531 350.059 20.5431 351.149 22.5165C352.239 24.4899 352.85 26.6916 352.934 28.9444V252.867C352.808 255.19 352.136 257.45 350.973 259.465C349.81 261.479 348.188 263.191 346.239 264.461L68.0566 425.066C66.0641 426.124 63.8507 426.699 61.5951 426.745C59.3394 426.79 57.1047 426.304 55.0714 425.327Z" fill="#455A64"/>
<path d="M67.274 425.472C65.3497 426.332 63.261 426.762 61.1535 426.732C59.046 426.702 56.9703 426.213 55.0714 425.298C53.2069 424.03 51.6672 422.34 50.577 420.366C49.4868 418.393 48.8767 416.19 48.7961 413.936V189.984C48.8701 187.653 49.5493 185.38 50.7671 183.39L63.3176 190.637C62.1186 192.629 61.4454 194.893 61.3611 197.216V421.197C61.3611 425.153 63.9407 426.936 67.274 425.472Z" fill="#263238"/>
<path d="M61.3611 197.245V421.197C61.3611 425.544 64.361 427.197 68.0566 425.066L346.181 264.461C348.13 263.191 349.752 261.479 350.915 259.464C352.078 257.45 352.75 255.19 352.876 252.867V28.9443C352.876 24.6835 349.891 22.9444 346.181 25.0893L68.0566 185.637C66.1083 186.911 64.487 188.625 63.3239 190.642C62.1608 192.659 61.4884 194.92 61.3611 197.245Z" fill="#37474F"/>
<path d="M68.0566 432.791L255.719 541.151C257.797 542.201 260.093 542.749 262.422 542.749C264.751 542.749 267.047 542.201 269.125 541.151L547.249 380.589C550.945 378.444 550.945 374.98 547.249 372.85L359.586 264.461C357.51 263.404 355.214 262.852 352.884 262.852C350.554 262.852 348.257 263.404 346.181 264.461L68.0566 425.066C64.361 427.197 64.361 430.66 68.0566 432.791Z" fill="#455A64"/>
<path d="M71.6651 194.245L340.572 39.031C342.79 37.7557 344.601 38.7991 344.601 41.3643V247.983C344.524 249.378 344.119 250.734 343.419 251.943C342.719 253.152 341.743 254.178 340.572 254.939L71.6651 410.153C69.4478 411.429 67.6362 410.385 67.6362 407.82V201.201C67.7137 199.807 68.1188 198.45 68.8188 197.241C69.5189 196.033 70.494 195.006 71.6651 194.245Z" fill="#0085A6"/>
<path opacity="0.4" d="M71.6651 194.245L340.572 39.031C342.79 37.7557 344.601 38.7991 344.601 41.3643V247.983C344.524 249.378 344.119 250.734 343.419 251.943C342.719 253.152 341.743 254.178 340.572 254.939L71.6651 410.153C69.4478 411.429 67.6362 410.385 67.6362 407.82V201.201C67.7137 199.807 68.1188 198.45 68.8188 197.241C69.5189 196.033 70.494 195.006 71.6651 194.245Z" fill="black"/>
<path d="M89.8387 426.994L349.543 277.084C350.58 276.555 351.727 276.279 352.891 276.279C354.055 276.279 355.202 276.555 356.239 277.084L368.427 284.113C370.267 285.185 370.267 286.91 368.427 287.982L108.693 437.878C107.657 438.407 106.509 438.683 105.346 438.683C104.182 438.683 103.034 438.407 101.998 437.878L89.8387 430.863C87.9981 429.791 87.9981 428.066 89.8387 426.994Z" fill="#37474F"/>
<path d="M121.258 445.138L380.948 295.214C381.985 294.685 383.132 294.409 384.296 294.409C385.46 294.409 386.607 294.685 387.644 295.214L462.628 338.503C464.483 339.575 464.483 341.314 462.628 342.372L203.213 492.108C202.173 492.633 201.023 492.906 199.858 492.906C198.693 492.906 197.544 492.633 196.503 492.108L121.273 448.993C119.418 447.935 119.403 446.196 121.258 445.138Z" fill="#263238"/>
<path d="M349.442 358.966L357.615 354.242C357.963 354.039 357.978 353.72 357.615 353.517L349.036 348.517C348.841 348.425 348.628 348.376 348.413 348.376C348.197 348.376 347.984 348.425 347.79 348.517L339.601 353.242C339.268 353.445 339.254 353.764 339.601 353.952L348.297 358.937C348.476 359.02 348.669 359.065 348.866 359.07C349.063 359.075 349.259 359.039 349.442 358.966ZM335.428 341.43L327.254 346.155C327.18 346.181 327.117 346.229 327.072 346.293C327.027 346.356 327.003 346.432 327.003 346.51C327.003 346.588 327.027 346.664 327.072 346.727C327.117 346.791 327.18 346.839 327.254 346.865L335.949 351.851C336.144 351.943 336.357 351.991 336.572 351.991C336.788 351.991 337.001 351.943 337.196 351.851L345.384 347.126C345.463 347.104 345.532 347.056 345.581 346.991C345.63 346.925 345.657 346.846 345.657 346.764C345.657 346.682 345.63 346.602 345.581 346.537C345.532 346.471 345.463 346.424 345.384 346.401L336.688 341.416C336.495 341.328 336.284 341.283 336.071 341.286C335.858 341.288 335.648 341.338 335.457 341.43H335.428ZM309.008 356.677L295.182 364.662C294.834 364.865 294.82 365.198 295.182 365.386L303.877 370.372C304.072 370.465 304.285 370.513 304.501 370.513C304.716 370.513 304.929 370.465 305.124 370.372L318.964 362.387C319.312 362.184 319.312 361.865 318.964 361.662L310.269 356.691C310.079 356.591 309.869 356.537 309.654 356.535C309.44 356.532 309.229 356.581 309.037 356.677H309.008ZM323.5 348.329L315.312 353.053C314.964 353.256 314.964 353.575 315.312 353.764L324.007 358.749C324.202 358.842 324.415 358.89 324.631 358.89C324.846 358.89 325.059 358.842 325.254 358.749L333.428 354.024C333.775 353.821 333.775 353.503 333.428 353.3L324.732 348.314C324.542 348.222 324.333 348.176 324.122 348.178C323.91 348.181 323.703 348.232 323.515 348.329H323.5ZM291.472 366.85L283.298 371.56C282.95 371.763 282.95 372.096 283.298 372.285L291.994 377.27C292.188 377.363 292.401 377.411 292.617 377.411C292.832 377.411 293.045 377.363 293.24 377.27L301.414 372.56C301.762 372.357 301.762 372.038 301.414 371.836L292.718 366.85C292.524 366.757 292.311 366.709 292.095 366.709C291.88 366.709 291.667 366.757 291.472 366.85ZM279.53 373.749L271.342 378.473C271.269 378.499 271.205 378.547 271.16 378.611C271.115 378.674 271.091 378.75 271.091 378.828C271.091 378.906 271.115 378.982 271.16 379.045C271.205 379.109 271.269 379.157 271.342 379.183L279.878 384.169C280.07 384.269 280.284 384.321 280.501 384.321C280.718 384.321 280.932 384.269 281.124 384.169L289.298 379.459C289.646 379.256 289.646 378.937 289.298 378.734L280.675 373.749C280.488 373.665 280.286 373.621 280.081 373.621C279.876 373.621 279.674 373.665 279.487 373.749H279.53ZM313.414 394.038L321.587 389.313C321.935 389.111 321.935 388.792 321.587 388.603L312.964 383.618C312.77 383.525 312.557 383.477 312.341 383.477C312.125 383.477 311.913 383.525 311.718 383.618L303.53 388.342C303.451 388.365 303.382 388.412 303.332 388.478C303.283 388.543 303.256 388.623 303.256 388.705C303.256 388.787 303.283 388.866 303.332 388.932C303.382 388.997 303.451 389.045 303.53 389.067L312.153 394.053C312.344 394.139 312.553 394.182 312.763 394.179C312.973 394.177 313.18 394.129 313.37 394.038H313.414ZM301.457 400.936L309.645 396.212C309.993 396.009 309.993 395.69 309.645 395.502L300.979 390.545C300.784 390.453 300.571 390.405 300.356 390.405C300.14 390.405 299.927 390.453 299.733 390.545L291.559 395.27C291.211 395.473 291.211 395.792 291.559 395.994L300.182 400.98C300.378 401.064 300.59 401.103 300.803 401.096C301.016 401.088 301.224 401.034 301.414 400.936H301.457ZM289.515 407.835L297.689 403.11C297.763 403.084 297.826 403.036 297.871 402.973C297.916 402.909 297.94 402.833 297.94 402.755C297.94 402.677 297.916 402.601 297.871 402.538C297.826 402.474 297.763 402.426 297.689 402.4L288.994 397.415C288.801 397.314 288.588 397.262 288.371 397.262C288.154 397.262 287.94 397.314 287.747 397.415L279.603 402.139C279.255 402.342 279.255 402.661 279.603 402.864L288.298 407.849C288.484 407.929 288.684 407.969 288.887 407.966C289.089 407.964 289.288 407.919 289.472 407.835H289.515ZM277.559 414.733L285.733 410.009C286.081 409.82 286.095 409.487 285.733 409.299L277.037 404.313C276.843 404.22 276.63 404.172 276.414 404.172C276.199 404.172 275.986 404.22 275.791 404.313L267.617 409.023C267.27 409.226 267.255 409.545 267.617 409.748L276.24 414.733C276.439 414.83 276.657 414.881 276.878 414.881C277.099 414.881 277.317 414.83 277.516 414.733H277.559ZM337.514 365.908L345.703 361.184C345.781 361.161 345.851 361.114 345.9 361.048C345.949 360.983 345.976 360.903 345.976 360.821C345.976 360.739 345.949 360.66 345.9 360.594C345.851 360.529 345.781 360.482 345.703 360.459L337.007 355.488C336.815 355.388 336.601 355.335 336.384 355.335C336.167 355.335 335.953 355.388 335.761 355.488L327.703 360.111C327.355 360.314 327.355 360.633 327.703 360.821L336.326 365.807C336.506 365.907 336.704 365.968 336.909 365.985C337.114 366.003 337.321 365.977 337.514 365.908ZM325.326 387.183L343.558 376.647C343.906 376.444 343.906 376.125 343.558 375.937L322.602 363.836C322.407 363.743 322.194 363.695 321.979 363.695C321.763 363.695 321.55 363.743 321.355 363.836L311.921 369.285C311.573 369.488 311.573 369.807 311.921 370.01L323.022 376.415C323.095 376.441 323.159 376.489 323.204 376.553C323.249 376.617 323.273 376.692 323.273 376.77C323.273 376.848 323.249 376.924 323.204 376.988C323.159 377.051 323.095 377.099 323.022 377.125L315.471 381.473C315.124 381.676 315.124 381.995 315.471 382.198L324.167 387.169C324.35 387.25 324.549 387.29 324.75 387.285C324.95 387.28 325.147 387.23 325.326 387.14V387.183ZM267.53 380.69L259.357 385.415C259.283 385.441 259.22 385.489 259.175 385.553C259.13 385.616 259.106 385.692 259.106 385.77C259.106 385.848 259.13 385.924 259.175 385.987C259.22 386.051 259.283 386.099 259.357 386.125L267.98 391.111C268.174 391.203 268.387 391.251 268.603 391.251C268.819 391.251 269.031 391.203 269.226 391.111L277.414 386.386C277.493 386.364 277.562 386.316 277.612 386.251C277.661 386.185 277.688 386.106 277.688 386.024C277.688 385.942 277.661 385.862 277.612 385.797C277.562 385.731 277.493 385.684 277.414 385.661L268.791 380.676C268.597 380.576 268.383 380.522 268.164 380.517C267.946 380.512 267.729 380.557 267.53 380.647V380.69ZM255.589 387.589L247.4 392.313C247.053 392.516 247.053 392.835 247.4 393.024L256.096 398.009C256.291 398.102 256.503 398.15 256.719 398.15C256.935 398.15 257.148 398.102 257.342 398.009L265.516 393.284C265.864 393.082 265.864 392.763 265.516 392.56L256.821 387.574C256.632 387.473 256.422 387.418 256.208 387.413C255.994 387.408 255.782 387.453 255.589 387.545V387.589ZM192.619 463.008C192.814 463.1 193.027 463.148 193.242 463.148C193.458 463.148 193.671 463.1 193.865 463.008L202.039 458.283C202.387 458.08 202.401 457.761 202.039 457.558L193.344 452.587C193.151 452.487 192.937 452.435 192.72 452.435C192.503 452.435 192.29 452.487 192.097 452.587L183.924 457.312C183.576 457.515 183.561 457.834 183.924 458.022L192.619 463.008ZM159.982 442.718L151.808 447.428C151.461 447.631 151.446 447.95 151.808 448.153L160.431 453.138C160.626 453.231 160.839 453.279 161.055 453.279C161.27 453.279 161.483 453.231 161.678 453.138L169.851 448.414C170.199 448.225 170.214 447.892 169.851 447.704L161.156 442.718C160.973 442.63 160.772 442.584 160.569 442.584C160.366 442.584 160.165 442.63 159.982 442.718ZM177.156 457.703C177.348 457.804 177.562 457.856 177.779 457.856C177.996 457.856 178.21 457.804 178.402 457.703L186.576 452.979C186.924 452.776 186.924 452.457 186.576 452.269L177.88 447.283C177.688 447.183 177.474 447.13 177.257 447.13C177.04 447.13 176.826 447.183 176.634 447.283L168.46 452.008C168.112 452.211 168.112 452.529 168.46 452.732L177.156 457.703ZM212.488 466.486L220.662 461.761C220.735 461.735 220.799 461.687 220.844 461.623C220.888 461.56 220.913 461.484 220.913 461.406C220.913 461.328 220.888 461.252 220.844 461.189C220.799 461.125 220.735 461.077 220.662 461.051L211.966 456.066C211.772 455.973 211.559 455.925 211.343 455.925C211.128 455.925 210.915 455.973 210.72 456.066L202.546 460.776C202.199 460.979 202.199 461.297 202.546 461.5L211.242 466.486C211.434 466.583 211.646 466.636 211.862 466.641C212.077 466.646 212.291 466.603 212.488 466.515V466.486ZM199.286 473.399C199.48 473.491 199.693 473.539 199.909 473.539C200.124 473.539 200.337 473.491 200.532 473.399L208.706 468.674C209.053 468.486 209.068 468.152 208.706 467.964L200.17 463.008C199.975 462.915 199.762 462.867 199.546 462.867C199.331 462.867 199.118 462.915 198.923 463.008L190.75 467.718C190.402 467.92 190.387 468.239 190.75 468.442L199.286 473.399ZM171.938 435.805L163.75 440.53C163.671 440.552 163.602 440.6 163.553 440.665C163.503 440.731 163.477 440.81 163.477 440.892C163.477 440.974 163.503 441.054 163.553 441.119C163.602 441.184 163.671 441.232 163.75 441.254L172.373 446.24C172.568 446.332 172.781 446.381 172.996 446.381C173.212 446.381 173.425 446.332 173.619 446.24L181.793 441.515C182.141 441.312 182.141 440.993 181.793 440.805L173.098 435.82C172.915 435.737 172.717 435.695 172.516 435.697C172.316 435.7 172.119 435.747 171.938 435.834V435.805ZM231.676 401.313L223.502 406.038C223.155 406.241 223.155 406.559 223.502 406.748L232.198 411.733C232.39 411.834 232.604 411.886 232.821 411.886C233.038 411.886 233.252 411.834 233.444 411.733L241.618 407.009C241.966 406.806 241.966 406.487 241.618 406.284L232.923 401.313C232.728 401.217 232.513 401.17 232.296 401.175C232.079 401.18 231.866 401.237 231.676 401.342V401.313ZM183.851 428.849L175.677 433.573C175.33 433.776 175.33 434.095 175.677 434.298L184.3 439.269C184.493 439.369 184.707 439.422 184.924 439.422C185.141 439.422 185.354 439.369 185.547 439.269L193.735 434.544C194.083 434.341 194.083 434.023 193.735 433.834L185.112 428.849C184.913 428.772 184.699 428.74 184.486 428.755C184.273 428.77 184.066 428.831 183.88 428.936L183.851 428.849ZM243.647 394.444L235.459 399.241C235.111 399.444 235.096 399.763 235.459 399.951L244.082 404.936C244.274 405.037 244.488 405.089 244.705 405.089C244.922 405.089 245.136 405.037 245.328 404.936L253.502 400.212C253.85 400.009 253.864 399.69 253.502 399.487L244.806 394.516C244.631 394.418 244.435 394.361 244.235 394.349C244.034 394.336 243.833 394.369 243.647 394.444ZM219.749 408.241L211.575 412.965C211.227 413.168 211.213 413.487 211.575 413.69L220.271 418.661C220.463 418.761 220.677 418.813 220.894 418.813C221.111 418.813 221.325 418.761 221.517 418.661L229.691 413.936C230.039 413.733 230.053 413.414 229.691 413.212L221.068 408.241C220.865 408.125 220.635 408.064 220.401 408.064C220.167 408.064 219.938 408.125 219.734 408.241H219.749ZM207.778 415.182L199.604 419.907C199.257 420.11 199.257 420.429 199.604 420.632L208.3 425.603C208.492 425.703 208.706 425.755 208.923 425.755C209.14 425.755 209.354 425.703 209.546 425.603L217.72 420.878C218.068 420.675 218.068 420.356 217.72 420.168L209.024 415.182C208.832 415.082 208.618 415.03 208.401 415.03C208.184 415.03 207.971 415.082 207.778 415.182ZM195.822 422.037L187.663 426.776C187.315 426.979 187.3 427.298 187.663 427.501L196.286 432.472C196.478 432.572 196.692 432.625 196.909 432.625C197.126 432.625 197.34 432.572 197.532 432.472L205.706 427.747C206.054 427.545 206.068 427.226 205.706 427.037L197.083 422.052C196.887 421.955 196.672 421.903 196.454 421.9C196.236 421.898 196.02 421.945 195.822 422.037ZM253.603 428.53L261.777 423.82C262.125 423.617 262.139 423.298 261.777 423.095L253.183 418.081C252.988 417.988 252.775 417.94 252.56 417.94C252.344 417.94 252.131 417.988 251.937 418.081L243.763 422.791C243.415 422.994 243.401 423.313 243.763 423.516L252.458 428.501C252.639 428.585 252.835 428.632 253.035 428.637C253.234 428.642 253.433 428.605 253.618 428.53H253.603ZM361.862 326.184L353.688 330.894C353.34 331.097 353.326 331.416 353.688 331.619L362.311 336.604C362.506 336.697 362.719 336.745 362.934 336.745C363.15 336.745 363.363 336.697 363.557 336.604L371.731 331.88C372.079 331.692 372.093 331.358 371.731 331.17L363.108 326.184C362.918 326.087 362.706 326.035 362.492 326.035C362.278 326.035 362.067 326.087 361.876 326.184H361.862ZM347.369 334.532L339.297 339.257C339.224 339.283 339.16 339.331 339.115 339.394C339.07 339.458 339.046 339.534 339.046 339.612C339.046 339.689 339.07 339.765 339.115 339.829C339.16 339.893 339.224 339.941 339.297 339.967L347.92 344.952C348.115 345.045 348.328 345.093 348.543 345.093C348.759 345.093 348.972 345.045 349.166 344.952L357.34 340.242C357.688 340.039 357.688 339.72 357.34 339.517L348.645 334.532C348.452 334.442 348.242 334.395 348.029 334.395C347.816 334.395 347.606 334.442 347.413 334.532H347.369ZM373.775 319.272L365.601 323.996C365.253 324.199 365.253 324.518 365.601 324.721L374.296 329.706C374.491 329.799 374.704 329.847 374.919 329.847C375.135 329.847 375.348 329.799 375.543 329.706L383.716 324.982C384.064 324.779 384.064 324.46 383.716 324.271L375.021 319.286C374.833 319.198 374.629 319.151 374.421 319.148C374.213 319.146 374.008 319.188 373.818 319.272H373.775ZM309.848 381.85L318.022 377.125C318.095 377.099 318.159 377.051 318.204 376.988C318.249 376.924 318.273 376.848 318.273 376.77C318.273 376.692 318.249 376.617 318.204 376.553C318.159 376.489 318.095 376.441 318.022 376.415L309.327 371.43C309.132 371.337 308.919 371.289 308.703 371.289C308.488 371.289 308.275 371.337 308.08 371.43L299.892 376.154C299.813 376.177 299.744 376.224 299.695 376.29C299.645 376.355 299.619 376.435 299.619 376.517C299.619 376.599 299.645 376.678 299.695 376.744C299.744 376.809 299.813 376.856 299.892 376.879L308.515 381.864C308.722 381.969 308.951 382.022 309.184 382.02C309.416 382.017 309.644 381.959 309.848 381.85ZM387.021 312.388C386.826 312.295 386.613 312.247 386.397 312.247C386.182 312.247 385.969 312.295 385.774 312.388L377.601 317.112C377.253 317.315 377.238 317.634 377.601 317.837L386.224 322.822C386.418 322.915 386.631 322.963 386.847 322.963C387.062 322.963 387.275 322.915 387.47 322.822L395.644 318.098C395.991 317.895 396.006 317.576 395.644 317.387L387.021 312.388ZM265.574 421.646L273.748 416.936C274.096 416.733 274.096 416.4 273.748 416.211L265.052 411.226C264.858 411.133 264.645 411.085 264.429 411.085C264.213 411.085 264.001 411.133 263.806 411.226L255.632 415.936C255.284 416.139 255.284 416.458 255.632 416.661L264.328 421.646C264.523 421.737 264.737 421.782 264.952 421.78C265.168 421.777 265.38 421.727 265.574 421.632V421.646ZM412.107 337.039L420.295 332.315C420.369 332.289 420.432 332.241 420.477 332.177C420.522 332.113 420.546 332.037 420.546 331.96C420.546 331.882 420.522 331.806 420.477 331.742C420.432 331.679 420.369 331.631 420.295 331.605L411.6 326.619C411.405 326.526 411.192 326.478 410.977 326.478C410.761 326.478 410.548 326.526 410.353 326.619L402.18 331.329C401.832 331.532 401.832 331.851 402.18 332.054L410.875 337.039C411.067 337.134 411.279 337.182 411.493 337.179C411.707 337.177 411.917 337.124 412.107 337.025V337.039ZM387.832 336.822L396.02 332.097C396.094 332.071 396.157 332.023 396.202 331.96C396.247 331.896 396.271 331.82 396.271 331.742C396.271 331.664 396.247 331.589 396.202 331.525C396.157 331.461 396.094 331.413 396.02 331.387L387.397 326.402C387.203 326.309 386.99 326.261 386.774 326.261C386.559 326.261 386.346 326.309 386.151 326.402L377.977 331.126C377.63 331.329 377.615 331.648 377.977 331.851L386.6 336.836C386.795 336.922 387.007 336.964 387.219 336.959C387.432 336.954 387.642 336.902 387.832 336.807V336.822ZM399.339 319.532C399.148 319.436 398.937 319.385 398.723 319.385C398.509 319.385 398.298 319.436 398.107 319.532L389.919 324.257C389.84 324.279 389.771 324.327 389.722 324.392C389.672 324.458 389.646 324.537 389.646 324.619C389.646 324.701 389.672 324.781 389.722 324.846C389.771 324.912 389.84 324.959 389.919 324.982L398.542 329.967C398.737 330.06 398.95 330.108 399.165 330.108C399.381 330.108 399.594 330.06 399.788 329.967L407.962 325.242C408.036 325.216 408.099 325.168 408.144 325.105C408.189 325.041 408.213 324.965 408.213 324.887C408.213 324.81 408.189 324.734 408.144 324.67C408.099 324.606 408.036 324.558 407.962 324.532L399.339 319.532ZM401.861 318.083L422.817 330.184C423.012 330.277 423.224 330.325 423.44 330.325C423.656 330.325 423.869 330.277 424.063 330.184L432.237 325.46C432.585 325.271 432.599 324.938 432.237 324.75L411.281 312.648C411.086 312.556 410.873 312.508 410.658 312.508C410.442 312.508 410.229 312.556 410.035 312.648L401.861 317.373C401.528 317.518 401.528 317.837 401.861 318.083ZM374.195 333.3L366.021 338.01C365.673 338.213 365.673 338.532 366.021 338.735L374.717 343.72C374.911 343.813 375.124 343.861 375.34 343.861C375.555 343.861 375.768 343.813 375.963 343.72L384.137 339.01C384.484 338.807 384.484 338.474 384.137 338.286L375.441 333.3C375.246 333.207 375.034 333.159 374.818 333.159C374.602 333.159 374.389 333.207 374.195 333.3ZM284.226 385.227L276.052 389.937C275.704 390.14 275.704 390.458 276.052 390.661L284.747 395.647C284.942 395.739 285.155 395.787 285.371 395.787C285.586 395.787 285.799 395.739 285.994 395.647L294.168 390.937C294.515 390.734 294.515 390.4 294.168 390.212L285.472 385.227C285.277 385.134 285.065 385.086 284.849 385.086C284.633 385.086 284.42 385.134 284.226 385.227ZM398.89 343.938C399.085 344.03 399.297 344.078 399.513 344.078C399.729 344.078 399.942 344.03 400.136 343.938L408.31 339.228C408.658 339.025 408.658 338.691 408.31 338.503L399.687 333.518C399.492 333.425 399.279 333.377 399.064 333.377C398.848 333.377 398.635 333.425 398.441 333.518L390.252 338.228C390.174 338.25 390.104 338.298 390.055 338.363C390.006 338.428 389.979 338.508 389.979 338.59C389.979 338.672 390.006 338.751 390.055 338.817C390.104 338.882 390.174 338.93 390.252 338.952L398.89 343.938ZM296.182 378.328L288.008 383.038C287.66 383.241 287.66 383.56 288.008 383.763L296.631 388.748C296.826 388.841 297.039 388.889 297.254 388.889C297.47 388.889 297.683 388.841 297.878 388.748L306.066 384.024C306.139 383.998 306.203 383.95 306.248 383.886C306.292 383.822 306.317 383.746 306.317 383.669C306.317 383.591 306.292 383.515 306.248 383.451C306.203 383.388 306.139 383.34 306.066 383.314L297.37 378.328C297.189 378.242 296.991 378.197 296.791 378.197C296.59 378.197 296.392 378.242 296.211 378.328H296.182ZM204.517 456.138C204.712 456.231 204.925 456.279 205.14 456.279C205.356 456.279 205.569 456.231 205.764 456.138L213.937 451.414C214.285 451.211 214.285 450.892 213.937 450.689L205.242 445.704C205.051 445.607 204.84 445.556 204.626 445.556C204.412 445.556 204.201 445.607 204.01 445.704L195.822 450.428C195.474 450.631 195.474 450.95 195.822 451.138L204.517 456.138ZM188.576 440.414L180.402 445.138C180.054 445.341 180.04 445.66 180.402 445.848L189.097 450.834C189.29 450.934 189.504 450.987 189.721 450.987C189.938 450.987 190.151 450.934 190.344 450.834L198.517 446.109C198.865 445.906 198.88 445.588 198.517 445.385L189.822 440.414C189.641 440.328 189.443 440.283 189.242 440.283C189.042 440.283 188.844 440.328 188.663 440.414H188.576ZM217.676 449.225L225.865 444.515C225.943 444.493 226.013 444.445 226.062 444.38C226.111 444.314 226.138 444.235 226.138 444.153C226.138 444.071 226.111 443.991 226.062 443.926C226.013 443.861 225.943 443.813 225.865 443.791L217.242 438.805C217.047 438.712 216.834 438.664 216.619 438.664C216.403 438.664 216.19 438.712 215.995 438.805L207.822 443.53C207.748 443.556 207.685 443.604 207.64 443.667C207.595 443.731 207.571 443.807 207.571 443.885C207.571 443.963 207.595 444.038 207.64 444.102C207.685 444.166 207.748 444.214 207.822 444.24L216.445 449.225C216.646 449.338 216.873 449.398 217.104 449.398C217.335 449.398 217.562 449.338 217.763 449.225H217.676ZM229.633 442.327L237.806 437.617C238.154 437.414 238.169 437.095 237.806 436.892L229.183 431.907C228.989 431.814 228.776 431.766 228.56 431.766C228.345 431.766 228.132 431.814 227.937 431.907L219.749 436.631C219.676 436.657 219.612 436.705 219.567 436.769C219.522 436.833 219.498 436.909 219.498 436.986C219.498 437.064 219.522 437.14 219.567 437.204C219.612 437.267 219.676 437.315 219.749 437.341L228.372 442.327C228.577 442.445 228.809 442.507 229.046 442.507C229.282 442.507 229.515 442.445 229.72 442.327H229.633ZM241.589 435.428L249.763 430.718C250.111 430.515 250.111 430.197 249.763 429.994L241.067 425.008C240.873 424.916 240.66 424.868 240.444 424.868C240.228 424.868 240.016 424.916 239.821 425.008L231.807 429.675C231.459 429.878 231.459 430.211 231.807 430.4L240.502 435.385C240.681 435.481 240.878 435.538 241.08 435.553C241.282 435.568 241.485 435.54 241.676 435.472L241.589 435.428ZM200.517 433.515L192.344 438.24C191.996 438.443 191.996 438.762 192.344 438.95L201.039 443.935C201.232 444.036 201.445 444.088 201.662 444.088C201.879 444.088 202.093 444.036 202.286 443.935L210.459 439.211C210.807 439.008 210.807 438.689 210.459 438.486L201.764 433.515C201.583 433.429 201.385 433.384 201.184 433.384C200.983 433.384 200.785 433.429 200.604 433.515H200.517ZM212.474 426.617L204.3 431.342C203.952 431.544 203.938 431.863 204.3 432.052L212.923 437.037C213.118 437.13 213.33 437.178 213.546 437.178C213.762 437.178 213.975 437.13 214.169 437.037L222.358 432.313C222.691 432.11 222.705 431.791 222.358 431.588L213.662 426.617C213.489 426.539 213.301 426.499 213.111 426.499C212.922 426.499 212.734 426.539 212.561 426.617H212.474ZM260.299 399.081L252.125 403.791C251.777 403.994 251.777 404.328 252.125 404.516L260.82 409.501C261.015 409.594 261.228 409.642 261.444 409.642C261.659 409.642 261.872 409.594 262.067 409.501L270.241 404.791C270.588 404.588 270.588 404.27 270.241 404.067L261.545 399.081C261.362 398.988 261.162 398.935 260.957 398.925C260.752 398.915 260.548 398.948 260.357 399.023L260.299 399.081ZM248.357 405.98L240.183 410.704C239.835 410.893 239.821 411.226 240.183 411.414L248.879 416.4C249.071 416.5 249.285 416.553 249.502 416.553C249.719 416.553 249.933 416.5 250.125 416.4L258.299 411.69C258.647 411.487 258.661 411.168 258.299 410.965L249.676 405.98C249.484 405.876 249.27 405.816 249.052 405.806C248.834 405.796 248.616 405.836 248.415 405.922L248.357 405.98ZM272.255 392.183L264.081 396.893C263.733 397.096 263.719 397.415 264.081 397.618L272.777 402.603C272.971 402.696 273.184 402.744 273.4 402.744C273.616 402.744 273.828 402.696 274.023 402.603L282.197 397.893C282.545 397.69 282.559 397.371 282.197 397.168L273.501 392.183C273.319 392.09 273.118 392.036 272.913 392.026C272.709 392.016 272.504 392.05 272.313 392.125L272.255 392.183ZM224.43 419.719L216.242 424.443C215.894 424.646 215.894 424.965 216.242 425.153L224.865 430.139C225.059 430.231 225.272 430.279 225.488 430.279C225.704 430.279 225.916 430.231 226.111 430.139L234.285 425.414C234.633 425.211 234.633 424.892 234.285 424.69L225.589 419.704C225.243 419.572 224.859 419.577 224.517 419.719H224.43ZM236.372 412.82L228.198 417.545C228.125 417.571 228.061 417.619 228.016 417.682C227.971 417.746 227.947 417.822 227.947 417.9C227.947 417.978 227.971 418.054 228.016 418.117C228.061 418.181 228.125 418.229 228.198 418.255L236.893 423.24C237.084 423.337 237.295 423.387 237.509 423.387C237.723 423.387 237.934 423.337 238.125 423.24L246.314 418.516C246.661 418.313 246.661 417.994 246.314 417.791L237.618 412.806C237.426 412.72 237.218 412.676 237.008 412.679C236.798 412.681 236.59 412.73 236.401 412.82H236.372ZM224.343 459.616L232.531 454.892C232.605 454.866 232.668 454.818 232.713 454.754C232.758 454.69 232.782 454.615 232.782 454.537C232.782 454.459 232.758 454.383 232.713 454.319C232.668 454.256 232.605 454.208 232.531 454.182L223.908 449.196C223.716 449.096 223.502 449.044 223.285 449.044C223.068 449.044 222.854 449.096 222.662 449.196L214.488 453.906C214.14 454.109 214.14 454.428 214.488 454.631L223.111 459.616C223.315 459.721 223.541 459.775 223.771 459.775C224 459.775 224.226 459.721 224.43 459.616H224.343ZM157.823 454.616L149.127 449.631C148.933 449.538 148.72 449.49 148.504 449.49C148.288 449.49 148.076 449.538 147.881 449.631L139.852 454.312C139.504 454.515 139.504 454.834 139.852 455.037L148.548 460.022C148.742 460.115 148.955 460.163 149.171 460.163C149.386 460.163 149.599 460.115 149.794 460.022L157.968 455.298C158.03 455.262 158.081 455.209 158.114 455.146C158.148 455.082 158.162 455.01 158.156 454.938C158.15 454.867 158.124 454.799 158.08 454.741C158.036 454.684 157.977 454.641 157.91 454.616H157.823ZM174.547 459.196L165.924 454.211C165.732 454.11 165.518 454.058 165.301 454.058C165.084 454.058 164.87 454.11 164.678 454.211L152.098 461.457C151.75 461.66 151.736 461.979 152.098 462.181L160.794 467.167C160.988 467.26 161.201 467.308 161.417 467.308C161.632 467.308 161.845 467.26 162.04 467.167L174.619 459.921C174.967 459.703 174.982 459.384 174.634 459.196H174.547ZM144.751 444.892L136.055 439.907C135.86 439.814 135.647 439.766 135.432 439.766C135.216 439.766 135.003 439.814 134.809 439.907L124.751 445.704C124.403 445.906 124.389 446.225 124.751 446.428L133.446 451.414C133.641 451.506 133.854 451.554 134.07 451.554C134.285 451.554 134.498 451.506 134.693 451.414L144.837 445.617C145.171 445.399 145.171 445.08 144.837 444.892H144.751ZM152.46 440.428C152.653 440.529 152.867 440.581 153.084 440.581C153.301 440.581 153.514 440.529 153.707 440.428L161.881 435.704C162.228 435.501 162.228 435.182 161.881 434.979L153.185 430.008C152.995 429.908 152.784 429.856 152.569 429.856C152.355 429.856 152.143 429.908 151.953 430.008L143.765 434.733C143.417 434.936 143.417 435.255 143.765 435.443L152.46 440.428ZM190.112 464.457L181.416 459.486C181.224 459.386 181.01 459.333 180.793 459.333C180.576 459.333 180.362 459.386 180.17 459.486L164.446 468.558C164.098 468.761 164.098 469.094 164.446 469.283L173.141 474.268C173.336 474.361 173.549 474.409 173.764 474.409C173.98 474.409 174.193 474.361 174.388 474.268L190.112 465.196C190.445 465.007 190.445 464.689 190.112 464.457ZM196.778 474.848L188.083 469.862C187.888 469.77 187.675 469.722 187.46 469.722C187.244 469.722 187.031 469.77 186.837 469.862L176.779 475.659C176.705 475.685 176.642 475.734 176.597 475.797C176.552 475.861 176.528 475.937 176.528 476.014C176.528 476.092 176.552 476.168 176.597 476.232C176.642 476.295 176.705 476.343 176.779 476.37L185.474 481.355C185.667 481.455 185.88 481.508 186.097 481.508C186.314 481.508 186.528 481.455 186.721 481.355L196.778 475.558C197.112 475.399 197.112 475.08 196.778 474.877V474.848ZM241.401 389.096C241.595 389.189 241.808 389.237 242.024 389.237C242.239 389.237 242.452 389.189 242.647 389.096L250.821 384.372C250.894 384.345 250.957 384.297 251.002 384.234C251.047 384.17 251.071 384.094 251.071 384.016C251.071 383.939 251.047 383.863 251.002 383.799C250.957 383.736 250.894 383.687 250.821 383.661L242.125 378.676C241.931 378.583 241.718 378.535 241.502 378.535C241.286 378.535 241.074 378.583 240.879 378.676L232.705 383.386C232.357 383.589 232.357 383.908 232.705 384.111L241.401 389.096ZM217.561 402.936C217.751 403.033 217.962 403.084 218.176 403.084C218.39 403.084 218.601 403.033 218.792 402.936L226.981 398.226C227.059 398.204 227.129 398.156 227.178 398.091C227.227 398.026 227.254 397.946 227.254 397.864C227.254 397.782 227.227 397.702 227.178 397.637C227.129 397.572 227.059 397.524 226.981 397.502L218.285 392.516C218.09 392.424 217.878 392.375 217.662 392.375C217.446 392.375 217.233 392.424 217.039 392.516L208.865 397.226C208.517 397.429 208.517 397.748 208.865 397.951L217.561 402.936ZM164.547 433.53C164.74 433.63 164.953 433.683 165.17 433.683C165.387 433.683 165.601 433.63 165.794 433.53L173.982 428.805C174.06 428.783 174.13 428.735 174.179 428.67C174.228 428.605 174.255 428.525 174.255 428.443C174.255 428.361 174.228 428.282 174.179 428.216C174.13 428.151 174.06 428.103 173.982 428.081L165.359 423.11C165.166 423.01 164.953 422.957 164.736 422.957C164.519 422.957 164.305 423.01 164.112 423.11L155.939 427.834C155.591 428.037 155.591 428.356 155.939 428.544L164.547 433.53ZM229.502 396.038C229.697 396.131 229.91 396.179 230.125 396.179C230.341 396.179 230.554 396.131 230.749 396.038L238.922 391.328C239.27 391.125 239.285 390.792 238.922 390.603L230.227 385.618C230.032 385.525 229.819 385.477 229.604 385.477C229.388 385.477 229.175 385.525 228.981 385.618L220.807 390.328C220.459 390.531 220.445 390.85 220.807 391.053L229.502 396.038ZM205.604 409.835C205.799 409.927 206.012 409.976 206.227 409.976C206.443 409.976 206.656 409.927 206.851 409.835L215.024 405.125C215.372 404.922 215.372 404.603 215.024 404.4L206.401 399.415C206.207 399.322 205.994 399.274 205.778 399.274C205.563 399.274 205.35 399.322 205.155 399.415L196.967 404.139C196.893 404.165 196.83 404.213 196.785 404.277C196.74 404.341 196.716 404.416 196.716 404.494C196.716 404.572 196.74 404.648 196.785 404.712C196.83 404.775 196.893 404.823 196.967 404.849L205.604 409.835ZM203.068 475.558C202.873 475.465 202.661 475.417 202.445 475.417C202.229 475.417 202.016 475.465 201.822 475.558L189.242 482.804C188.894 483.007 188.88 483.326 189.242 483.514L197.865 488.5C198.06 488.592 198.273 488.641 198.488 488.641C198.704 488.641 198.917 488.592 199.112 488.5L211.691 481.253C211.764 481.227 211.828 481.179 211.873 481.116C211.918 481.052 211.942 480.976 211.942 480.898C211.942 480.821 211.918 480.745 211.873 480.681C211.828 480.618 211.764 480.569 211.691 480.543L203.068 475.558ZM188.474 419.733C188.669 419.826 188.882 419.874 189.097 419.874C189.313 419.874 189.526 419.826 189.721 419.733L197.894 415.009C198.242 414.806 198.242 414.487 197.894 414.284L189.199 409.299C189.004 409.206 188.791 409.158 188.576 409.158C188.36 409.158 188.147 409.206 187.952 409.299L179.779 414.023C179.431 414.226 179.431 414.545 179.779 414.733L188.474 419.733ZM176.518 426.631C176.71 426.732 176.924 426.784 177.141 426.784C177.358 426.784 177.572 426.732 177.764 426.631L185.938 421.907C186.286 421.704 186.3 421.385 185.938 421.182L177.315 416.211C177.123 416.111 176.909 416.059 176.692 416.059C176.475 416.059 176.261 416.111 176.069 416.211L167.822 420.979C167.489 421.182 167.475 421.501 167.822 421.69L176.518 426.631ZM424.455 347.735C424.26 347.642 424.047 347.594 423.831 347.594C423.616 347.594 423.403 347.642 423.208 347.735L403.078 359.329C403.005 359.355 402.941 359.403 402.897 359.466C402.852 359.53 402.828 359.606 402.828 359.684C402.828 359.761 402.852 359.837 402.897 359.901C402.941 359.965 403.005 360.013 403.078 360.039L411.774 365.024C411.966 365.124 412.18 365.177 412.397 365.177C412.614 365.177 412.828 365.124 413.02 365.024L433.136 353.43C433.483 353.227 433.498 352.908 433.136 352.706L424.455 347.735ZM397.962 363.01C397.77 362.909 397.556 362.857 397.339 362.857C397.122 362.857 396.908 362.909 396.716 363.01L388.571 367.72C388.223 367.923 388.223 368.241 388.571 368.444L397.194 373.415C397.387 373.516 397.6 373.568 397.818 373.568C398.034 373.568 398.248 373.516 398.441 373.415L406.629 368.691C406.708 368.668 406.777 368.621 406.826 368.555C406.876 368.49 406.902 368.41 406.902 368.328C406.902 368.247 406.876 368.167 406.826 368.102C406.777 368.036 406.708 367.989 406.629 367.966L397.962 363.01ZM236.401 452.718L244.574 447.993C244.922 447.79 244.937 447.472 244.574 447.283L235.951 442.298C235.757 442.205 235.544 442.157 235.328 442.157C235.113 442.157 234.9 442.205 234.705 442.298L226.517 447.066C226.184 447.269 226.169 447.588 226.517 447.79L235.14 452.776C235.341 452.862 235.559 452.901 235.777 452.891C235.995 452.881 236.209 452.822 236.401 452.718ZM374.079 376.792C373.884 376.699 373.671 376.651 373.456 376.651C373.24 376.651 373.027 376.699 372.833 376.792L364.659 381.517C364.311 381.719 364.296 382.038 364.659 382.241L373.282 387.212C373.474 387.312 373.688 387.365 373.905 387.365C374.122 387.365 374.336 387.312 374.528 387.212L382.702 382.488C383.05 382.285 383.064 381.966 382.702 381.777L374.079 376.792ZM436.396 340.836C436.202 340.744 435.989 340.695 435.773 340.695C435.558 340.695 435.345 340.744 435.15 340.836L426.904 345.619C426.831 345.645 426.767 345.693 426.722 345.757C426.677 345.82 426.653 345.896 426.653 345.974C426.653 346.052 426.677 346.128 426.722 346.191C426.767 346.255 426.831 346.303 426.904 346.329L435.599 351.314C435.794 351.407 436.007 351.455 436.222 351.455C436.438 351.455 436.651 351.407 436.846 351.314L445.019 346.604C445.367 346.401 445.367 346.083 445.019 345.88L436.396 340.836ZM456.976 338.923L435.947 326.779C435.752 326.686 435.54 326.638 435.324 326.638C435.108 326.638 434.895 326.686 434.701 326.779L426.527 331.489C426.179 331.692 426.179 332.01 426.527 332.213L447.483 344.314C447.678 344.407 447.891 344.455 448.106 344.455C448.322 344.455 448.535 344.407 448.729 344.314L456.903 339.604C457.236 339.445 457.251 339.126 456.903 338.923H456.976ZM329.442 402.574C329.25 402.474 329.036 402.421 328.819 402.421C328.602 402.421 328.388 402.474 328.196 402.574L318.124 408.371C317.776 408.574 317.776 408.893 318.124 409.096L326.819 414.081C327.014 414.174 327.227 414.222 327.442 414.222C327.658 414.222 327.871 414.174 328.065 414.081L338.123 408.284C338.471 408.081 338.485 407.762 338.123 407.574L329.442 402.574ZM359.63 385.183C359.435 385.09 359.222 385.042 359.007 385.042C358.791 385.042 358.578 385.09 358.384 385.183L345.804 392.429C345.456 392.632 345.442 392.951 345.804 393.139L354.5 398.125C354.694 398.218 354.907 398.266 355.123 398.266C355.338 398.266 355.551 398.218 355.746 398.125L368.325 390.879C368.673 390.69 368.688 390.357 368.325 390.169L359.63 385.183ZM301.762 418.588C301.567 418.495 301.354 418.447 301.138 418.447C300.923 418.447 300.71 418.495 300.515 418.588L233.227 457.442C232.879 457.645 232.865 457.964 233.227 458.153L241.85 463.138C242.042 463.238 242.256 463.291 242.473 463.291C242.69 463.291 242.904 463.238 243.096 463.138L310.312 424.255C310.391 424.232 310.46 424.185 310.509 424.119C310.559 424.054 310.585 423.974 310.585 423.892C310.585 423.811 310.559 423.731 310.509 423.666C310.46 423.6 310.391 423.553 310.312 423.53L301.762 418.588ZM230.749 459.631C230.556 459.53 230.342 459.478 230.125 459.478C229.908 459.478 229.695 459.53 229.502 459.631L219.445 465.428C219.097 465.631 219.082 465.95 219.445 466.152L228.14 471.123C228.332 471.224 228.546 471.276 228.763 471.276C228.98 471.276 229.194 471.224 229.386 471.123L239.531 465.326C239.61 465.304 239.679 465.256 239.728 465.191C239.778 465.126 239.804 465.046 239.804 464.964C239.804 464.882 239.778 464.802 239.728 464.737C239.679 464.672 239.61 464.624 239.531 464.602L230.749 459.631ZM315.66 410.603C315.467 410.503 315.254 410.45 315.037 410.45C314.82 410.45 314.606 410.503 314.413 410.603L304.356 416.4C304.008 416.603 303.993 416.922 304.356 417.124L313.051 422.11C313.246 422.203 313.459 422.251 313.674 422.251C313.89 422.251 314.103 422.203 314.298 422.11L324.355 416.313C324.703 416.124 324.718 415.791 324.355 415.603L315.66 410.603ZM216.908 467.616C216.714 467.523 216.501 467.475 216.285 467.475C216.07 467.475 215.857 467.523 215.662 467.616L205.604 473.413C205.256 473.616 205.256 473.935 205.604 474.138L214.3 479.123C214.491 479.22 214.702 479.27 214.916 479.27C215.13 479.27 215.341 479.22 215.532 479.123L225.604 473.326C225.952 473.123 225.952 472.804 225.604 472.616L216.908 467.616ZM343.326 394.632C343.134 394.532 342.92 394.479 342.703 394.479C342.486 394.479 342.272 394.532 342.08 394.632L332.022 400.429C331.674 400.632 331.674 400.951 332.022 401.154L340.717 406.125C340.91 406.225 341.123 406.277 341.34 406.277C341.557 406.277 341.771 406.225 341.964 406.125L352.021 400.328C352.369 400.125 352.369 399.806 352.021 399.603L343.326 394.632ZM386.093 369.995C385.901 369.895 385.687 369.842 385.47 369.842C385.253 369.842 385.039 369.895 384.847 369.995L376.586 374.604C376.238 374.807 376.238 375.125 376.586 375.328L385.282 380.299C385.474 380.399 385.688 380.452 385.905 380.452C386.122 380.452 386.335 380.399 386.528 380.299L394.702 375.575C395.049 375.372 395.049 375.053 394.702 374.865L386.093 369.995ZM412.571 351.155L420.759 346.445C421.107 346.242 421.107 345.923 420.759 345.72L412.064 340.735C411.869 340.642 411.656 340.594 411.44 340.594C411.225 340.594 411.012 340.642 410.817 340.735L402.643 345.445C402.296 345.648 402.296 345.981 402.643 346.169L411.339 351.155C411.527 351.22 411.726 351.244 411.924 351.224C412.122 351.204 412.313 351.141 412.484 351.039L412.571 351.155ZM361.514 352.169L369.688 347.459C370.035 347.256 370.035 346.938 369.688 346.735L360.992 341.749C360.798 341.657 360.585 341.608 360.369 341.608C360.153 341.608 359.94 341.657 359.746 341.749L351.572 346.474C351.224 346.677 351.224 346.996 351.572 347.184L360.268 352.169C360.457 352.238 360.66 352.263 360.86 352.243C361.061 352.223 361.255 352.158 361.427 352.053L361.514 352.169ZM332.051 397.531L355.949 383.719C356.022 383.693 356.086 383.645 356.13 383.582C356.175 383.518 356.199 383.442 356.199 383.364C356.199 383.287 356.175 383.211 356.13 383.147C356.086 383.083 356.022 383.035 355.949 383.009L347.253 378.024C347.061 377.924 346.847 377.871 346.63 377.871C346.413 377.871 346.199 377.924 346.007 378.024L322.109 391.821C322.036 391.847 321.972 391.895 321.927 391.958C321.882 392.022 321.858 392.098 321.858 392.176C321.858 392.254 321.882 392.329 321.927 392.393C321.972 392.457 322.036 392.505 322.109 392.531L330.804 397.516C330.998 397.611 331.21 397.662 331.426 397.664C331.642 397.667 331.855 397.621 332.051 397.531ZM399.354 357.952C399.548 358.045 399.761 358.093 399.977 358.093C400.192 358.093 400.405 358.045 400.6 357.952L408.774 353.242C409.122 353.039 409.122 352.72 408.774 352.517L400.078 347.532C399.884 347.439 399.671 347.391 399.455 347.391C399.24 347.391 399.027 347.439 398.832 347.532L390.644 352.256C390.57 352.282 390.507 352.33 390.462 352.394C390.417 352.458 390.393 352.534 390.393 352.611C390.393 352.689 390.417 352.765 390.462 352.829C390.507 352.892 390.57 352.94 390.644 352.966L399.354 357.952ZM388.267 350.822L396.455 346.112C396.789 345.909 396.803 345.59 396.455 345.387L387.832 340.401C387.638 340.309 387.425 340.261 387.209 340.261C386.993 340.261 386.781 340.309 386.586 340.401L378.427 345.126C378.079 345.329 378.064 345.648 378.427 345.851L387.05 350.836C387.233 350.914 387.431 350.952 387.631 350.95C387.83 350.947 388.027 350.904 388.209 350.822H388.267ZM320.152 404.444L328.326 399.719C328.674 399.516 328.674 399.197 328.326 398.994L319.631 394.009C319.436 393.916 319.223 393.868 319.008 393.868C318.792 393.868 318.579 393.916 318.384 394.009L310.196 398.734C309.848 398.936 309.848 399.255 310.196 399.444L318.819 404.429C319.01 404.517 319.218 404.563 319.428 404.563C319.638 404.563 319.846 404.517 320.037 404.429L320.152 404.444ZM372.876 373.154C373.068 373.255 373.282 373.307 373.499 373.307C373.716 373.307 373.93 373.255 374.122 373.154L382.296 368.43C382.644 368.227 382.658 367.908 382.296 367.705L373.673 362.734C373.481 362.634 373.267 362.582 373.05 362.582C372.833 362.582 372.619 362.634 372.427 362.734L364.253 367.459C363.905 367.662 363.891 367.981 364.253 368.184L372.876 373.154ZM260.284 438.878L268.458 434.153C268.806 433.95 268.82 433.631 268.458 433.443L259.835 428.458C259.643 428.357 259.429 428.305 259.212 428.305C258.995 428.305 258.781 428.357 258.589 428.458L250.415 433.182C250.067 433.385 250.053 433.704 250.415 433.907L259.11 438.878C259.29 438.973 259.489 439.026 259.692 439.034C259.896 439.041 260.098 439.003 260.284 438.921V438.878ZM272.24 431.979L280.414 427.255C280.762 427.052 280.762 426.733 280.414 426.545L271.719 421.559C271.526 421.459 271.313 421.406 271.096 421.406C270.879 421.406 270.665 421.459 270.472 421.559L262.299 426.284C261.951 426.487 261.951 426.805 262.299 427.008L270.994 431.979C271.183 432.086 271.395 432.146 271.612 432.154C271.829 432.161 272.045 432.116 272.24 432.023V431.979ZM248.342 445.776L256.516 441.051C256.864 440.849 256.864 440.53 256.516 440.341L247.821 435.356C247.626 435.263 247.413 435.215 247.198 435.215C246.982 435.215 246.769 435.263 246.574 435.356L238.401 440.08C238.053 440.283 238.053 440.602 238.401 440.805L247.096 445.79C247.289 445.888 247.5 445.941 247.716 445.946C247.932 445.951 248.146 445.908 248.342 445.82V445.776ZM296.168 418.24L304.341 413.516C304.689 413.313 304.689 412.994 304.341 412.791L295.646 407.82C295.456 407.72 295.245 407.668 295.03 407.668C294.815 407.668 294.604 407.72 294.414 407.82L286.226 412.545C285.878 412.748 285.878 413.067 286.226 413.255L294.921 418.24C295.111 418.334 295.32 418.381 295.532 418.378C295.743 418.376 295.951 418.324 296.139 418.226L296.168 418.24ZM284.226 425.124L292.399 420.4C292.747 420.197 292.762 419.878 292.399 419.675L283.704 414.704C283.512 414.604 283.298 414.552 283.081 414.552C282.864 414.552 282.65 414.604 282.458 414.704L274.284 419.429C273.936 419.632 273.922 419.95 274.284 420.153L282.979 425.124C283.172 425.225 283.386 425.277 283.603 425.277C283.82 425.277 284.033 425.225 284.226 425.124ZM308.124 411.327L316.312 406.603C316.391 406.58 316.46 406.533 316.509 406.468C316.559 406.402 316.585 406.323 316.585 406.241C316.585 406.159 316.559 406.079 316.509 406.014C316.46 405.948 316.391 405.901 316.312 405.878L307.617 400.907C307.424 400.807 307.21 400.755 306.993 400.755C306.776 400.755 306.563 400.807 306.37 400.907L298.196 405.632C297.849 405.835 297.849 406.154 298.196 406.342L306.819 411.327C307.014 411.43 307.23 411.484 307.45 411.484C307.67 411.484 307.886 411.43 308.08 411.327H308.124ZM368.079 312.286C368.271 312.386 368.485 312.439 368.702 312.439C368.919 312.439 369.133 312.386 369.325 312.286L377.514 307.562C377.861 307.359 377.861 307.04 377.514 306.851L375.224 305.518C375.029 305.425 374.816 305.377 374.601 305.377C374.385 305.377 374.172 305.425 373.977 305.518L365.804 310.243C365.456 310.446 365.456 310.764 365.804 310.967L368.079 312.286ZM308.993 350.111C309.184 350.208 309.395 350.259 309.609 350.259C309.823 350.259 310.034 350.208 310.225 350.111L318.413 345.387C318.761 345.184 318.761 344.865 318.413 344.662L309.718 339.677C309.523 339.584 309.31 339.536 309.095 339.536C308.879 339.536 308.666 339.584 308.472 339.677L300.298 344.401C300.225 344.427 300.161 344.476 300.116 344.539C300.071 344.603 300.047 344.679 300.047 344.756C300.047 344.834 300.071 344.91 300.116 344.974C300.161 345.037 300.225 345.085 300.298 345.112L308.993 350.111ZM332.891 336.315C333.086 336.407 333.299 336.455 333.515 336.455C333.73 336.455 333.943 336.407 334.138 336.315L342.311 331.605C342.659 331.402 342.659 331.083 342.311 330.88L333.616 325.895C333.421 325.802 333.208 325.754 332.993 325.754C332.777 325.754 332.564 325.802 332.37 325.895L324.196 330.619C324.123 330.645 324.059 330.693 324.014 330.757C323.969 330.82 323.945 330.896 323.945 330.974C323.945 331.052 323.969 331.128 324.014 331.191C324.059 331.255 324.123 331.303 324.196 331.329L332.891 336.315ZM294.37 358.532C294.563 358.632 294.777 358.684 294.994 358.684C295.211 358.684 295.424 358.632 295.617 358.532L303.791 353.807C304.138 353.604 304.138 353.285 303.791 353.082L295.095 348.111C294.903 348.011 294.689 347.959 294.472 347.959C294.255 347.959 294.041 348.011 293.849 348.111L285.776 352.865C285.429 353.068 285.429 353.387 285.776 353.59L294.37 358.532ZM320.906 343.213C321.099 343.313 321.312 343.366 321.529 343.366C321.746 343.366 321.96 343.313 322.152 343.213L330.326 338.503C330.674 338.3 330.689 337.981 330.326 337.778L321.631 332.793C321.436 332.7 321.223 332.652 321.008 332.652C320.792 332.652 320.579 332.7 320.384 332.793L312.211 337.518C311.863 337.706 311.848 338.039 312.211 338.228L320.906 343.213ZM270.472 372.328C270.662 372.429 270.874 372.481 271.088 372.481C271.303 372.481 271.514 372.429 271.704 372.328L279.893 367.604C280.24 367.401 280.24 367.082 279.893 366.894L271.197 361.908C271.005 361.808 270.791 361.756 270.574 361.756C270.357 361.756 270.143 361.808 269.951 361.908L261.777 366.633C261.429 366.836 261.429 367.155 261.777 367.357L270.472 372.328ZM282.414 365.43C282.607 365.53 282.82 365.583 283.037 365.583C283.254 365.583 283.468 365.53 283.661 365.43L291.834 360.705C292.182 360.503 292.197 360.184 291.834 359.995L283.211 355.01C283.019 354.91 282.805 354.857 282.588 354.857C282.371 354.857 282.157 354.91 281.965 355.01L273.791 359.734C273.443 359.937 273.429 360.256 273.791 360.459L282.414 365.43ZM344.152 326.126C344.344 326.227 344.558 326.279 344.775 326.279C344.992 326.279 345.206 326.227 345.398 326.126L353.587 321.402C353.92 321.199 353.934 320.88 353.587 320.692L351.297 319.358C351.102 319.266 350.889 319.218 350.674 319.218C350.458 319.218 350.245 319.266 350.05 319.358L341.877 324.069C341.529 324.271 341.514 324.59 341.877 324.793L344.152 326.126ZM380.006 305.431C380.199 305.532 380.412 305.584 380.629 305.584C380.846 305.584 381.06 305.532 381.253 305.431L389.426 300.707C389.774 300.504 389.789 300.185 389.426 299.982L387.122 298.663C386.927 298.571 386.715 298.522 386.499 298.522C386.283 298.522 386.07 298.571 385.876 298.663L377.687 303.388C377.609 303.41 377.539 303.458 377.49 303.523C377.441 303.589 377.414 303.668 377.414 303.75C377.414 303.832 377.441 303.912 377.49 303.977C377.539 304.042 377.609 304.09 377.687 304.112L380.006 305.431ZM398.136 315.895C398.329 315.995 398.543 316.047 398.759 316.047C398.976 316.047 399.19 315.995 399.383 315.895L407.556 311.17C407.904 310.967 407.904 310.649 407.556 310.46L398.861 305.475C398.671 305.374 398.46 305.322 398.245 305.322C398.03 305.322 397.819 305.374 397.629 305.475L389.441 310.199C389.093 310.402 389.093 310.721 389.441 310.924L398.136 315.895ZM424.44 344.17L432.614 339.459C432.962 339.257 432.976 338.938 432.614 338.735L423.991 333.749C423.796 333.657 423.583 333.609 423.368 333.609C423.152 333.609 422.939 333.657 422.744 333.749L414.658 338.445C414.31 338.648 414.295 338.967 414.658 339.17L423.281 344.155C423.463 344.237 423.659 344.281 423.859 344.283C424.058 344.286 424.256 344.247 424.44 344.17ZM356.137 319.257C356.33 319.357 356.543 319.41 356.76 319.41C356.977 319.41 357.191 319.357 357.384 319.257L365.557 314.532C365.905 314.33 365.905 314.011 365.557 313.822L363.253 312.489C363.061 312.389 362.847 312.336 362.63 312.336C362.413 312.336 362.199 312.389 362.007 312.489L353.789 317.185C353.442 317.388 353.442 317.706 353.789 317.909L356.137 319.257ZM258.545 379.256C258.738 379.356 258.951 379.408 259.168 379.408C259.385 379.408 259.599 379.356 259.791 379.256L267.965 374.531C268.313 374.328 268.313 374.009 267.965 373.821L259.357 368.807C259.162 368.714 258.949 368.666 258.734 368.666C258.518 368.666 258.305 368.714 258.11 368.807L249.922 373.531C249.589 373.734 249.574 374.053 249.922 374.256L258.545 379.256Z" fill="#455A64"/>
<path d="M302.312 449.486L375.963 406.965C377.208 406.336 378.583 406.008 379.977 406.008C381.372 406.008 382.747 406.336 383.992 406.965L426.252 431.341C428.469 432.631 428.469 434.704 426.252 435.993L352.616 478.5C351.37 479.136 349.992 479.467 348.594 479.467C347.196 479.467 345.817 479.136 344.572 478.5L302.341 454.123C300.167 452.863 300.167 450.761 302.312 449.486Z" fill="#263238"/>
<path d="M289.849 127.131C266.835 147.811 246.951 146.724 234.517 137.145C222.097 161.086 202.213 185.115 179.199 191.013L166.054 226.52C166.054 226.52 173.098 234.636 173.098 254.055C173.028 262.194 171.933 270.292 169.837 278.156C167.446 287.736 164.359 297.649 164.359 314.214C164.359 325.431 165.808 336.344 171.518 346.271C174.964 352.278 179.926 357.275 185.909 360.763L165.924 349.169C159.622 345.683 154.387 340.548 150.779 334.315C145.098 324.373 143.649 313.474 143.649 302.243C143.649 285.692 146.736 275.765 149.127 266.171C151.211 258.31 152.292 250.217 152.345 242.085C152.345 222.665 145.301 214.549 145.301 214.549L158.431 179.043C181.445 173.144 201.329 149.116 213.749 125.174C226.184 134.754 246.067 135.841 269.081 115.16L289.849 127.131Z" fill="#0085A6"/>
<path opacity="0.8" d="M221.068 129.392L213.822 125.174C216.041 126.893 218.477 128.311 221.068 129.392Z" fill="white"/>
<path opacity="0.85" d="M269.11 115.189C250.169 132.203 233.357 134.478 221.068 129.421L234.517 137.174C246.951 146.753 266.835 147.84 289.849 127.16L269.11 115.189Z" fill="white"/>
<path opacity="0.65" d="M213.778 125.174C201.358 149.116 181.474 173.144 158.46 179.043L179.199 191.013C202.213 185.115 222.097 161.087 234.517 137.145L213.778 125.174Z" fill="white"/>
<path opacity="0.55" d="M158.46 179.042L145.33 214.549L166.055 226.52L179.199 191.013L158.46 179.042Z" fill="white"/>
<path opacity="0.4" d="M171.518 346.271C165.837 336.344 164.359 325.431 164.359 314.214C164.359 297.649 167.446 287.736 169.837 278.156C171.933 270.292 173.028 262.194 173.098 254.055C173.098 234.636 166.054 226.52 166.054 226.52L145.33 214.549C145.33 214.549 152.374 222.665 152.374 242.085C152.302 250.22 151.202 258.313 149.098 266.171C146.707 275.765 143.62 285.692 143.62 302.243C143.62 313.474 145.069 324.373 150.779 334.3C154.386 340.534 159.622 345.669 165.924 349.155L185.909 360.749C179.928 357.265 174.966 352.273 171.518 346.271Z" fill="white"/>
<path opacity="0.05" d="M171.518 346.271C165.837 336.344 164.359 325.431 164.359 314.214C164.359 297.649 167.446 287.736 169.837 278.156C171.933 270.292 173.028 262.194 173.098 254.055C173.098 234.636 166.054 226.52 166.054 226.52L145.33 214.549C145.33 214.549 152.374 222.665 152.374 242.085C152.302 250.22 151.202 258.313 149.098 266.171C146.707 275.765 143.62 285.692 143.62 302.243C143.62 313.474 145.069 324.373 150.779 334.3C154.386 340.534 159.622 345.669 165.924 349.155L185.909 360.749C179.928 357.265 174.966 352.273 171.518 346.271Z" fill="black"/>
<path d="M234.517 370.589C200.141 370.98 180.446 361.894 171.504 346.271C165.837 336.343 164.359 325.431 164.359 314.199C164.359 297.649 167.431 287.75 169.837 278.156C171.933 270.297 173.028 262.204 173.098 254.07C173.098 234.65 166.055 226.534 166.055 226.534L179.199 191.013C202.213 185.115 222.097 161.072 234.517 137.145C246.951 146.724 266.835 147.811 289.849 127.131L302.994 147.42C298.477 158.776 296.085 170.865 295.936 183.086C295.814 189.99 296.923 196.86 299.211 203.375C301.602 210.187 304.689 216.549 304.689 233.099C304.651 246.856 302.229 260.502 297.53 273.432C288.574 299.46 268.907 331.271 234.517 370.589Z" fill="#0085A6"/>
<path opacity="0.75" d="M234.517 370.589C200.141 370.98 180.446 361.894 171.504 346.271C165.837 336.343 164.359 325.431 164.359 314.199C164.359 297.649 167.431 287.75 169.837 278.156C171.933 270.297 173.028 262.204 173.098 254.07C173.098 234.65 166.055 226.534 166.055 226.534L179.199 191.013C202.213 185.115 222.097 161.072 234.517 137.145C246.951 146.724 266.835 147.811 289.849 127.131L302.994 147.42C298.477 158.776 296.085 170.865 295.936 183.086C295.814 189.99 296.923 196.86 299.211 203.375C301.602 210.187 304.689 216.549 304.689 233.099C304.651 246.856 302.229 260.502 297.53 273.432C288.574 299.46 268.907 331.271 234.517 370.589Z" fill="white"/>
<path d="M230.444 361.662C203.822 361.343 186.605 354.676 179.272 341.851C175.127 334.604 173.286 326.083 173.286 314.199C173.285 303.838 174.749 293.528 177.634 283.577C177.909 282.475 178.199 281.403 178.46 280.316C180.751 271.753 181.939 262.933 181.996 254.07C181.996 239.911 178.605 230.65 175.909 225.52L186.054 198.274C210.691 189.709 228.502 165.376 237.937 149.42C243.019 151.581 248.487 152.685 254.009 152.666C265.139 152.666 276.458 148.521 287.762 140.333L293.052 148.536C289.199 159.674 287.164 171.359 287.023 183.144C286.894 191.069 288.17 198.953 290.791 206.433C291.066 207.216 291.356 207.998 291.646 208.781C293.762 214.578 295.762 220.042 295.762 233.186C295.713 245.95 293.458 258.61 289.095 270.606C280.298 296.141 260.574 326.778 230.444 361.662Z" fill="#0085A6"/>
<path opacity="0.4" d="M230.444 361.662C203.822 361.343 186.605 354.676 179.272 341.851C175.127 334.604 173.286 326.083 173.286 314.199C173.285 303.838 174.749 293.528 177.634 283.577C177.909 282.475 178.199 281.403 178.46 280.316C180.751 271.753 181.939 262.933 181.996 254.07C181.996 239.911 178.605 230.65 175.909 225.52L186.054 198.274C210.691 189.709 228.502 165.376 237.937 149.42C243.019 151.581 248.487 152.685 254.009 152.666C265.139 152.666 276.458 148.521 287.762 140.333L293.052 148.536C289.199 159.674 287.164 171.359 287.023 183.144C286.894 191.069 288.17 198.953 290.791 206.433C291.066 207.216 291.356 207.998 291.646 208.781C293.762 214.578 295.762 220.042 295.762 233.186C295.713 245.95 293.458 258.61 289.095 270.606C280.298 296.141 260.574 326.778 230.444 361.662Z" fill="white"/>
<path opacity="0.15" d="M230.444 361.662C203.822 361.343 186.605 354.676 179.272 341.851C175.127 334.604 173.286 326.083 173.286 314.199C173.285 303.838 174.749 293.528 177.634 283.577C177.909 282.475 178.199 281.403 178.46 280.316C180.751 271.753 181.939 262.933 181.996 254.07C181.996 239.911 178.605 230.65 175.909 225.52L186.054 198.274C210.691 189.709 228.502 165.376 237.937 149.42C243.019 151.581 248.487 152.685 254.009 152.666C265.139 152.666 276.458 148.521 287.762 140.333L293.052 148.536C289.199 159.674 287.164 171.359 287.023 183.144C286.894 191.069 288.17 198.953 290.791 206.433C291.066 207.216 291.356 207.998 291.646 208.781C293.762 214.578 295.762 220.042 295.762 233.186C295.713 245.95 293.458 258.61 289.095 270.606C280.298 296.141 260.574 326.778 230.444 361.662Z" fill="black"/>
<path opacity="0.8" d="M185.373 349.227C194.445 357.227 209.517 361.415 230.444 361.662L217.097 354.053C206.329 354.199 195.61 352.569 185.373 349.227Z" fill="white"/>
<path opacity="0.15" d="M286.081 144.522L293.037 148.536L287.747 140.333L284.719 142.42L286.081 144.522Z" fill="black"/>
<path d="M283.82 202.419C281.199 194.939 279.923 187.054 280.052 179.13C280.193 167.345 282.228 155.66 286.081 144.522L284.718 142.42C274.429 149.217 264.139 152.666 253.994 152.666C248.472 152.685 243.004 151.581 237.922 149.42C228.488 165.362 210.677 189.709 186.039 198.274L175.895 225.52C178.59 230.65 181.982 239.911 181.982 254.07C181.925 262.933 180.736 271.753 178.445 280.316C178.185 281.403 177.895 282.475 177.619 283.577C174.734 293.528 173.271 303.838 173.272 314.199C173.272 326.083 175.112 334.604 179.257 341.851C181.44 345.583 184.406 348.797 187.952 351.271C196.851 355.329 208.706 357.454 223.517 357.647C253.632 322.75 273.356 292.127 282.153 266.591C286.517 254.596 288.773 241.936 288.82 229.172C288.82 216.027 286.805 210.564 284.689 204.767C284.385 203.984 284.095 203.201 283.82 202.419Z" fill="#455A64"/>
<path d="M186.039 198.274L175.895 225.52C178.59 230.65 181.982 239.911 181.982 254.07C181.925 262.934 180.736 271.753 178.445 280.316C178.185 281.403 177.895 282.475 177.619 283.577C174.734 293.528 173.271 303.838 173.272 314.199C173.272 326.083 175.112 334.605 179.257 341.851C181.44 345.583 184.406 348.797 187.952 351.271C196.851 355.329 208.706 357.454 223.517 357.647V257.215L238.009 252.867V149.42C233.731 156.671 228.885 163.572 223.517 170.057C213.85 181.695 201.242 192.984 186.039 198.274Z" fill="#37474F"/>
<path d="M258.313 220.143C258.158 219.859 257.974 219.592 257.763 219.346L257.69 219.259C257.267 218.799 256.779 218.403 256.241 218.085L251.415 215.303C250.543 214.814 249.606 214.453 248.632 214.23C248.049 214.102 247.459 214.01 246.864 213.955V199.665C246.864 192.492 244.154 186.825 239.43 184.101C234.705 181.376 229.285 181.84 223.734 185.086C213.416 191.042 205.343 205.578 205.343 218.172V235.041L195.72 240.592C195.434 240.757 195.163 240.946 194.909 241.157L194.648 241.36C194.254 241.675 193.933 242.071 193.705 242.521C193.478 242.971 193.349 243.465 193.329 243.969V301.837C193.335 302.087 193.369 302.335 193.431 302.576C193.734 303.55 194.377 304.384 195.242 304.924L195.778 305.272L198.141 306.634L200.619 308.083C201.587 308.618 202.634 308.995 203.72 309.199C206.685 309.855 209.786 309.455 212.488 308.069L256.299 282.78C256.976 282.479 257.561 282.004 257.994 281.403C258.427 280.802 258.692 280.097 258.763 279.359V221.52C258.728 221.031 258.574 220.558 258.313 220.143ZM214.764 218.172C214.764 208.955 221.024 197.564 228.43 193.289C230.952 191.839 233.212 191.463 234.647 192.303C236.343 193.274 237.343 196.028 237.343 199.665V216.535L224.894 223.781L214.749 229.578L214.764 218.172Z" fill="#263238"/>
<path d="M263.762 224.071C263.694 223.333 263.429 222.627 262.996 222.025C262.563 221.424 261.977 220.949 261.299 220.65L256.473 217.853C254.635 216.915 252.601 216.425 250.538 216.425C248.475 216.425 246.441 216.915 244.603 217.853L200.793 243.143C200.114 243.445 199.529 243.923 199.096 244.526C198.663 245.13 198.398 245.838 198.329 246.577V304.446C198.394 305.187 198.657 305.896 199.09 306.501C199.524 307.105 200.112 307.582 200.793 307.88L205.619 310.677C207.459 311.606 209.492 312.09 211.553 312.09C213.615 312.09 215.648 311.606 217.488 310.677L261.299 285.374C261.976 285.073 262.561 284.598 262.994 283.997C263.427 283.396 263.692 282.691 263.762 281.953V224.071Z" fill="#0085A6"/>
<path opacity="0.4" d="M205.619 252.867L200.793 249.969C197.503 248.085 197.503 245.012 200.793 243.114L244.603 217.824C246.441 216.886 248.475 216.396 250.538 216.396C252.601 216.396 254.635 216.886 256.473 217.824L261.299 220.621C264.574 222.505 264.574 225.578 261.299 227.462L217.561 252.867C215.711 253.808 213.665 254.298 211.59 254.298C209.514 254.298 207.469 253.808 205.619 252.867Z" fill="white"/>
<path opacity="0.1" d="M211.561 254.215V312.083C209.489 312.114 207.444 311.615 205.619 310.634L200.778 307.938C200.097 307.638 199.51 307.158 199.079 306.551C198.647 305.944 198.388 305.231 198.329 304.489V246.577C198.395 247.314 198.657 248.02 199.088 248.621C199.518 249.223 200.102 249.698 200.778 249.998L205.619 252.795C207.444 253.772 209.491 254.261 211.561 254.215Z" fill="black"/>
<path d="M243.444 282.837L232.98 288.881L234.604 269.954C233.357 269.287 232.56 267.664 232.56 265.331C232.56 261.157 235.082 256.316 238.212 254.519C241.343 252.722 243.864 254.621 243.864 258.867C243.8 261.333 243.096 263.74 241.821 265.852L243.444 282.837Z" fill="#455A64"/>
<path d="M243.444 282.837L233.966 277.374L232.98 288.881L243.444 282.837Z" fill="#37474F"/>
<path d="M238.212 254.519C235.934 256.056 234.235 258.311 233.386 260.925L241.821 265.794C243.096 263.682 243.8 261.275 243.864 258.809C243.864 254.621 241.343 252.708 238.212 254.519Z" fill="#37474F"/>
<path d="M251.922 225.332V202.144C251.922 194.897 249.212 189.303 244.487 186.579C239.763 183.854 234.343 184.332 228.792 187.564C218.474 193.521 210.401 208.057 210.401 220.65V243.911C210.443 244.336 210.601 244.741 210.856 245.083C211.111 245.425 211.455 245.691 211.85 245.853C212.887 246.374 214.031 246.646 215.191 246.646C216.351 246.646 217.495 246.374 218.532 245.853C218.927 245.691 219.271 245.425 219.526 245.083C219.781 244.741 219.939 244.336 219.981 243.911V220.723C219.981 211.506 226.241 200.115 233.647 195.839C236.169 194.39 238.444 194.028 239.879 194.854C241.56 195.825 242.574 198.578 242.574 202.216V225.404C242.62 225.824 242.779 226.224 243.034 226.561C243.29 226.898 243.632 227.159 244.024 227.317C245.06 227.838 246.204 228.11 247.364 228.11C248.524 228.11 249.668 227.838 250.705 227.317C251.093 227.154 251.432 226.891 251.687 226.555C251.941 226.22 252.102 225.822 252.154 225.404L251.922 225.332Z" fill="#E0E0E0"/>
<path d="M308.24 327.083L314.616 323.402L317.138 320.33L310.761 324.011L308.24 327.083Z" fill="#0085A6"/>
<path opacity="0.4" d="M308.24 327.083L314.616 323.402L317.138 320.33L310.761 324.011L308.24 327.083Z" fill="black"/>
<path d="M325.587 337.097L331.964 333.416L337.297 328.692L330.92 332.373L325.587 337.097Z" fill="#0085A6"/>
<path opacity="0.4" d="M325.587 337.097L331.964 333.416L337.297 328.692L330.92 332.373L325.587 337.097Z" fill="black"/>
<path d="M379.876 349.822C381.385 351.844 382.299 354.249 382.513 356.764C381.016 354.734 380.104 352.333 379.876 349.822ZM394.702 350.01C392.557 335.402 384.716 321.025 375.354 315.547C370.862 312.953 366.659 312.866 363.383 314.808L357.384 318.272L357.036 318.475C356.768 318.62 356.511 318.785 356.268 318.967C355.754 319.304 355.27 319.682 354.818 320.098L354.616 320.286C354.427 320.474 354.239 320.692 354.065 320.895C353.891 321.098 353.616 321.417 353.427 321.677C352.994 322.248 352.602 322.849 352.253 323.474C352.079 323.793 351.891 324.127 351.732 324.474L299.283 294.2L292.907 297.866V301.939L293.457 302.243L293.965 302.547V303.402L292.907 304.011V306.373L300.617 322.677L308.24 327.025L310.761 323.953L317.486 327.982L321.341 334.59L325.602 337.039L330.92 332.315L337.456 336.097L339.659 345.155L350.616 351.488C351.172 353.797 351.864 356.072 352.688 358.3L352.934 359.01C356.587 368.575 362.383 376.778 368.876 380.56C369.666 381.013 370.49 381.406 371.34 381.734C371.79 381.912 372.25 382.067 372.717 382.198C373.117 382.31 373.524 382.402 373.934 382.473C375.218 382.712 376.534 382.712 377.818 382.473L378.354 382.343C378.608 382.299 378.856 382.226 379.093 382.125L379.658 381.908C379.863 381.831 380.062 381.739 380.253 381.633L380.789 381.357L381.064 381.198L381.195 381.125L387.209 377.662C392.05 374.85 395.194 367.749 395.194 357.706C395.2 355.115 395.011 352.529 394.629 349.967L394.702 350.01Z" fill="#0085A6"/>
<path d="M377.934 362.14C375.427 360.691 373.383 356.343 373.383 352.503C373.383 348.662 375.427 346.706 377.934 348.155C380.441 349.604 382.499 353.952 382.499 357.807C382.499 361.662 380.456 363.589 377.934 362.14ZM388.267 353.691C386.122 339.083 378.267 324.634 368.905 319.228C364.557 316.735 360.572 316.547 357.311 318.272L356.963 318.474C356.696 318.62 356.439 318.784 356.195 318.967C355.682 319.304 355.197 319.682 354.746 320.098L354.543 320.286C354.355 320.474 354.166 320.692 353.992 320.895C353.819 321.098 353.543 321.416 353.355 321.677C352.922 322.248 352.53 322.849 352.181 323.474C352.007 323.793 351.819 324.127 351.659 324.474C350.718 326.446 350.036 328.531 349.63 330.677L292.921 297.866V301.939L293.472 302.243L293.979 302.547V303.402L292.921 304.011V306.373L300.631 322.677L308.254 327.025L310.776 323.953L317.5 327.981L321.355 334.59L325.616 337.039L330.935 332.315L337.471 336.097L339.674 345.155L350.63 351.488C351.187 353.797 351.879 356.072 352.703 358.3L352.949 359.01C356.601 368.575 362.398 376.778 368.891 380.56C369.681 381.013 370.505 381.406 371.354 381.734C371.805 381.912 372.264 382.067 372.731 382.198C373.132 382.31 373.538 382.402 373.948 382.473C375.232 382.712 376.549 382.712 377.832 382.473L378.369 382.343C378.623 382.299 378.871 382.226 379.108 382.125L379.673 381.908C379.878 381.831 380.076 381.739 380.267 381.633L380.803 381.357L381.079 381.198L381.209 381.125C385.847 378.227 388.832 371.198 388.832 361.387C388.828 358.811 388.639 356.239 388.267 353.691Z" fill="#0085A6"/>
<path opacity="0.4" d="M382.499 357.749C382.499 361.633 380.456 363.546 377.948 362.097C375.441 360.648 373.383 356.3 373.383 352.459C373.383 348.619 375.427 346.662 377.948 348.112C378.697 348.55 379.352 349.131 379.876 349.822C380.097 352.335 381.01 354.737 382.513 356.764C382.53 357.092 382.525 357.421 382.499 357.749Z" fill="black"/>
<path opacity="0.4" d="M395.223 357.749C395.223 367.792 392.078 374.894 387.238 377.705L381.224 381.169C385.861 378.27 388.847 371.242 388.847 361.43C388.839 358.84 388.646 356.254 388.267 353.691C386.122 339.083 378.267 324.634 368.905 319.228C364.557 316.736 360.572 316.547 357.311 318.272L363.311 314.808C366.644 312.866 370.789 312.953 375.282 315.547C384.644 320.982 392.484 335.474 394.629 349.967C395.022 352.542 395.221 355.144 395.223 357.749Z" fill="white"/>
<path d="M388.847 361.43C388.847 371.241 385.861 378.241 381.224 381.169L387.238 377.705C392.078 374.894 395.223 367.792 395.223 357.749C395.223 357.372 395.223 356.995 395.223 356.633L388.861 360.314C388.832 360.676 388.847 361.053 388.847 361.43Z" fill="#0085A6"/>
<path opacity="0.1" d="M388.847 361.43C388.847 371.241 385.861 378.241 381.224 381.169L387.238 377.705C392.078 374.894 395.223 367.792 395.223 357.749C395.223 357.372 395.223 356.995 395.223 356.633L388.861 360.314C388.832 360.676 388.847 361.053 388.847 361.43Z" fill="black"/>
<path opacity="0.15" d="M349.934 334.851V336.923L292.907 304.011L293.965 303.402V302.533L349.934 334.851Z" fill="black"/>
<path opacity="0.15" d="M349.934 335.721V336.923L292.907 304.011L293.965 303.402V303.388L349.934 335.721Z" fill="black"/>
<path opacity="0.15" d="M374.746 377.763C372.586 377.704 370.481 377.074 368.644 375.937C359.34 370.56 351.775 354.59 351.775 340.329C351.775 332.011 354.297 325.837 358.688 323.257C361.76 321.489 365.383 321.706 369.18 323.895C378.47 329.271 386.035 345.242 386.035 359.503C386.035 367.821 383.514 373.995 379.122 376.575C377.797 377.357 376.285 377.767 374.746 377.763ZM363.152 323.141C361.798 323.139 360.469 323.494 359.297 324.17C355.297 326.474 352.92 332.518 352.92 340.329C352.92 354.256 360.166 369.807 369.253 375.01C372.702 377.01 375.948 377.227 378.673 375.662C382.673 373.357 385.05 367.314 385.05 359.503C385.05 345.575 377.803 330.011 368.717 324.822C367.021 323.77 365.074 323.19 363.079 323.141H363.152Z" fill="black"/>
<path opacity="0.5" d="M351.732 324.474C350.791 326.446 350.109 328.531 349.703 330.677L292.921 297.866L299.298 294.2L351.732 324.474Z" fill="white"/>
<path d="M568.278 484.746C568.495 486.732 568.77 492.297 578.857 493.688C588.944 495.079 595.291 491.731 597.987 486.877C600.683 482.022 600.06 478.065 600.48 473.572C600.9 469.08 604.625 466.689 605.697 464.37C607.262 460.964 604.972 455.674 604.972 455.674L568.278 484.746Z" fill="#263238"/>
<path d="M494.612 469.007C494.376 469.82 494.312 470.672 494.424 471.511C494.536 472.349 494.823 473.155 495.265 473.877C497.523 475.663 500.122 476.97 502.903 477.718C505.684 478.465 508.588 478.638 511.438 478.224C517.593 477.386 523.457 475.085 528.539 471.514C532.438 468.904 537.052 467.572 541.742 467.703C546.597 467.543 550.148 466.471 550.524 465.196C551.162 462.949 551.162 461.544 550.104 461.602L494.612 469.007Z" fill="#263238"/>
<path d="M602.567 447.906C601.306 457.109 583.466 456.37 584.915 449.022L581.741 426.689L601.929 427.313L602.567 447.906Z" fill="#FFA8A7"/>
<path d="M568.944 480.224C569.843 478.558 572.437 476.181 573.582 474.688C579.63 466.989 583.279 457.68 584.074 447.921C584.074 447.385 584.176 446.341 584.726 446.008C585.277 445.675 585.813 446.138 586.393 446.399C587.391 446.822 588.446 447.095 589.523 447.211C593.089 447.617 597.045 446.761 597.929 446.877C598.813 446.993 598.842 449.124 598.784 451.442C600.059 450.645 600.48 449.051 601.61 448.124C602.233 447.617 602.509 447.602 602.494 446.776C602.494 446.24 602.494 445.747 602.494 445.211C603.422 444.95 604.19 448.457 604.943 451.138C605.813 454.254 606.9 457.761 605.682 460.921C604.892 462.642 603.921 464.275 602.784 465.79C600.858 468.424 599.604 471.488 599.132 474.717C598.987 476.167 599.132 477.616 598.9 478.978C598.566 481.348 597.56 483.573 596.001 485.389C594.442 487.205 592.395 488.536 590.103 489.224C583.944 491.137 574.712 490.833 569.292 486.543C567.408 485.05 568.046 481.848 568.944 480.224Z" fill="#37474F"/>
<path d="M545.988 446.37C541.09 450.167 535.206 452.399 529.191 449.66L527.742 412.081L548.032 415.719L545.988 446.37Z" fill="#FFA8A7"/>
<path d="M498.714 462.515C500.062 462.08 501.38 461.602 502.685 461.065C506.328 459.582 509.847 457.808 513.206 455.761C514.655 454.863 516.105 453.921 517.554 452.863C519.003 451.805 520.452 450.66 521.902 449.5C522.656 448.838 523.341 448.1 523.945 447.298C525.165 445.802 526.188 444.156 526.989 442.399C527.109 441.985 527.377 441.629 527.742 441.399C527.987 441.313 528.251 441.294 528.506 441.345C528.761 441.396 528.998 441.515 529.191 441.689C529.54 441.973 529.914 442.225 530.307 442.443L531.496 442.935C532.764 443.454 534.102 443.781 535.467 443.906C540.597 444.356 540.756 443.327 540.974 444.979C541.023 445.596 541.023 446.216 540.974 446.834C543.684 446.385 545.814 445.515 545.93 444.486L546.249 441.211C548.945 440.964 549.147 445.79 550.017 451.21C550.727 455.558 551.785 458.761 550.568 461.993C546.495 465.543 539.307 464.688 535.22 465.355C529.423 466.312 526.713 470.601 518.67 473.384C505.627 477.877 497.496 472.703 495.062 470.485C493.482 467.688 493.163 464.283 498.714 462.515Z" fill="#37474F"/>
<path d="M596.871 224.143C597.9 240.085 599.77 263.432 600.422 281.852C601.639 316.46 601.161 355.923 601.161 355.923C603.097 363.18 604.344 370.605 604.885 378.096C605.711 400.212 605.567 449.863 605.567 449.863C605.567 449.863 596.393 459.095 582.683 451.848C582.683 451.848 570.524 382.285 567.133 360.43C563.886 339.633 557.553 298.113 557.553 298.113L554.655 357.126C556.854 366.399 557.583 375.959 556.814 385.458C556.075 395.603 550.292 445.617 550.292 445.617C545.017 450.559 529.655 447.863 526.293 443.935C526.293 443.935 520.916 370.024 520.307 359.329C519.018 336.242 515.583 250.143 517.308 236.781C519.032 223.419 596.871 224.143 596.871 224.143Z" fill="#263238"/>
<path d="M557.553 298.054L553.524 271.417C553.524 271.417 542.466 269.33 534.38 263.331C534.38 263.331 537.525 270.446 549.756 275.519L553.785 300.33L554.742 357.068L557.553 298.054Z" fill="black"/>
<path d="M580.147 117.261C580.886 120.261 585.944 119.797 588.205 119.232C589.546 118.951 590.737 118.188 591.554 117.088C592.371 115.988 592.757 114.627 592.639 113.261C593.783 112.956 594.815 112.327 595.61 111.45C596.145 110.743 596.452 109.889 596.488 109.003C596.524 108.117 596.289 107.242 595.813 106.493C596.731 105.84 597.452 104.947 597.897 103.912C598.341 102.877 598.493 101.739 598.335 100.624C598.025 99.0092 597.139 97.562 595.842 96.5516C594.587 95.5351 593.023 94.9778 591.407 94.9719C590.886 94.9719 590.364 96.0154 591.118 96.1023C592.292 96.3301 593.398 96.8261 594.349 97.5516C595.34 98.2441 596.105 99.2114 596.552 100.334C596.831 101.226 596.83 102.181 596.551 103.072C596.271 103.963 595.725 104.747 594.987 105.32C594.722 104.987 594.426 104.682 594.103 104.406C593.095 103.505 591.773 103.036 590.422 103.102C589.923 103.09 589.43 103.22 589.002 103.476C588.573 103.733 588.227 104.106 588.002 104.551C587.654 105.682 588.828 106.638 589.697 107.131C590.329 107.488 591.029 107.706 591.751 107.771C592.473 107.836 593.201 107.746 593.886 107.508C593.999 107.471 594.11 107.427 594.219 107.377C594.295 107.528 594.363 107.683 594.422 107.841C595.205 109.914 593.944 111.203 592.248 111.783C591.219 109.653 588.437 108.102 586.205 109.218C585.922 109.342 585.673 109.533 585.482 109.776C585.292 110.019 585.164 110.306 585.111 110.61C585.058 110.914 585.081 111.227 585.178 111.52C585.275 111.814 585.444 112.078 585.668 112.29C586.597 113.168 587.826 113.655 589.103 113.653C589.687 113.696 590.273 113.696 590.857 113.653C590.986 114.581 590.769 115.525 590.248 116.305C589.723 116.899 589.072 117.369 588.342 117.68C587.613 117.99 586.823 118.135 586.031 118.102C584.231 118.246 582.446 117.679 581.06 116.522C580.64 116.16 580.031 116.812 580.147 117.261ZM593.378 106.131C592.907 106.265 592.412 106.293 591.928 106.213C591.444 106.133 590.984 105.946 590.581 105.667C589.973 105.262 589.292 104.667 590.379 104.595C590.963 104.602 591.539 104.744 592.059 105.01C592.58 105.277 593.031 105.661 593.378 106.131ZM590.35 112.145C589.736 112.171 589.121 112.112 588.523 111.972C588.089 111.87 586.19 110.899 587.161 110.522C587.9 110.189 589.205 110.928 589.726 111.392C589.967 111.614 590.176 111.868 590.35 112.145Z" fill="#263238"/>
<path d="M583.669 61.2047C583.986 61.2497 584.3 61.3126 584.611 61.3931C584.389 60.4368 584.497 59.4337 584.918 58.5469C585.34 57.6601 586.048 56.9419 586.929 56.5092C588.055 56.0574 589.313 56.0619 590.436 56.5219C591.559 56.9818 592.458 57.8609 592.944 58.9729L586.379 61.9728C588.511 62.732 590.291 64.2483 591.379 66.2336C593.176 69.9437 590.799 77.8275 588.408 87.5375C587.06 93.6612 585.292 99.6849 583.118 105.566C582.016 108.465 580.031 108.465 580.031 108.465V98.7691L580.451 90.7258C580.451 90.7258 575.292 83.668 574.727 77.8855C573.988 70.4509 575.553 67.4075 575.553 67.4075L583.669 61.2047Z" fill="#263238"/>
<path d="M547.988 52.8714C551.228 52.8772 554.394 53.844 557.084 55.6495C559.775 57.455 561.869 60.0181 563.103 63.0144C564.336 66.0107 564.653 69.3055 564.013 72.4818C563.373 75.6582 561.805 78.5734 559.508 80.8585C557.211 83.1435 554.287 84.6958 551.108 85.3187C547.928 85.9417 544.635 85.6074 541.645 84.3582C538.655 83.109 536.104 81.0009 534.312 78.3009C532.521 75.6008 531.571 72.43 531.583 69.1899C531.588 67.0412 532.017 64.9147 532.845 62.9317C533.672 60.9488 534.882 59.1483 536.406 57.6329C537.929 56.1176 539.736 54.9172 541.723 54.1002C543.711 53.2832 545.839 52.8657 547.988 52.8714Z" fill="#263238"/>
<path d="M580.147 89.4504C582.089 91.1315 583.668 86.7838 585.306 85.1026C586.944 83.4215 592.248 81.0882 594.886 86.6823C597.523 92.2764 592.451 100.117 588.465 101.957C582.668 104.667 580.031 98.798 580.031 98.798V123.073C573.901 134.116 560.64 131.536 554.365 133.087C553.429 130.264 553.429 127.215 554.365 124.392V116.493C551.725 117 549.029 117.142 546.35 116.914C541.046 116.073 538.206 111.711 536.626 105.972C534.075 96.7546 533.539 81.2621 537.09 63.364C543.032 58.7844 563.104 59.538 575.524 67.3639C574.654 83.3056 578.205 87.7693 580.147 89.4504Z" fill="#FFA8A7"/>
<path d="M554.379 116.493C554.379 116.493 566.205 114.16 570.321 111.972C572.784 110.728 574.807 108.761 576.118 106.334C575.486 108.754 574.372 111.022 572.843 113.001C569.814 116.856 554.394 119.653 554.394 119.653L554.379 116.493Z" fill="#F28F8F"/>
<path d="M528.989 79.8709C529.089 80.806 529.467 81.6896 530.075 82.4071C530.277 82.6811 530.424 82.9909 530.51 83.3201C530.816 85.6343 531.3 87.9213 531.959 90.1605C532.493 91.647 533.479 92.9289 534.778 93.8258C536.078 94.7227 537.627 95.1895 539.206 95.1604C540.04 95.2008 540.876 95.1474 541.698 95.001C541.761 95.0108 541.824 95.0108 541.887 95.001C542.608 94.8585 543.302 94.6042 543.945 94.2474H544.061L544.249 94.1314L544.452 93.972C544.528 93.9372 544.597 93.888 544.655 93.8271C544.741 93.7823 544.819 93.7235 544.887 93.6532L545.09 93.4503L545.495 93.059C546.182 92.2969 546.745 91.4312 547.162 90.4938C548.278 88.1316 548.061 84.7838 549.8 84.4505C549.872 84.4573 549.945 84.4573 550.017 84.4505H550.249C552.626 84.5374 552.278 88.1606 553.553 90.7837C554.259 92.4444 555.457 93.8488 556.986 94.8076C558.515 95.7664 560.301 96.2335 562.104 96.1459H562.756H563.292C563.705 96.1233 564.117 96.0749 564.524 96.001L564.915 95.914L565.292 95.8126H565.524C566.025 95.6502 566.51 95.4415 566.973 95.1894C567.133 95.0734 567.292 94.9865 567.451 94.885C567.735 94.6689 568.006 94.4366 568.263 94.1894C568.943 93.5017 569.484 92.69 569.857 91.7982C570.563 89.6045 571.082 87.355 571.408 85.0737C571.483 84.728 571.62 84.3989 571.814 84.1027C572.446 83.4392 572.865 82.6012 573.016 81.6969C573.056 81.2242 572.934 80.7521 572.671 80.3574C572.408 79.9627 572.019 79.6686 571.567 79.5231L570.321 79.3202C566.278 78.755 561.002 78.4361 557.828 79.2332C553.829 80.2332 552.423 81.4795 550.22 81.4071C548.017 81.3346 546.858 79.9578 543.104 78.668C540.206 77.6246 535.191 77.5811 531.423 77.8419C531.003 77.8419 530.641 77.8419 530.249 77.9289C529.626 77.813 528.931 78.7839 528.989 79.8709ZM555.002 82.8563C555.315 82.4814 555.706 82.1796 556.147 81.9723C556.217 81.928 556.289 81.8893 556.365 81.8563H556.466C556.659 81.7838 556.847 81.7016 557.031 81.61C557.191 81.61 557.379 81.494 557.553 81.4216C558.112 81.2161 558.683 81.0467 559.263 80.9143L559.944 80.7694C560.51 80.668 561.104 80.581 561.683 80.523H562.104C565.915 80.2912 568.277 81.2332 569.118 81.9723C569.959 82.7114 569.524 86.32 569.118 88.0881C569.118 88.0881 569.118 88.1895 569.118 88.2185C569.131 88.266 569.131 88.316 569.118 88.3634C569.077 88.604 569.019 88.8414 568.944 89.0736C568.914 89.2269 568.87 89.3773 568.814 89.5228C568.727 89.7692 568.64 90.0156 568.538 90.2764C568.515 90.3648 568.475 90.4483 568.422 90.5228C568.411 90.5808 568.386 90.6353 568.35 90.6822C568.35 90.6822 568.35 90.7837 568.35 90.8417L568.234 91.059C568.234 91.146 568.147 91.2185 568.089 91.2909C568.05 91.3812 567.996 91.4645 567.93 91.5373C567.885 91.6246 567.832 91.7071 567.77 91.7837C567.16 92.6179 566.344 93.2795 565.402 93.7038C564.459 94.128 563.423 94.3003 562.394 94.2039C561.339 94.2696 560.283 94.1068 559.298 93.7266C558.312 93.3464 557.42 92.7578 556.684 92.001C555.779 90.9611 555.164 89.7016 554.901 88.349C554.466 86.2765 554.234 83.9288 555.002 82.8563ZM532.612 80.5665C532.88 80.3071 533.201 80.1092 533.554 79.9868L533.959 79.8274H534.206H534.423H534.568H534.785C535.078 79.7677 535.373 79.7241 535.669 79.697H536.148H536.423C536.5 79.7111 536.578 79.7111 536.655 79.697C536.858 79.6828 537.061 79.6828 537.264 79.697H537.698C538.286 79.7277 538.871 79.7906 539.452 79.8854C542.162 80.3346 544.988 81.6534 545.698 82.7839C546.408 83.9143 546.205 86.2186 545.814 88.2185C545.723 88.6657 545.602 89.1063 545.452 89.5373C545.441 89.5703 545.441 89.6059 545.452 89.6388C545.458 89.6869 545.458 89.7356 545.452 89.7837C545.452 89.7837 545.452 89.7837 545.452 89.8707C545.43 89.925 545.406 89.9782 545.379 90.0301C545.379 90.146 545.278 90.2475 545.22 90.3489C545.178 90.4483 545.129 90.5451 545.075 90.6388V90.7257L544.959 90.9286L544.843 91.088C544.211 91.9863 543.344 92.6928 542.337 93.1301C541.329 93.5673 540.221 93.7182 539.133 93.5662C538.122 93.5417 537.13 93.2838 536.235 92.8126C533.568 91.3634 532.945 88.349 532.641 87.0156C532.235 84.8708 531.786 81.3056 532.612 80.5665Z" fill="#263238"/>
<path d="M571.321 79.3926L588.712 83.291C587.142 83.6952 585.744 84.5948 584.726 85.8562L571.306 83.3055L571.321 79.3926Z" fill="#263238"/>
<path d="M554.901 88.291C555.155 89.6641 555.77 90.9448 556.683 92.001C557.402 92.7531 558.273 93.3437 559.237 93.7334C560.202 94.1232 561.238 94.3034 562.278 94.2619C563.307 94.3583 564.343 94.186 565.286 93.7617C566.228 93.3375 567.044 92.6759 567.654 91.8416C567.716 91.7651 567.769 91.6826 567.814 91.5952C567.88 91.5224 567.934 91.4392 567.973 91.3489C567.973 91.2764 568.06 91.204 568.118 91.117L568.234 90.8996C568.234 90.8996 568.234 90.7982 568.234 90.7402C568.27 90.6932 568.295 90.6387 568.306 90.5808C568.359 90.5062 568.399 90.4228 568.422 90.3344C568.524 90.0735 568.611 89.8272 568.698 89.5808C568.755 89.4352 568.798 89.2849 568.828 89.1315C568.903 88.8993 568.961 88.662 569.002 88.4214C569.015 88.374 569.015 88.3239 569.002 88.2765C569.002 88.2765 569.002 88.1895 569.002 88.146C569.393 86.378 569.872 82.8418 569.002 82.0302C568.133 81.2187 565.799 80.2767 561.988 80.581H561.567C560.988 80.581 560.394 80.7259 559.828 80.8274L559.147 80.9723C558.567 81.1047 557.996 81.2741 557.437 81.4795C557.263 81.4795 557.075 81.5955 556.915 81.6679C556.731 81.7595 556.543 81.8418 556.35 81.9143H556.249C556.173 81.9472 556.101 81.986 556.031 82.0302C555.59 82.2376 555.199 82.5393 554.886 82.9143C554.234 83.9288 554.466 86.2765 554.901 88.291Z" fill="#37474F"/>
<path d="M533.075 50.7121C533.075 50.5237 533.075 50.3208 533.148 50.1179C533.172 49.7434 533.308 49.3848 533.539 49.0889C534.336 48.2628 535.93 50.3497 536.438 50.828C536.98 51.3006 537.546 51.7456 538.133 52.1613C538.687 52.4367 539.219 52.7515 539.727 53.1033C539.372 51.1337 539.372 49.1165 539.727 47.1469C539.974 45.8426 540.336 42.7992 541.959 42.4948C542.916 42.2919 543.756 43.1035 544.466 43.7702C550.945 49.828 559.408 47.031 567.205 47.2773C573.741 47.4802 581.611 50.1758 584.596 56.4945C585.944 59.393 586.176 62.4509 583.509 64.4509C581.799 65.7552 580.118 65.6972 579.161 67.7697C578.929 68.2769 577.437 74.4507 578.321 74.3927C576.72 74.5559 575.113 74.1459 573.786 73.2357C572.459 72.3255 571.499 70.974 571.075 69.4218C570.915 68.7406 570.553 67.5088 570.408 66.8132C570.372 66.6093 570.293 66.4154 570.176 66.2445C570.059 66.0737 569.907 65.9299 569.73 65.8228C569.553 65.7157 569.355 65.6478 569.149 65.6236C568.944 65.5995 568.735 65.6196 568.538 65.6827C566.553 66.1175 565.263 66.9291 563.394 67.4363C558.055 68.9717 552.442 69.3033 546.959 68.4073C543.034 67.6622 539.432 65.7298 536.641 62.8712C535.224 61.2097 534.174 59.2677 533.559 57.1724C532.945 55.077 532.78 52.8756 533.075 50.7121Z" fill="#263238"/>
<path d="M558.539 76.1898L564.336 77.0738C564.437 76.298 564.234 75.5132 563.769 74.8837C563.304 74.2543 562.614 73.8291 561.843 73.6971C561.462 73.6399 561.073 73.6593 560.699 73.7542C560.326 73.8491 559.975 74.0175 559.667 74.2496C559.36 74.4817 559.101 74.7729 558.907 75.106C558.714 75.4392 558.588 75.8076 558.539 76.1898Z" fill="#263238"/>
<path d="M557.205 102.827L552.379 104.088C552.447 104.409 552.58 104.714 552.768 104.983C552.956 105.253 553.197 105.481 553.475 105.656C553.754 105.83 554.065 105.947 554.389 105.999C554.714 106.05 555.046 106.036 555.365 105.957C556.016 105.774 556.571 105.345 556.914 104.762C557.257 104.179 557.361 103.485 557.205 102.827Z" fill="#F28F8F"/>
<path d="M536.829 76.523L542.626 75.8853C542.603 75.5052 542.502 75.1336 542.331 74.7934C542.16 74.4531 541.922 74.1511 541.63 73.9058C541.339 73.6605 541.001 73.477 540.636 73.3663C540.272 73.2557 539.889 73.2203 539.51 73.2622C538.731 73.3603 538.019 73.7528 537.521 74.3592C537.022 74.9656 536.775 75.7398 536.829 76.523Z" fill="#263238"/>
<path d="M550.887 84.4939L550.104 98.0153L542.568 96.0443L550.09 84.3344C550.364 84.3255 550.637 84.38 550.887 84.4939Z" fill="#F28F8F"/>
<path d="M583.263 93.885C583.26 94.585 583.465 95.2701 583.852 95.8535C584.238 96.4369 584.79 96.8924 585.436 97.1623C586.081 97.4321 586.793 97.5042 587.48 97.3694C588.167 97.2346 588.798 96.899 589.294 96.405C589.79 95.9111 590.128 95.281 590.266 94.5947C590.404 93.9083 590.334 93.1966 590.067 92.5496C589.8 91.9026 589.347 91.3495 588.765 90.9603C588.183 90.5711 587.499 90.3633 586.799 90.3633C586.335 90.3614 585.876 90.4511 585.447 90.6272C585.018 90.8033 584.628 91.0624 584.299 91.3896C583.971 91.7168 583.71 92.1057 583.532 92.5339C583.354 92.9622 583.263 93.4213 583.263 93.885Z" fill="#263238"/>
<path d="M582.886 87.4359C583.189 86.3668 583.724 85.3774 584.451 84.5374C584.82 84.1848 585.261 83.9166 585.744 83.7515C586.227 83.5863 586.74 83.5281 587.248 83.5809C587.248 83.5809 587.35 83.6968 587.248 83.7258C586.857 83.9577 586.581 84.0881 586.19 84.3635C585.8 84.6274 585.44 84.9336 585.118 85.2765C584.834 85.6054 584.604 85.9772 584.437 86.3779C584.228 86.8376 584.092 87.3263 584.031 87.8272C583.936 88.616 584.051 89.4159 584.364 90.146C584.526 90.5507 584.751 90.9273 585.031 91.2619C585.332 91.5072 585.596 91.7953 585.813 92.1169C586.031 92.5662 585.408 93.3343 584.929 93.0734C584.023 92.5038 583.342 91.6385 583.002 90.6242C582.577 89.6108 582.536 88.4774 582.886 87.4359Z" fill="#263238"/>
<path d="M532.655 135.58C527.757 138.797 520.989 142.971 519.337 147.507C517.684 152.043 512.916 178.347 512.395 186.825C516.738 188.871 521.39 190.183 526.162 190.709L532.655 135.58Z" fill="#455A64"/>
<path d="M590.523 123.044C602.929 129.855 615.161 140.029 617.798 143.942C617.798 143.942 610.552 168.101 604.161 179.564C597.77 191.028 594.349 224.926 594.349 224.926C594.349 224.926 550.64 239.418 536.945 240.563C523.249 241.708 521.51 235.882 521.51 235.882C521.51 235.882 521.221 197.984 524.409 172.695C527.597 147.406 526.902 139.884 532.699 135.58C536.452 132.812 552.626 125.798 552.626 125.798V133.044C561.466 133.218 590.523 123.044 590.523 123.044Z" fill="#37474F"/>
<path d="M549.22 136.928C548.418 135.292 548.096 133.463 548.292 131.652L551.945 129V133.594L549.22 136.928Z" fill="#0085A6"/>
<path opacity="0.25" d="M549.22 136.928C548.418 135.292 548.096 133.463 548.292 131.652L551.945 129V133.594L549.22 136.928Z" fill="black"/>
<path d="M556.321 134.13L565.77 128.739L572.872 134.362L558.524 140.319L556.321 134.13Z" fill="#0085A6"/>
<path opacity="0.25" d="M556.321 134.13L565.77 128.739L572.872 134.362L558.524 140.319L556.321 134.13Z" fill="black"/>
<path d="M580.031 112.783V114.696C579.669 116.508 576.103 120.711 567.104 124.739C558.104 128.768 554.365 133.073 554.365 133.073C556.796 133.138 559.202 133.583 561.495 134.391C565.596 135.841 572.408 141.058 574.35 141C576.292 140.942 578.973 135.58 584.06 130.232C588.408 125.739 590.523 122.986 590.523 122.986C590.523 122.986 583.538 112.827 580.031 112.783Z" fill="#455A64"/>
<path d="M554.365 133.073C551.104 133.435 548.046 135.696 547.249 134.522C546.452 133.348 549.22 122.435 554.336 119.116L554.365 133.073Z" fill="#455A64"/>
<path d="M522.771 190.26C522.771 190.26 522.38 197.028 522.278 199.347C522.177 201.665 526.046 241.375 526.046 241.375L512.395 247.172C512.395 247.172 510.742 231.868 510.206 223.346C509.764 214.57 510.157 205.773 511.38 197.071C512.453 189.825 512.829 187.042 512.829 187.042C516.024 188.453 519.356 189.531 522.771 190.26Z" fill="#F28F8F"/>
<path d="M513.496 266.577C513.496 266.577 513.496 267.186 513.496 269.475C513.838 273.307 514.606 277.089 515.786 280.75C516.641 282.895 518.684 287.605 519.757 288.156C520.77 288.721 521.944 288.931 523.09 288.75C525.25 288.547 527.51 289.663 529.554 288.678C530.345 288.246 531.181 287.901 532.046 287.649C533.307 287.345 534.757 287.721 535.887 287.055C536.612 286.634 537.061 285.852 537.771 285.417C538.814 284.779 540.191 285.011 541.307 284.504C541.746 284.279 542.136 283.969 542.452 283.59C542.768 283.212 543.005 282.773 543.148 282.301C543.785 280.388 543.148 278.229 542.771 276.316C543.441 275.374 543.782 274.239 543.742 273.084C543.784 270.608 543.497 268.137 542.887 265.736C542.409 264.287 532.496 258.649 532.496 258.649L530.539 257.36C526.38 256.433 522.025 257.133 518.366 259.316C512.554 263.012 513.496 266.577 513.496 266.577Z" fill="#FFA8A7"/>
<path d="M516.177 266.301C513.554 270.649 515.09 278.49 515.105 278.577C514.283 275.61 513.745 272.572 513.496 269.504C513.496 267.186 513.496 266.606 513.496 266.606C513.496 266.606 512.554 262.983 518.293 259.36C521.952 257.177 526.308 256.477 530.467 257.403C530.467 257.403 518.8 261.91 516.177 266.301Z" fill="#F28F8F"/>
<path d="M542.698 276.272C541.774 273.445 540.345 270.808 538.481 268.49C537.38 267.476 536.452 266.186 537.553 266.62C538.655 267.055 540.191 267.302 540.8 266.533C541.408 265.765 541.539 267.099 540.8 268.142C540.061 269.186 540.684 269.983 541.481 271.693C542.093 273.157 542.502 274.698 542.698 276.272Z" fill="#F28F8F"/>
<path d="M614.016 144.42C618.146 145.869 618.697 157.174 617.798 167.318C616.9 177.463 608.987 201.448 605.378 209.796C601.335 219.172 598.886 224.578 596.19 227.52C593.494 230.462 587.857 232.882 580.64 236.621C574.118 239.998 569.654 241.708 558.524 245.157C545.974 249.056 541.133 249.287 538.467 251.157C535.8 253.027 535.046 257.084 532.423 258.606L530.467 257.316C526.055 258.376 521.842 260.137 517.989 262.534C516.263 263.604 514.741 264.973 513.496 266.577V269.475C513.496 269.475 510.322 270.809 507.627 265.128C504.931 259.447 503.699 250.925 506.801 247.201C509.902 243.476 519.728 238.375 527.699 235.882C535.67 233.389 539.626 230.781 548.93 225.158C558.843 219.172 565.727 215.187 570.669 212.491C572.538 211.404 573.799 210.085 574.64 206.694C575.306 203.97 577.292 195.912 578.509 189.854C580.451 179.724 584.813 149.087 614.016 144.42Z" fill="#FFA8A7"/>
<path d="M617.798 143.942C617.798 143.942 619.726 144.275 619.987 152.304C620.33 159.901 619.966 167.513 618.9 175.043C617.842 181.202 611.653 199.39 611.653 199.39C611.653 199.39 593.871 205.187 575.669 198.274C575.669 198.274 579.944 172.043 581.553 165.086C583.161 158.13 605.697 136.667 617.798 143.942Z" fill="#455A64"/>
<path d="M554.872 144.464C553.858 150.985 552.466 166.478 552.466 188.347C552.466 193.709 544.64 204.593 542.8 204.361C540.959 204.129 537.582 193.897 537.104 187.955C537.843 173.579 546.539 151.275 550.336 143.652L554.872 144.464Z" fill="#0085A6"/>
<path opacity="0.15" d="M550.046 144.275C550.131 144.062 550.228 143.854 550.336 143.652L554.872 144.464L554.597 146.377C552.89 146.195 551.291 145.457 550.046 144.275Z" fill="black"/>
<path d="M556.321 134.131C554.896 133.795 553.438 133.62 551.973 133.609C550.818 134.508 549.87 135.645 549.191 136.942C549.063 139.234 549.444 141.525 550.307 143.652C550.958 144.11 551.702 144.419 552.485 144.56C553.269 144.7 554.073 144.667 554.843 144.464C556.44 143.47 557.71 142.029 558.495 140.319C558.606 138.051 557.826 135.831 556.321 134.131Z" fill="#0085A6"/>
</svg>
