<svg width="56" height="56" viewBox="0 0 56 56" fill="none" xmlns="http://www.w3.org/2000/svg">
<path d="M33.2499 5.25C23.6039 5.25 15.7499 13.104 15.7499 22.75C15.7499 26.9412 17.2199 30.7825 19.6874 33.7977L5.7417 47.74L8.25995 50.26L22.2039 36.3142C25.3181 38.8674 29.223 40.2587 33.2499 40.25C42.896 40.25 50.75 32.396 50.75 22.75C50.75 13.104 42.896 5.25 33.2499 5.25ZM33.2499 8.75C41.0024 8.75 47.25 14.9975 47.25 22.75C47.25 30.5025 41.0024 36.75 33.2499 36.75C25.4974 36.75 19.2499 30.5025 19.2499 22.75C19.2499 14.9975 25.4974 8.75 33.2499 8.75Z" fill="white"/>
</svg>
