<svg width="56" height="56" viewBox="0 0 56 56" fill="none" xmlns="http://www.w3.org/2000/svg">
<path d="M28 7C16.4203 7 7 16.4203 7 28C7 39.5798 16.4203 49 28 49C35.0875 49 41.37 45.479 45.1728 40.0855L42.329 38.0625C40.7148 40.3632 38.5694 42.2405 36.0749 43.5353C33.5805 44.8301 30.8105 45.504 28 45.5C18.3138 45.5 10.5 37.6863 10.5 28C10.5 18.3138 18.3138 10.5 28 10.5C30.8104 10.4967 33.5801 11.171 36.0744 12.4657C38.5688 13.7604 40.7143 15.6374 42.329 17.9375L45.1728 15.9145C43.2361 13.1592 40.6646 10.9107 37.6756 9.35908C34.6865 7.80744 31.3678 6.99828 28 7ZM40.852 19.7418L38.3355 22.2583L42.329 26.25H21V29.75H42.329L38.3355 33.7418L40.852 36.2583L47.852 29.2583L49.0525 28L47.8503 26.7418L40.852 19.7418Z" fill="white"/>
</svg>
