<svg width="56" height="56" viewBox="0 0 56 56" fill="none" xmlns="http://www.w3.org/2000/svg">
<path d="M28 8.75C21.2537 8.75 15.75 14.2537 15.75 21C15.75 25.2175 17.9025 28.9625 21.1645 31.1727C14.9222 33.8503 10.5 40.0452 10.5 47.25H14C14 39.4975 20.2475 33.25 28 33.25C35.7525 33.25 42 39.4975 42 47.25H45.5C45.5 40.0452 41.0777 33.852 34.8355 31.171C36.5004 30.0471 37.8644 28.5323 38.8083 26.7592C39.7522 24.9861 40.2472 23.0087 40.25 21C40.25 14.2537 34.7463 8.75 28 8.75ZM28 12.25C32.8528 12.25 36.75 16.1473 36.75 21C36.75 25.8528 32.8528 29.75 28 29.75C23.1473 29.75 19.25 25.8528 19.25 21C19.25 16.1473 23.1473 12.25 28 12.25Z" fill="white"/>
</svg>
